<svg viewBox="0 0 800 800" xmlns="http://www.w3.org/2000/svg"><path d="M599.0547628577876,465.86624104425135 L545.6269632535098,441.700737309803 M545.6269632535098,441.700737309803 L483.74459382580045,425.6206969002668 M483.74459382580045,425.6206969002668 L417.0010596490187,418.5586629136046 M417.0010596490187,418.5586629136046 L349.2710119009947,420.92414723479516 M349.2710119009947,420.92414723479516 L284.48617685840213,432.57997499356225 M284.48617685840213,432.57997499356225 L226.40790866271968,452.850249191193 M226.40790866271968,452.850249191193 L178.4093903412149,480.55924210295996 M178.4093903412149,480.55924210295996 L143.2801240706006,514.0992169764268 M143.2801240706006,514.0992169764268 L123.06380369987494,551.5232732994216 M123.06380369987494,551.5232732994216 L118.93902485394699,590.657937158885 M118.93902485394699,590.657937158885 L131.150023988846,629.2291665576097 M131.150023988846,629.2291665576097 L158.991343772099,664.9944239988604 M158.991343772099,664.9944239988604 L200.84797942210022,695.8731918606516 M200.84797942210022,695.8731918606516 L254.28844625679554,720.0683805463057 M254.28844625679554,720.0683805463057 L316.20591549294255,736.1713054350785 M316.20591549294255,736.1713054350785 L382.9989410893596,743.2441808915439 M382.9989410893596,743.2441808915439 L450.7815339921118,740.8750113540132 M450.7815339921118,740.8750113540132 L515.6099304686179,729.2018159555107 M515.6099304686179,729.2018159555107 L573.71279696083,708.9044703927061 M573.71279696083,708.9044703927061 L621.7113152783711,681.1649041235667 M621.7113152783711,681.1649041235667 L656.8159832479523,647.5978578906138 M656.8159832479523,647.5978578906138 L676.9887421875756,610.1564339227737 M676.9887421875756,610.1564339227737 L681.0609758864725,571.0180848536113 M681.0609758864725,571.0180848536113 L668.800485337872,532.4576969137386 M668.800485337872,532.4576969137386 L640.9240657452258,496.71532395930404 M640.9240657452258,496.71532395930404 L599.0547628577876,465.86624104425135 M206.07544885758796,583.8260828150394 L207.16360394908912,583.0240955423151 M207.16360394908912,583.0240955423151 L207.8879269538677,582.0950510904909 M207.8879269538677,582.0950510904909 L208.20633625496745,581.0929446514997 M208.20633625496745,581.0929446514997 L208.10030389682757,580.0760094575644 M208.10030389682757,580.0760094575644 L207.57602408586138,579.1033550242464 M207.57602408586138,579.1033550242464 L206.6639392259332,578.2315014588601 M206.6639392259332,578.2315014588601 L205.4170792673128,577.5111169115507 M205.4170792673128,577.5111169115507 L203.9079011936642,576.9840622907736 M203.9079011936642,576.9840622907736 L202.22411282684865,576.6809789358315 M202.22411282684865,576.6809789358315 L200.46355688040532,576.6194629944132 M200.46355688040532,576.6194629944132 L198.72856326912554,576.8031060653461 M198.72856326912554,576.8031060653461 L197.11994997129537,577.2212210755597 M197.11994997129537,577.2212210755597 L195.73120376568474,577.8495165934166 M195.73120376568474,577.8495165934166 L194.6430401310477,578.6514838233604 M194.6430401310477,578.6514838233604 L193.91869343491507,579.5805128239747 M193.91869343491507,579.5805128239747 L193.6002507217053,580.5826119429978 M193.6002507217053,580.5826119429978 L193.7062476010139,581.5995496251157 M193.7062476010139,581.5995496251157 L194.23049799446602,582.572215784726 M194.23049799446602,582.572215784726 L195.14256623735875,583.4440876281801 M195.14256623735875,583.4440876281801 L196.38942618605407,584.1644928180533 M196.38942618605407,584.1644928180533 L197.89862085916167,584.6915657170653 M197.89862085916167,584.6915657170653 L199.58243863221523,584.9946607981508 M199.58243863221523,584.9946607981508 L201.34303005509713,585.0561792279202 M201.34303005509713,585.0561792279202 L203.0780570855259,584.8725288368578 M203.0780570855259,584.8725288368578 L204.6866940895682,584.4543983755555 M204.6866940895682,584.4543983755555 L206.07544885758796,583.8260828150394 M394.8345050921925,468.8528866040433 L396.2225722734052,469.4808533204559 M396.2225722734052,469.4808533204559 L397.83056167058663,469.89875163323376 M397.83056167058663,469.89875163323376 L399.56501870982714,470.0823000604305 M399.56501870982714,470.0823000604305 L401.325150889154,470.0208157860899 M401.325150889154,470.0208157860899 L403.0086468537889,469.71788898527285 M403.0086468537889,469.71788898527285 L404.5176758621163,469.19110872010947 M404.5176758621163,469.19110872010947 L405.7645359119399,468.4711035026622 M405.7645359119399,468.4711035026622 L406.67677001514403,467.599715725718 M406.67677001514403,467.599715725718 L407.2013423929528,466.62758959279694 M407.2013423929528,466.62758959279694 L407.3077986609756,465.61121651567254 M407.3077986609756,465.61121651567254 L406.98992604469015,464.6096737618996 M406.98992604469015,464.6096737618996 L406.2662270161911,463.6811605568169 M406.2662270161911,463.6811605568169 L405.17875098190785,462.8796385769667 M405.17875098190785,462.8796385769667 L403.7906923487193,462.2516918865241 M403.7906923487193,462.2516918865241 L402.18272663716334,461.83380901196887 M402.18272663716334,461.83380901196887 L400.44830299499995,461.65026789880636 M400.44830299499995,461.65026789880636 L398.6882062736108,461.71174968686785 M398.6882062736108,461.71174968686785 L397.0047397045224,462.0146647713058 M397.0047397045224,462.0146647713058 L395.4957272952214,462.5414267734541 M395.4957272952214,462.5414267734541 L394.2488672453978,463.26141136552644 M394.2488672453978,463.26141136552644 L393.33661654316734,464.1327808796227 M393.33661654316734,464.1327808796227 L392.81201476981204,465.10489529601585 M392.81201476981204,465.10489529601585 L392.7055230438515,466.12126588702944 M392.7055230438515,466.12126588702944 L393.02336226305977,467.1228159546752 M393.02336226305977,467.1228159546752 L393.7470376059334,468.0513445981019 M393.7470376059334,468.0513445981019 L394.8345050921925,468.8528866040433 M405.18162450171377,692.8832698519022 L403.7927946843723,692.2546252158875 M403.7927946843723,692.2546252158875 L402.18393561548413,691.8362778765331 M402.18393561548413,691.8362778765331 L400.44854836037854,691.6525327628494 M400.44854836037854,691.6525327628494 L398.68747376300576,691.7140828860906 M398.68747376300576,691.7140828860906 L397.0030718909209,692.0173346517886 M397.0030718909209,692.0173346517886 L395.49322109942904,692.5446821350884 M395.49322109942904,692.5446821350884 L394.2456683110924,693.2654669709932 M394.2456683110924,693.2654669709932 L393.33291077014525,694.1378049911218 M393.33291077014525,694.1378049911218 L392.8080175269976,695.1109998914651 M392.8080175269976,695.1109998914651 L392.70146662582476,696.1285001589158 M392.70146662582476,696.1285001589158 L393.01948242290473,697.1311634329863 M393.01948242290473,697.1311634329863 L393.74355982338886,698.0607241231337 M393.74355982338886,698.0607241231337 L394.8316314894412,698.8631570337711 M394.8316314894412,698.8631570337711 L396.2204698643077,699.4918217291531 M396.2204698643077,699.4918217291531 L397.82935264514754,699.910184532476 M397.82935264514754,699.910184532476 L399.5647733344505,700.0939369723915 M399.5647733344505,700.0939369723915 L401.3258834291719,700.0323843587248 M401.3258834291719,700.0323843587248 L403.0103147294758,699.7291208571085 M403.0103147294758,699.7291208571085 L404.52018213844354,699.2017550803366 M404.52018213844354,699.2017550803366 L405.76773492678024,698.4809495846605 M405.76773492678024,698.4809495846605 L406.6804758502515,697.6085932712269 M406.6804758502515,697.6085932712269 L407.20533966517996,696.6353866348163 M407.20533966517996,696.6353866348163 L407.3118550690043,695.6178838771086 M407.3118550690043,695.6178838771086 L406.993805837727,694.6152279291084 M406.993805837727,694.6152279291084 L406.2697047252911,693.685682703051 M406.2697047252911,693.685682703051 L405.18162450171377,692.8832698519022 M593.9350829488724,577.8495165934166 L592.8476904934425,578.6514838233604 M592.8476904934425,578.6514838233604 L592.1242371603073,579.5805128239747 M592.1242371603073,579.5805128239747 L591.8067580750057,580.5826119429978 M591.8067580750057,580.5826119429978 L591.913732851124,581.599549625116 M591.913732851124,581.599549625116 L592.4389185694747,582.572215784726 M592.4389185694747,582.572215784726 L593.3518252125066,583.4440876281801 M593.3518252125066,583.4440876281801 L594.5993779095868,584.1644928180533 M594.5993779095868,584.1644928180533 L596.1090794209358,584.6915657170653 M596.1090794209358,584.6915657170653 L597.793188653061,584.9946607981508 M597.793188653061,584.9946607981508 L599.5538392326418,585.0561792279202 M599.5538392326418,585.0561792279202 L601.2886896631326,584.8725288368578 M601.2886896631326,584.8725288368578 L602.896924589003,584.4543983755555 M602.896924589003,584.4543983755555 L604.2850751628889,583.8260828150394 M604.2850751628889,583.8260828150394 L605.3724590559093,583.0240955423151 M605.3724590559093,583.0240955423151 L606.0958886828325,582.0950510904909 M606.0958886828325,582.0950510904909 L606.413334348985,581.0929446514997 M606.413334348985,581.0929446514997 L606.3063240964282,580.0760094575644 M606.3063240964282,580.0760094575644 L605.7811089718396,579.1033550242464 M605.7811089718396,579.1033550242464 L604.8681857293486,578.2315014588601 M604.8681857293486,578.2315014588601 L603.6206330421935,577.5111169115507 M603.6206330421935,577.5111169115507 L602.11094814788,576.9840622907736 M602.11094814788,576.9840622907736 L600.4268683332687,576.6809789358315 M600.4268683332687,576.6809789358315 L598.6662532325195,576.6194629944132 M598.6662532325195,576.6194629944132 L596.9314362141383,576.8031060653461 M596.9314362141383,576.8031060653461 L595.3232249796222,577.2212210755597 M595.3232249796222,577.2212210755597 L593.9350829488724,577.8495165934166 M599.0547628577876,465.86624104425135 L599.0602893618691,442.8834228001429 M599.0602893618691,442.8834228001429 L640.930755235001,473.7316496449358 M640.930755235001,473.7316496449358 L668.8079495091656,509.473030898632 M668.8079495091656,509.473030898632 L681.0687812478104,548.0323491418342 M681.0687812478104,548.0323491418342 L676.9964351830417,587.1696126851546 M676.9964351830417,587.1696126851546 L656.8231166031526,624.6099983846896 M656.8231166031526,624.6099983846896 L621.7174740354153,658.1761139475059 M621.7174740354153,658.1761139475059 L573.7176226850995,685.9149112315697 M573.7176226850995,685.9149112315697 L515.6131421964551,706.2116941849306 M515.6131421964551,706.2116941849306 L450.78294467592156,717.8845660464492 M450.78294467592156,717.8845660464492 L382.9984685591668,720.2536699217601 M382.9984685591668,720.2536699217601 L316.20358727384667,713.1809904943173 M316.20358727384667,713.1809904943173 L254.2843979546884,697.0785119328787 M254.2843979546884,697.0785119328787 L200.8424467753244,672.8839939345112 M200.8424467753244,672.8839939345112 L158.98464884323985,642.0060821419506 M158.98464884323985,642.0060821419506 L131.14255632810608,606.2418164006444 M131.14255632810608,606.2418164006444 L118.93121875218964,567.6716566982141 M118.93121875218964,567.6716566982141 L123.05611288263702,528.5380783647204 M123.05611288263702,528.5380783647204 L143.27299531327117,491.1150603106334 M143.27299531327117,491.1150603106334 L178.40323754836737,457.5760161082426 M178.40323754836737,457.5760161082426 L226.40308890264737,429.8677921826121 M226.40308890264737,429.8677921826121 L284.4829697284367,409.59808059536465 M284.4829697284367,409.59808059536465 L349.26960339541375,397.94257637418417 M349.26960339541375,397.94257637418417 L417.00153143879174,395.5771577153413 M417.00153143879174,395.5771577153413 L483.74691855544916,402.6389956726046 M483.74691855544916,402.6389956726046 L545.6310061165323,418.71858975401244 M545.6310061165323,418.71858975401244 L599.0602893618691,442.8834228001429 M206.07345566047584,575.3195721007869 L204.68468661598868,575.9478812121877 M204.68468661598868,575.9478812121877 L203.0760330765382,576.3660073817534 M203.0760330765382,576.3660073817534 L201.3409882128009,576.5496558878112 M201.3409882128009,576.5496558878112 L199.5803786950662,576.4881380894726 M199.5803786950662,576.4881380894726 L197.8965436174476,576.1850461193851 M197.8965436174476,576.1850461193851 L196.3873334356858,575.6579786303125 M196.3873334356858,575.6579786303125 L195.14046067559602,574.9375808347872 M195.14046067559602,574.9375808347872 L194.22838306305877,574.065717940392 M194.22838306305877,574.065717940392 L193.70412728643322,573.0930617644572 M193.70412728643322,573.0930617644572 L193.5981293229195,572.076134520478 M193.5981293229195,572.076134520478 L193.91657531413776,571.0740456873368 M193.91657531413776,571.0740456873368 L194.6409294596604,570.1450262226329 M194.6409294596604,570.1450262226329 L195.72910428221277,569.3430672244231 M195.72910428221277,569.3430672244231 L197.11786476411476,568.7147781556816 M197.11786476411476,568.7147781556816 L198.72649459686573,568.2966674372046 M198.72649459686573,568.2966674372046 L200.461506040767,568.1130262512768 M200.461506040767,568.1130262512768 L202.22208008133396,568.1745415612643 M202.22208008133396,568.1745415612643 L203.9058857521101,568.4776218052082 M203.9058857521101,568.4776218052082 L205.41507933407183,569.0046710160454 M205.41507933407183,569.0046710160454 L206.66195210408696,569.7250481690066 M206.66195210408696,569.7250481690066 L207.5740463340013,570.5968927853339 M207.5740463340013,570.5968927853339 L208.09833152874563,571.5695372349765 M208.09833152874563,571.5695372349765 L208.20436497181987,572.5864619907727 M208.20436497181987,572.5864619907727 L207.88595239339847,573.5885581438822 M207.88595239339847,573.5885581438822 L207.16162193971684,574.5175930597964 M207.16162193971684,574.5175930597964 L206.07345566047584,575.3195721007869 M206.07345566047584,575.3195721007869 L206.07544885758796,583.8260828150394 M394.8344519482335,460.34755632000366 L393.7469732883679,459.54602254580004 M393.7469732883679,459.54602254580004 L393.02329050990375,458.61750343828817 M393.02329050990375,458.61750343828817 L392.7054480250918,457.6159636565293 M392.7054480250918,457.6159636565293 L392.8119408454294,456.5996035036598 M392.8119408454294,456.5996035036598 L393.3365480091813,455.6274990709471 M393.3365480091813,455.6274990709471 L394.24880808480754,454.7561385059141 M394.24880808480754,454.7561385059141 L395.4956809460287,454.03616130819347 M395.4956809460287,454.03616130819347 L397.00470886023874,453.50940471598744 M397.00470886023874,453.50940471598744 L398.68819272667434,453.20649274254924 M398.68819272667434,453.20649274254924 L400.44830753274886,453.1450115859188 M400.44830753274886,453.1450115859188 L402.1827489958191,453.32855081407547 M402.1827489958191,453.32855081407547 L403.79073122898575,453.74642939689215 M403.79073122898575,453.74642939689215 L405.17880412433334,454.374369638216 M405.17880412433334,454.374369638216 L406.2662913323987,455.1758833863283 M406.2662913323987,455.1758833863283 L406.9899977969751,456.10438705549626 M406.9899977969751,456.10438705549626 L407.30787367955037,457.1059195233821 M407.30787367955037,457.1059195233821 L407.20141631787925,458.1222821623624 M407.20141631787925,458.1222821623624 L406.676838550278,459.094398311603 M406.676838550278,459.094398311603 L405.76459507401916,459.9657771394839 M405.76459507401916,459.9657771394839 L404.517722212798,460.6857749625799 M404.517722212798,460.6857749625799 L403.00867769922047,461.2125498178009 M403.00867769922047,461.2125498178009 L401.3251644366343,461.5154735076183 M401.3251644366343,461.5154735076183 L399.5650141718934,461.57695715052785 M399.5650141718934,461.57695715052785 L397.8305393110596,461.3934106083369 M397.8305393110596,461.3934106083369 L396.22253339178076,460.9755165872976 M396.22253339178076,460.9755165872976 L394.8344519482335,460.34755632000366 M394.8344519482335,460.34755632000366 L394.8345050921925,468.8528866040433 M405.18167770320593,684.3756400535062 L406.26976911298505,685.178044672929 M406.26976911298505,685.178044672929 L406.9938776697634,686.1075803630847 M406.9938776697634,686.1075803630847 L407.3119301709612,687.110226025213 M407.3119301709612,687.110226025213 L407.2054136722732,688.1277183447917 M407.2054136722732,688.1277183447917 L406.6805444615617,689.1009149975366 M406.6805444615617,689.1009149975366 L405.7677941546178,689.9732623619198 M405.7677941546178,689.9732623619198 L404.52022854064376,690.6940604632553 M404.52022854064376,690.6940604632553 L403.01034560919203,691.2214208300929 M403.01034560919203,691.2214208300929 L401.3258969917102,691.5246812207142 M401.3258969917102,691.5246812207142 L399.56476879147283,691.5862332029508 M399.56476879147283,691.5862332029508 L397.829330260768,691.4024826480384 M397.829330260768,691.4024826480384 L396.2204309394665,690.9841241364475 M396.2204309394665,690.9841241364475 L394.83157828641293,690.3554658901749 M394.83157828641293,690.3554658901749 L393.7434954343349,689.553041211263 M393.7434954343349,689.553041211263 L393.01941058999574,688.6234900570166 M393.01941058999574,688.6234900570166 L392.7013915236827,687.620837068818 M392.7013915236827,687.620837068818 L392.80794352044916,686.6033472394963 M392.80794352044916,686.6033472394963 L393.3328421599848,685.6301623228192 M393.3328421599848,685.6301623228192 L394.24560908474626,684.757833251741 M394.24560908474626,684.757833251741 L395.4931746987202,684.0370558101772 M395.4931746987202,684.0370558101772 L397.0030410123545,683.509713736812 M397.0030410123545,683.509713736812 L398.6874602010122,683.2064650821094 M398.6874602010122,683.2064650821094 L400.44855290317105,683.1449155902983 M400.44855290317105,683.1449155902983 L402.1839579989911,683.328658818979 M402.1839579989911,683.328658818979 L403.79283360785337,683.7470018666008 M403.79283360785337,683.7470018666008 L405.18167770320593,684.3756400535062 M405.18167770320593,684.3756400535062 L405.18162450171377,692.8832698519022 M593.9370760884512,569.3430672244231 L595.3252323830734,568.7147781556816 M595.3252323830734,568.7147781556816 L596.9334601442458,568.2966674372046 M596.9334601442458,568.2966674372046 L598.6682949916183,568.1130262512768 M598.6682949916183,568.1130262512768 L600.4289281877072,568.1745415612643 M600.4289281877072,568.1745415612643 L602.1130253122701,568.4776218052082 M602.1130253122701,568.4776218052082 L603.6227257253145,569.0046710160454 M603.6227257253145,569.0046710160454 L604.8702912381038,569.7250481690066 M604.8702912381038,569.7250481690066 L605.7832238678143,570.5968927853339 M605.7832238678143,570.5968927853339 L606.3084443954072,571.5695372349765 M606.3084443954072,571.5695372349765 L606.4154557529996,572.5864619907727 M606.4154557529996,572.5864619907727 L606.0980068293336,573.5885581438822 M606.0980068293336,573.5885581438822 L605.3745697718714,574.5175930597964 M605.3745697718714,574.5175930597964 L604.2871747069637,575.3195721007869 M604.2871747069637,575.3195721007869 L602.8990098690301,575.9478812121877 M602.8990098690301,575.9478812121877 L601.2907584160166,576.3660073817534 M601.2907584160166,576.3660073817534 L599.5558901558472,576.5496558878112 M599.5558901558472,576.5496558878112 L597.7952214801978,576.4881380894726 M597.7952214801978,576.4881380894726 L596.1110949375163,576.1850461193851 M596.1110949375163,576.1850461193851 L594.6013779070947,575.6579786303125 M594.6013779070947,575.6579786303125 L593.3538123843798,574.9375808347872 M593.3538123843798,574.9375808347872 L592.4408963544695,574.065717940392 M592.4408963544695,574.065717940392 L591.9157052337191,573.0930617644572 M591.9157052337191,573.0930617644572 L591.8087293532944,572.076134520478 M591.8087293532944,572.076134520478 L592.1262116967964,571.0740456873368 M592.1262116967964,571.0740456873368 L592.8496724609581,570.1450262226329 M592.8496724609581,570.1450262226329 L593.9370760884512,569.3430672244231 M593.9370760884512,569.3430672244231 L593.9350829488724,577.8495165934166 M214.22049581256348,565.5487838507527 L210.64328978019927,567.1671768445538 M210.64328978019927,567.1671768445538 L206.49967683221755,568.2441876806597 M206.49967683221755,568.2441876806597 L202.03046033566062,568.7172143434318 M202.03046033566062,568.7172143434318 L197.49542266565643,568.5587672637721 M197.49542266565643,568.5587672637721 L193.15812781514458,567.7780608489741 M193.15812781514458,567.7780608489741 L189.2706582224541,566.4204592008834 M189.2706582224541,566.4204592008834 L186.05896126601397,564.5648803143426 M186.05896126601397,564.5648803143426 L183.7096800687796,562.319170184013 M183.7096800687796,562.319170184013 L182.35935204169598,559.8138588284235 M182.35935204169598,559.8138588284235 L182.08641177991785,557.1945512977495 M182.08641177991785,557.1945512977495 L182.90670947288902,554.6134643757307 M182.90670947288902,554.6134643757307 L184.77256239708058,552.2206139360612 M184.77256239708058,552.2206139360612 L187.57551828765645,550.1550423928556 M187.57551828765645,550.1550423928556 L191.15266751005188,548.5367823732672 M191.15266751005188,548.5367823732672 L195.2961231703867,547.4598740484973 M195.2961231703867,547.4598740484973 L199.76511793334413,546.9868959498906 M199.76511793334413,546.9868959498906 L204.2999202217647,547.1453265215764 M204.2999202217647,547.1453265215764 L208.63701996467157,547.9259551384725 M208.63701996467157,547.9259551384725 L212.52437942086914,549.2834355199511 M212.52437942086914,549.2834355199511 L215.7360764431629,551.1388774527416 M215.7360764431629,551.1388774527416 L218.08546789351118,553.3844663163393 M218.08546789351118,553.3844663163393 L219.4359911030174,555.8896998733428 M219.4359911030174,555.8896998733428 L219.7091667622546,558.5089908960681 M219.7091667622546,558.5089908960681 L218.8890907561788,561.0901263826809 M218.8890907561788,561.0901263826809 L217.0233950210502,563.483079333543 M217.0233950210502,563.483079333543 L214.22049581256348,565.5487838507527 M456.7482104773654,525.0792862756516 L468.68000714258056,533.874052695342 M468.68000714258056,533.874052695342 L476.62143082540734,544.0626774786313 M476.62143082540734,544.0626774786313 L480.1107296092334,555.0531869849801 M480.1107296092334,555.0531869849801 L478.94475737996316,566.2069325925668 M478.94475737996316,566.2069325925668 L473.19091862225616,576.8756726238475 M473.19091862225616,576.8756726238475 L463.18330174492087,586.439255868949 M463.18330174492087,586.439255868949 L449.5033431682608,594.3416963881771 M449.5033431682608,594.3416963881771 L432.94607373296367,600.1235199163677 M432.94607373296367,600.1235199163677 L414.4739078314373,603.4485192950367 M414.4739078314373,603.4485192950367 L395.16068704141793,604.1233377289361 M395.16068704141793,604.1233377289361 L376.129192204546,602.1087274075378 M376.129192204546,602.1087274075378 L358.48580052420823,597.5218553566544 M358.48580052420823,597.5218553566544 L343.2561371805827,590.6294422102405 M343.2561371805827,590.6294422102405 L331.32536946771285,581.8322646313343 M331.32536946771285,581.8322646313343 L323.3867969252869,571.6417810555793 M323.3867969252869,571.6417810555793 L319.90151830443835,560.6503909517301 M319.90151830443835,560.6503909517301 L321.071758750911,549.4969446753212 M321.071758750911,549.4969446753212 L326.82913598218397,538.8296153310512 M326.82913598218397,538.8296153310512 L336.8387509669985,529.2682309569664 M336.8387509669985,529.2682309569664 L350.5187095436847,521.3682737584293 M350.5187095436847,521.3682737584293 L367.0739808715323,515.5886491016643 M367.0739808715323,515.5886491016643 L385.54260829947424,512.2650604099913 M385.54260829947424,512.2650604099913 L404.8515608722403,511.5905413075463 M404.8515608722403,511.5905413075463 L423.8790355460956,513.6042710298309 M423.8790355460956,513.6042710298309 L441.51957608603885,518.1892842896928 M441.51957608603885,518.1892842896928 L456.7482104773654,525.0792862756516 M386.6839279927836,450.57616305030166 L383.8827999993957,448.5116054642501 M383.8827999993957,448.5116054642501 L382.0187725659941,446.1199811339658 M382.0187725659941,446.1199811339658 L381.20016500132334,443.5402787424468 M381.20016500132334,443.5402787424468 L381.4745239041814,440.9224419903599 M381.4745239041814,440.9224419903599 L382.82587641223387,438.41859936893314 M382.82587641223387,438.41859936893314 L385.17569502636167,436.17425727592996 M385.17569502636167,436.17425727592996 L388.3873922634503,434.3198454956432 M388.3873922634503,434.3198454956432 L392.2743249786043,432.96311879250214 M392.2743249786043,432.96311879250214 L396.6105958242457,432.18292358250284 M396.6105958242457,432.18292358250284 L401.1442152319473,432.02458097175395 M401.1442152319473,432.02458097175395 L405.6117418582911,432.49729647197404 M405.6117418582911,432.49729647197404 L409.75352944187244,433.5736068939686 M409.75352944187244,433.5736068939686 L413.32890757282604,435.19096844775237 M413.32890757282604,435.19096844775237 L416.13009228073673,437.25539317052846 M416.13009228073673,437.25539317052846 L417.99427686519175,439.6469150749821 M417.99427686519175,439.6469150749821 L418.81310601701296,442.2265689423475 M418.81310601701296,442.2265689423475 L418.53898237298415,444.84442218863666 M418.53898237298415,444.84442218863666 L417.18782490159754,447.3483425438656 M417.18782490159754,447.3483425438656 L414.8381164210913,449.5928058026209 M414.8381164210913,449.5928058026209 L411.62641918400277,451.4473544226153 M411.62641918400277,451.4473544226153 L407.7393763352273,452.8042022913888 M407.7393763352273,452.8042022913888 L403.4029104529199,453.5844752345069 M403.4029104529199,453.5844752345069 L398.86905578638897,453.7428343394834 M398.86905578638897,453.7428343394834 L394.4013075728946,453.27007031553796 M394.4013075728946,453.27007031553796 L390.2593628382599,452.1936574675695 M390.2593628382599,452.1936574675695 L386.6839279927836,450.57616305030166 M413.33630929770715,665.1829894031926 L416.139050364802,667.249708722708 M416.139050364802,667.249708722708 L418.0042707373505,669.6438888049404 M418.0042707373505,669.6438888049404 L418.82355489375806,672.2264099760846 M418.82355489375806,672.2264099760846 L418.54927901151575,674.8471730033182 M418.54927901151575,674.8471730033182 L417.1973708887439,677.353876518702 M417.1973708887439,677.353876518702 L414.84635693645987,679.6008345599103 M414.84635693645987,679.6008345599103 L411.6328752744276,681.4574445717597 M411.6328752744276,681.4574445717597 L407.7436727468193,682.8158006274705 M407.7436727468193,682.8158006274705 L403.40479746180665,683.596940875264 M403.40479746180665,683.596940875264 L398.8684237118146,683.7554760029377 M398.8684237118146,683.7554760029377 L394.3981931475276,683.2821864824189 M394.3981931475276,683.2821864824189 L390.25394709702954,682.2045771597295 M390.25394709702954,682.2045771597295 L386.6765257175545,680.5852848403993 M386.6765257175545,680.5852848403993 L383.8738414280212,678.518432436028 M383.8738414280212,678.518432436028 L382.0087783812016,676.1241497571461 M382.0087783812016,676.1241497571461 L381.18971605824123,673.541579980923 M381.18971605824123,673.541579980923 L381.4642274608059,670.9208334753994 M381.4642274608059,670.9208334753994 L382.8163308370293,668.4142078234572 M382.8163308370293,668.4142078234572 L385.1674550453498,666.167371150073 M385.1674550453498,666.167371150073 L388.3809367073821,664.3108982061431 M388.3809367073821,664.3108982061431 L392.2700289789541,662.9526635181367 M392.2700289789541,662.9526635181367 L396.6087090105151,662.1716011330998 M396.6087090105151,662.1716011330998 L401.14484724018473,662.0130825271617 M401.14484724018473,662.0130825271617 L405.61485597102427,662.4863234430304 M405.61485597102427,662.4863234430304 L409.75894469579356,663.5638301689269 M409.75894469579356,663.5638301689269 L413.33630929770715,665.1829894031926 M585.785928297569,550.1550423928556 L589.361521256355,548.5367823732672 M589.361521256355,548.5367823732672 L593.5039412653014,547.4598740484976 M593.5039412653014,547.4598740484976 L597.9724811702049,546.9868959498906 M597.9724811702049,546.9868959498906 L602.5074358196368,547.1453265215764 M602.5074358196368,547.1453265215764 L606.8452862848594,547.9259551384725 M606.8452862848594,547.9259551384725 L610.7339512156361,549.2834355199511 M610.7339512156361,549.2834355199511 L613.9474325968861,551.1388774527418 M613.9474325968861,551.1388774527418 L616.298983606383,553.3844663163393 M616.298983606383,553.3844663163393 L617.6519160726036,555.889699873343 M617.6519160726036,555.889699873343 L617.9276106764182,558.5089908960681 M617.9276106764182,558.5089908960681 L617.1100169211429,561.0901263826809 M617.1100169211429,561.0901263826809 L615.2466224636528,563.4830793335432 M615.2466224636528,563.4830793335432 L612.4457098214343,565.5487838507527 M612.4457098214343,565.5487838507527 L608.8700601805592,567.167176844554 M608.8700601805592,567.167176844554 L604.7274829825506,568.2441876806599 M604.7274829825506,568.2441876806599 L600.2587213907509,568.7172143434318 M600.2587213907509,568.7172143434318 L595.7235313438598,568.5587672637721 M595.7235313438598,568.5587672637721 L591.385485696215,567.7780608489741 M591.385485696215,567.7780608489741 L587.4967105123244,566.4204592008837 M587.4967105123244,566.4204592008837 L584.2832290652211,564.5648803143426 M584.2832290652211,564.5648803143426 L581.931788192217,562.319170184013 M581.931788192217,562.319170184013 L580.5790508336011,559.8138588284235 M580.5790508336011,559.8138588284235 L580.3035916113699,557.1945512977497 M580.3035916113699,557.1945512977497 L581.1214071002448,554.6134643757307 M581.1214071002448,554.6134643757307 L582.9849588453815,552.2206139360612 M582.9849588453815,552.2206139360612 L585.785928297569,550.1550423928556 M206.07345566047584,575.3195721007869 L208.78908028715682,572.0627035319933 M208.78908028715682,572.0627035319933 L211.5047666652016,568.8057777718047 M211.5047666652016,568.8057777718047 L214.22049581256348,565.5487838507527 M394.8344519482335,460.34755632000366 L392.1176660615966,457.09048606548043 M392.1176660615966,457.09048606548043 L389.40081841576387,453.8333586300393 M389.40081841576387,453.8333586300393 L386.6839279927836,450.57616305030166 M405.18167770320593,684.3756400535062 L407.8998739705186,677.9781177873053 M407.8998739705186,677.9781177873053 L410.61809083303757,671.5805639128582 M410.61809083303757,671.5805639128582 L413.33630929770715,665.1829894031926 M593.9370760884512,569.3430672244231 L591.2200410811888,562.9470868832402 M591.2200410811888,562.9470868832402 L588.5029854865434,556.5510749504065 M588.5029854865434,556.5510749504065 L585.785928297569,550.1550423928556 M456.7482104773654,525.0792862756516 L456.7582979549027,377.92897888910596 M450.9192459283845,376.29869012721974 L456.7582979549027,377.92897888910596 M343.2551304072614,379.35361705973884 L358.745743064773,375.2674549214568 M358.745743064773,375.2674549214568 L374.8307268434651,372.6937030153081 M374.8307268434651,372.6937030153081 L390.3764751624555,371.3811038831086 M390.3764751624555,371.3811038831086 L406.30142222668235,371.07413527392606 M406.30142222668235,371.07413527392606 L421.9785224129123,371.78487844950774 M421.9785224129123,371.78487844950774 L436.7904795346897,373.4853646427928 M436.7904795346897,373.4853646427928 L444.10009736366584,374.76882296484126 M444.10009736366584,374.76882296484126 L450.9192459283845,376.29869012721974 M343.24604650850915,443.4674898813854 L331.565517903583,438.0801691065643 M331.565517903583,438.0801691065643 L323.6676988465868,430.418242740877 M323.6676988465868,430.418242740877 L319.9887442320229,420.90530624304495 M319.9887442320229,420.90530624304495 L320.7316029947212,410.06717234848946 M320.7316029947212,410.06717234848946 L325.8548845848545,398.5027834046944 M325.8548845848545,398.5027834046944 L333.2729789459461,388.7716101913287 M333.2729789459461,388.7716101913287 L343.2551304072614,379.35361705973884 M456.767186498558,444.8922408324344 L441.9489523990065,454.4350297875393 M441.9489523990065,454.4350297875393 L424.8124633397882,460.79913832194956 M424.8124633397882,460.79913832194956 L406.30485627475565,463.6327181341565 M406.30485627475565,463.6327181341565 L387.44911581365335,462.7791003646965 M387.44911581365335,462.7791003646965 L369.2874714223518,458.2854765876817 M369.2874714223518,458.2854765876817 L355.4096575359244,451.9336789784767 M355.4096575359244,451.9336789784767 L343.24604650850915,443.4674898813854 M462.0502577719285,382.7244064211857 L472.5630106893365,395.2014416959969 M472.5630106893365,395.2014416959969 L478.3197055142746,406.5406327320931 M478.3197055142746,406.5406327320931 L480.2515631199495,416.361743769172 M480.2515631199495,416.361743769172 L479.0226185600106,425.41722380156335 M479.0226185600106,425.41722380156335 L474.68107414107783,433.3503295204792 M474.68107414107783,433.3503295204792 L467.3977415235953,439.84847216527663 M467.3977415235953,439.84847216527663 L462.42983825172007,442.62466050766625 M462.42983825172007,442.62466050766625 L456.767186498558,444.8922408324344 M456.7582979549027,377.92897888910596 L462.0502577719285,382.7244064211857 M343.243455731917,209.05018300249304 L351.3363447292295,214.88738562970752 M351.3363447292295,214.88738562970752 L360.1614793223636,223.46272377611706 M360.1614793223636,223.46272377611706 L372.83656258160215,238.92725593048525 M372.83656258160215,238.92725593048525 L386.2376589204529,258.61266112384664 M386.2376589204529,258.61266112384664 L400.00666535004046,281.99294777649925 M343.2551304072614,379.35361705973884 L318.740592870143,281.4132595653501 M318.740592870143,281.4132595653501 L315.4885828355501,243.97724266023098 M315.4885828355501,243.97724266023098 L317.3188864523804,223.48958612981636 M317.3188864523804,223.48958612981636 L321.05536624394256,213.022402385505 M321.05536624394256,213.022402385505 L325.13062586763175,208.11059406202946 M325.13062586763175,208.11059406202946 L328.8667292108903,206.12881272085207 M328.8667292108903,206.12881272085207 L333.5815327320281,205.65264165289537 M333.5815327320281,205.65264165289537 L338.19500802950665,206.682181935203 M338.19500802950665,206.682181935203 L343.243455731917,209.05018300249304 M450.9192459283845,376.29869012721974 L441.97929955804074,57.12844909944761 M441.97929955804074,57.12844909944761 L455.2207995189175,56.87774089160354 M455.2207995189175,56.87774089160354 L464.7044255454151,56.75581910845608 M464.7044255454151,56.75581910845608 L469.87878551093274,56.76975675811434 M469.87878551093274,56.76975675811434 L470.44277472161343,56.91878458279763 M470.44277472161343,56.91878458279763 L466.3631662058053,57.19423977788756 M466.3631662058053,57.19423977788756 L457.87664206954054,57.580102814571546 M457.87664206954054,57.580102814571546 L445.476144199775,58.053996482006596 M445.476144199775,58.053996482006596 L429.88226095493667,58.588345716258914 M429.88226095493667,58.588345716258914 L412.00136819341,59.15209539740334 M412.00136819341,59.15209539740334 L392.8729738207657,59.71249133854894 M392.8729738207657,59.71249133854894 L373.6091764095396,60.236922572937374 M373.6091764095396,60.236922572937374 L355.32996389641204,60.6949072617947 M355.32996389641204,60.6949072617947 L339.09801015886467,61.05984321315526 M339.09801015886467,61.05984321315526 L325.8568394345442,61.31049870447873 M325.8568394345442,61.31049870447873 L316.37595163746306,61.43230413574082 M316.37595163746306,61.43230413574082 L311.20610977336923,61.418219690239766 M311.20610977336923,61.418219690239766 L310.64737270765625,61.26903929370644 M310.64737270765625,61.26903929370644 L314.7317821151095,60.99347651124924 M314.7317821151095,60.99347651124924 L323.22153341195275,60.60755822484634 M323.22153341195275,60.60755822484634 L335.6229669681201,60.13368252446014 M335.6229669681201,60.13368252446014 L351.2152848240916,59.599417614577646 M351.2152848240916,59.599417614577646 L369.09243026121254,59.03580140942273 M369.09243026121254,59.03580140942273 L388.215802803508,58.47555963468136 M388.215802803508,58.47555963468136 L407.47441376740517,57.95126519326266 M407.47441376740517,57.95126519326266 L425.74948967808695,57.49336858851643 M425.74948967808695,57.49336858851643 L441.97929955804074,57.12844909944761 M400.00666535004046,281.99294777649925 L420.46322861911693,251.51159497243657 M420.46322861911693,251.51159497243657 L434.5208755025507,235.84905654413853 M434.5208755025507,235.84905654413853 L443.28575594235923,228.77412576049744 M443.28575594235923,228.77412576049744 L450.0117686195333,225.1439451648077 M450.0117686195333,225.1439451648077 L455.6938621394623,223.66207501277427 M455.6938621394623,223.66207501277427 L460.3081071426407,223.88742818963715 M460.3081071426407,223.88742818963715 L464.40809678331067,225.58809228736544 M464.40809678331067,225.58809228736544 L467.9588876695795,228.74949910871857 M467.9588876695795,228.74949910871857 L470.9302140294908,233.3446515950023 M470.9302140294908,233.3446515950023 L473.94758543550273,241.63224733868998 M473.94758543550273,241.63224733868998 L476.00148702142474,253.75961513107382 M476.00148702142474,253.75961513107382 L476.47142948273745,274.1488227872322 M476.47142948273745,274.1488227872322 L472.3167657116902,312.3072320665561 M472.3167657116902,312.3072320665561 L465.8511828005131,344.06433305782883 M465.8511828005131,344.06433305782883 L456.7582979549027,377.92897888910596 M343.243455731917,209.05018300249304 L258.88500447739756,107.32933606763481 M258.88500447739756,107.32933606763481 L267.2725623623504,111.49041009613325 M267.2725623623504,111.49041009613325 L272.1825223610085,118.74584347632623 M272.1825223610085,118.74584347632623 L273.3292177823553,128.67419867758986 M273.3292177823553,128.67419867758986 L270.6456818128975,140.69860759144274 M270.6456818128975,140.69860759144274 L264.2876226510759,154.12029025646927 M264.2876226510759,154.12029025646927 L254.62441832588692,168.15906822832184 M254.62441832588692,168.15906822832184 L242.217693758043,181.99882317792756 M242.217693758043,181.99882317792756 L227.7886593356658,194.83498594101837 M227.7886593356658,194.83498594101837 L212.17615614950836,205.9212458307461 M212.17615614950836,205.9212458307461 L196.28787636301269,214.61312150196028 M196.28787636301269,214.61312150196028 L181.04747660649574,220.40541809889913 M181.04747660649574,220.40541809889913 L167.34087024897536,222.96154671733314 M167.34087024897536,222.96154671733314 L155.96467783213768,222.13317314400726 M155.96467783213768,222.13317314400726 L147.579945172583,217.9686969114629 M147.579945172583,217.9686969114629 L142.67371060175753,210.71041677524767 M142.67371060175753,210.71041677524767 L141.53079211093223,200.78042516177405 M141.53079211093223,200.78042516177405 L144.2172912740502,188.7559498725634 M144.2172912740502,188.7559498725634 L150.57682579238323,175.33580948867666 M150.57682579238323,175.33580948867666 L160.23967600660745,161.29980087101814 M160.23967600660745,161.29980087101814 L172.64429444829713,147.46343070176692 M172.64429444829713,147.46343070176692 L187.0699579645124,134.6304899999588 M187.0699579645124,134.6304899999588 L202.67858345781565,123.54653886380174 M202.67858345781565,123.54653886380174 L218.5633970717811,114.85554280496979 M218.5633970717811,114.85554280496979 L233.8015088334242,109.06248484042334 M233.8015088334242,109.06248484042334 L247.5075450547906,106.50413451563804 M247.5075450547906,106.50413451563804 L258.88500447739756,107.32933606763481 M343.24604650850915,443.4674898813854 L328.37243004449965,399.0183262416632 M328.37243004449965,399.0183262416632 L323.39671600952823,354.2716948358119 M323.39671600952823,354.2716948358119 L324.893596219153,333.7423325798673 M324.893596219153,333.7423325798673 L327.7407569386602,319.75333960877964 M327.7407569386602,319.75333960877964 L332.4752681640804,306.198947179361 M332.4752681640804,306.198947179361 L337.07366742704215,297.4145141687006 M337.07366742704215,297.4145141687006 L342.07428540101586,290.4505799852166 M342.07428540101586,290.4505799852166 L347.13769452509524,285.2122851788714 M347.13769452509524,285.2122851788714 L352.6862593331398,280.9991764047699 M352.6862593331398,280.9991764047699 L358.6690148076544,277.8499407033815 M358.6690148076544,277.8499407033815 L365.031026948171,275.79346082279744 M365.031026948171,275.79346082279744 L374.00224146396687,274.7824152559398 M374.00224146396687,274.7824152559398 L384.5936824973603,276.02486692533637 M384.5936824973603,276.02486692533637 L392.260624374455,278.4015368392292 M392.260624374455,278.4015368392292 L400.00666535004046,281.99294777649925 M456.7788648717807,274.5753193296853 L448.68359503177464,271.06994471002815 M448.68359503177464,271.06994471002815 L439.85628085384184,269.4578141717177 M439.85628085384184,269.4578141717177 L427.1788276471961,270.2909907688712 M427.1788276471961,270.2909907688712 L413.77620068047,274.5070384958056 M413.77620068047,274.5070384958056 L400.00666535004046,281.99294777649925 M456.7788648717807,274.5753193296853 L460.9393059688446,223.92677836221185 M460.9393059688446,223.92677836221185 L474.1880461917182,237.31418535754483 M474.1880461917182,237.31418535754483 L483.67616855021,253.26079027591027 M483.67616855021,253.26079027591027 L488.85218572577315,270.83998648809785 M488.85218572577315,270.83998648809785 L489.4151681433169,289.0301976671925 M489.4151681433169,289.0301976671925 L485.3322248656247,306.7743019381702 M485.3322248656247,306.7743019381702 L476.84052010480417,323.0410422355103 M476.84052010480417,323.0410422355103 L464.4334463389029,336.8849068607747 M464.4334463389029,336.8849068607747 L448.8320103257804,347.501239047084 M448.8320103257804,347.501239047084 L430.9429686480529,354.2729010340341 M430.9429686480529,354.2729010340341 L411.8060330413585,356.80622019738576 M411.8060330413585,356.80622019738576 L392.53355416674964,354.95394466996794 M392.53355416674964,354.95394466996794 L374.2457075393038,348.8237334920785 M374.2457075393038,348.8237334920785 L358.005448289745,338.7719144038205 M358.005448289745,338.7719144038205 L344.7566850183746,325.3828066848476 M344.7566850183746,325.3828066848476 L335.26937775605205,309.4346953817194 M335.26937775605205,309.4346953817194 L330.09482891958027,291.8545256776514 M330.09482891958027,291.8545256776514 L329.5336425001492,273.6641058830858 M329.5336425001492,273.6641058830858 L333.6182800741531,255.9205898410679 M333.6182800741531,255.9205898410679 L342.1112119497477,239.65511716911323 M342.1112119497477,239.65511716911323 L354.51874296185775,225.8129009436835 M354.51874296185775,225.8129009436835 L370.11975684775445,215.19822304449943 M370.11975684775445,215.19822304449943 L388.0076332206985,208.4278401402462 M388.0076332206985,208.4278401402462 L407.14287831019834,205.89512972070213 M407.14287831019834,205.89512972070213 L426.41356931195463,207.74720693644446 M426.41356931195463,207.74720693644446 L444.6999139641048,213.8764581791777 M444.6999139641048,213.8764581791777 L460.9393059688446,223.92677836221185 M456.767186498558,444.8922408324344 L481.2911654555953,375.2463250431058 M481.2911654555953,375.2463250431058 L484.54468001012776,341.5572661908028 M484.54468001012776,341.5572661908028 L482.7135223518158,318.95122516997134 M482.7135223518158,318.95122516997134 L478.9753571396741,304.1670826705271 M478.9753571396741,304.1670826705271 L474.8983481486828,294.5486151712989 M474.8983481486828,294.5486151712989 L471.16072249104815,288.25257069696835 M471.16072249104815,288.25257069696835 L466.44410909232465,282.3325456545592 M466.44410909232465,282.3325456545592 L461.82898293656064,278.0356372638534 M461.82898293656064,278.0356372638534 L456.7788648717807,274.5753193296853 M462.0502577719285,382.7244064211857 L644.0200700188614,173.67416310782622 M644.0200700188614,173.67416310782622 L652.4152520470323,188.24690099339608 M652.4152520470323,188.24690099339608 L657.3342573330876,202.08827890040644 M657.3342573330876,202.08827890040644 L658.491043732831,214.394019479329 M658.491043732831,214.394019479329 L655.818107632447,224.4489519129867 M655.818107632447,224.4489519129867 L649.4704693535346,231.6685106423129 M649.4704693535346,231.6685106423129 L639.8167372959438,235.632902577325 M639.8167372959438,235.632902577325 L627.4177590641177,236.1114320459785 M627.4177590641177,236.1114320459785 L612.9940490124677,233.0759930984398 M612.9940490124677,233.0759930984398 L597.3839573901935,226.7028624218238 M597.3839573901935,226.7028624218238 L581.4948984251705,217.36235559764634 M581.4948984251705,217.36235559764634 L566.2506113526917,205.59739656515364 M566.2506113526917,205.59739656515364 L552.5373405703815,192.091961720056 M552.5373405703815,192.091961720056 L541.1523116495555,177.6311976984027 M541.1523116495555,177.6311976984027 L532.7573154976635,163.0558072153437 M532.7573154976635,163.0558072153437 L527.8402233601992,149.21310696227644 M527.8402233601992,149.21310696227644 L526.6866343485303,136.9076744769401 M526.6866343485303,136.9076744769401 L529.3633196013507,126.85462518412527 M529.3633196013507,126.85462518412527 L535.7143951520011,119.6380698307787 M535.7143951520011,119.6380698307787 L545.3704688364301,115.6771417306482 M545.3704688364301,115.6771417306482 L557.7701602623131,115.20172025099254 M557.7701602623131,115.20172025099254 L572.1927869458589,118.23920208129101 M572.1927869458589,118.23920208129101 L587.8002610744311,124.61285498187078 M587.8002610744311,124.61285498187078 L603.6857380703291,133.95223065869015 M603.6857380703291,133.95223065869015 L618.9263266983357,145.71467463925114 M618.9263266983357,145.71467463925114 L632.6366142918787,159.21678047580994 M632.6366142918787,159.21678047580994 L644.0200700188614,173.67416310782622 M433.4075122739397,57.456002090564425 L444.44207574733747,57.247087824916605 M444.44207574733747,57.247087824916605 L452.3449043385095,57.14550162570629 M452.3449043385095,57.14550162570629 L456.6565599652412,57.15712992159365 M456.6565599652412,57.15712992159365 L457.12618037977523,57.28130504108856 M457.12618037977523,57.28130504108856 L453.7261750972469,57.510854514341816 M453.7261750972469,57.510854514341816 L446.6538539483974,57.83242596173426 M446.6538539483974,57.83242596173426 L436.32004228354504,58.22734250471041 M436.32004228354504,58.22734250471041 L423.3252326532626,58.67262885617595 M423.3252326532626,58.67262885617595 L408.42475509760885,59.142421310095585 M408.42475509760885,59.142421310095585 L392.4847806843527,59.609392591182655 M392.4847806843527,59.609392591182655 L376.4319805228009,60.04640911804603 M376.4319805228009,60.04640911804603 L361.19958600321144,60.42806148197775 M361.19958600321144,60.42806148197775 L347.6731047312517,60.73216384090739 M347.6731047312517,60.73216384090739 L336.6387715414259,60.94104054602178 M336.6387715414259,60.94104054602178 L328.73784759877515,61.042555113609865 M328.73784759877515,61.042555113609865 L324.4293309934619,61.03084217497474 M324.4293309934619,61.03084217497474 L323.96334695717866,60.906538326329894 M323.96334695717866,60.906538326329894 L327.3666828948699,60.67690843260635 M327.3666828948699,60.67690843260635 L334.4412564693329,60.35530135757034 M334.4412564693329,60.35530135757034 L344.775722663743,59.96039455404559 M344.775722663743,59.96039455404559 L357.7694210815397,59.515171402455735 M357.7694210815397,59.515171402455735 L372.66731096861787,59.0454927427503 M372.66731096861787,59.0454927427503 L388.6038056496109,58.57860932028234 M388.6038056496109,58.57860932028234 L404.6530107065343,58.14168778851433 M404.6530107065343,58.14168778851433 L419.8825230901864,57.76009111738739 M419.8825230901864,57.76009111738739 L433.4075122739397,57.456002090564425 M250.30891283049934,116.89565071387665 L257.2983461796936,120.36346079953489 M257.2983461796936,120.36346079953489 L261.38972554343286,126.40984840395288 M261.38972554343286,126.40984840395288 L262.3450427424411,134.68358903535898 M262.3450427424411,134.68358903535898 L260.1085569456384,144.70394592654642 M260.1085569456384,144.70394592654642 L254.81007293317558,155.8885598567991 M254.81007293317558,155.8885598567991 L246.75742518861202,167.58735817005567 M246.75742518861202,167.58735817005567 L236.4186359095421,179.1202439597572 M236.4186359095421,179.1202439597572 L224.39466757281315,189.81680775421427 M224.39466757281315,189.81680775421427 L211.3845245234064,199.0551961984194 M211.3845245234064,199.0551961984194 L198.1445316654211,206.2983938312413 M198.1445316654211,206.2983938312413 L185.4443642374643,211.12535169195976 M185.4443642374643,211.12535169195976 L174.02221935524835,213.25561493810775 M174.02221935524835,213.25561493810775 L164.5419739978958,212.56551490130155 M164.5419739978958,212.56551490130155 L157.55449931052024,209.0953440779978 M157.55449931052024,209.0953440779978 L153.4657165462948,203.0469850400782 M153.4657165462948,203.0469850400782 L152.51302221732587,194.77210420525472 M152.51302221732587,194.77210420525472 L154.75156104496736,184.7517187476978 M154.75156104496736,184.7517187476978 L160.0510710609672,173.56814545411876 M160.0510710609672,173.56814545411876 L168.10346484222248,161.8712842345377 M168.10346484222248,161.8712842345377 L178.44079628483675,150.34074624521125 M178.44079628483675,150.34074624521125 L190.4624189676167,139.64641344503127 M190.4624189676167,139.64641344503127 L203.46987906815076,130.40963020466052 M203.46987906815076,130.40963020466052 L216.70746631499264,123.16707167582956 M216.70746631499264,123.16707167582956 L229.4060529011718,118.33956230763442 M229.4060529011718,118.33956230763442 L240.8277859586832,116.20775442157071 M240.8277859586832,116.20775442157071 L250.30891283049934,116.89565071387665 M452.36208698475764,233.49653415779346 L463.40270679453363,244.65281665292366 M463.40270679453363,244.65281665292366 L471.3094127262489,257.9417567265294 M471.3094127262489,257.9417567265294 L475.62265966327084,272.59116985772505 M475.62265966327084,272.59116985772505 L476.09169203834927,287.74969842233304 M476.09169203834927,287.74969842233304 L472.6891268578402,302.5364128451285 M472.6891268578402,302.5364128451285 L465.6126161201071,316.0919321243647 M465.6126161201071,316.0919321243647 L455.27335305672636,327.6283660111873 M455.27335305672636,327.6283660111873 L442.27219420347126,336.4751911411259 M442.27219420347126,336.4751911411259 L427.3647318881672,342.1181651238185 M427.3647318881672,342.1181651238185 L411.41740071234443,344.22921208967284 M411.41740071234443,344.22921208967284 L395.3571233112418,342.6856629231316 M395.3571233112418,342.6856629231316 L380.1173601838271,337.5772157058815 M380.1173601838271,337.5772157058815 L366.58387229064766,329.2008141495423 M366.58387229064766,329.2008141495423 L355.5432348259837,318.0433515484288 M355.5432348259837,318.0433515484288 L347.6370918330339,304.7533561958084 M347.6370918330339,304.7533561958084 L343.32486312314336,290.10329362039005 M343.32486312314336,290.10329362039005 L342.85708891994034,274.9445990763567 M342.85708891994034,274.9445990763567 L346.2608339940763,260.1582988581288 M346.2608339940763,260.1582988581288 L353.33818554858817,246.6036571331393 M353.33818554858817,246.6036571331393 L363.6777613943155,235.06837071113662 M363.6777613943155,235.06837071113662 L376.6786512518047,226.22268974534407 M376.6786512518047,226.22268974534407 L391.5852896792051,220.58062679762537 M391.5852896792051,220.58062679762537 L407.53143923087214,218.46997788248166 M407.53143923087214,218.46997788248166 L423.5904684554517,220.0133893325708 M423.5904684554517,220.0133893325708 L438.8291980452059,225.1211754126436 M438.8291980452059,225.1211754126436 L452.36208698475764,233.49653415779346 M635.449410569011,174.00385237533567 L642.4453839650207,186.14797309711986 M642.4453839650207,186.14797309711986 L646.5444174718593,197.6825510835296 M646.5444174718593,197.6825510835296 L647.5081841436929,207.93731496343696 M647.5081841436929,207.93731496343696 L645.2804818096549,216.31630317383642 M645.2804818096549,216.31630317383642 L639.9905442209731,222.33238748685153 M639.9905442209731,222.33238748685153 L631.9456108747188,225.63580195288762 M631.9456108747188,225.63580195288762 L621.6130763010697,226.03436977555413 M621.6130763010697,226.03436977555413 L609.5933907819001,223.50470919559265 M609.5933907819001,223.50470919559265 L596.5851599247117,218.19372766385848 M596.5851599247117,218.19372766385848 L583.3445243396422,210.4100439432247 M583.3445243396422,210.4100439432247 L570.641207422266,200.60607075395504 M570.641207422266,200.60607075395504 L559.2136923761084,189.3517764710513 M559.2136923761084,189.3517764710513 L549.7262788846733,177.3013811896574 M549.7262788846733,177.3013811896574 L542.7304378681567,165.15541648496878 M542.7304378681567,165.15541648496878 L538.632723434489,153.61991472019105 M538.632723434489,153.61991472019105 L537.6711771726775,143.36536860047897 M537.6711771726775,143.36536860047897 L539.9014878313003,134.9877144848299 M539.9014878313003,134.9877144848299 L545.1938109722691,128.9737023571696 M545.1938109722691,128.9737023571696 L553.2403784899182,125.67267940092631 M553.2403784899182,125.67267940092631 L563.5734035884616,125.27627264442407 M563.5734035884616,125.27627264442407 L575.5923415199413,127.80735844020876 M575.5923415199413,127.80735844020876 L588.5987447781988,133.11870072392026 M588.5987447781988,133.11870072392026 L601.8368914252933,140.90161454827853 M601.8368914252933,140.90161454827853 L614.5376319367181,150.70382006769478 M614.5376319367181,150.70382006769478 L625.9630912207488,161.95580432873868 M625.9630912207488,161.95580432873868 L635.449410569011,174.00385237533567 M436.5613649739375,170.05320748974856 L447.5959724723255,169.84654386887422 M447.5959724723255,169.84654386887422 L455.49886770612085,169.74765324735367 M455.49886770612085,169.74765324735367 L459.8105923838618,169.76227728672797 M459.8105923838618,169.76227728672797 L460.2803106904388,169.8895595902337 M460.2803106904388,169.8895595902337 L456.88039628435024,170.1221406370784 M456.88039628435024,170.1221406370784 L449.808163209579,170.44649733131038 M449.808163209579,170.44649733131038 L439.4744315601214,170.84378530507814 M439.4744315601214,170.84378530507814 L426.479703202611,171.29090463974202 M426.479703202611,171.29090463974202 L411.57928487296306,171.76187947194344 M411.57928487296306,171.76187947194344 L395.6393465690643,172.22931240233729 M395.6393465690643,172.22931240233729 L379.58656177298417,172.66605396885305 M379.58656177298417,172.66605396885305 L364.3541702014291,173.04668122274472 M364.3541702014291,173.04668122274472 L350.8276676953787,173.34910448624748 M350.8276676953787,173.34910448624748 L339.79329046068204,173.55571887706927 M339.79329046068204,173.55571887706927 L331.8923034124622,173.65454070272872 M331.8923034124622,173.65454070272872 L327.58371179918885,173.63981588190154 M327.58371179918885,173.63981588190154 L327.1176440999195,173.51241030015763 M327.1176440999195,173.51241030015763 L330.52088915769684,173.2797491240388 M330.52088915769684,173.2797491240388 L337.5953675433403,172.95535872812408 M337.5953675433403,172.95535872812408 L347.9297489927516,172.5580839238508 M347.9297489927516,172.5580839238508 L360.9233780308684,172.11102435104604 M360.9233780308684,172.11102435104604 L375.82120396658047,171.6401555775594 M375.82120396658047,171.6401555775594 L391.7576530603854,171.17282442301155 M391.7576530603854,171.17282442301155 L407.8068380124769,170.7361886918764 M407.8068380124769,170.7361886918764 L423.0363616888245,170.35560298537587 M423.0363616888245,170.35560298537587 L436.5613649739375,170.05320748974856 M436.5613649739375,170.05320748974856 L433.4075122739397,57.456002090564425 M314.5075762448365,194.3057556060122 L321.4979523761014,197.77511821400736 M321.4979523761014,197.77511821400736 L325.59054837179525,203.82289008047255 M325.59054837179525,203.82289008047255 L326.5472969728828,212.0977296821684 M326.5472969728828,212.0977296821684 L324.3123694397741,222.11886329933662 M324.3123694397741,222.11886329933662 L319.01547999928,233.30387299314418 M319.01547999928,233.30387299314418 L310.9643728272497,245.00266171622667 M310.9643728272497,245.00266171622667 L300.62697119776607,256.5351548166317 M300.62697119776607,256.5351548166317 L288.6041708760074,267.2309362886003 M288.6041708760074,267.2309362886003 L275.5948989278358,276.46820932367257 M275.5948989278358,276.46820932367257 L262.355439098804,283.7100068626725 M262.355439098804,283.7100068626725 L249.65540992558508,288.5354000743417 M249.65540992558508,288.5354000743417 L238.23304492630416,290.66399652108333 M238.23304492630416,290.66399652108333 L228.75219434803728,289.97224481426696 M228.75219434803728,289.97224481426696 L221.76376928864548,286.5005148729804 M221.76376928864548,286.5005148729804 L217.67377422385266,280.45077469815277 M217.67377422385266,280.45077469815277 L216.71964820831207,272.17478707035303 M216.71964820831207,272.17478707035303 L218.95662393725001,262.15361973792847 M218.95662393725001,262.15361973792847 L224.25453477668222,250.96966459332847 M224.25453477668222,250.96966459332847 L232.30539544304412,239.27280612445128 M232.30539544304412,239.27280612445128 L242.64133492846614,227.74266338773697 M242.64133492846614,227.74266338773697 L254.6617876768682,217.04911669128174 M254.6617876768682,217.04911669128174 L267.66837703893606,207.81344845608214 M267.66837703893606,207.81344845608214 L280.9054409417639,200.57227043917047 M280.9054409417639,200.57227043917047 L293.60387855757136,195.7463508089581 M293.60387855757136,195.7463508089581 L305.02584454917474,193.6161965881943 M305.02584454917474,193.6161965881943 L314.5075762448365,194.3057556060122 M314.5075762448365,194.3057556060122 L250.30891283049934,116.89565071387665 M449.1973950876431,272.04016516677876 L460.2359981226185,283.1946757047482 M460.2359981226185,283.1946757047482 L468.14125048396517,296.4815256321851 M468.14125048396517,296.4815256321851 L472.45368805718806,311.12861063596563 M472.45368805718806,311.12861063596563 L472.9226034569798,326.28476131629037 M472.9226034569798,326.28476131629037 L469.52062395547836,341.06916236588023 M469.52062395547836,341.06916236588023 L462.44536992336504,354.62256586829596 M462.44536992336504,354.62256586829596 L452.10795235902316,366.1572208598604 M452.10795235902316,366.1572208598604 L439.1091205552824,375.0026860831572 M439.1091205552824,375.0026860831572 L424.2043455663115,380.64479014702357 M424.2043455663115,380.64479014702357 L408.2598965672531,382.75554537116454 M408.2598965672531,382.75554537116454 L392.20252417884177,381.2122699069506 M392.20252417884177,381.2122699069506 L376.9655152838753,376.1046596417435 M376.9655152838753,376.1046596417435 L363.4344986944906,367.7295934912845 M363.4344986944906,367.7295934912845 L352.3958780127577,356.5738922761143 M352.3958780127577,356.5738922761143 L344.491184823301,343.2860059337315 M344.491184823301,343.2860059337315 L340.1797710497842,328.6382435962328 M340.1797710497842,328.6382435962328 L339.712099120857,313.4819434421959 M339.712099120857,313.4819434421959 L343.11525808859557,298.6979564550684 M343.11525808859557,298.6979564550684 L350.1913597549898,285.1454288369666 M350.1913597549898,285.1454288369666 L360.52909473415593,273.61191818065254 M360.52909473415593,273.61191818065254 L373.52764576575146,264.7676008477611 M373.52764576575146,264.7676008477611 L388.43160191242004,259.126393803874 M388.43160191242004,259.126393803874 L404.3748792104986,257.0160447226178 M404.3748792104986,257.0160447226178 L420.4310086236101,258.55919348990074 M420.4310086236101,258.55919348990074 L435.66697010818257,263.66613461740934 M435.66697010818257,263.66613461740934 L449.1973950876431,272.04016516677876 M449.1973950876431,272.04016516677876 L452.36208698475764,233.49653415779346 M571.2436693213419,247.76549186490897 L578.2381076847503,259.90945062513356 M578.2381076847503,259.90945062513356 L582.3355879677222,271.4442533737634 M582.3355879677222,271.4442533737634 L583.2979014190512,281.69959956768037 M583.2979014190512,281.69959956768037 L581.0689255948766,290.07948559839707 M581.0689255948766,290.07948559839707 L575.7779638083734,296.09676595247083 M575.7779638083734,296.09676595247083 L567.7323059075256,299.40157825192193 M567.7323059075256,299.40157825192193 L557.3994025371262,299.801656423701 M557.3994025371262,299.801656423701 L545.3797254354133,297.273552249521 M545.3797254354133,297.273552249521 L532.3718705173244,291.9640770724988 M532.3718705173244,291.9640770724988 L519.1319589141942,284.1817607189175 M519.1319589141942,284.1817607189175 L506.4296753385931,274.37895637911805 M506.4296753385931,274.37895637911805 L495.0034440339583,263.12551023407497 M495.0034440339583,263.12551023407497 L485.51748653807357,251.0756383207209 M485.51748653807357,251.0756383207209 L478.52318793343585,238.92982052425683 M478.52318793343585,238.92982052425683 L474.4270220247567,227.39411302058204 M474.4270220247567,227.39411302058204 L473.4669288066707,217.13897054972702 M473.4669288066707,217.13897054972702 L475.6985173456356,208.76040175116225 M475.6985173456356,208.76040175116225 L480.9918689691508,202.7452014159722 M480.9918689691508,202.7452014159722 L489.0391534671491,199.44278718147345 M489.0391534671491,199.44278718147345 L499.37255176700137,199.0448672098011 M499.37255176700137,199.0448672098011 L511.39148349725394,201.5743925610111 M511.39148349725394,201.5743925610111 L524.397510883942,206.88422874477772 M524.397510883942,206.88422874477772 L537.6349243355287,214.66577282891663 M537.6349243355287,214.66577282891663 L550.334642604721,224.46682843382348 M550.334642604721,224.46682843382348 L561.758805559778,235.71795600030987 M561.758805559778,235.71795600030987 L571.2436693213419,247.76549186490897 M571.2436693213419,247.76549186490897 L635.449410569011,174.00385237533567" stroke="black"  stroke-width="4"  fill="red"/></svg>