<svg viewBox="0 0 800 800" xmlns="http://www.w3.org/2000/svg"><path d="M594.7117299903571,464.36896507878214 L542.4496331624637,440.7307111095238 M542.4496331624637,440.7307111095238 L481.91743069625045,425.0015095495866 M481.91743069625045,425.0015095495866 L416.63012574230487,418.09355700902836 M416.63012574230487,418.09355700902836 L350.3778312480046,420.40743052720757 M350.3778312480046,420.40743052720757 L287.0064899789927,431.8089481537945 M287.0064899789927,431.8089481537945 L230.19538979293736,451.6369598011188 M230.19538979293736,451.6369598011188 L183.24411665996996,478.7413901030215 M183.24411665996996,478.7413901030215 L148.88131061282192,511.5495803602503 M148.88131061282192,511.5495803602503 L129.10607561261463,548.1571080842309 M129.10607561261463,548.1571080842309 L125.07129235303461,586.4379208277634 M125.07129235303461,586.4379208277634 L137.01586847033963,624.1675922822778 M137.01586847033963,624.1675922822778 L164.2497384987846,659.1525132656138 M164.2497384987846,659.1525132656138 L205.1931342858548,689.357559475111 M205.1931342858548,689.357559475111 L257.4676219669655,713.0248507209509 M257.4676219669655,713.0248507209509 L318.03415842411226,728.7764374601128 M318.03415842411226,728.7764374601128 L383.36987497996336,735.6949949282333 M383.36987497996336,735.6949949282333 L449.67356818400975,733.3775165988019 M449.67356818400975,733.3775165988019 L513.0875204513038,721.9590102645337 M513.0875204513038,721.9590102645337 L569.9226822413284,702.1045179027038 M569.9226822413284,702.1045179027038 L616.8739553704186,674.9701813015489 M616.8739553704186,674.9701813015489 L651.2126998091921,642.1355103353784 M651.2126998091921,642.1355103353784 L670.9453238138672,605.5109938987181 M670.9453238138672,605.5109938987181 L674.9287083712302,567.2265763504296 M674.9287083712302,567.2265763504296 L662.935720657824,529.5075098127652 M662.935720657824,529.5075098127652 L635.6675166375107,494.5449740160678 M635.6675166375107,494.5449740160678 L594.7117299903571,464.36896507878214 M211.33182724354995,580.3474978294308 L212.61194651679745,579.4040269794601 M212.61194651679745,579.4040269794601 L213.4640497609067,578.3110874581874 M213.4640497609067,578.3110874581874 L213.8386206722466,577.1321986186036 M213.8386206722466,577.1321986186036 L213.7138912204674,575.9358671514469 M213.7138912204674,575.9358671514469 L213.09710532308654,574.7916280739315 M213.09710532308654,574.7916280739315 L212.02412943999266,573.7659680715424 M212.02412943999266,573.7659680715424 L210.55730805981003,572.9185012972387 M210.55730805981003,572.9185012972387 L208.78188932540246,572.2984779913994 M208.78188932540246,572.2984779913994 L206.80106723486676,571.941920794593 M206.80106723486676,571.941920794593 L204.7299375146288,571.8695602293668 M204.7299375146288,571.8695602293668 L202.68887778444352,572.0855960187062 M202.68887778444352,572.0855960187062 L200.7964909804688,572.5774718838355 M200.7964909804688,572.5774718838355 L199.16275255201305,573.3166047962821 M199.16275255201305,573.3166047962821 L197.88262119181041,574.2600472894728 M197.88262119181041,574.2600472894728 L197.03048442894055,575.3529649502484 M197.03048442894055,575.3529649502484 L196.65586624577438,576.5318434335061 M196.65586624577438,576.5318434335061 L196.78054550173695,577.7281784209893 M196.78054550173695,577.7281784209893 L197.39728977899983,578.8724340889911 M197.39728977899983,578.8724340889911 L198.47024215181108,579.8981199515257 M198.47024215181108,579.8981199515257 L199.93706351795166,580.7456159312381 M199.93706351795166,580.7456159312381 L201.71250573777445,581.3656650970373 M201.71250573777445,581.3656650970373 L203.6933694324746,581.7222388845054 M203.6933694324746,581.7222388845054 L205.76454934514405,581.7946029699324 M205.76454934514405,581.7946029699324 L207.80565635711437,581.5785568241357 M207.80565635711437,581.5785568241357 L209.698076700871,581.0866590985102 M209.698076700871,581.0866590985102 L211.33182724354995,580.3474978294308 M393.9219293177377,467.8824903003656 L395.55487097240604,468.62124118255804 M395.55487097240604,468.62124118255804 L397.4465294608275,469.1128658031235 M397.4465294608275,469.1128658031235 L399.48696592825235,469.32879199848304 M399.48696592825235,469.32879199848304 L401.5576055770538,469.25646809014495 M401.5576055770538,469.25646809014495 L403.5380906957957,468.90009227504265 M403.5380906957957,468.90009227504265 L405.3133380202041,468.28038736464515 M405.3133380202041,468.28038736464515 L406.7801595064963,467.43336191945883 M406.7801595064963,467.43336191945883 L407.8533070068417,466.4082455221577 M407.8533070068417,466.4082455221577 L408.4704300683834,465.2646251481579 M408.4704300683834,465.2646251481579 L408.5956497592646,464.0689543673449 M408.5956497592646,464.0689543673449 L408.22170224419415,462.89073039696666 M408.22170224419415,462.89073039696666 L407.3703274063816,461.7984195219539 M407.3703274063816,461.7984195219539 L406.0910049478288,460.8555008248875 M406.0910049478288,460.8555008248875 L404.45807538703144,460.1167782757155 M404.45807538703144,460.1167782757155 L402.5664504092657,459.6251754974434 M402.5664504092657,459.6251754974434 L400.5260611923984,459.4092596499175 M400.5260611923984,459.4092596499175 L398.45547170985316,459.48158004098593 M398.45547170985316,459.48158004098593 L396.4750281801495,459.83793927924125 M396.4750281801495,459.83793927924125 L394.69980434054384,460.4576183512124 M394.69980434054384,460.4576183512124 L393.2329828542517,461.30461461530876 M393.2329828542517,461.30461461530876 L392.1598118691034,462.329705173998 M392.1598118691034,462.329705173998 L391.54264721852354,463.47330897132576 M391.54264721852354,463.47330897132576 L391.4173773613861,464.6689762347436 M391.4173773613861,464.6689762347436 L391.79127762589906,465.8472105528245 M391.79127762589906,465.8472105528245 L392.64261895305583,466.9395432701312 M392.64261895305583,466.9395432701312 L393.9219293177377,467.8824903003656 M406.09438537574437,685.840190087584 L404.4605485848172,685.10064646983 M404.4605485848172,685.10064646983 L402.5678726552135,684.6084972902294 M402.5678726552135,684.6084972902294 L400.5263498389356,684.3923414591068 M400.5263498389356,684.3923414591068 L398.45460997893264,684.4647422319753 M398.45460997893264,684.4647422319753 L396.4730661532547,684.8214975523282 M396.4730661532547,684.8214975523282 L394.6968560299162,685.4418653789501 M394.6968560299162,685.4418653789501 L393.2292195975237,686.2898030556258 M393.2292195975237,686.2898030556258 L392.1554523666208,687.3160329763408 M392.1554523666208,687.3160329763408 L391.5379448161819,688.4609078635448 M391.5379448161819,688.4609078635448 L391.41260534686927,689.6579040880508 M391.41260534686927,689.6579040880508 L391.78671333215885,690.8374479946793 M391.78671333215885,690.8374479946793 L392.63852764368255,691.9309948256887 M392.63852764368255,691.9309948256887 L393.91854877247033,692.8749899320004 M393.91854877247033,692.8749899320004 L395.5523976707104,693.6145619300253 M395.5523976707104,693.6145619300253 L397.4451071482165,694.1067329883456 M397.4451071482165,694.1067329883456 L399.48667726757,694.3228991845587 M399.48667726757,694.3228991845587 L401.558467349588,694.2504948885548 M401.558467349588,694.2504948885548 L403.54005281052946,693.89372296371 M403.54005281052946,693.89372296371 L405.3162864447739,693.2733292555712 M405.3162864447739,693.2733292555712 L406.78392287716633,692.4253623491408 M406.78392287716633,692.4253623491408 L407.8576665971634,691.399106546723 M407.8576665971634,691.399106546723 L408.47513251233875,690.2542150552026 M408.47513251233875,690.2542150552026 L408.6004217596362,689.0572153074353 M408.6004217596362,689.0572153074353 L408.22626647127106,687.8776817657662 M408.22626647127106,687.8776817657662 L407.3744186118451,686.7841568134771 M407.3744186118451,686.7841568134771 L406.09438537574437,685.840190087584 M588.6779377574305,573.3166047962823 L587.3987136203748,574.2600472894728 M587.3987136203748,574.2600472894728 L586.5476278173744,575.3529649502484 M586.5476278173744,575.3529649502484 L586.1741432548106,576.5318434335061 M586.1741432548106,576.5318434335061 L586.2999729177136,577.7281784209893 M586.2999729177136,577.7281784209893 L586.9178175219552,578.8724340889911 M586.9178175219552,578.8724340889911 L587.9917562039084,579.8981199515258 M587.9917562039084,579.8981199515258 L589.4593925301288,580.7456159312383 M589.4593925301288,580.7456159312383 L591.2354309950429,581.3656650970374 M591.2354309950429,581.3656650970374 L593.2166375744403,581.7222388845055 M593.2166375744403,581.7222388845055 L595.2878870730926,581.7946029699324 M595.2878870730926,581.7946029699324 L597.3287863330636,581.5785568241357 M597.3287863330636,581.5785568241357 L599.2207336633555,581.0866590985102 M599.2207336633555,581.0866590985102 L600.8537734216279,580.3474978294308 M600.8537734216279,580.3474978294308 L602.1329854444602,579.4040269794601 M602.1329854444602,579.4040269794601 L602.9840377076787,578.3110874581874 M602.9840377076787,578.3110874581874 L603.3574749884576,577.1321986186036 M603.3574749884576,577.1321986186036 L603.2315951331229,575.9358671514469 M603.2315951331229,575.9358671514469 L602.613708924717,574.7916280739315 M602.613708924717,574.7916280739315 L601.5397467573487,573.7659680715425 M601.5397467573487,573.7659680715425 L600.0721104451702,572.9185012972388 M600.0721104451702,572.9185012972388 L598.2960954905386,572.2984779913994 M598.2960954905386,572.2984779913994 L596.3149305312595,571.941920794593 M596.3149305312595,571.941920794593 L594.2437312284237,571.8695602293669 M594.2437312284237,571.8695602293669 L592.2028792402789,572.0855960187062 M592.2028792402789,572.0855960187062 L590.3109654287477,572.5774718838355 M590.3109654287477,572.5774718838355 L588.6779377574305,573.3166047962823 M594.7117299903571,464.36896507878214 L594.7171359156164,441.8875924348057 M594.7171359156164,441.8875924348057 L635.6740601741144,472.0627639798135 M635.6740601741144,472.0627639798135 L662.9430219737267,507.02432971297844 M662.9430219737267,507.02432971297844 L674.9363434329964,544.7423498929156 M674.9363434329964,544.7423498929156 L670.952848961392,583.0257055996706 M670.952848961392,583.0257055996706 L651.2196775268401,619.6492064212559 M651.2196775268401,619.6492064212559 L616.8799797539675,652.4829670229129 M616.8799797539675,652.4829670229129 L569.927402676587,679.6165514169254 M569.927402676587,679.6165514169254 L513.0906621047586,699.4704934444826 M513.0906621047586,699.4704934444826 L449.67494808912295,710.888683300788 M449.67494808912295,710.888683300788 L383.3694127595673,713.2060974006364 M383.3694127595673,713.2060974006364 L318.03188100275617,706.2877316845219 M318.03188100275617,706.2877316845219 L257.4636619918537,690.5365815345989 M257.4636619918537,690.5365815345989 L205.1877223519243,666.8699463428018 M205.1877223519243,666.8699463428018 L164.24318964176857,636.6657375245757 M164.24318964176857,636.6657375245757 L137.00856374112448,601.6817866039953 M137.00856374112448,601.6817866039953 L125.06365656700348,563.9531615068403 M125.06365656700348,563.9531615068403 L129.0985525957928,525.6734106049663 M129.0985525957928,525.6734106049663 L148.87433739272723,489.06689849665 M148.87433739272723,489.06689849665 L183.23809811048935,456.2596186048537 M183.23809811048935,456.2596186048537 L230.1906751917475,429.1559405111314 M230.1906751917475,429.1559405111314 L287.0033528230919,409.32847919899865 M287.0033528230919,409.32847919899865 L350.3764534735951,397.92727805096405 M350.3764534735951,397.92727805096405 L416.6305872384358,395.6134687624929 M416.6305872384358,395.6134687624929 L481.91970470429305,402.52122955067705 M481.91970470429305,402.52122955067705 L542.4535878171623,418.2499945205986 M542.4535878171623,418.2499945205986 L594.7171359156164,441.8875924348057 M211.32868328480532,566.8568956033866 L211.33182724354995,580.3474978294308 M211.32868328480532,566.8568956033866 L212.60882389644422,565.9134404540355 M212.60882389644422,565.9134404540355 L213.4609413478306,564.8205191208331 M213.4609413478306,564.8205191208331 L213.8355185097863,563.6416498997488 M213.8355185097863,563.6416498997488 L213.7107869887771,562.4453383414804 M213.7107869887771,562.4453383414804 L213.0939908225663,561.3011183060618 M213.0939908225663,561.3011183060618 L212.0209970682407,560.2754753725022 M212.0209970682407,560.2754753725022 L210.55415125285288,559.4280227016371 M210.55415125285288,559.4280227016371 L208.77870293938216,558.8080097141875 M208.77870293938216,558.8080097141875 L206.79784784513828,558.4514584511984 M206.79784784513828,558.4514584511984 L204.7266836141692,558.3790990901964 M204.7266836141692,558.3790990901964 L202.68558987198128,558.5951312842703 M202.68558987198128,558.5951312842703 L200.7931715310519,559.0869989636205 M200.7931715310519,559.0869989636205 L199.15940587340168,559.8261195754835 M199.15940587340168,559.8261195754835 L197.87925317440505,560.7695463680539 M197.87925317440505,560.7695463680539 L197.02710220314117,561.8624458407587 M197.02710220314117,561.8624458407587 L196.65247776778386,563.0413047055165 M196.65247776778386,563.0413047055165 L196.77715909130353,564.2376197841116 M196.77715909130353,564.2376197841116 L197.39391363600913,565.3818564100171 M197.39391363600913,565.3818564100171 L198.46688387926838,566.4075252037227 M198.46688387926838,566.4075252037227 L199.9337296806135,567.2550070799971 M199.9337296806135,567.2550070799971 L201.70920148028188,567.8750459274071 M201.70920148028188,567.8750459274071 L203.69009818007663,568.2316137810583 M203.69009818007663,568.2316137810583 L205.76131260514995,568.3039766622611 M205.76131260514995,568.3039766622611 L207.80245363069875,568.0879341117297 M207.80245363069875,568.0879341117297 L209.6949055125279,567.5960445718827 M209.6949055125279,567.5960445718827 L211.32868328480532,566.8568956033866 M393.921827956022,454.39376015874427 L393.9219293177377,467.8824903003656 M393.921827956022,454.39376015874427 L395.5547968133331,455.1324987403474 M395.5547968133331,455.1324987403474 L397.4464868144392,455.62411517513016 M397.4464868144392,455.62411517513016 L399.4869572730977,455.8400377752226 M399.4869572730977,455.8400377752226 L401.55763141630035,455.76771507110936 M401.55763141630035,455.76771507110936 L403.5381495275225,455.41134518982705 M403.5381495275225,455.41134518982705 L405.3134264252836,454.79165059782366 M405.3134264252836,454.79165059782366 L406.7802723467862,453.9446392560824 M406.7802723467862,453.9446392560824 L407.85343772408424,452.91953992761864 M407.85343772408424,452.91953992761864 L408.4705710656934,451.7759385957246 M408.4705710656934,451.7759385957246 L408.595792842143,450.5802877238094 M408.595792842143,450.5802877238094 L408.2218390972323,449.4020833719402 M408.2218390972323,449.4020833719402 L407.3704500764173,448.3097906850069 M407.3704500764173,448.3097906850069 L406.0911063060268,447.366887688568 M406.0911063060268,447.366887688568 L404.45814954298964,446.6281774399855 M404.45814954298964,446.6281774399855 L402.5664930536558,446.13658284749636 M402.5664930536558,446.13658284749636 L400.52606984712907,445.92067059523754 M400.52606984712907,445.92067059523754 L398.45544587185407,445.9929897820812 M398.45544587185407,445.9929897820812 L396.4749693510558,446.3493430865167 M396.4749693510558,446.3493430865167 L394.69971593887993,446.9690118400933 M394.69971593887993,446.9690118400933 L393.23287001737725,447.81599400074447 M393.23287001737725,447.81599400074447 L392.1596811544939,448.8410674905959 M392.1596811544939,448.8410674905959 L391.542506222461,449.9846522458179 M391.542506222461,449.9846522458179 L391.41723427808375,451.18029960033783 M391.41723427808375,451.18029960033783 L391.7911407708627,452.3585142999098 M391.7911407708627,452.3585142999098 L392.6424962799054,453.4508288291373 M392.6424962799054,453.4508288291373 L393.921827956022,454.39376015874427 M406.0944868466,672.3478327836143 L406.09438537574437,685.840190087584 M406.0944868466,672.3478327836143 L404.46062282319815,671.6083014664327 M404.46062282319815,671.6083014664327 L402.5679153470018,671.1161604726035 M402.5679153470018,671.1161604726035 L400.52635850328573,670.9000082367431 M400.52635850328573,670.9000082367431 L398.45458411221523,670.9724078053885 M398.45458411221523,670.9724078053885 L396.47300725877375,671.3291571919297 M396.47300725877375,671.3291571919297 L394.6967675299956,671.9495147001716 M394.6967675299956,671.9495147001716 L393.22910663523305,672.7974382734217 M393.22910663523305,672.7974382734217 L392.15532150672396,673.8236511253231 M392.15532150672396,673.8236511253231 L391.53780366340385,674.9685069704481 M391.53780366340385,674.9685069704481 L391.41246210453096,676.1654832860846 M391.41246210453096,676.1654832860846 L391.78657632500875,677.3450075742323 M391.78657632500875,677.3450075742323 L392.63840483418124,678.4385362171887 M392.63840483418124,678.4385362171887 L393.91844729809105,679.3825156228958 M393.91844729809105,679.3825156228958 L395.5523234292095,680.1220753203494 M395.5523234292095,680.1220753203494 L397.44506445442653,680.6142381928988 M397.44506445442653,680.6142381928988 L399.4866686027951,680.8304007938501 M399.4866686027951,680.8304007938501 L401.5584932175549,680.7579977020695 M401.5584932175549,680.7579977020695 L403.54011170764795,680.4012317110357 M403.54011170764795,680.4012317110357 L405.3163749481156,679.7808483212759 M405.3163749481156,679.7808483212759 L406.7840358428782,678.9328955182701 M406.7840358428782,678.9328955182701 L407.85779745969774,677.9066567846652 M407.85779745969774,677.9066567846652 L408.47527366636626,676.761784335223 M408.47527366636626,676.761784335223 L408.60056500154985,675.5648044963252 M408.60056500154985,675.5648044963252 L408.22640347641953,674.3852905731374 M408.22640347641953,674.3852905731374 L407.37454141822644,673.2917838089019 M407.37454141822644,673.2917838089019 L406.0944868466,672.3478327836143 M588.6810816070351,559.8261195754835 L588.6779377574305,573.3166047962823 M588.6810816070351,559.8261195754835 L587.4018361614199,560.7695463680539 M587.4018361614199,560.7695463680539 L586.5507361850505,561.8624458407587 M586.5507361850505,561.8624458407587 L586.1772454080754,563.0413047055166 M586.1772454080754,563.0413047055166 L586.3030771768749,564.2376197841116 M586.3030771768749,564.2376197841116 L586.9209320852294,565.3818564100171 M586.9209320852294,565.3818564100171 L587.9948886705015,566.4075252037227 M587.9948886705015,566.4075252037227 L589.4625494590866,567.2550070799971 M589.4625494590866,567.2550070799971 L591.2386175237175,567.8750459274071 M591.2386175237175,567.8750459274071 L593.2198571196368,568.2316137810583 M593.2198571196368,568.2316137810583 L595.2911411330122,568.3039766622611 M595.2911411330122,568.3039766622611 L597.3320743996378,568.0879341117297 M597.3320743996378,568.0879341117297 L599.224053252238,567.5960445718827 M599.224053252238,567.5960445718827 L600.8571202164205,566.8568956033866 M600.8571202164205,566.8568956033866 L602.1363535474084,565.9134404540355 M602.1363535474084,565.9134404540355 L602.987419982878,564.8205191208331 M602.987419982878,564.8205191208331 L603.3608634764923,563.6416498997488 M603.3608634764923,563.6416498997488 L603.2349815135888,562.4453383414804 M603.2349815135888,562.4453383414804 L602.6170849996831,561.3011183060619 M602.6170849996831,561.3011183060619 L601.5431049282136,560.2754753725022 M601.5431049282136,560.2754753725022 L600.075444153671,559.4280227016372 M600.075444153671,559.4280227016372 L598.2993996001064,558.8080097141876 M598.2993996001064,558.8080097141876 L596.3182016256926,558.4514584511984 M596.3182016256926,558.4514584511984 L594.2469678098066,558.3790990901965 M594.2469678098066,558.3790990901965 L592.2060818165824,558.5951312842703 M592.2060818165824,558.5951312842703 L590.3141364838598,559.0869989636205 M590.3141364838598,559.0869989636205 L588.6810816070351,559.8261195754835 M216.1944705705606,560.6752549815046 L213.2536440390982,562.0057330718224 M213.2536440390982,562.0057330718224 L209.84715565278415,562.8911390872574 M209.84715565278415,562.8911390872574 L206.1730250885505,563.2800134563317 M206.1730250885505,563.2800134563317 L202.44476342568018,563.149753816454 M202.44476342568018,563.149753816454 L198.87907236725465,562.5079354379623 M198.87907236725465,562.5079354379623 L195.68318186727623,561.391854984387 M195.68318186727623,561.391854984387 L193.0428301123281,559.8663835040006 M193.0428301123281,559.8663835040006 L191.11147172534592,558.0201879767785 M191.11147172534592,558.0201879767785 L190.001346054035,555.960568665972 M190.001346054035,555.960568665972 L189.7769440459879,553.8072239553218 M189.7769440459879,553.8072239553218 L190.45130028314702,551.68530792662 M190.45130028314702,551.68530792662 L191.98521136254794,549.7181189330703 M191.98521136254794,549.7181189330703 L194.28952795564723,548.0199985471976 M194.28952795564723,548.0199985471976 L197.23031523557665,546.6896123326972 M197.23031523557665,546.6896123326972 L200.63669494638017,545.8042771452198 M200.63669494638017,545.8042771452198 L204.31067230895943,545.4154363306073 M204.31067230895943,545.4154363306073 L208.03877133951315,545.5456845645708 M208.03877133951315,545.5456845645708 L211.60432759251634,546.1874491900556 M211.60432759251634,546.1874491900556 L214.80014199612782,547.3034458570481 M214.80014199612782,547.3034458570481 L217.44049379657616,548.8288227119551 M217.44049379657616,548.8288227119551 L219.37192836050207,550.6749344525955 M219.37192836050207,550.6749344525955 L220.48218888892902,552.7345000100897 M220.48218888892902,552.7345000100897 L220.7067535402616,554.8878333148987 M220.7067535402616,554.8878333148987 L220.03255047248783,557.0097828981268 M220.03255047248783,557.0097828981268 L218.49874800048275,558.9770427200534 M218.49874800048275,558.9770427200534 L216.1944705705606,560.6752549815046 M389.0538767197286,448.21180621763006 L386.7510554090117,446.51453684396364 M386.7510554090117,446.51453684396364 L385.21862446095435,444.5483692864778 M385.21862446095435,444.5483692864778 L384.54562860714196,442.42759784878706 M384.54562860714196,442.42759784878706 L384.7711660177703,440.2754601080296 M384.7711660177703,440.2754601080296 L385.8821083236357,438.21703804733465 M385.8821083236357,438.21703804733465 L387.81389406726606,436.3719512863002 M387.81389406726606,436.3719512863002 L390.454246048617,434.8474213322759 M390.454246048617,434.8474213322759 L393.6497096277045,433.73204427313914 M393.6497096277045,433.73204427313914 L397.21458443807086,433.0906359583429 M397.21458443807086,433.0906359583429 L400.9417110087139,432.9604600387325 M400.9417110087139,432.9604600387325 L404.61448140483844,433.3490849672629 M404.61448140483844,433.3490849672629 L408.01948977018253,434.23392861208737 M408.01948977018253,434.23392861208737 L410.9588210241782,435.56357618729487 M410.9588210241782,435.56357618729487 L413.26168152048155,437.26075376188845 M413.26168152048155,437.26075376188845 L414.79422104967273,439.2268505499769 M414.79422104967273,439.2268505499769 L415.46737000395393,441.3475884610823 M415.46737000395393,441.3475884610823 L415.2419951408274,443.4997375981833 M415.2419951408274,443.4997375981833 L414.1311875913706,445.5582133674296 M414.1311875913706,445.5582133674296 L412.19947794212334,447.4033838452762 M412.19947794212334,447.4033838452762 L409.55912596077235,448.9280083459842 M409.55912596077235,448.9280083459842 L406.3635862873018,450.0434691219341 M406.3635862873018,450.0434691219341 L402.7985767205269,450.6849311449764 M402.7985767205269,450.6849311449764 L399.07128760238186,450.8151184610034 M399.07128760238186,450.8151184610034 L395.3983641057886,450.42646000595226 M395.3983641057886,450.42646000595226 L391.99324715931067,449.5415455921491 M391.99324715931067,449.5415455921491 L389.0538767197286,448.21180621763006 M410.9649060479076,660.5389009277185 L413.26904602866693,662.2379649107103 M413.26904602866693,662.2379649107103 L414.80243706984396,664.2062470200867 M414.80243706984396,664.2062470200867 L415.4759600694877,666.3293421483637 M415.4759600694877,666.3293421483637 L415.2504600328502,668.4838834290971 M415.2504600328502,668.4838834290971 L414.13903535411487,670.5446472346332 M414.13903535411487,670.5446472346332 L412.2062524645538,672.3918686656382 M412.2062524645538,672.3918686656382 L409.56443349874297,673.9181878316872 M409.56443349874297,673.9181878316872 L406.3671183563487,675.0348884794103 M406.3671183563487,675.0348884794103 L402.80012802618523,675.6770635103861 M402.80012802618523,675.6770635103861 L399.07076797410645,675.8073955343995 M399.07076797410645,675.8073955343995 L395.3958037518457,675.4183050713298 M395.3958037518457,675.4183050713298 L391.9887948858918,674.5324070444956 M391.9887948858918,674.5324070444956 L389.0477913157473,673.2011896226351 M389.0477913157473,673.2011896226351 L386.7436905641297,671.5020336874742 M386.7436905641297,671.5020336874742 L385.21040822477573,669.5336806906759 M385.21040822477573,669.5336806906759 L384.53703849577386,667.4105519799002 M384.53703849577386,667.4105519799002 L384.76270126058677,665.2560221145163 M384.76270126058677,665.2560221145163 L385.8742608455141,663.1953121071031 M385.8742608455141,663.1953121071031 L387.807119914038,661.3481745325275 M387.807119914038,661.3481745325275 L390.44893887984887,659.8219500708409 M390.44893887984887,659.8219500708409 L393.6461778432803,658.7053332795479 M393.6461778432803,658.7053332795479 L397.2130332672518,658.063212046389 M397.2130332672518,658.063212046389 L400.9422305911551,657.9328914377985 M400.9422305911551,657.9328914377985 L404.61704154277385,658.3219483184342 M404.61704154277385,658.3219483184342 L408.02394170690474,659.2077754582659 M408.02394170690474,659.2077754582659 L410.9649060479076,660.5389009277185 M452.5890447045958,523.9771892756804 L463.6461943452269,532.1273471552837 M463.6461943452269,532.1273471552837 L471.0054338545728,541.5691726197206 M471.0054338545728,541.5691726197206 L474.2388553591643,551.7540855434482 M474.2388553591643,551.7540855434482 L473.158249641836,562.0902353278935 M473.158249641836,562.0902353278935 L467.8260890308713,571.9769047163056 M467.8260890308713,571.9769047163056 L458.55200144005704,580.8394121512065 M458.55200144005704,580.8394121512065 L445.87480474847564,588.1625311160532 M445.87480474847564,588.1625311160532 L430.5312518480523,593.5204819542012 M430.5312518480523,593.5204819542012 L413.4132124759906,596.6017198021416 M413.4132124759906,596.6017198021416 L395.51578772801383,597.2270639454629 M395.51578772801383,597.2270639454629 L377.8794232610833,595.360153925044 M377.8794232610833,595.360153925044 L361.52939367413035,591.1095497327807 M361.52939367413035,591.1095497327807 L347.4161087056515,584.7224215598876 M347.4161087056515,584.7224215598876 L336.3598624090074,576.5701468629794 M336.3598624090074,576.5701468629794 L329.0031259854904,567.1266895188656 M329.0031259854904,567.1266895188656 L325.7732338833357,556.9410034964243 M325.7732338833357,556.9410034964243 L326.85758677385996,546.6051165022398 M326.85758677385996,546.6051165022398 L332.19285389820186,536.7196855907426 M332.19285389820186,536.7196855907426 L341.46869567871204,527.8591086000234 M341.46869567871204,527.8591086000234 L354.14589237031396,520.5381698042413 M354.14589237031396,520.5381698042413 L369.4876910810649,515.1821494090692 M369.4876910810649,515.1821494090692 L386.60262393973477,512.1021500384521 M386.60262393973477,512.1021500384521 L404.4963015144756,511.47706868490434 M404.4963015144756,511.47706868490434 L422.12913657893847,513.3432056074602 M422.12913657893847,513.3432056074602 L438.4766630800674,517.5921779199749 M438.4766630800674,517.5921779199749 L452.5890447045958,523.9771892756804 M583.812826356422,548.0199985471976 L586.752334217947,546.6896123326972 M586.752334217947,546.6896123326972 L590.1578625112295,545.8042771452198 M590.1578625112295,545.8042771452198 L593.8314659296943,545.4154363306075 M593.8314659296943,545.4154363306075 L597.5596902186023,545.5456845645708 M597.5596902186023,545.5456845645708 L601.1258636498837,546.1874491900558 M601.1258636498837,546.1874491900558 L604.3227512957308,547.3034458570481 M604.3227512957308,547.3034458570481 L606.9645700350277,548.8288227119552 M606.9645700350277,548.8288227119552 L608.8977799851623,550.6749344525955 M608.8977799851623,550.6749344525955 L610.0100211760846,552.7345000100897 M610.0100211760846,552.7345000100897 L610.236656665367,554.8878333148987 M610.236656665367,554.8878333148987 L609.5644942541487,557.0097828981269 M609.5644942541487,557.0097828981269 L608.0325836751856,558.9770427200534 M608.0325836751856,558.9770427200534 L605.7299393981014,560.6752549815046 M605.7299393981014,560.6752549815046 L602.7903923733995,562.0057330718224 M602.7903923733995,562.0057330718224 L599.384755472721,562.8911390872576 M599.384755472721,562.8911390872576 L595.7109988848706,563.2800134563317 M595.7109988848706,563.2800134563317 L591.9826119526772,563.149753816454 M591.9826119526772,563.149753816454 L588.4163036642799,562.5079354379624 M588.4163036642799,562.5079354379624 L585.219339841489,561.391854984387 M585.219339841489,561.391854984387 L582.5775210566921,559.8663835040007 M582.5775210566921,559.8663835040007 L580.6443872029242,558.0201879767785 M580.6443872029242,558.0201879767785 L579.5322808174242,555.960568665972 M579.5322808174242,555.960568665972 L579.3058079604584,553.8072239553219 M579.3058079604584,553.8072239553219 L579.9781235733312,551.6853079266201 M579.9781235733312,551.6853079266201 L581.5101428278049,549.7181189330703 M581.5101428278049,549.7181189330703 L583.812826356422,548.0199985471976 M211.32868328480532,566.8568956033866 L213.7615549669484,563.7660978296054 M213.7615549669484,563.7660978296054 L216.1944705705606,560.6752549815046 M393.921827956022,454.39376015874427 L391.48787430098656,451.3028057197587 M391.48787430098656,451.3028057197587 L389.0538767197286,448.21180621763006 M406.0944868466,672.3478327836143 L408.5296913736207,666.4433737959306 M408.5296913736207,666.4433737959306 L410.9649060479076,660.5389009277185 M588.6810816070351,559.8261195754835 L586.2469590529886,553.923065996005 M586.2469590529886,553.923065996005 L583.812826356422,548.0199985471976 M452.5890447045958,523.9771892756804 L452.5984389103799,379.3276609008415 M447.187392911927,377.8168584540117 L452.5984389103799,379.3276609008415 M347.41468667758096,380.64787609726346 L361.76984920190927,376.86119571061084 M361.76984920190927,376.86119571061084 L376.6758577154287,374.4760743892764 M376.6758577154287,374.4760743892764 L391.08217567435025,373.2596755902899 M391.08217567435025,373.2596755902899 L405.8399063570719,372.975204112759 M405.8399063570719,372.975204112759 L420.3679488686629,373.6338603281275 M420.3679488686629,373.6338603281275 L434.0942419655277,375.2097221597084 M434.0942419655277,375.2097221597084 L440.8680806747117,376.3991165363953 M440.8680806747117,376.3991165363953 L447.187392911927,377.8168584540117 M347.4067116814792,440.06204862411676 L336.582338449008,435.069691016607 M336.582338449008,435.069691016607 L329.2633591167685,427.969453003994 M329.2633591167685,427.969453003994 L325.85397340772874,419.15386703264744 M325.85397340772874,419.15386703264744 L326.54227571581356,409.1101927103066 M326.54227571581356,409.1101927103066 L331.28993951024233,398.39347038028427 M331.28993951024233,398.39347038028427 L338.1642445313092,389.37556800269465 M338.1642445313092,389.37556800269465 L347.41468667758096,380.64787609726346 M452.60624239905985,441.382362833823 L438.8742230332789,450.22558534025177 M438.8742230332789,450.22558534025177 L422.99391373786744,456.123144229375 M422.99391373786744,456.123144229375 L405.84301787494786,458.74899183860657 M405.84301787494786,458.74899183860657 L388.369508650105,457.95795345159905 M388.369508650105,457.95795345159905 L371.53921302943246,453.7937511721234 M371.53921302943246,453.7937511721234 L358.6787012979875,447.907596352328 M358.6787012979875,447.907596352328 L347.4067116814792,440.06204862411676 M457.5024945365969,383.7716035344162 L467.2446188072427,395.3341099177342 M467.2446188072427,395.3341099177342 L472.5792796112624,405.84215009493005 M472.5792796112624,405.84215009493005 L474.36945097585294,414.9433615908108 M474.36945097585294,414.9433615908108 L473.2305042233755,423.33504203344205 M473.2305042233755,423.33504203344205 L469.2071146816103,430.6865991384258 M469.2071146816103,430.6865991384258 L462.4575983571953,436.70836871428344 M462.4575983571953,436.70836871428344 L457.85382689329487,439.281028805264 M457.85382689329487,439.281028805264 L452.60624239905985,441.382362833823 M452.5984389103799,379.3276609008415 L457.5024945365969,383.7716035344162 M347.4044371945708,222.8290122596633 L354.9040921628078,228.23840468403918 M354.9040921628078,228.23840468403918 L363.08229411720606,236.18517789373848 M363.08229411720606,236.18517789373848 L374.8282043343574,250.51610114833375 M374.8282043343574,250.51610114833375 L387.2468955767584,268.758430737613 M387.2468955767584,268.758430737613 L400.0065199235564,290.4247526882324 M347.41468667758096,380.64787609726346 L324.697256162302,289.8866154384213 M324.697256162302,289.8866154384213 L321.6837757427666,255.1949412019842 M321.6837757427666,255.1949412019842 L323.3800332737654,236.20931566615735 M323.3800332737654,236.20931566615735 L326.84269478925506,226.50959196985394 M326.84269478925506,226.50959196985394 L330.6192694686215,221.95797647327473 M330.6192694686215,221.95797647327473 L334.0815348473886,220.12155321637866 M334.0815348473886,220.12155321637866 L338.45075331123195,219.6803929793656 M338.45075331123195,219.6803929793656 L342.7260579582981,220.6345361103128 M342.7260579582981,220.6345361103128 L347.4044371945708,222.8290122596633 M447.187392911927,377.8168584540117 L438.4155924669538,64.65031249916262 M438.4155924669538,64.65031249916262 L450.6864641038747,64.41798121424074 M450.6864641038747,64.41798121424074 L459.47485546955386,64.30500507176669 M459.47485546955386,64.30500507176669 L464.26981786169154,64.31791567945356 M464.26981786169154,64.31791567945356 L464.79233320411817,64.45601782343351 M464.79233320411817,64.45601782343351 L461.01165878965327,64.71129063472085 M461.01165878965327,64.71129063472085 L453.14712870341504,65.06888012527503 M453.14712870341504,65.06888012527503 L441.655583954108,65.50802238661606 M441.655583954108,65.50802238661606 L427.20479155084547,66.00321485964957 M427.20479155084547,66.00321485964957 L410.634688596768,66.52564061103283 M410.634688596768,66.52564061103283 L392.9085597263702,67.04493556656382 M392.9085597263702,67.04493556656382 L375.05695221969705,67.53092933682774 M375.05695221969705,67.53092933682774 L358.11773436121797,67.95534090023875 M358.11773436121797,67.95534090023875 L343.0756630007255,68.29352263116874 M343.0756630007255,68.29352263116874 L330.80508249197794,68.52580643294488 M330.80508249197794,68.52580643294488 L322.0190930013759,68.6386869880518 M322.0190930013759,68.6386869880518 L317.2280929967131,68.62564510046207 M317.2280929967131,68.62564510046207 L316.7101928124648,68.48741141417753 M316.7101928124648,68.48741141417753 L320.4950871667514,68.23203693552506 M320.4950871667514,68.23203693552506 L328.3624448603869,67.87440162034693 M328.3624448603869,67.87440162034693 L339.85481107398715,67.43527513046922 M339.85481107398715,67.43527513046922 L354.3042306094046,66.9401564162888 M354.3042306094046,66.9401564162888 L370.8710469104331,66.41785025214506 M370.8710469104331,66.41785025214506 L388.59276330050574,65.89868795926697 M388.59276330050574,65.89868795926697 L406.4398211874413,65.41281696383942 M406.4398211874413,65.41281696383942 L423.375407419798,64.9884773737129 M423.375407419798,64.9884773737129 L438.4155924669538,64.65031249916262 M400.0065199235564,290.4247526882324 L419.4696734951877,261.53379754395297 M419.4696734951877,261.53379754395297 L431.5182645013855,248.10929362553486 M431.5182645013855,248.10929362553486 L439.89044807893663,241.25639292175242 M439.89044807893663,241.25639292175242 L446.30523445656297,237.7593215182046 M446.30523445656297,237.7593215182046 L451.71161714494474,236.35937282651827 M451.71161714494474,236.35937282651827 L456.0877418229822,236.62445210441513 M456.0877418229822,236.62445210441513 L459.95906190797814,238.33215371168592 M459.95906190797814,238.33215371168592 L463.2907462253299,241.46707028076898 M463.2907462253299,241.46707028076898 L466.052827081444,246.00093438571753 M466.052827081444,246.00093438571753 L468.8073809856748,254.14984886743792 M468.8073809856748,254.14984886743792 L470.5896913305584,266.03782429689846 M470.5896913305584,266.03782429689846 L470.74288274832776,285.9568882681058 M470.74288274832776,285.9568882681058 L466.2326680557494,323.04231996057155 M466.2326680557494,323.04231996057155 L460.43658154487554,350.39942007448536 M460.43658154487554,350.39942007448536 L452.5984389103799,379.3276609008415 M347.4044371945708,222.8290122596633 L259.31475046354456,116.60973493290567 M259.31475046354456,116.60973493290567 L267.08741874861613,120.46588045975892 M267.08741874861613,120.46588045975892 L271.63738227001164,127.18954804992586 M271.63738227001164,127.18954804992586 L272.6999317750044,136.39017303355058 M272.6999317750044,136.39017303355058 L270.2130310648517,147.53319380318106 M270.2130310648517,147.53319380318106 L264.3209919763319,159.97100466246644 M264.3209919763319,159.97100466246644 L255.3661233210156,172.9806392584759 M255.3661233210156,172.9806392584759 L243.8688825061611,185.80584970785375 M243.8688825061611,185.80584970785375 L230.49759595849184,197.70101813223886 M230.49759595849184,197.70101813223886 L216.0296183854622,207.97456389922388 M216.0296183854622,207.97456389922388 L201.3060560328339,216.0292997212053 M201.3060560328339,216.0292997212053 L187.18285463040877,221.3970402311363 M187.18285463040877,221.3970402311363 L174.48097133259327,223.76585473290436 M174.48097133259327,223.76585473290436 L163.9386451503778,222.99827735549525 M163.9386451503778,222.99827735549525 L156.16845302896292,219.1391473561404 M156.16845302896292,219.1391473561404 L151.6217694447393,212.4129805277436 M151.6217694447393,212.4129805277436 L150.56253115837342,203.21091676426477 M150.56253115837342,203.21091676426477 L153.0520379707816,192.0678398568308 M153.0520379707816,192.0678398568308 L158.94536814388837,179.6313811473442 M158.94536814388837,179.6313811473442 L167.89992639491828,166.62417700954973 M167.89992639491828,166.62417700954973 L179.39531818805693,153.80193814558817 M179.39531818805693,153.80193814558817 L192.7636406862273,141.9096016777254 M192.7636406862273,141.9096016777254 L207.2282264472875,131.63807986417146 M207.2282264472875,131.63807986417146 L221.94874159221848,123.58411387247315 M221.94874159221848,123.58411387247315 L236.06993847536216,118.21570734475239 M236.06993847536216,118.21570734475239 L248.77130985966875,115.84494355508662 M248.77130985966875,115.84494355508662 L259.31475046354456,116.60973493290567 M347.4067116814792,440.06204862411676 L333.36919038911253,397.7117856460605 M333.36919038911253,397.7117856460605 L329.0444264177275,355.2401568043039 M329.0444264177275,355.2401568043039 L330.7813637563081,335.91899879497583 M330.7813637563081,335.91899879497583 L333.76230697232273,322.86434324104454 M333.76230697232273,322.86434324104454 L336.9032605310485,314.066545260997 M336.9032605310485,314.066545260997 L341.17883021912337,305.5556287460033 M341.17883021912337,305.5556287460033 L345.87060702088144,298.8087795732651 M345.87060702088144,298.8087795732651 L350.6483798548257,293.737658574042 M350.6483798548257,293.737658574042 L355.90422899287273,289.66609727666423 M355.90422899287273,289.66609727666423 L361.5872095558439,286.6335578295787 M361.5872095558439,286.6335578295787 L367.6422387213382,284.669383750602 M367.6422387213382,284.669383750602 L376.19246178941455,283.7437407852588 M376.19246178941455,283.7437407852588 L387.92353236811584,285.45790732756126 M387.92353236811584,285.45790732756126 L400.0065199235564,290.4247526882324 M452.61649495762254,283.55165834723226 L445.1147498287167,280.3032020699946 M445.1147498287167,280.3032020699946 L436.9346344023341,278.80916367039254 M436.9346344023341,278.80916367039254 L425.1866435915826,279.58109002169743 M425.1866435915826,279.58109002169743 L412.7666085978592,283.48784811203745 M412.7666085978592,283.48784811203745 L400.0065199235564,290.4247526882324 M452.61649495762254,283.55165834723226 L456.96022608046974,230.6642843603901 M456.96022608046974,230.6642843603901 L469.2378137521452,243.07041269651333 M469.2378137521452,243.07041269651333 L478.030420824912,257.84813847879843 M478.030420824912,257.84813847879843 L482.82699748130534,274.13879022461754 M482.82699748130534,274.13879022461754 L483.34865993863787,290.9956418982698 M483.34865993863787,290.9956418982698 L479.5649658629725,307.43905047578096 M479.5649658629725,307.43905047578096 L471.6956892924325,322.51337612877285 M471.6956892924325,322.51337612877285 L460.19806235067506,335.3424373694245 M460.19806235067506,335.3424373694245 L445.74024150020523,345.18052289157686 M445.74024150020523,345.18052289157686 L429.1625207566912,351.4557743517218 M429.1625207566912,351.4557743517218 L411.42839916510604,353.8034042447392 M411.42839916510604,353.8034042447392 L393.5686599544807,352.0868971692979 M393.5686599544807,352.0868971692979 L376.6213766058198,346.4060663683225 M376.6213766058198,346.4060663683225 L361.57158157785284,337.0910984702294 M361.57158157785284,337.0910984702294 L349.293971585588,324.6834782308135 M349.293971585588,324.6834782308135 L340.5020821917794,309.9044233877582 M340.5020821917794,309.9044233877582 L335.7067987964682,293.6129193963932 M335.7067987964682,293.6129193963932 L335.18670891858164,276.75588216671946 M335.18670891858164,276.75588216671946 L338.9718853373754,260.31299723191756 M338.9718853373754,260.31299723191756 L346.84224482345417,245.2397817772001 M346.84224482345417,245.2397817772001 L358.34027319103524,232.41216770690792 M358.34027319103524,232.41216770690792 L372.79772201792036,222.57553480065283 M372.79772201792036,222.57553480065283 L389.3744164928125,216.30140387144252 M389.3744164928125,216.30140387144252 L407.107057631643,213.95431109083813 M407.107057631643,213.95431109083813 L424.9652235295318,215.67064138125585 M424.9652235295318,215.67064138125585 L441.9111882566056,221.35063479639103 M441.9111882566056,221.35063479639103 L456.96022608046974,230.6642843603901 M452.60624239905985,441.382362833823 L475.3319616135425,376.8419503735292 M475.3319616135425,376.8419503735292 L478.3467627984017,345.6227976813852 M478.3467627984017,345.6227976813852 L476.64975544570706,324.67417290880456 M476.64975544570706,324.67417290880456 L473.18561425711454,310.9739669248843 M473.18561425711454,310.9739669248843 L469.4075037805536,302.0607004956235 M469.4075037805536,302.0607004956235 L465.94390194171825,296.22623725129995 M465.94390194171825,296.22623725129995 L461.57309456646624,290.7402297431272 M461.57309456646624,290.7402297431272 L457.2963406163562,286.7583204527738 M457.2963406163562,286.7583204527738 L452.61649495762254,283.55165834723226 M457.5024945365969,383.7716035344162 L636.0485288972818,178.65385918883345 M636.0485288972818,178.65385918883345 L643.828330998602,192.15845021461874 M643.828330998602,192.15845021461874 L648.3867116977542,204.9852676022032 M648.3867116977542,204.9852676022032 L649.4586313062127,216.3889825032022 M649.4586313062127,216.3889825032022 L646.9815296938323,225.70680434987466 M646.9815296938323,225.70680434987466 L641.0991039621406,232.39708945293862 M641.0991039621406,232.39708945293862 L632.152947025673,236.07081692670297 M632.152947025673,236.07081692670297 L620.6628159607699,236.5141798050535 M620.6628159607699,236.5141798050535 L607.2964123399947,233.70119829075793 M607.2964123399947,233.70119829075793 L592.8306263009993,227.79522490954227 M592.8306263009993,227.79522490954227 L578.1063488836746,219.139417347449 M578.1063488836746,219.139417347449 L563.9795753493834,208.23689595269113 M563.9795753493834,208.23689595269113 L551.2715863833564,195.72151448703585 M551.2715863833564,195.72151448703585 L540.7211386168815,182.3208303095875 M540.7211386168815,182.3208303095875 L532.9415038686934,168.81390809756084 M532.9415038686934,168.81390809756084 L528.3847934789226,155.9859297890751 M528.3847934789226,155.9859297890751 L527.3156855829241,144.5824875011302 M527.3156855829241,144.5824875011302 L529.7960740248627,135.26631678184162 M529.7960740248627,135.26631678184162 L535.6815215928123,128.5786702728488 M535.6815215928123,128.5786702728488 L544.6297338247978,124.90798460965595 M544.6297338247978,124.90798460965595 L556.120491021745,124.46735031243634 M556.120491021745,124.46735031243634 L569.4859481700364,127.28212209375329 M569.4859481700364,127.28212209375329 L583.9494237392867,133.18855690315456 M583.9494237392867,133.18855690315456 L598.6705606279434,141.84337381018105 M598.6705606279434,141.84337381018105 L612.794083033989,152.7436847701644 M612.794083033989,152.7436847701644 L625.4994643600703,165.2561424142766 M625.4994643600703,165.2561424142766 L636.0485288972818,178.65385918883345 M430.47204380731216,64.95386859671362 L440.6977561767701,64.76026785137645 M440.6977561767701,64.76026785137645 L448.02124657649694,64.66610885637567 M448.02124657649694,64.66610885637567 L452.0167718913268,64.67688843481244 M452.0167718913268,64.67688843481244 L452.4518901390686,64.79197911732996 M452.4518901390686,64.79197911732996 L449.301028724579,65.00471128393224 M449.301028724579,65.00471128393224 L442.74706788817645,65.30270366252228 M442.74706788817645,65.30270366252228 L433.1707157733616,65.66865891798818 M433.1707157733616,65.66865891798818 L421.12848429916386,66.08130998406148 M421.12848429916386,66.08130998406148 L407.3202897089683,66.51665020497552 M407.3202897089683,66.51665020497552 L392.5488247875108,66.94938705123627 M392.5488247875108,66.94938705123627 L377.67279857315395,67.35437843487512 M377.67279857315395,67.35437843487512 L363.5570436776686,67.70805473020226 M363.5570436776686,67.70805473020226 L351.02210592151846,67.98986093797618 M351.02210592151846,67.98986093797618 L340.7966096589141,68.1834528500292 M340.7966096589141,68.1834528500292 L333.4747779392434,68.27751492470827 M333.4747779392434,68.27751492470827 L329.482004281138,68.26664417922461 M329.482004281138,68.26664417922461 L329.0500956482677,68.15145946904437 M329.0500956482677,68.15145946904437 L332.2038811268716,67.93865670028521 M332.2038811268716,67.93865670028521 L338.759819899877,67.64063331767045 M338.759819899877,67.64063331767045 L348.33674247608195,67.2746890153901 M348.33674247608195,67.2746890153901 L360.37800625003325,66.86208835157481 M360.37800625003325,66.86208835157481 L374.18392024839545,66.4268338551301 M374.18392024839545,66.4268338551301 L388.95232236651134,65.99418831714866 M388.95232236651134,65.99418831714866 L403.8251877030734,65.5892830135 M403.8251877030734,65.5892830135 L417.9384299259203,65.23566577952442 M417.9384299259203,65.23566577952442 L430.47204380731216,64.95386859671362 M251.3672735062459,125.4748480894782 L257.8443251363036,128.68852602612924 M257.8443251363036,128.68852602612924 L261.63573117535265,134.29174786769943 M261.63573117535265,134.29174786769943 L262.5209564765544,141.95903323220585 M262.5209564765544,141.95903323220585 L260.44836394109944,151.24488267786688 M260.44836394109944,151.24488267786688 L255.5382339305954,161.60964404590294 M255.5382339305954,161.60964404590294 L248.07587221841217,172.45083728661226 M248.07587221841217,172.45083728661226 L238.49495888158208,183.13831072562306 M238.49495888158208,183.13831072562306 L227.35242952190734,193.05074822876824 M227.35242952190734,193.05074822876824 L215.29601481369014,201.61190301744824 M215.29601481369014,201.61190301744824 L203.02659736913276,208.32412404839533 M203.02659736913276,208.32412404839533 L191.257400534914,212.7972775799017 M191.257400534914,212.7972775799017 L180.67254120439688,214.77144072051885 M180.67254120439688,214.77144072051885 L171.88718887932782,214.1319792603895 M171.88718887932782,214.1319792603895 L165.41186144847404,210.91623681583002 M165.41186144847404,210.91623681583002 L161.62271740242323,205.31127403092475 M161.62271740242323,205.31127403092475 L160.7397901393622,197.64299033228653 M160.7397901393622,197.64299033228653 L162.81419388863327,188.35710108241108 M162.81419388863327,188.35710108241108 L167.72521583913024,177.99327766691113 M167.72521583913024,177.99327766691113 L175.18736340875577,167.1537805092466 M175.18736340875577,167.1537805092466 L184.7669927020768,156.46837067223447 M184.7669927020768,156.46837067223447 L195.90746227896338,146.55789153963198 M195.90746227896338,146.55789153963198 L207.9615215600568,137.99814599825754 M207.9615215600568,137.99814599825754 L220.22882753592307,131.2864568893633 M220.22882753592307,131.2864568893633 L231.99663234217044,126.8128408451982 M231.99663234217044,126.8128408451982 L242.58115192363462,124.83735085689102 M242.58115192363462,124.83735085689102 L251.3672735062459,125.4748480894782 M449.0117044110356,239.53258644374557 L459.2430212777701,249.8711473142213 M459.2430212777701,249.8711473142213 L466.570150977011,262.18600847795017 M466.570150977011,262.18600847795017 L470.56720683822306,275.7616009416235 M470.56720683822306,275.7616009416235 L471.0018209944674,289.80898932806053 M471.0018209944674,289.80898932806053 L467.8486397843236,303.51179836350684 M467.8486397843236,303.51179836350684 L461.2908304221076,316.073656438367 M461.2908304221076,316.073656438367 L451.7094390113649,326.7644447712294 M451.7094390113649,326.7644447712294 L439.6612953249156,334.96274509691443 M439.6612953249156,334.96274509691443 L425.84659376004197,340.19205601160604 M425.84659376004197,340.19205601160604 L411.0682631437472,342.1483708775181 M411.0682631437472,342.1483708775181 L396.1852551752282,340.717957722869 M396.1852551752282,340.717957722869 L382.0626090799477,335.98397896064296 M382.0626090799477,335.98397896064296 L369.5211704561071,328.2216106883416 M369.5211704561071,328.2216106883416 L359.28982414720235,317.8820325584962 M359.28982414720235,317.8820325584962 L351.9632021299602,305.5662360592383 M351.9632021299602,305.5662360592383 L347.9670443686342,291.9900517583466 M347.9670443686342,291.9900517583466 L347.53351763384654,277.9425371959924 M347.53351763384654,277.9425371959924 L350.6877347029255,264.24009180148096 M350.6877347029255,264.24009180148096 L357.2462817610575,251.67900387776706 M357.2462817610575,251.67900387776706 L366.82795194033537,240.9892205254587 M366.82795194033537,240.9892205254587 L378.8758516048207,232.79192977938064 M378.8758516048207,232.79192977938064 L392.68983867537764,227.56339432933558 M392.68983867537764,227.56339432933558 L407.46713977979334,225.60745327694056 M407.46713977979334,225.60745327694056 L422.34905658973105,227.03774284530448 M422.34905658973105,227.03774284530448 L436.4707776817462,231.77113099913183 M436.4707776817462,231.77113099913183 L449.0117044110356,239.53258644374557 M628.1060253861515,178.95939499428144 L634.589177558729,190.21336929980095 M634.589177558729,190.21336929980095 L638.3877254761783,200.90246887526615 M638.3877254761783,200.90246887526615 L639.2807953700199,210.4055499902158 M639.2807953700199,210.4055499902158 L637.2163201178287,218.17028974957728 M637.2163201178287,218.17028974957728 L632.3140857330211,223.74533657058362 M632.3140857330211,223.74533657058362 L624.8588180754648,226.80655649596304 M624.8588180754648,226.80655649596304 L615.2836576166512,227.1758405090528 M615.2836576166512,227.1758405090528 L604.1450586292565,224.83156700790556 M604.1450586292565,224.83156700790556 L592.0903950801605,219.90988680439546 M592.0903950801605,219.90988680439546 L579.8203835814263,212.6967799523411 M579.8203835814263,212.6967799523411 L568.0482965725405,203.6115106135901 M568.0482965725405,203.6115106135901 L557.458479011899,193.18223227883078 M557.458479011899,193.18223227883078 L548.6665368254762,182.01518815641074 M548.6665368254762,182.01518815641074 L542.1834962225437,170.7595869308194 M542.1834962225437,170.7595869308194 L538.3861239871981,160.06968652152608 M538.3861239871981,160.06968652152608 L537.4950080906376,150.56679390168733 M537.4950080906376,150.56679390168733 L539.5617644433614,142.80320157732342 M539.5617644433614,142.80320157732342 L544.4661019737507,137.22998815764078 M544.4661019737507,137.22998815764078 L551.9227954959272,134.17087233366902 M551.9227954959272,134.17087233366902 L561.498390768623,133.80348316990506 M561.498390768623,133.80348316990506 L572.6363339069483,136.14900817708207 M572.6363339069483,136.14900817708207 L584.6893929609871,141.0710050937385 M584.6893929609871,141.0710050937385 L596.9572188929728,148.28342667001996 M596.9572188929728,148.28342667001996 L608.727048173942,157.36716098613724 M608.727048173942,157.36716098613724 L619.3150391219799,167.79442499056708 M619.3150391219799,167.79442499056708 L628.1060253861515,178.95939499428144 M433.5571122454395,175.09488841125705 L443.782865412889,174.9033835159412 M443.782865412889,174.9033835159412 L451.10641317209286,174.81173013909105 M451.10641317209286,174.81173013909105 L455.10200907538945,174.82529026089531 M455.10200907538945,174.82529026089531 L455.53719775287675,174.9432593682344 M455.53719775287675,174.9432593682344 L452.38642984250106,175.15878479214257 M452.38642984250106,175.15878479214257 L445.8325458572574,175.4593608501691 M445.8325458572574,175.4593608501691 L436.2562769357915,175.82752936909316 M436.2562769357915,175.82752936909316 L424.2141118540963,176.2418735988953 M424.2141118540963,176.2418735988953 L410.40597679271923,176.67831756931255 M410.40597679271923,176.67831756931255 L395.634545089058,177.11149562957183 M395.634545089058,177.11149562957183 L380.75854215902206,177.51620863421124 M380.75854215902206,177.51620863421124 L366.6427809504978,177.86894527975892 M366.6427809504978,177.86894527975892 L354.1078236394656,178.1491959821609 M354.1078236394656,178.1491959821609 L343.8822807539185,178.34066795587637 M343.8822807539185,178.34066795587637 L336.56039746075646,178.43223662579243 M336.56039746075646,178.43223662579243 L332.56755087251327,178.41859708761558 M332.56755087251327,178.41859708761558 L332.13556483190945,178.30053793666968 M332.13556483190945,178.30053793666968 L335.2892637700051,178.0849274165811 M335.2892637700051,178.0849274165811 L341.8451233762908,177.7843195026589 M341.8451233762908,177.7843195026589 L351.4219581291464,177.41617595380757 M351.4219581291464,177.41617595380757 L363.46315785314863,177.00187332528333 M363.46315785314863,177.00187332528333 L377.269016987155,176.56551283719352 M377.269016987155,176.56551283719352 L392.0373859026738,176.13243699690435 M392.0373859026738,176.13243699690435 L406.9102326078756,175.72780727697358 M406.9102326078756,175.72780727697358 L421.02347185287965,175.37511858436167 M421.02347185287965,175.37511858436167 L433.5571122454395,175.09488841125705 M433.5571122454395,175.09488841125705 L430.47204380731216,64.95386859671362 M314.1655296867087,201.1959214940083 L320.6434551248204,204.41103750893055 M320.6434551248204,204.41103750893055 L324.43598837799004,210.01553718860387 M324.43598837799004,210.01553718860387 L325.32254481419886,217.68385663560497 M325.32254481419886,217.68385663560497 L323.25139167444144,226.97041527454334 M323.25139167444144,226.97041527454334 L318.34274399303644,237.33552997664884 M318.34274399303644,237.33552997664884 L310.88180074912975,248.17673021252733 M310.88180074912975,248.17673021252733 L301.3021823800491,258.8638136306428 M301.3021823800491,258.8638136306428 L290.16073088145725,268.7755289157149 M290.16073088145725,268.7755289157149 L278.1051327076444,277.3356554352659 M278.1051327076444,277.3356554352659 L265.83619332049807,284.04660089249023 M265.83619332049807,284.04660089249023 L254.06713561053337,288.5182899316369 M254.06713561053337,288.5182899316369 L243.48205909756234,290.4909109925905 M243.48205909756234,290.4909109925905 L234.69614592246774,289.84990876468 M234.69614592246774,289.84990876468 L228.2199419551912,286.6327137211749 M228.2199419551912,286.6327137211749 L224.42967032579563,281.0264895202518 M224.42967032579563,281.0264895202518 L223.54541632484853,273.3571694170603 M223.54541632484853,273.3571694170603 L225.618380607042,264.0705605438652 M225.618380607042,264.0705605438652 L230.52792500118647,253.70638128741484 M230.52792500118647,253.70638128741484 L237.98865207132792,242.86688653570246 M237.98865207132792,242.86688653570246 L247.56698214001602,232.18185851155897 M247.56698214001602,232.18185851155897 L258.70637657750876,222.27210264917628 M258.70637657750876,222.27210264917628 L270.75962661408056,213.71339173042378 M270.75962661408056,213.71339173042378 L283.0264477253282,207.00298187886364 M283.0264477253282,207.00298187886364 L294.7941110543129,202.5308206920274 M294.7941110543129,202.5308206920274 L305.37884411839536,200.5568586040851 M305.37884411839536,200.5568586040851 L314.1655296867087,201.1959214940083 M314.1655296867087,201.1959214940083 L251.3672735062459,125.4748480894782 M445.91645473717404,277.2348902424416 L456.14590847247246,287.5717895771649 M456.14590847247246,287.5717895771649 L463.47168424513796,299.88471298749454 M463.47168424513796,299.88471298749454 L467.46799350016585,313.45816633293197 M467.46799350016585,313.45816633293197 L467.9024991456097,327.5033512066423 M467.9024991456097,327.5033512066423 L464.74986301673613,341.2040151064674 M464.74986301673613,341.2040151064674 L458.1932092017461,353.76391772387535 M458.1932092017461,353.76391772387535 L448.6135373083676,364.45304203205296 M448.6135373083676,364.45304203205296 L436.56754984761193,372.65008228739646 M436.56754984761193,372.65008228739646 L422.75533421507856,377.87858903390367 M422.75533421507856,377.87858903390367 L407.97966544798925,379.8346286001799 M407.97966544798925,379.8346286001799 L393.09934953965546,378.4044798167171 M393.09934953965546,378.4044798167171 L378.9792692288733,373.6712635206161 M378.9792692288733,373.6712635206161 L366.440107301214,365.91013515728065 M366.440107301214,365.91013515728065 L356.2106299430085,355.5721994575623 M356.2106299430085,355.5721994575623 L348.88535586351895,343.2583497451779 M348.88535586351895,343.2583497451779 L344.8899467083827,329.6843141503215 M344.8899467083827,329.6843141503215 L344.4565350608803,315.638999118897 M344.4565350608803,315.638999118897 L347.6101997027232,301.9386920269264 M347.6101997027232,301.9386920269264 L354.16759326818436,289.3795606396276 M354.16759326818436,289.3795606396276 L363.74754847347606,278.691449020125 M363.74754847347606,278.691449020125 L375.7932896764453,270.4954059333658 M375.7932896764453,270.4954059333658 L389.60478642686627,265.26767707255595 M389.60478642686627,265.26767707255595 L404.3794260521919,263.31202192835354 M404.3794260521919,263.31202192835354 L419.2586465515138,264.742049849459 M419.2586465515138,264.742049849459 L433.37781148456054,269.47466500748317 M433.37781148456054,269.47466500748317 L445.91645473717404,277.2348902424416 M445.91645473717404,277.2348902424416 L449.0117044110356,239.53258644374557 M565.3010736250285,251.11199102152312 L571.7827991271706,262.36582299733567 M571.7827991271706,262.36582299733567 L575.5799118219518,273.0551338326806 M575.5799118219518,273.0551338326806 L576.471635025561,282.55874385404286 M576.471635025561,282.55874385404286 L574.405970594504,290.32433102082354 M574.405970594504,290.32433102082354 L569.5027826985902,295.90048932547603 M569.5027826985902,295.90048932547603 L562.0468433650951,298.96300476710445 M562.0468433650951,298.96300476710445 L552.4713504369997,299.3336932272156 M552.4713504369997,299.3336932272156 L541.3327502083955,296.9908672659589 M541.3327502083955,296.9908672659589 L529.2784373628231,292.07058165105303 M529.2784373628231,292.07058165105303 L517.0090966469329,284.8587419981907 M517.0090966469329,284.8587419981907 L505.23797065130873,275.77453350994676 M505.23797065130873,275.77453350994676 L494.6493451078167,265.3460445542619 M494.6493451078167,265.3460445542619 L485.8587486898107,254.1795035454354 M485.8587486898107,254.1795035454354 L479.3771373101583,242.92403796378485 M479.3771373101583,242.92403796378485 L475.58120033250077,232.233931513827 M475.58120033250077,232.233931513827 L474.6914263270405,222.73051238322518 M474.6914263270405,222.73051238322518 L476.75937154517084,214.966061561917 M476.75937154517084,214.966061561917 L481.66465753757495,209.39173898835136 M481.66465753757495,209.39173898835136 L489.1220246602619,206.33133945926272 M489.1220246602619,206.33133945926272 L498.6979567455931,205.9625323254322 M498.6979567455931,205.9625323254322 L509.835898664078,208.30660851762892 M509.835898664078,208.30660851762892 L521.8886001065748,213.22722581958672 M521.8886001065748,213.22722581958672 L534.1557624639156,220.43837650913247 M534.1557624639156,220.43837650913247 L545.9246334258864,229.52103826994912 M545.9246334258864,229.52103826994912 L556.5114362592324,239.94750582603442 M556.5114362592324,239.94750582603442 L565.3010736250285,251.11199102152312 M565.3010736250285,251.11199102152312 L628.1060253861515,178.95939499428144" stroke="black"  stroke-width="4"  fill="red"/>
<path d="M406.0944868466,672.3478327836143 L407.37454141822644,673.2917838089019 M407.37454141822644,673.2917838089019 L408.22640347641953,674.3852905731374 M408.22640347641953,674.3852905731374 L408.60056500154985,675.5648044963252 M408.60056500154985,675.5648044963252 L408.47527366636626,676.761784335223 M408.47527366636626,676.761784335223 L407.85779745969774,677.9066567846652 M407.85779745969774,677.9066567846652 L406.7840358428782,678.9328955182701 M406.7840358428782,678.9328955182701 L405.3163749481156,679.7808483212759 M405.3163749481156,679.7808483212759 L403.54011170764795,680.4012317110357 M403.54011170764795,680.4012317110357 L401.5584932175549,680.7579977020695 M401.5584932175549,680.7579977020695 L399.4866686027951,680.8304007938501 M399.4866686027951,680.8304007938501 L397.44506445442653,680.6142381928988 M397.44506445442653,680.6142381928988 L395.5523234292095,680.1220753203494 M395.5523234292095,680.1220753203494 L393.91844729809105,679.3825156228958 M393.91844729809105,679.3825156228958 L392.63840483418124,678.4385362171887 M392.63840483418124,678.4385362171887 L391.78657632500875,677.3450075742323 M391.78657632500875,677.3450075742323 L391.41246210453096,676.1654832860846 M391.41246210453096,676.1654832860846 L391.53780366340385,674.9685069704481 M391.53780366340385,674.9685069704481 L392.15532150672396,673.8236511253231 M392.15532150672396,673.8236511253231 L393.22910663523305,672.7974382734217 M393.22910663523305,672.7974382734217 L394.6967675299956,671.9495147001716 M394.6967675299956,671.9495147001716 L396.47300725877375,671.3291571919297 M396.47300725877375,671.3291571919297 L398.45458411221523,670.9724078053885 M398.45458411221523,670.9724078053885 L400.52635850328573,670.9000082367431 M400.52635850328573,670.9000082367431 L402.5679153470018,671.1161604726035 M402.5679153470018,671.1161604726035 L404.46062282319815,671.6083014664327 M404.46062282319815,671.6083014664327 L406.0944868466,672.3478327836143 M406.0944868466,672.3478327836143 L406.094148623595,717.3206045332927 M406.094148623595,717.3206045332927 L404.4603753715716,716.5810322189932 M404.4603753715716,716.5810322189932 L402.5677730465861,716.0888639424468 M402.5677730465861,716.0888639424468 L400.52632962324407,715.8726997237792 M400.52632962324407,715.8726997237792 L398.45467033124675,715.9451033060327 M398.45467033124675,715.9451033060327 L396.4732035660603,716.3018724696357 M396.4732035660603,716.3018724696357 L394.6970625182352,716.9222643684597 M394.6970625182352,716.9222643684597 L393.22948316152855,717.7702349476361 M393.22948316152855,717.7702349476361 L392.1557576893819,718.7965046889361 M392.1557576893819,718.7965046889361 L391.53827415432875,719.9414240002424 M391.53827415432875,719.9414240002424 L391.4129395603852,721.1384666710239 M391.4129395603852,721.1384666710239 L391.78703299771223,722.3180563464681 M391.78703299771223,722.3180563464681 L392.6388141832331,723.4116456091845 M392.6388141832331,723.4116456091845 L393.9187855328407,724.3556773441261 M393.9187855328407,724.3556773441261 L395.5525708912354,725.095278038694 M395.5525708912354,725.095278038694 L397.4452067615139,725.587468193958 M397.4452067615139,725.587468193958 L399.48669748425243,725.8036427777154 M399.48669748425243,725.8036427777154 L401.55840699435873,725.7312356723268 M401.55840699435873,725.7312356723268 L403.5399153915705,725.3744499042333 M403.5399153915705,725.3744499042333 L405.31607994847275,724.7540321238947 M405.31607994847275,724.7540321238947 L406.7836593051794,723.9060323149662 M406.7836593051794,723.9060323149662 L407.85736126824884,722.8797366919658 M407.85736126824884,722.8797366919658 L408.4748031712767,721.7348007763445 M408.4748031712767,721.7348007763445 L408.6000875471112,720.537754582302 M408.6000875471112,720.537754582302 L408.2259468103878,719.3581752718164 M408.2259468103878,719.3581752718164 L407.37413207957394,718.2646078878182 M407.37413207957394,718.2646078878182 L406.094148623595,717.3206045332927" stroke="black"  stroke-width="4"  fill="red"/>
<path d="M406.0944868466,672.3478327836143 L407.37454141822644,673.2917838089019 M407.37454141822644,673.2917838089019 L408.22640347641953,674.3852905731374 M408.22640347641953,674.3852905731374 L408.60056500154985,675.5648044963252 M408.60056500154985,675.5648044963252 L408.47527366636626,676.761784335223 M408.47527366636626,676.761784335223 L407.85779745969774,677.9066567846652 M407.85779745969774,677.9066567846652 L406.7840358428782,678.9328955182701 M406.7840358428782,678.9328955182701 L405.3163749481156,679.7808483212759 M405.3163749481156,679.7808483212759 L403.54011170764795,680.4012317110357 M403.54011170764795,680.4012317110357 L401.5584932175549,680.7579977020695 M401.5584932175549,680.7579977020695 L399.4866686027951,680.8304007938501 M399.4866686027951,680.8304007938501 L397.44506445442653,680.6142381928988 M397.44506445442653,680.6142381928988 L395.5523234292095,680.1220753203494 M395.5523234292095,680.1220753203494 L393.91844729809105,679.3825156228958 M393.91844729809105,679.3825156228958 L389.0477913157473,673.2011896226351 M410.9649060479076,660.5389009277185 L413.26904602866693,662.2379649107103 M413.26904602866693,662.2379649107103 L414.80243706984396,664.2062470200867 M414.80243706984396,664.2062470200867 L415.4759600694877,666.3293421483637 M415.4759600694877,666.3293421483637 L415.2504600328502,668.4838834290971 M415.2504600328502,668.4838834290971 L414.13903535411487,670.5446472346332 M414.13903535411487,670.5446472346332 L412.2062524645538,672.3918686656382 M412.2062524645538,672.3918686656382 L409.56443349874297,673.9181878316872 M409.56443349874297,673.9181878316872 L406.3671183563487,675.0348884794103 M406.3671183563487,675.0348884794103 L402.80012802618523,675.6770635103861 M402.80012802618523,675.6770635103861 L399.07076797410645,675.8073955343995 M399.07076797410645,675.8073955343995 L395.3958037518457,675.4183050713298 M395.3958037518457,675.4183050713298 L391.9887948858918,674.5324070444956 M391.9887948858918,674.5324070444956 L389.0477913157473,673.2011896226351 M406.0944868466,672.3478327836143 L410.9649060479076,660.5389009277185 M393.91844729809105,679.3825156228958 L392.63840483418124,678.4385362171887 M392.63840483418124,678.4385362171887 L391.78657632500875,677.3450075742323 M391.78657632500875,677.3450075742323 L391.41246210453096,676.1654832860846 M391.41246210453096,676.1654832860846 L391.53780366340385,674.9685069704481 M391.53780366340385,674.9685069704481 L392.15532150672396,673.8236511253231 M392.15532150672396,673.8236511253231 L393.22910663523305,672.7974382734217 M393.22910663523305,672.7974382734217 L394.6967675299956,671.9495147001716 M394.6967675299956,671.9495147001716 L396.47300725877375,671.3291571919297 M396.47300725877375,671.3291571919297 L398.45458411221523,670.9724078053885 M398.45458411221523,670.9724078053885 L400.52635850328573,670.9000082367431 M400.52635850328573,670.9000082367431 L402.5679153470018,671.1161604726035 M402.5679153470018,671.1161604726035 L404.46062282319815,671.6083014664327 M404.46062282319815,671.6083014664327 L406.0944868466,672.3478327836143 M389.0477913157473,673.2011896226351 L386.7436905641297,671.5020336874742 M386.7436905641297,671.5020336874742 L385.21040822477573,669.5336806906759 M385.21040822477573,669.5336806906759 L384.53703849577386,667.4105519799002 M384.53703849577386,667.4105519799002 L384.76270126058677,665.2560221145163 M384.76270126058677,665.2560221145163 L385.8742608455141,663.1953121071031 M385.8742608455141,663.1953121071031 L387.807119914038,661.3481745325275 M387.807119914038,661.3481745325275 L390.44893887984887,659.8219500708409 M390.44893887984887,659.8219500708409 L393.6461778432803,658.7053332795479 M393.6461778432803,658.7053332795479 L397.2130332672518,658.063212046389 M397.2130332672518,658.063212046389 L400.9422305911551,657.9328914377985 M400.9422305911551,657.9328914377985 L404.61704154277385,658.3219483184342 M404.61704154277385,658.3219483184342 L408.02394170690474,659.2077754582659 M408.02394170690474,659.2077754582659 L410.9649060479076,660.5389009277185" stroke="black"  stroke-width="4"  fill="red"/>
<path d="M588.6810816070351,559.8261195754835 L590.3141364838598,559.0869989636205 M590.3141364838598,559.0869989636205 L592.2060818165824,558.5951312842703 M592.2060818165824,558.5951312842703 L594.2469678098066,558.3790990901965 M594.2469678098066,558.3790990901965 L596.3182016256926,558.4514584511984 M596.3182016256926,558.4514584511984 L598.2993996001064,558.8080097141876 M598.2993996001064,558.8080097141876 L600.075444153671,559.4280227016372 M600.075444153671,559.4280227016372 L601.5431049282136,560.2754753725022 M601.5431049282136,560.2754753725022 L602.6170849996831,561.3011183060619 M602.6170849996831,561.3011183060619 L603.2349815135888,562.4453383414804 M603.2349815135888,562.4453383414804 L603.3608634764923,563.6416498997488 M603.3608634764923,563.6416498997488 L602.987419982878,564.8205191208331 M602.987419982878,564.8205191208331 L602.1363535474084,565.9134404540355 M602.1363535474084,565.9134404540355 L600.8571202164205,566.8568956033866 M600.8571202164205,566.8568956033866 L599.224053252238,567.5960445718827 M599.224053252238,567.5960445718827 L597.3320743996378,568.0879341117297 M597.3320743996378,568.0879341117297 L595.2911411330122,568.3039766622611 M595.2911411330122,568.3039766622611 L593.2198571196368,568.2316137810583 M593.2198571196368,568.2316137810583 L591.2386175237175,567.8750459274071 M591.2386175237175,567.8750459274071 L589.4625494590866,567.2550070799971 M589.4625494590866,567.2550070799971 L587.9948886705015,566.4075252037227 M587.9948886705015,566.4075252037227 L586.9209320852294,565.3818564100171 M586.9209320852294,565.3818564100171 L586.3030771768749,564.2376197841116 M586.3030771768749,564.2376197841116 L586.1772454080754,563.0413047055166 M586.1772454080754,563.0413047055166 L586.5507361850505,561.8624458407587 M586.5507361850505,561.8624458407587 L587.4018361614199,560.7695463680539 M587.4018361614199,560.7695463680539 L588.6810816070351,559.8261195754835 M588.6810816070351,559.8261195754835 L588.6706025166118,604.7926517767418 M588.6706025166118,604.7926517767418 L587.391428096762,605.7361308986024 M587.391428096762,605.7361308986024 L586.5403753631167,606.8290909911308 M586.5403753631167,606.8290909911308 L586.1669053000401,608.0080152432522 M586.1669053000401,608.0080152432522 L586.2927300494594,609.204396677059 M586.2927300494594,609.204396677059 L586.9105506121093,610.3486967692081 M586.9105506121093,610.3486967692081 L587.9844475219782,611.3744224523671 M587.9844475219782,611.3744224523671 L589.4520267725252,612.2219513346124 M589.4520267725252,612.2219513346124 L591.2279961752781,612.8420245726367 M591.2279961752781,612.8420245726367 L593.2091257204122,613.1986122033679 M593.2091257204122,613.1986122033679 L595.2802946891934,613.2709790981826 M595.2802946891934,613.2709790981826 L597.3211146047192,613.054924564833 M597.3211146047192,613.054924564833 L599.2129883870512,612.5630077422434 M599.2129883870512,612.5630077422434 L600.8459646683991,611.8238177765908 M600.8459646683991,611.8238177765908 L602.125126974968,610.8803102979517 M602.125126974968,610.8803102979517 L602.97614617144,609.7873283449276 M602.97614617144,609.7873283449276 L603.3495689564079,608.6083937364805 M603.3495689564079,608.6083937364805 L603.22369401846,607.4120158229999 M603.22369401846,607.4120158229999 L602.6058318548801,606.2677323213366 M602.6058318548801,606.2677323213366 L601.5319114614217,605.2420324983216 M601.5319114614217,605.2420324983216 L600.0643322249152,604.3945328214834 M600.0643322249152,604.3945328214834 L598.2883863306163,603.7744854434173 M598.2883863306163,603.7744854434173 L596.3072984023638,603.4179144033469 M596.3072984023638,603.4179144033469 L594.2361796254963,603.3455510287329 M594.2361796254963,603.3455510287329 L592.1954069781209,603.5615952056257 M592.1954069781209,603.5615952056257 L590.3035667119436,604.0534901677203 M590.3035667119436,604.0534901677203 L588.6706025166118,604.7926517767418" stroke="black"  stroke-width="4"  fill="red"/>
<path d="M588.6810816070351,559.8261195754835 L590.3141364838598,559.0869989636205 M590.3141364838598,559.0869989636205 L592.2060818165824,558.5951312842703 M592.2060818165824,558.5951312842703 L594.2469678098066,558.3790990901965 M594.2469678098066,558.3790990901965 L596.3182016256926,558.4514584511984 M596.3182016256926,558.4514584511984 L598.2993996001064,558.8080097141876 M598.2993996001064,558.8080097141876 L600.075444153671,559.4280227016372 M600.075444153671,559.4280227016372 L601.5431049282136,560.2754753725022 M601.5431049282136,560.2754753725022 L602.6170849996831,561.3011183060619 M602.6170849996831,561.3011183060619 L603.2349815135888,562.4453383414804 M603.2349815135888,562.4453383414804 L603.3608634764923,563.6416498997488 M603.3608634764923,563.6416498997488 L602.987419982878,564.8205191208331 M602.987419982878,564.8205191208331 L602.1363535474084,565.9134404540355 M602.1363535474084,565.9134404540355 L600.8571202164205,566.8568956033866 M600.8571202164205,566.8568956033866 L605.7299393981014,560.6752549815046 M583.812826356422,548.0199985471976 L586.752334217947,546.6896123326972 M586.752334217947,546.6896123326972 L590.1578625112295,545.8042771452198 M590.1578625112295,545.8042771452198 L593.8314659296943,545.4154363306075 M593.8314659296943,545.4154363306075 L597.5596902186023,545.5456845645708 M597.5596902186023,545.5456845645708 L601.1258636498837,546.1874491900558 M601.1258636498837,546.1874491900558 L604.3227512957308,547.3034458570481 M604.3227512957308,547.3034458570481 L606.9645700350277,548.8288227119552 M606.9645700350277,548.8288227119552 L608.8977799851623,550.6749344525955 M608.8977799851623,550.6749344525955 L610.0100211760846,552.7345000100897 M610.0100211760846,552.7345000100897 L610.236656665367,554.8878333148987 M610.236656665367,554.8878333148987 L609.5644942541487,557.0097828981269 M609.5644942541487,557.0097828981269 L608.0325836751856,558.9770427200534 M608.0325836751856,558.9770427200534 L605.7299393981014,560.6752549815046 M588.6810816070351,559.8261195754835 L583.812826356422,548.0199985471976 M600.8571202164205,566.8568956033866 L599.224053252238,567.5960445718827 M599.224053252238,567.5960445718827 L597.3320743996378,568.0879341117297 M597.3320743996378,568.0879341117297 L595.2911411330122,568.3039766622611 M595.2911411330122,568.3039766622611 L593.2198571196368,568.2316137810583 M593.2198571196368,568.2316137810583 L591.2386175237175,567.8750459274071 M591.2386175237175,567.8750459274071 L589.4625494590866,567.2550070799971 M589.4625494590866,567.2550070799971 L587.9948886705015,566.4075252037227 M587.9948886705015,566.4075252037227 L586.9209320852294,565.3818564100171 M586.9209320852294,565.3818564100171 L586.3030771768749,564.2376197841116 M586.3030771768749,564.2376197841116 L586.1772454080754,563.0413047055166 M586.1772454080754,563.0413047055166 L586.5507361850505,561.8624458407587 M586.5507361850505,561.8624458407587 L587.4018361614199,560.7695463680539 M587.4018361614199,560.7695463680539 L588.6810816070351,559.8261195754835 M605.7299393981014,560.6752549815046 L602.7903923733995,562.0057330718224 M602.7903923733995,562.0057330718224 L599.384755472721,562.8911390872576 M599.384755472721,562.8911390872576 L595.7109988848706,563.2800134563317 M595.7109988848706,563.2800134563317 L591.9826119526772,563.149753816454 M591.9826119526772,563.149753816454 L588.4163036642799,562.5079354379624 M588.4163036642799,562.5079354379624 L585.219339841489,561.391854984387 M585.219339841489,561.391854984387 L582.5775210566921,559.8663835040007 M582.5775210566921,559.8663835040007 L580.6443872029242,558.0201879767785 M580.6443872029242,558.0201879767785 L579.5322808174242,555.960568665972 M579.5322808174242,555.960568665972 L579.3058079604584,553.8072239553219 M579.3058079604584,553.8072239553219 L579.9781235733312,551.6853079266201 M579.9781235733312,551.6853079266201 L581.5101428278049,549.7181189330703 M581.5101428278049,549.7181189330703 L583.812826356422,548.0199985471976" stroke="black"  stroke-width="4"  fill="red"/>
<path d="M393.921827956022,454.39376015874427 L392.6424962799054,453.4508288291373 M392.6424962799054,453.4508288291373 L391.7911407708627,452.3585142999098 M391.7911407708627,452.3585142999098 L391.41723427808375,451.18029960033783 M391.41723427808375,451.18029960033783 L391.542506222461,449.9846522458179 M391.542506222461,449.9846522458179 L392.1596811544939,448.8410674905959 M392.1596811544939,448.8410674905959 L393.23287001737725,447.81599400074447 M393.23287001737725,447.81599400074447 L394.69971593887993,446.9690118400933 M394.69971593887993,446.9690118400933 L396.4749693510558,446.3493430865167 M396.4749693510558,446.3493430865167 L398.45544587185407,445.9929897820812 M398.45544587185407,445.9929897820812 L400.52606984712907,445.92067059523754 M400.52606984712907,445.92067059523754 L402.5664930536558,446.13658284749636 M402.5664930536558,446.13658284749636 L404.45814954298964,446.6281774399855 M404.45814954298964,446.6281774399855 L406.0911063060268,447.366887688568 M406.0911063060268,447.366887688568 L407.3704500764173,448.3097906850069 M407.3704500764173,448.3097906850069 L408.2218390972323,449.4020833719402 M408.2218390972323,449.4020833719402 L408.595792842143,450.5802877238094 M408.595792842143,450.5802877238094 L408.4705710656934,451.7759385957246 M408.4705710656934,451.7759385957246 L407.85343772408424,452.91953992761864 M407.85343772408424,452.91953992761864 L406.7802723467862,453.9446392560824 M406.7802723467862,453.9446392560824 L405.3134264252836,454.79165059782366 M405.3134264252836,454.79165059782366 L403.5381495275225,455.41134518982705 M403.5381495275225,455.41134518982705 L401.55763141630035,455.76771507110936 M401.55763141630035,455.76771507110936 L399.4869572730977,455.8400377752226 M399.4869572730977,455.8400377752226 L397.4464868144392,455.62411517513016 M397.4464868144392,455.62411517513016 L395.5547968133331,455.1324987403474 M395.5547968133331,455.1324987403474 L393.921827956022,454.39376015874427 M393.921827956022,454.39376015874427 L393.9221658152483,499.3544427789762 M393.9221658152483,499.3544427789762 L395.55504400061506,500.09322235775875 M395.55504400061506,500.09322235775875 L397.4466289635303,500.5848660752995 M397.4466289635303,500.5848660752995 L399.4869861224894,500.8008006582171 M399.4869861224894,500.8008006582171 L401.5575452888333,500.7284739404896 M401.5575452888333,500.7284739404896 L403.53795342940435,500.372084282116 M403.53795342940435,500.372084282116 L405.3131317531628,499.752355299479 M405.3131317531628,499.752355299479 L406.779896227136,498.90529695174047 M406.779896227136,498.90529695174047 L407.8530020169129,497.8801407337916 M407.8530020169129,497.8801407337916 L408.4701010929651,496.7364759356189 M408.4701010929651,496.7364759356189 L408.59531591779074,495.54075870845554 M408.59531591779074,495.54075870845554 L408.2213829382054,494.3624889691875 M408.2213829382054,494.3624889691875 L407.370041192224,493.27013566239793 M407.370041192224,493.27013566239793 L406.09076845852553,492.327180336641 M406.09076845852553,492.327180336641 L404.4579023660896,491.5884290908781 M404.4579023660896,491.5884290908781 L402.5663509112252,491.09680721563024 M402.5663509112252,491.09680721563024 L400.52604099915067,490.88088298054606 M400.52604099915067,490.88088298054606 L398.4555319951633,490.95320618100396 M398.4555319951633,490.95320618100396 L396.4751654403975,491.3095792625311 M396.4751654403975,491.3095792625311 L394.70001059961635,491.92928240674223 M394.70001059961635,491.92928240674223 L393.2332461256431,492.7763115733917 M393.2332461256431,492.7763115733917 L392.16011685288896,493.801441952729 M392.16011685288896,493.801441952729 L391.54297619103147,494.94509017423024 M391.54297619103147,494.94509017423024 L391.41771120384936,496.1408038839984 M391.41771120384936,496.1408038839984 L391.79159693655015,497.31908397096896 M391.79159693655015,497.31908397096896 L392.64290517448063,498.411459120052 M392.64290517448063,498.411459120052 L393.9221658152483,499.3544427789762" stroke="black"  stroke-width="4"  fill="red"/>
<path d="M393.921827956022,454.39376015874427 L392.6424962799054,453.4508288291373 M392.6424962799054,453.4508288291373 L391.7911407708627,452.3585142999098 M391.7911407708627,452.3585142999098 L391.41723427808375,451.18029960033783 M391.41723427808375,451.18029960033783 L391.542506222461,449.9846522458179 M391.542506222461,449.9846522458179 L392.1596811544939,448.8410674905959 M392.1596811544939,448.8410674905959 L393.23287001737725,447.81599400074447 M393.23287001737725,447.81599400074447 L394.69971593887993,446.9690118400933 M394.69971593887993,446.9690118400933 L396.4749693510558,446.3493430865167 M396.4749693510558,446.3493430865167 L398.45544587185407,445.9929897820812 M398.45544587185407,445.9929897820812 L400.52606984712907,445.92067059523754 M400.52606984712907,445.92067059523754 L402.5664930536558,446.13658284749636 M402.5664930536558,446.13658284749636 L404.45814954298964,446.6281774399855 M404.45814954298964,446.6281774399855 L406.0911063060268,447.366887688568 M406.0911063060268,447.366887688568 L410.9588210241782,435.56357618729487 M389.0538767197286,448.21180621763006 L386.7510554090117,446.51453684396364 M386.7510554090117,446.51453684396364 L385.21862446095435,444.5483692864778 M385.21862446095435,444.5483692864778 L384.54562860714196,442.42759784878706 M384.54562860714196,442.42759784878706 L384.7711660177703,440.2754601080296 M384.7711660177703,440.2754601080296 L385.8821083236357,438.21703804733465 M385.8821083236357,438.21703804733465 L387.81389406726606,436.3719512863002 M387.81389406726606,436.3719512863002 L390.454246048617,434.8474213322759 M390.454246048617,434.8474213322759 L393.6497096277045,433.73204427313914 M393.6497096277045,433.73204427313914 L397.21458443807086,433.0906359583429 M397.21458443807086,433.0906359583429 L400.9417110087139,432.9604600387325 M400.9417110087139,432.9604600387325 L404.61448140483844,433.3490849672629 M404.61448140483844,433.3490849672629 L408.01948977018253,434.23392861208737 M408.01948977018253,434.23392861208737 L410.9588210241782,435.56357618729487 M393.921827956022,454.39376015874427 L389.0538767197286,448.21180621763006 M406.0911063060268,447.366887688568 L407.3704500764173,448.3097906850069 M407.3704500764173,448.3097906850069 L408.2218390972323,449.4020833719402 M408.2218390972323,449.4020833719402 L408.595792842143,450.5802877238094 M408.595792842143,450.5802877238094 L408.4705710656934,451.7759385957246 M408.4705710656934,451.7759385957246 L407.85343772408424,452.91953992761864 M407.85343772408424,452.91953992761864 L406.7802723467862,453.9446392560824 M406.7802723467862,453.9446392560824 L405.3134264252836,454.79165059782366 M405.3134264252836,454.79165059782366 L403.5381495275225,455.41134518982705 M403.5381495275225,455.41134518982705 L401.55763141630035,455.76771507110936 M401.55763141630035,455.76771507110936 L399.4869572730977,455.8400377752226 M399.4869572730977,455.8400377752226 L397.4464868144392,455.62411517513016 M397.4464868144392,455.62411517513016 L395.5547968133331,455.1324987403474 M395.5547968133331,455.1324987403474 L393.921827956022,454.39376015874427 M410.9588210241782,435.56357618729487 L413.26168152048155,437.26075376188845 M413.26168152048155,437.26075376188845 L414.79422104967273,439.2268505499769 M414.79422104967273,439.2268505499769 L415.46737000395393,441.3475884610823 M415.46737000395393,441.3475884610823 L415.2419951408274,443.4997375981833 M415.2419951408274,443.4997375981833 L414.1311875913706,445.5582133674296 M414.1311875913706,445.5582133674296 L412.19947794212334,447.4033838452762 M412.19947794212334,447.4033838452762 L409.55912596077235,448.9280083459842 M409.55912596077235,448.9280083459842 L406.3635862873018,450.0434691219341 M406.3635862873018,450.0434691219341 L402.7985767205269,450.6849311449764 M402.7985767205269,450.6849311449764 L399.07128760238186,450.8151184610034 M399.07128760238186,450.8151184610034 L395.3983641057886,450.42646000595226 M395.3983641057886,450.42646000595226 L391.99324715931067,449.5415455921491 M391.99324715931067,449.5415455921491 L389.0538767197286,448.21180621763006" stroke="black"  stroke-width="4"  fill="red"/>
<path d="M211.32868328480532,566.8568956033866 L209.6949055125279,567.5960445718827 M209.6949055125279,567.5960445718827 L207.80245363069875,568.0879341117297 M207.80245363069875,568.0879341117297 L205.76131260514995,568.3039766622611 M205.76131260514995,568.3039766622611 L203.69009818007663,568.2316137810583 M203.69009818007663,568.2316137810583 L201.70920148028188,567.8750459274071 M201.70920148028188,567.8750459274071 L199.9337296806135,567.2550070799971 M199.9337296806135,567.2550070799971 L198.46688387926838,566.4075252037227 M198.46688387926838,566.4075252037227 L197.39391363600913,565.3818564100171 M197.39391363600913,565.3818564100171 L196.77715909130353,564.2376197841116 M196.77715909130353,564.2376197841116 L196.65247776778386,563.0413047055165 M196.65247776778386,563.0413047055165 L197.02710220314117,561.8624458407587 M197.02710220314117,561.8624458407587 L197.87925317440505,560.7695463680539 M197.87925317440505,560.7695463680539 L199.15940587340168,559.8261195754835 M199.15940587340168,559.8261195754835 L200.7931715310519,559.0869989636205 M200.7931715310519,559.0869989636205 L202.68558987198128,558.5951312842703 M202.68558987198128,558.5951312842703 L204.7266836141692,558.3790990901964 M204.7266836141692,558.3790990901964 L206.79784784513828,558.4514584511984 M206.79784784513828,558.4514584511984 L208.77870293938216,558.8080097141875 M208.77870293938216,558.8080097141875 L210.55415125285288,559.4280227016371 M210.55415125285288,559.4280227016371 L212.0209970682407,560.2754753725022 M212.0209970682407,560.2754753725022 L213.0939908225663,561.3011183060618 M213.0939908225663,561.3011183060618 L213.7107869887771,562.4453383414804 M213.7107869887771,562.4453383414804 L213.8355185097863,563.6416498997488 M213.8355185097863,563.6416498997488 L213.4609413478306,564.8205191208331 M213.4609413478306,564.8205191208331 L212.60882389644422,565.9134404540355 M212.60882389644422,565.9134404540355 L211.32868328480532,566.8568956033866 M211.32868328480532,566.8568956033866 L211.33916273900732,611.8238177765908 M211.33916273900732,611.8238177765908 L212.61923222544686,610.8803102979517 M212.61923222544686,610.8803102979517 L213.47130232108898,609.7873283449275 M213.47130232108898,609.7873283449275 L213.8458586484716,608.6083937364805 M213.8458586484716,608.6083937364805 L213.72113402462807,607.4120158229999 M213.72113402462807,607.4120158229999 L213.104372086518,606.2677323213366 M213.104372086518,606.2677323213366 L212.03143790064516,605.2420324983216 M212.03143790064516,605.2420324983216 L210.56467353276912,604.3945328214834 M210.56467353276912,604.3945328214834 L208.78932381233497,603.7744854434173 M208.78932381233497,603.7744854434173 L206.80857872616622,603.4179144033469 M206.80857872616622,603.4179144033469 L204.73752952648624,603.3455510287328 M204.73752952648624,603.3455510287328 L202.69654915322332,603.5615952056257 M202.69654915322332,603.5615952056257 L200.80423593138025,604.0534901677203 M200.80423593138025,604.0534901677203 L199.17056103417488,604.7926517767418 M199.17056103417488,604.7926517767418 L197.8904794617195,605.7361308986023 M197.8904794617195,605.7361308986023 L197.03837584992266,606.8290909911308 M197.03837584992266,606.8290909911308 L196.66377225438933,608.0080152432522 M196.66377225438933,608.0080152432522 L196.78844668631922,609.204396677059 M196.78844668631922,609.204396677059 L197.40516700754776,610.348696769208 M197.40516700754776,610.348696769208 L198.47807768496656,611.3744224523671 M198.47807768496656,611.3744224523671 L199.94484203880214,612.2219513346124 M199.94484203880214,612.2219513346124 L201.72021524282596,612.8420245726367 M201.72021524282596,612.8420245726367 L203.70100192992444,613.1986122033679 M203.70100192992444,613.1986122033679 L205.77210131813325,613.2709790981826 M205.77210131813325,613.2709790981826 L207.81312896950456,613.054924564833 M207.81312896950456,613.054924564833 L209.70547572852126,612.5630077422434 M209.70547572852126,612.5630077422434 L211.33916273900732,611.8238177765908" stroke="black"  stroke-width="4"  fill="red"/>
<path d="M211.32868328480532,566.8568956033866 L209.6949055125279,567.5960445718827 M209.6949055125279,567.5960445718827 L207.80245363069875,568.0879341117297 M207.80245363069875,568.0879341117297 L205.76131260514995,568.3039766622611 M205.76131260514995,568.3039766622611 L203.69009818007663,568.2316137810583 M203.69009818007663,568.2316137810583 L201.70920148028188,567.8750459274071 M201.70920148028188,567.8750459274071 L199.9337296806135,567.2550070799971 M199.9337296806135,567.2550070799971 L198.46688387926838,566.4075252037227 M198.46688387926838,566.4075252037227 L197.39391363600913,565.3818564100171 M197.39391363600913,565.3818564100171 L196.77715909130353,564.2376197841116 M196.77715909130353,564.2376197841116 L196.65247776778386,563.0413047055165 M196.65247776778386,563.0413047055165 L197.02710220314117,561.8624458407587 M197.02710220314117,561.8624458407587 L197.87925317440505,560.7695463680539 M197.87925317440505,560.7695463680539 L199.15940587340168,559.8261195754835 M199.15940587340168,559.8261195754835 L194.28952795564723,548.0199985471976 M216.1944705705606,560.6752549815046 L213.2536440390982,562.0057330718224 M213.2536440390982,562.0057330718224 L209.84715565278415,562.8911390872574 M209.84715565278415,562.8911390872574 L206.1730250885505,563.2800134563317 M206.1730250885505,563.2800134563317 L202.44476342568018,563.149753816454 M202.44476342568018,563.149753816454 L198.87907236725465,562.5079354379623 M198.87907236725465,562.5079354379623 L195.68318186727623,561.391854984387 M195.68318186727623,561.391854984387 L193.0428301123281,559.8663835040006 M193.0428301123281,559.8663835040006 L191.11147172534592,558.0201879767785 M191.11147172534592,558.0201879767785 L190.001346054035,555.960568665972 M190.001346054035,555.960568665972 L189.7769440459879,553.8072239553218 M189.7769440459879,553.8072239553218 L190.45130028314702,551.68530792662 M190.45130028314702,551.68530792662 L191.98521136254794,549.7181189330703 M191.98521136254794,549.7181189330703 L194.28952795564723,548.0199985471976 M211.32868328480532,566.8568956033866 L216.1944705705606,560.6752549815046 M199.15940587340168,559.8261195754835 L200.7931715310519,559.0869989636205 M200.7931715310519,559.0869989636205 L202.68558987198128,558.5951312842703 M202.68558987198128,558.5951312842703 L204.7266836141692,558.3790990901964 M204.7266836141692,558.3790990901964 L206.79784784513828,558.4514584511984 M206.79784784513828,558.4514584511984 L208.77870293938216,558.8080097141875 M208.77870293938216,558.8080097141875 L210.55415125285288,559.4280227016371 M210.55415125285288,559.4280227016371 L212.0209970682407,560.2754753725022 M212.0209970682407,560.2754753725022 L213.0939908225663,561.3011183060618 M213.0939908225663,561.3011183060618 L213.7107869887771,562.4453383414804 M213.7107869887771,562.4453383414804 L213.8355185097863,563.6416498997488 M213.8355185097863,563.6416498997488 L213.4609413478306,564.8205191208331 M213.4609413478306,564.8205191208331 L212.60882389644422,565.9134404540355 M212.60882389644422,565.9134404540355 L211.32868328480532,566.8568956033866 M194.28952795564723,548.0199985471976 L197.23031523557665,546.6896123326972 M197.23031523557665,546.6896123326972 L200.63669494638017,545.8042771452198 M200.63669494638017,545.8042771452198 L204.31067230895943,545.4154363306073 M204.31067230895943,545.4154363306073 L208.03877133951315,545.5456845645708 M208.03877133951315,545.5456845645708 L211.60432759251634,546.1874491900556 M211.60432759251634,546.1874491900556 L214.80014199612782,547.3034458570481 M214.80014199612782,547.3034458570481 L217.44049379657616,548.8288227119551 M217.44049379657616,548.8288227119551 L219.37192836050207,550.6749344525955 M219.37192836050207,550.6749344525955 L220.48218888892902,552.7345000100897 M220.48218888892902,552.7345000100897 L220.7067535402616,554.8878333148987 M220.7067535402616,554.8878333148987 L220.03255047248783,557.0097828981268 M220.03255047248783,557.0097828981268 L218.49874800048275,558.9770427200534 M218.49874800048275,558.9770427200534 L216.1944705705606,560.6752549815046" stroke="black"  stroke-width="4"  fill="red"/></svg>