<svg viewBox="0 0 800 800" xmlns="http://www.w3.org/2000/svg"><path d="M438.7407742938717,402.88920341776304 L422.65658047110804,65.65335747390844 M438.7407742938717,402.88920341776304 L445.85809403313596,405.3764206191123 M422.65658047110804,65.65335747390844 L433.82622896008786,63.94896850077953 M433.82622896008786,63.94896850077953 L442.02347477104405,62.13442087529131 M442.02347477104405,62.13442087529131 L446.7718054919988,60.31517610512515 M446.7718054919988,60.31517610512515 L447.79507193724055,58.59691465376915 M447.79507193724055,58.59691465376915 L445.03355141133136,57.07955876584697 M445.03355141133136,57.07955876584697 L438.6474806743933,55.85125452920511 M438.6474806743933,55.85125452920511 L429.0078261911535,54.98345024734465 M429.0078261911535,54.98345024734465 L416.6747592709642,54.52660350255218 M416.6747592709642,54.52660350255218 L402.36506797738707,54.50728962542041 M402.36506797738707,54.50728962542041 L386.91056540550164,54.92664186634045 M386.91056540550164,54.92664186634045 L371.20963953418845,55.76028789931769 M371.20963953418845,55.76028789931769 L356.1750277650032,56.959739936277174 M356.1750277650032,56.959739936277174 L342.68070055448504,58.45531802548567 M342.68070055448504,58.45531802548567 L331.51101488111186,60.160011006130276 M331.51101488111186,60.160011006130276 L323.3151247729761,61.97478810033982 M323.3151247729761,61.97478810033982 L318.5692113092033,63.79411198120226 M318.5692113092033,63.79411198120226 L317.5489101601888,65.51226080259693 M317.5489101601888,65.51226080259693 L320.31323844811516,67.02938219669807 M320.31323844811516,67.02938219669807 L326.7013271985401,68.25734072399894 M326.7013271985401,68.25734072399894 L336.34172688760276,69.12480813765512 M336.34172688760276,69.12480813765512 L348.67413149557785,69.5813705400787 M348.67413149557785,69.5813705400787 L362.9818686772824,69.60054486273958 M362.9818686772824,69.60054486273958 L378.43358825682964,69.18120979556119 M378.43358825682964,69.18120979556119 L394.1315495488687,68.34774713295297 M394.1315495488687,68.34774713295297 L409.16368455469603,67.14857308090814 M409.16368455469603,67.14857308090814 L422.65658047110804,65.65335747390844 M445.85809403313596,405.3764206191123 L445.85820016722715,405.3764636155308 M398.54265367298154,314.9621572507183 L417.29149523457266,281.7778137111012 M417.29149523457266,281.7778137111012 L426.6276388346473,270.38841535386024 M426.6276388346473,270.38841535386024 L432.4385073172617,265.3768179096291 M432.4385073172617,265.3768179096291 L437.02527780242883,262.6981913399021 M437.02527780242883,262.6981913399021 L441.49091646661736,261.3734691119468 M441.49091646661736,261.3734691119468 L445.34836297476903,261.5164799462816 M445.34836297476903,261.5164799462816 L448.5140449819226,262.83897998450783 M448.5140449819226,262.83897998450783 L452.01541162564837,266.19589941363574 M452.01541162564837,266.19589941363574 L454.3961193428593,270.34378024572214 M454.3961193428593,270.34378024572214 L456.6051717177779,276.7960847251358 M456.6051717177779,276.7960847251358 L458.5471121204068,287.8397242656288 M458.5471121204068,287.8397242656288 L459.40368192784814,301.71981581306545 M459.40368192784814,301.71981581306545 L457.6660868860204,337.26974998056295 M457.6660868860204,337.26974998056295 L445.85820016722715,405.3764636155308 M353.4667359249508,406.4238608017397 L365.33539848100384,402.3366872783413 M365.33539848100384,402.3366872783413 L377.92030260872934,399.67232809061846 M377.92030260872934,399.67232809061846 L390.289108220752,398.2637395716984 M390.289108220752,398.2637395716984 L403.0710571499755,397.88356978038803 M403.0710571499755,397.88356978038803 L415.66017694893577,398.5459238251235 M415.66017694893577,398.5459238251235 L427.49480305980626,400.19195911321617 M427.49480305980626,400.19195911321617 L433.31345354173595,401.4279647541243 M433.31345354173595,401.4279647541243 L438.7407742938717,402.88920341776304 M351.3056295417621,239.34081488043358 L359.6713419520284,247.43014563462518 M359.6713419520284,247.43014563462518 L370.23409916637274,261.7393812989542 M370.23409916637274,261.7393812989542 L382.0308659293643,281.86738728001694 M382.0308659293643,281.86738728001694 L398.54265367298154,314.9621572507183 M353.4667359249508,406.4238608017397 L332.58494443216597,318.7554929859388 M332.58494443216597,318.7554929859388 L327.76932859476256,280.36300562690894 M327.76932859476256,280.36300562690894 L327.2193538993722,265.68789366141107 M327.2193538993722,265.68789366141107 L327.8037553567568,253.829212394559 M327.8037553567568,253.829212394559 L329.8900178153102,243.7508494502694 M329.8900178153102,243.7508494502694 L332.3814652644596,238.70077626610308 M332.3814652644596,238.70077626610308 L335.34513183485984,235.8044060568998 M335.34513183485984,235.8044060568998 L338.41506591780325,234.61646323584355 M338.41506591780325,234.61646323584355 L341.86063909113835,234.64552651582176 M341.86063909113835,234.64552651582176 L344.1809764107907,235.25751979948382 M344.1809764107907,235.25751979948382 L346.55700494643526,236.28241985785985 M346.55700494643526,236.28241985785985 L351.3056295417621,239.34081488043358 M438.7407742938717,402.88920341776304 L438.344986881888,407.5368127150094 M438.344986881888,407.5368127150094 L438.4647215207466,412.11408276200166 M438.4647215207466,412.11408276200166 L439.0941600078972,416.39885929568146 M439.0941600078972,416.39885929568146 L446.16410743215255,417.07608896170734 M445.85809403313596,405.3764206191123 L445.5089333625591,409.374485445912 M445.5089333625591,409.374485445912 L445.6121792413167,413.3220510029261 M445.6121792413167,413.3220510029261 L446.16410743215255,417.07608896170734 M422.65658047110804,65.65335747390844 L421.917662267138,59.515574233713494 M421.917662267138,59.515574233713494 L420.32395353884993,53.64106485986014 M420.32395353884993,53.64106485986014 L417.96474521784234,48.358991928688056 M417.96474521784234,48.358991928688056 L414.97220688925853,43.965338006817944 M414.97220688925853,43.965338006817944 L411.5140386818356,40.70630661315204 M411.5140386818356,40.70630661315204 L419.89123084182603,39.427696835893585 M419.89123084182603,39.427696835893585 L426.03899033640624,38.06642466638533 M426.03899033640624,38.06642466638533 L429.59999168566037,36.70158580768913 M429.59999168566037,36.70158580768913 L430.36713860645085,35.41250930047869 M430.36713860645085,35.41250930047869 L428.29571909888057,34.27407833280148 M428.29571909888057,34.27407833280148 L423.5059799811232,33.352524179159445 M423.5059799811232,33.352524179159445 L416.27617696539045,32.701377201484775 M416.27617696539045,32.701377201484775 L407.02645412084667,32.35851132908516 M407.02645412084667,32.35851132908516 L396.2944156335305,32.34385837272009 M396.2944156335305,32.34385837272009 L384.7038404446322,32.65827758680683 M384.7038404446322,32.65827758680683 L372.928468558433,33.2835121743135 M372.928468558433,33.2835121743135 L361.65278658075204,34.1832180076438 M361.65278658075204,34.1832180076438 L351.5322217281159,35.305052005914206 M351.5322217281159,35.305052005914206 L343.1550055595426,36.583841785182244 M343.1550055595426,36.583841785182244 L337.00800004387736,37.94524089080261 M337.00800004387736,37.94524089080261 L333.4483786889893,39.31011256661117 M333.4483786889893,39.31011256661117 L332.6828856303342,40.599141026205984 M332.6828856303342,40.599141026205984 L334.75589550041377,41.737430140606875 M334.75589550041377,41.737430140606875 L339.5467666431198,42.658798730540866 M339.5467666431198,42.658798730540866 L346.7769840151456,43.30975894246245 M346.7769840151456,43.30975894246245 L356.0263281164684,43.65246838810003 M356.0263281164684,43.65246838810003 L366.757281528761,43.66703109128861 M366.757281528761,43.66703109128861 L378.34629439085825,43.35261971926161 M378.34629439085825,43.35261971926161 L390.11999561821983,42.72748292444635 M390.11999561821983,42.72748292444635 L401.3942758291439,41.827945606336755 M401.3942758291439,41.827945606336755 L411.5140386818356,40.70630661315204 M446.16410743215255,417.07608896170734 L446.16410743215255,417.07608896170734 M445.85820016722715,405.3764636155308 L445.4976958331467,409.3799507801076 M445.4976958331467,409.3799507801076 L445.6004956543401,413.3115609360117 M445.6004956543401,413.3115609360117 L446.16410743215255,417.07608896170734 M419.7079824201794,327.1791779973714 L417.33730600734674,326.74049515888174 M417.33730600734674,326.74049515888174 L414.25700255345527,325.5689154814391 M414.25700255345527,325.5689154814391 L410.60019670828854,323.6691810708156 M410.60019670828854,323.6691810708156 L406.5870659066592,321.14167145960613 M406.5870659066592,321.14167145960613 L402.4828892611645,318.16623338344914 M402.4828892611645,318.16623338344914 L398.54265367298154,314.9621572507183 M419.7079824201794,327.1791779973714 L445.36531098462865,297.98105505736714 M445.36531098462865,297.98105505736714 L456.93243718488253,287.87869144017213 M456.93243718488253,287.87869144017213 L463.6572464380671,283.39425654636017 M463.6572464380671,283.39425654636017 L468.7219995757948,280.9912812236131 M468.7219995757948,280.9912812236131 L473.44367235383504,279.8141800536623 M473.44367235383504,279.8141800536623 L477.3306793697695,279.97417081795726 M477.3306793697695,279.97417081795726 L480.3435208839584,281.20843760889875 M480.3435208839584,281.20843760889875 L483.38099720389056,284.29769289311366 M483.38099720389056,284.29769289311366 L485.1276795520275,288.07976581254076 M485.1276795520275,288.07976581254076 L486.257255522102,293.9092673310634 M486.257255522102,293.9092673310634 L486.1643837729342,303.77888068152066 M486.1643837729342,303.77888068152066 L484.289398409203,316.0828715720663 M484.289398409203,316.0828715720663 L475.49954478513683,347.56330260068216 M475.49954478513683,347.56330260068216 L450.42949203279875,408.01544520187906 M450.42949203279875,408.01544520187906 L448.7939497396334,407.138743203358 M448.7939497396334,407.138743203358 L447.26670491433845,406.25707306345765 M447.26670491433845,406.25707306345765 L445.85820016722715,405.3764636155308 M353.4667359249508,406.4238608017397 L354.19792440051043,411.03363243828966 M354.19792440051043,411.03363243828966 L354.3172994819489,415.5861045815962 M354.3172994819489,415.5861045815962 L353.82098707147327,419.93346956571656 M353.82098707147327,419.93346956571656 L365.7508196711847,418.18420525219074 M365.7508196711847,418.18420525219074 L378.3720629778965,416.91207178073176 M378.3720629778965,416.91207178073176 L390.7559542227846,416.0852524023303 M390.7559542227846,416.0852524023303 L403.53519017074547,415.6079361993018 M403.53519017074547,415.6079361993018 L416.10401183589755,415.50122458484384 M416.10401183589755,415.50122458484384 L427.9021438468887,415.7587745625274 M427.9021438468887,415.7587745625274 L433.6955931469864,416.0343145404866 M433.6955931469864,416.0343145404866 L439.0941600078972,416.39885929568146 M351.3056295417621,239.34081488043358 L349.9777832993098,245.29849851489027 M349.9777832993098,245.29849851489027 L347.6748018393063,250.82325119238317 M347.6748018393063,250.82325119238317 L344.52269372162834,255.61270363092336 M344.52269372162834,255.61270363092336 L340.693909556519,259.4048362851417 M340.693909556519,259.4048362851417 L336.3979236153994,261.9921619020074 M336.3979236153994,261.9921619020074 L331.8697709223277,263.2331056087125 M331.8697709223277,263.2331056087125 L327.35718690246244,263.0597505679008 M327.35718690246244,263.0597505679008 L323.1070698636559,261.48153217822284 M323.1070698636559,261.48153217822284 L320.8828764017629,259.97598677766996 M320.8828764017629,259.97598677766996 L318.8614616687711,258.0641096840433 M318.8614616687711,258.0641096840433 L328.57310644766613,265.3771958757187 M328.57310644766613,265.3771958757187 L341.7927048266351,278.15384781406 M341.7927048266351,278.15384781406 L357.54145858633865,296.00182269240435 M357.54145858633865,296.00182269240435 L380.27677630648543,325.50552722227104 M398.54265367298154,314.9621572507183 L393.8077350623093,318.2392296344418 M393.8077350623093,318.2392296344418 L389.29993066633574,321.0859688784088 M389.29993066633574,321.0859688784088 L385.24785897332987,323.3580308101567 M385.24785897332987,323.3580308101567 L382.51501044636484,324.66572543441623 M382.51501044636484,324.66572543441623 L380.27677630648543,325.50552722227104 M348.8955628372456,409.0626964419481 L350.52651668918463,408.1735808736777 M350.52651668918463,408.1735808736777 L352.05372356624287,407.291960841299 M352.05372356624287,407.291960841299 L353.4667359249508,406.4238608017397 M348.8955628372456,409.0626964419481 L312.81744760864655,330.1647342841936 M312.81744760864655,330.1647342841936 L301.1617040710816,295.7189136473932 M301.1617040710816,295.7189136473932 L298.0376719434118,282.5288302556337 M298.0376719434118,282.5288302556337 L296.7443288636017,271.75339211193545 M296.7443288636017,271.75339211193545 L297.48230754799596,262.4527885650916 M297.48230754799596,262.4527885650916 L299.4121158293273,257.72668463736676 M299.4121158293273,257.72668463736676 L302.1093639442468,254.98401781575683 M302.1093639442468,254.98401781575683 L305.1131002782307,253.8342996053977 M305.1131002782307,253.8342996053977 L308.6356313662617,253.81903915785065 M308.6356313662617,253.81903915785065 L311.07586325536505,254.36192131978004 M311.07586325536505,254.36192131978004 L313.6243908481654,255.28737005229604 M313.6243908481654,255.28737005229604 L318.8614616687711,258.0641096840433 M446.15062929702106,697.0879309489065 L446.16410743215255,417.07608896170734 M446.15062929702106,697.0879309489065 L433.76255955174486,691.4815653775818 M433.76255955174486,691.4815653775818 L419.412273095231,687.7507262074696 M419.412273095231,687.7507262074696 L403.9336226079801,686.1121432221493 M403.9336226079801,686.1121432221493 L388.2259695074378,686.6610046832504 M388.2259695074378,686.6610046832504 L373.2019826565613,689.3654255125119 M373.2019826565613,689.3654255125119 L359.73462327904747,694.0683035286924 M359.73462327904747,694.0683035286924 L348.6064724274052,700.4964320454565 M348.6064724274052,700.4964320454565 L340.46425583435513,708.2763538961194 M340.46425583435513,708.2763538961194 L335.7812666658029,716.9560329742488 M335.7812666658029,716.9560329742488 L334.8298357010317,726.0311100030968 M334.8298357010317,726.0311100030968 L337.6654681118962,734.9741860040997 M337.6654681118962,734.9741860040997 L344.1235586770164,743.2654820377263 M344.1235586770164,743.2654820377263 L353.82892982377956,750.4230443390469 M353.82892982377956,750.4230443390469 L366.2175868802081,756.0307864857485 M366.2175868802081,756.0307864857485 L380.5695007252369,759.762686874155 M380.5695007252369,759.762686874155 L396.0504458623357,761.4017726089979 M396.0504458623357,761.4017726089979 L411.7605351983126,760.8527402539936 M411.7605351983126,760.8527402539936 L426.78654175716565,758.1475140376871 M426.78654175716565,758.1475140376871 L440.25504162528864,753.4433806457387 M440.25504162528864,753.4433806457387 L451.38319247692357,747.0138343558724 M451.38319247692357,747.0138343558724 L459.5242685793562,739.2326571293423 M459.5242685793562,739.2326571293423 L464.205238039937,730.552172664399 M464.205238039937,730.552172664399 L465.1542327692879,721.4769247419115 M465.1542327692879,721.4769247419115 L462.3163057085865,712.5343514901824 M462.3163057085865,712.5343514901824 L455.85658775494954,704.2441166751171 M455.85658775494954,704.2441166751171 L446.15062929702106,697.0879309489065 M446.16410743215255,417.07608896170734 L452.286784719084,424.0151209498851 M353.8145776535778,470.3960966359323 L344.5591769399085,468.0147322033804 M344.5591769399085,468.0147322033804 L338.0667156512826,463.27551597061534 M338.0667156512826,463.27551597061534 L335.07544750742153,457.0987735342385 M335.07544750742153,457.0987735342385 L334.937679148125,450.2155122996851 M334.937679148125,450.2155122996851 L337.2587586204338,442.39559665646357 M337.2587586204338,442.39559665646357 L341.8968778155853,434.0110498318795 M341.8968778155853,434.0110498318795 L347.26871765399056,426.93759132304604 M347.26871765399056,426.93759132304604 L353.82098707147327,419.93346956571656 M452.286784719084,424.0151209498851 L459.91257093122493,435.3022041262191 M459.91257093122493,435.3022041262191 L464.0644569802753,445.2111719018051 M464.0644569802753,445.2111719018051 L465.29172725557567,453.4591805152003 M465.29172725557567,453.4591805152003 L464.02188682472206,460.65538009815066 M464.02188682472206,460.65538009815066 L460.3238913788776,466.46389620203354 M460.3238913788776,466.46389620203354 L454.4338690641896,470.66276658473976 M454.4338690641896,470.66276658473976 L450.53307132728196,472.2001276279853 M450.53307132728196,472.2001276279853 L446.1692811609216,473.253559809104 M446.1692811609216,473.253559809104 L434.3177427622004,482.34240429285006 M434.3177427622004,482.34240429285006 L421.7863342462985,488.0096494084863 M421.7863342462985,488.0096494084863 L409.48676862165365,490.7032117488339 M409.48676862165365,490.7032117488339 L396.784737834051,490.9303123703843 M396.784737834051,490.9303123703843 L384.27574504049596,488.6890575323951 M384.27574504049596,488.6890575323951 L372.5111713020689,484.1464532721283 M372.5111713020689,484.1464532721283 L362.50273298088234,478.01906933307305 M362.50273298088234,478.01906933307305 L353.8145776535778,470.3960966359323 M417.60969283590214,168.51747772066187 L425.98712668218667,167.24039054721442 M425.98712668218667,167.24039054721442 L432.13509907085904,165.88097214240287 M432.13509907085904,165.88097214240287 L435.69627214834975,164.51821049732638 M435.69627214834975,164.51821049732638 L436.46353964743844,163.2313012360269 M436.46353964743844,163.2313012360269 L434.3921770501367,162.09504852954612 M434.3921770501367,162.09504852954612 L429.6024440548531,161.17548525092678 M429.6024440548531,161.17548525092678 L422.3725853237707,160.52608868658956 M422.3725853237707,160.52608868658956 L413.1227429778381,160.18459659269232 M413.1227429778381,160.18459659269232 L402.39052814769036,160.17086728041636 M402.39052814769036,160.17086728041636 L390.7997352098965,160.48571564687268 M390.7997352098965,160.48571564687268 L379.02412201332896,161.11085060144887 M379.02412201332896,161.11085060144887 L367.7481891936269,162.00992109449908 M367.7481891936269,162.00992109449908 L357.6273678624543,163.13066455981254 M357.6273678624543,163.13066455981254 L349.2499099916033,164.4079314274907 M349.2499099916033,164.4079314274907 L343.10269159877623,165.76747649253807 M343.10269159877623,165.76747649253807 L339.54289305711524,167.13027394675908 M339.54289305711524,167.13027394675908 L338.7772849907012,168.41713193966308 M338.7772849907012,168.41713193966308 L340.8502325139845,169.55325242045427 M340.8502325139845,169.55325242045427 L345.641103095858,170.47262718247092 M345.641103095858,170.47262718247092 L352.8713872221918,171.12183092827652 M352.8713872221918,171.12183092827652 L362.1208453200524,171.46317007253467 M362.1208453200524,171.46317007253467 L372.85196403402034,171.4768093659348 M372.85196403402034,171.4768093659348 L384.4411945873509,171.1619689596235 M384.4411945873509,171.1619689596235 L396.2151370565345,170.53693176974363 M396.2151370565345,170.53693176974363 L407.48967354945313,169.63802644738084 M407.48967354945313,169.63802644738084 L417.60969283590214,168.51747772066187 M417.60969283590214,168.51747772066187 L411.5140386818356,40.70630661315204 M450.42949203279875,408.01544520187906 L450.42949203279875,408.01544520187906 M450.42949203279875,408.01544520187906 L448.6081295931047,411.17560279800887 M448.6081295931047,411.17560279800887 L447.17476666630506,414.22039422080377 M447.17476666630506,414.22039422080377 L446.16410743215255,417.07608896170734 M380.27677630648543,325.50552722227104 L382.6472793036511,329.61581450524307 M382.6472793036511,329.61581450524307 L385.7274606829654,333.18245929040734 M385.7274606829654,333.18245929040734 L389.3842224626171,335.9157988931856 M389.3842224626171,335.9157988931856 L393.3973966415777,337.6099251431877 M393.3973966415777,337.6099251431877 L397.5016932971995,338.19048395372135 M397.5016932971995,338.19048395372135 L401.4421277627426,337.72298205936755 M401.4421277627426,337.72298205936755 L406.1771991058108,337.6110917883972 M406.1771991058108,337.6110917883972 L410.68509105031825,336.18830951911264 M410.68509105031825,336.18830951911264 L414.7371400576058,333.52706155819146 M414.7371400576058,333.52706155819146 L417.4698968069068,330.6497685259962 M417.4698968069068,330.6497685259962 L419.7079824201794,327.1791779973714 M457.2123331617951,413.5527717083441 L681.2909175909572,214.85999143570317 M450.42949203279875,408.01544520187906 L457.2123331617951,413.5527717083441 M681.2909175909572,214.85999143570317 L686.940526919293,227.40165536990986 M686.940526919293,227.40165536990986 L689.9387009310772,239.00626304459374 M689.9387009310772,239.00626304459374 L690.1111515976146,248.99947057879038 M690.1111515976146,248.99947057879038 L687.4476616084174,256.80045006797 M687.4476616084174,256.80045006797 L682.1028932167012,261.9557471212965 M682.1028932167012,261.9557471212965 L674.3872727596432,264.1655834923678 M674.3872727596432,264.1655834923678 L664.7491382195103,263.30133260078696 M664.7491382195103,263.30133260078696 L653.7485730289867,259.41309217630135 M653.7485730289867,259.41309217630135 L642.0249496797735,252.7267157204007 M642.0249496797735,252.7267157204007 L630.259744150576,243.6307882679495 M630.259744150576,243.6307882679495 L619.1368375573563,232.65397899292458 M619.1368375573563,232.65397899292458 L609.3028515056196,220.4343818352692 M609.3028515056196,220.4343818352692 L601.3294167052893,207.6823660044698 M601.3294167052893,207.6823660044698 L595.6799854149194,195.13914620149737 M595.6799854149194,195.13914620149737 L592.6828816424571,183.53388914062475 M592.6828816424571,183.53388914062475 L592.5121800100089,173.54104659564564 M592.5121800100089,173.54104659564564 L595.1776458705399,165.74135723212302 M595.1776458705399,165.74135723212302 L600.5242266078224,160.5880080394808 M600.5242266078224,160.5880080394808 L608.2410239229621,158.3803271173311 M608.2410239229621,158.3803271173311 L617.8794772507721,159.24642647296795 M617.8794772507721,159.24642647296795 L628.8793941161593,163.13581842050897 M628.8793941161593,163.13581842050897 L640.6015603039268,169.82233843425598 M640.6015603039268,169.82233843425598 L652.3648641551858,178.9174356258897 M652.3648641551858,178.9174356258897 L663.4858144446197,189.89254538216878 M663.4858144446197,189.89254538216878 L673.3182585000035,202.11002157833187 M673.3182585000035,202.11002157833187 L681.2909175909572,214.85999143570317 M481.1327311747521,314.2718749633174 L471.4185117612501,311.92662374184926 M471.4185117612501,311.92662374184926 L458.19615238149026,312.50880821049935 M458.19615238149026,312.50880821049935 L442.4450628080888,316.7378706509507 M442.4450628080888,316.7378706509507 L419.7079824201794,327.1791779973714 M457.2123331617951,413.5527717083441 L465.6907938271824,423.02923540098715 M465.6907938271824,423.02923540098715 L470.3504746147847,431.85996716369687 M470.3504746147847,431.85996716369687 L471.7899854786371,439.65730343500303 M471.7899854786371,439.65730343500303 L470.48471902487444,446.92866105102416 M470.48471902487444,446.92866105102416 L466.5061429880107,453.33284188793533 M466.5061429880107,453.33284188793533 L460.10958625632196,458.6071525177802 M460.10958625632196,458.6071525177802 L455.8584648471216,460.8883215092028 M455.8584648471216,460.8883215092028 L451.0953228792325,462.79031473339927 M451.0953228792325,462.79031473339927 L487.1813525641353,407.99921225754537 M487.1813525641353,407.99921225754537 L498.84015208930674,379.10955474349475 M498.84015208930674,379.10955474349475 L501.96486366346113,366.55254868815354 M501.96486366346113,366.55254868815354 L503.2582935702487,355.10055648086177 M503.2582935702487,355.10055648086177 L502.5196787658783,343.38934895391606 M502.5196787658783,343.38934895391606 L500.5889485602227,335.7855660297992 M500.5889485602227,335.7855660297992 L497.8905618678774,329.6203007685233 M497.8905618678774,329.6203007685233 L494.8856584288764,324.92560205985944 M494.8856584288764,324.92560205985944 L491.3618421009613,320.9318345323526 M491.3618421009613,320.9318345323526 L488.92077219095387,318.7956012024976 M488.92077219095387,318.7956012024976 L486.37140832118024,316.9777014262413 M486.37140832118024,316.9777014262413 L481.1327311747521,314.2718749633174 M348.8955628372456,409.0626964419481 L348.8955628372456,409.0626964419481 M348.8955628372456,409.0626964419481 L351.06548193772215,412.8419591215949 M351.06548193772215,412.8419591215949 L352.7252482932745,416.5051955936 M352.7252482932745,416.5051955936 L353.82098707147327,419.93346956571656 M318.8614616687711,258.0641096840433 L198.68304073482565,141.52312824473404 M198.68304073482565,141.52312824473404 L204.32533764448866,144.55829324501684 M204.32533764448866,144.55829324501684 L207.31515317413394,150.30867759999856 M207.31515317413394,150.30867759999856 L207.47856806163975,158.4401752591338 M207.47856806163975,158.4401752591338 L204.80592596843906,168.48031289200767 M204.80592596843906,168.48031289200767 L199.45240788796164,179.84560976800282 M199.45240788796164,179.84560976800282 L191.7291185601691,191.8754470243696 M191.7291185601691,191.8754470243696 L182.08493609773086,203.87056183994366 M182.08493609773086,203.87056183994366 L171.08047689510016,215.13364982425375 M171.08047689510016,215.13364982425375 L159.3554399477344,225.00993879761361 M159.3554399477344,225.00993879761361 L147.59140378486208,232.92541063112563 M147.59140378486208,232.92541063112563 L136.4722127373878,238.41994451366284 M136.4722127373878,238.41994451366284 L126.64416715708882,241.17429260556946 M126.64416715708882,241.17429260556946 L118.67842218089419,241.02849101677532 M118.67842218089419,241.02849101677532 L113.03782469134552,237.99121309180248 M113.03782469134552,237.99121309180248 L110.05007602802971,232.23911598957415 M110.05007602802971,232.23911598957415 L109.88859017823785,224.10666851333474 M109.88859017823785,224.10666851333474 L112.56263282790462,214.06656721379738 M112.56263282790462,214.06656721379738 L117.91663985911066,202.70230139424868 M117.91663985911066,202.70230139424868 L125.63945129700778,190.67423219256676 M125.63945129700778,190.67423219256676 L135.2822514704077,178.68123817527132 M135.2822514704077,178.68123817527132 L146.2847766815806,167.4201298162929 M146.2847766815806,167.4201298162929 L158.00776122359466,157.5452025243037 M158.00776122359466,157.5452025243037 L169.7700662557059,149.63021681156056 M169.7700662557059,149.63021681156056 L180.88828976906305,144.1351267976726 M180.88828976906305,144.1351267976726 L190.716332324176,141.37931973354262 M190.716332324176,141.37931973354262 L198.68304073482565,141.52312824473404 M349.5487887990634,460.98132824208517 L339.2886893428399,456.3830866079284 M339.2886893428399,456.3830866079284 L332.0520641977043,450.0018516690942 M332.0520641977043,450.0018516690942 L328.6662366145303,442.9544379749128 M328.6662366145303,442.9544379749128 L328.42426219065464,435.8411026729106 M328.42426219065464,435.8411026729106 L330.88681670064125,428.33315586338097 M330.88681670064125,428.33315586338097 L335.90231918209633,420.78110503674304 M335.90231918209633,420.78110503674304 L341.7461250139591,414.74889986474375 M341.7461250139591,414.74889986474375 L348.8955628372456,409.0626964419481 M349.5487887990634,460.98132824208517 L321.5818599175916,406.2760843808438 M321.5818599175916,406.2760843808438 L314.0365694512116,373.8944340479277 M314.0365694512116,373.8944340479277 L313.8982383404916,357.14830964211114 M313.8982383404916,357.14830964211114 L315.7771493605423,347.02225045150703 M315.7771493605423,347.02225045150703 L318.59717048618063,339.3177428132461 M318.59717048618063,339.3177428132461 L321.9823478547286,333.2931025967725 M321.9823478547286,333.2931025967725 L325.4582168009802,328.8561092445219 M325.4582168009802,328.8561092445219 L330.27477228147467,324.4569611295443 M330.27477228147467,324.4569611295443 L336.5640398764323,320.74402151220283 M336.5640398764323,320.74402151220283 L343.72675498003105,318.4893508379459 M343.72675498003105,318.4893508379459 L353.3500172113321,317.8686831464116 M353.3500172113321,317.8686831464116 L364.0136403654959,319.5413084865353 M364.0136403654959,319.5413084865353 L380.27677630648543,325.50552722227104 M446.15062929702106,697.0879309489065 L445.6875148471655,702.0980350972096 M445.6875148471655,702.0980350972096 L444.3218557385731,707.3917107167516 M444.3218557385731,707.3917107167516 L442.1221364097501,712.7035240328922 M442.1221364097501,712.7035240328922 L439.19865058269653,717.7671595474953 M439.19865058269653,717.7671595474953 L435.69798094978694,722.3287158873225 M435.69798094978694,722.3287158873225 L431.79564850275625,726.1594597690338 M431.79564850275625,726.1594597690338 L427.687315980312,729.0673340409164 M427.687315980312,729.0673340409164 L420.25456615677734,725.7032766092393 M420.25456615677734,725.7032766092393 L411.644391522197,723.4645955863492 M411.644391522197,723.4645955863492 L402.35713248983495,722.4813638331124 M402.35713248983495,722.4813638331124 L392.9324571296768,722.810707562459 M392.9324571296768,722.810707562459 L383.91802169240316,724.4334921163675 M383.91802169240316,724.4334921163675 L375.83764961097233,727.2554322390338 M375.83764961097233,727.2554322390338 L369.16090700042804,731.1125652233403 M369.16090700042804,731.1125652233403 L364.2758222028685,735.7807719555883 M364.2758222028685,735.7807719555883 L361.46633443253216,740.9887922334839 M361.46633443253216,740.9887922334839 L360.89578253308633,746.4339800063119 M360.89578253308633,746.4339800063119 L362.597399282193,751.7998840860761 M362.597399282193,751.7998840860761 L366.4723638162571,756.7746439304024 M366.4723638162571,756.7746439304024 L372.2955247507502,761.0691128241823 M372.2955247507502,761.0691128241823 L379.728485997263,764.4336658227198 M379.728485997263,764.4336658227198 L388.3392464655172,766.6727288842578 M388.3392464655172,766.6727288842578 L397.62733153507827,767.6561416272799 M397.62733153507827,767.6561416272799 L407.0528839010772,767.3267363763097 M407.0528839010772,767.3267363763097 L416.06804640106805,765.7036618831711 M416.06804640106805,765.7036618831711 L424.14882904080685,762.8812698252119 M424.14882904080685,762.8812698252119 L430.8255716513502,759.0236264425606 M430.8255716513502,759.0236264425606 L435.7102458906006,754.3549677750407 M435.7102458906006,754.3549677750407 L438.51900659822047,749.1466575578355 M438.51900659822047,749.1466575578355 L439.0886814918274,743.7014082632892 M439.0886814918274,743.7014082632892 L437.3862387055231,738.3356851732468 M437.3862387055231,738.3356851732468 L433.51068833778504,733.3613073675093 M433.51068833778504,733.3613073675093 L427.687315980312,729.0673340409164 M452.286784719084,424.0151209498851 L453.2841335945849,420.66945021266076 M453.2841335945849,420.66945021266076 L454.95298082342265,417.12465222113417 M454.95298082342265,417.12465222113417 L457.2123331617951,413.5527717083441 M353.8145776535778,470.3960966359323 L352.8038331415615,466.8891890981276 M352.8038331415615,466.8891890981276 L351.3703320404108,463.72539853860076 M351.3703320404108,463.72539853860076 L349.5487887990634,460.98132824208517 M451.0953228792325,462.79031473339927 L448.9250656179025,465.7256942598469 M448.9250656179025,465.7256942598469 L447.26509151399506,469.2515990400503 M447.26509151399506,469.2515990400503 L446.1692811609216,473.253559809104 M446.1692811609216,473.253559809104 L445.6729059956503,470.1711003498797 M445.6729059956503,470.1711003498797 L445.7923710073982,467.53483465883664 M445.7923710073982,467.53483465883664 L446.523807688568,465.43035808165223 M354.12106857014663,463.62061391119533 L354.48149103172483,465.52121101846075 M354.48149103172483,465.52121101846075 L354.37849558190135,467.79808426989325 M354.37849558190135,467.79808426989325 L353.8145776535778,470.3960966359323 M446.523807688568,465.43035808165223 L434.7330226675974,473.1722936777366 M434.7330226675974,473.1722936777366 L422.2377653065056,478.0340155495869 M422.2377653065056,478.0340155495869 L409.95331346117206,480.38614378076363 M409.95331346117206,480.38614378076363 L397.24882344504095,480.66003791702343 M397.24882344504095,480.66003791702343 L384.719997515172,478.850357211882 M384.719997515172,478.850357211882 L372.91958099148894,475.0950448336443 M372.91958099148894,475.0950448336443 L362.86467161129076,469.99250822387575 M362.86467161129076,469.99250822387575 L354.12106857014663,463.62061391119533 M354.12106857014663,463.62061391119533 L352.7122616446689,462.6126763154765 M352.7122616446689,462.6126763154765 L351.1846843064206,461.73090509568 M351.1846843064206,461.73090509568 L349.5487887990634,460.98132824208517 M354.12106857014663,463.62061391119533 L341.39732098608147,417.717182376174 M341.39732098608147,417.717182376174 L341.1722518904076,389.5611770862845 M341.1722518904076,389.5611770862845 L343.85115530368523,374.4409708518958 M343.85115530368523,374.4409708518958 L346.9072240410181,364.99409797933635 M346.9072240410181,364.99409797933635 L350.31758558359746,357.6300526518924 M350.31758558359746,357.6300526518924 L353.9474500575818,351.74635788880363 M353.9474500575818,351.74635788880363 L357.43841513321985,347.3178314869788 M357.43841513321985,347.3178314869788 L362.04106840178684,342.79493253962096 M362.04106840178684,342.79493253962096 L367.75529096292524,338.7497504508613 M367.75529096292524,338.7497504508613 L373.92287720969057,335.92039101567497 M373.92287720969057,335.92039101567497 L381.7046085303132,334.23646886717665 M381.7046085303132,334.23646886717665 L389.78471512574106,334.4176113480352 M389.78471512574106,334.4176113480352 L401.4421277627426,337.72298205936755 M481.1327311747521,314.2718749633174 L477.4671163851122,318.88132265618765 M477.4671163851122,318.88132265618765 L473.27475347940646,323.3166197259413 M473.27475347940646,323.3166197259413 L468.7850640817613,327.3350395008968 M468.7850640817613,327.3350395008968 L464.2436714973672,330.7167577552194 M464.2436714973672,330.7167577552194 L459.89901984044053,333.2767468682969 M459.89901984044053,333.2767468682969 L455.9888089134654,334.8749409880881 M455.9888089134654,334.8749409880881 L452.72697976751294,335.4238917203623 M452.72697976751294,335.4238917203623 L450.29201523849883,334.8935233491935 M450.29201523849883,334.8935233491935 L449.3237659074022,334.11288293547227 M449.3237659074022,334.11288293547227 L448.68856330181916,333.00101987755687 M448.68856330181916,333.00101987755687 L440.32027625692274,329.87850053068036 M440.32027625692274,329.87850053068036 L429.7547525365084,328.92674624261883 M429.7547525365084,328.92674624261883 L417.9556554650671,330.874360996233 M417.9556554650671,330.874360996233 L401.4421277627426,337.72298205936755 M681.2909175909572,214.85999143570317 L684.8955907625635,211.22622712639156 M684.8955907625635,211.22622712639156 L687.4022396660481,207.71560137431527 M687.4022396660481,207.71560137431527 L688.6704098867265,204.5248463134916 M688.6704098867265,204.5248463134916 L688.6290088158912,201.8327790211769 M688.6290088158912,201.8327790211769 L687.280305545955,199.7902387129482 M687.280305545955,199.7902387129482 L691.5176975323659,209.19665665698747 M691.5176975323659,209.19665665698747 L693.7664509083341,217.90017410898236 M693.7664509083341,217.90017410898236 L693.8958353100824,225.39497989446122 M693.8958353100824,225.39497989446122 L691.8982481237343,231.24547889005686 M691.8982481237343,231.24547889005686 L687.8896591939509,235.1116100587392 M687.8896591939509,235.1116100587392 L682.1029798301586,236.76860159196966 M682.1029798301586,236.76860159196966 L674.8744477594423,236.12003406080245 M674.8744477594423,236.12003406080245 L666.6241333729257,233.20353811372277 M666.6241333729257,233.20353811372277 L657.8315536030561,228.18852246339958 M657.8315536030561,228.18852246339958 L649.0077681020337,221.3664542775465 M649.0077681020337,221.3664542775465 L640.665666356274,213.13384744356938 M640.665666356274,213.13384744356938 L633.290173314518,203.96922714771983 M633.290173314518,203.96922714771983 L627.3099876711321,194.40530718983808 M627.3099876711321,194.40530718983808 L623.0726927098959,184.99802300941147 M623.0726927098959,184.99802300941147 L620.8245499336581,176.2941281713729 M620.8245499336581,176.2941281713729 L620.6961400780841,168.79952593516936 M620.6961400780841,168.79952593516936 L622.6948480050577,162.94976161586 M622.6948480050577,162.94976161586 L626.7044361128836,159.0847342985496 M626.7044361128836,159.0847342985496 L632.4917836876039,157.42895165974423 M632.4917836876039,157.42895165974423 L639.7204999229851,158.07855618479758 M639.7204999229851,158.07855618479758 L647.970452742267,160.9956909159786 M647.970452742267,160.9956909159786 L656.7622080456167,166.01080080375448 M656.7622080456167,166.01080080375448 L665.5849255574689,172.83237948218948 M665.5849255574689,172.83237948218948 L673.9259189440191,181.0640491679317 M673.9259189440191,181.0640491679317 L681.3005531759189,190.2274785789487 M681.3005531759189,190.2274785789487 L687.280305545955,199.7902387129482 M451.0953228792325,462.79031473339927 L449.46420773220285,463.532942287575 M449.46420773220285,463.532942287575 L447.9368893149721,464.4149676962575 M447.9368893149721,464.4149676962575 L446.523807688568,465.43035808165223 M446.523807688568,465.43035808165223 L467.41389566108,419.41270738766815 M467.41389566108,419.41270738766815 L472.23253858209523,394.4717852820547 M472.23253858209523,394.4717852820547 L472.783192724279,383.40056820910087 M472.783192724279,383.40056820910087 L472.1988670832517,373.03229258952564 M472.1988670832517,373.03229258952564 L470.1119588681677,362.09903856054007 M470.1119588681677,362.09903856054007 L467.6195826119148,354.8191545739895 M467.6195826119148,354.8191545739895 L464.65477333469346,348.80740225076954 M464.65477333469346,348.80740225076954 L461.5836707703084,344.15066286990435 M461.5836707703084,344.15066286990435 L458.13682336556644,340.1122396105066 M458.13682336556644,340.1122396105066 L455.8156480249919,337.9066513290043 M455.8156480249919,337.9066513290043 L453.43878321235997,335.9890402606968 M453.43878321235997,335.9890402606968 L448.68856330181916,333.00101987755687 M198.68304073482565,141.52312824473404 L194.18246731089545,138.15109956172 M194.18246731089545,138.15109956172 L189.0374423879634,136.08320135063946 M189.0374423879634,136.08320135063946 L183.53626213347687,135.43531608600102 M183.53626213347687,135.43531608600102 L177.98719025702425,136.2437701889089 M177.98719025702425,136.2437701889089 L172.70121188697033,138.4632657314013 M172.70121188697033,138.4632657314013 L176.93257892418686,140.73964863540698 M176.93257892418686,140.73964863540698 L179.1745213218564,145.05239028250594 M179.1745213218564,145.05239028250594 L179.29666782670373,151.15095802951168 M179.29666782670373,151.15095802951168 L177.29182069956138,158.6809722515456 M177.29182069956138,158.6809722515456 L173.27641195721822,167.2048035626549 M173.27641195721822,167.2048035626549 L167.48378990971946,176.22703381301727 M167.48378990971946,176.22703381301727 L160.25061829982073,185.22324287225416 M160.25061829982073,185.22324287225416 L151.9973392979001,193.6704747448365 M151.9973392979001,193.6704747448365 L143.20370449650193,201.0777563110954 M143.20370449650193,201.0777563110954 L134.3808321682513,207.0145000566672 M134.3808321682513,207.0145000566672 L126.04159234019579,211.13567169181343 M126.04159234019579,211.13567169181343 L118.67065869274887,213.20180405026076 M118.67065869274887,213.20180405026076 L112.69641316091167,213.09287641794066 M112.69641316091167,213.09287641794066 L108.46600518044994,210.81531033546526 M108.46600518044994,210.81531033546526 L106.22521681333825,206.5016030412197 M106.22521681333825,206.5016030412197 L106.10416468991764,200.40250277212476 M106.10416468991764,200.40250277212476 L108.1097903321849,192.87251432523965 M108.1097903321849,192.87251432523965 L112.12549438865733,184.34925482652707 M112.12549438865733,184.34925482652707 L117.91784139285375,175.32802268289362 M117.91784139285375,175.32802268289362 L125.15023060917383,166.33300937142425 M125.15023060917383,166.33300937142425 L133.40241861145654,157.88688570111577 M133.40241861145654,157.88688570111577 L142.19490374232294,150.4803709205232 M142.19490374232294,150.4803709205232 L151.01680058159675,144.5438944846302 M151.01680058159675,144.5438944846302 L159.35550411288915,140.42240548701164 M159.35550411288915,140.42240548701164 L166.72642748550098,138.35546458267288 M166.72642748550098,138.35546458267288 L172.70121188697033,138.4632657314013 M354.12106857014663,463.62061391119533 L354.12106857014663,463.62061391119533 M451.0953228792325,462.79031473339927 L451.0953228792325,462.79031473339927 M448.68856330181916,333.00101987755687 L457.3317568871272,290.80189245261846 M457.3317568871272,290.80189245261846 L468.50816895063673,301.70799965323255 M468.50816895063673,301.70799965323255 L476.7100025559098,314.87282302272143 M476.7100025559098,314.87282302272143 L481.460599100108,329.5312959486323 M481.460599100108,329.5312959486323 L482.4838007467781,344.83154340492416 M482.4838007467781,344.83154340492416 L479.7201112665397,359.8844199603901 M479.7201112665397,359.8844199603901 L473.33006249575254,373.81509005992655 M473.33006249575254,373.81509005992655 L463.68499717338256,385.8139205479778 M463.68499717338256,385.8139205479778 L451.34540158411505,395.1835274152708 M451.34540158411505,395.1835274152708 L437.02842576205154,401.3793097479205 M437.02842576205154,401.3793097479205 L421.5661535208469,404.0411650715072 M421.5661535208469,404.0411650715072 L405.8572274107358,403.01433111941697 M405.8572274107358,403.01433111941697 L390.8146670551882,398.3585269352038 M390.8146670551882,398.3585269352038 L377.31275929899687,390.34430369203693 M377.31275929899687,390.34430369203693 L366.13619669463384,379.43750797259054 M366.13619669463384,379.43750797259054 L357.93455240835215,366.2720372157982 M357.93455240835215,366.2720372157982 L353.1844624455188,351.6130845429907 M353.1844624455188,351.6130845429907 L352.1619283121918,336.3125876521434 M352.1619283121918,336.3125876521434 L354.92631959811905,321.2598460356225 M354.92631959811905,321.2598460356225 L361.3169326727601,307.32958603107727 M361.3169326727601,307.32958603107727 L370.96231629108235,295.3313764620982 M370.96231629108235,295.3313764620982 L383.3018752243543,285.9624671716426 M383.3018752243543,285.9624671716426 L397.61850386153054,279.76727210965623 M397.61850386153054,279.76727210965623 L413.0801826664707,277.1058047209864 M413.0801826664707,277.1058047209864 L428.78839528310414,278.1326799090162 M428.78839528310414,278.1326799090162 L443.8302952954913,282.7881987917394 M443.8302952954913,282.7881987917394 L457.3317568871272,290.80189245261846 M602.3374743397362,275.11078982699553 L606.5737681301601,284.51701659896685 M606.5737681301601,284.51701659896685 L608.8213619785141,293.22059245292644 M608.8213619785141,293.22059245292644 L608.9495928917386,300.7157402401226 M608.9495928917386,300.7157402401226 L606.9509197947039,306.56683543719447 M606.9509197947039,306.56683543719447 L602.9413918461637,310.43377302579154 M602.9413918461637,310.43377302579154 L597.1539642523578,312.0917405180374 M597.1539642523578,312.0917405180374 L589.9249075502702,311.44428066803147 M589.9249075502702,311.44428066803147 L581.6743388368367,308.5289129934413 M581.6743388368367,308.5289129934413 L572.8817843143257,303.515033944959 M572.8817843143257,303.515033944959 L564.0582966798094,296.69399766737683 M564.0582966798094,296.69399766737683 L555.7167642858805,288.46228612755914 M555.7167642858805,288.46228612755914 L548.3420627872799,279.2983690943041 M548.3420627872799,279.2983690943041 L542.3628503668479,269.7349163027047 M542.3628503668479,269.7349163027047 L538.1266537349153,260.3278233133698 M538.1266537349153,260.3278233133698 L535.8796650383384,251.62387317367273 M535.8796650383384,251.62387317367273 L535.752408636112,244.12892877587086 M535.752408636112,244.12892877587086 L537.7522023561114,238.2785680510336 M537.7522023561114,238.2785680510336 L541.7627293059592,234.41272775699974 M541.7627293059592,234.41272775699974 L547.550830424756,232.75596582773835 M547.550830424756,232.75596582773835 L554.7800601198455,233.40446895641182 M554.7800601198455,233.40446895641182 L563.0302616645628,236.32047862233844 M563.0302616645628,236.32047862233844 L571.8220082244582,241.33444885485494 M571.8220082244582,241.33444885485494 L580.6444224442727,248.15499898947272 M580.6444224442727,248.15499898947272 L588.9848521342869,256.38577041285345 M588.9848521342869,256.38577041285345 L596.3586950108456,265.5484967442282 M596.3586950108456,265.5484967442282 L602.3374743397362,275.11078982699553 M602.3374743397362,275.11078982699553 L687.280305545955,199.7902387129482 M257.6363515029003,220.82602842518097 L261.8687518283884,223.1035372441032 M261.8687518283884,223.1035372441032 L264.11187870777223,227.41727173498248 M264.11187870777223,227.41727173498248 L264.23528135811745,233.51661029153527 M264.23528135811745,233.51661029153527 L262.23168904285825,241.0471411918631 M262.23168904285825,241.0471411918631 L258.2174770482791,249.5712020173023 M258.2174770482791,249.5712020173023 L252.4259079283574,258.59335828162637 M252.4259079283574,258.59335828162637 L245.19359522524167,267.5891814353225 M245.19359522524167,267.5891814353225 L236.94092599549933,276.0357783264719 M236.94092599549933,276.0357783264719 L228.14759466392763,283.44216878934805 M228.14759466392763,283.44216878934805 L219.32473945724396,289.37785790008286 M219.32473945724396,289.37785790008286 L210.98521287734405,293.4978384390913 M210.98521287734405,293.4978384390913 L203.6137052844549,295.56272519155345 M203.6137052844549,295.56272519155345 L197.63863198003799,295.45256983542527 M197.63863198003799,295.45256983542527 L193.40719052929825,293.17387797581364 M193.40719052929825,293.17387797581364 L191.165223059575,288.8591748514434 M191.165223059575,288.8591748514434 L191.042914748205,282.7593039698603 M191.042914748205,282.7593039698603 L193.0472856306262,275.2287990041149 M193.0472856306262,275.2287990041149 L197.0617930702139,266.70531643062145 M197.0617930702139,266.70531643062145 L202.85308182688755,257.684161441834 M202.85308182688755,257.684161441834 L210.08462334730697,248.68952757999762 M210.08462334730697,248.68952757999762 L218.33620724348833,240.2440355457064 M218.33620724348833,240.2440355457064 L227.12837247183708,232.83841484552363 M227.12837247183708,232.83841484552363 L235.95025769275082,226.90298968531167 M235.95025769275082,226.90298968531167 L244.2892423717218,222.782694834218 M244.2892423717218,222.782694834218 L251.66073952546984,220.7169994966353 M251.66073952546984,220.7169994966353 L257.6363515029003,220.82602842518097 M257.6363515029003,220.82602842518097 L172.70121188697033,138.4632657314013 M457.3317568871272,290.80189245261846 L457.17485263332685,289.93656154647675 M457.17485263332685,289.93656154647675 L456.12992097024767,290.2353126973361 M456.12992097024767,290.2353126973361 L454.25551546203894,291.6814395653909 M454.25551546203894,291.6814395653909 L451.6566654758974,294.1939408207273 M451.6566654758974,294.1939408207273 L448.4789778318793,297.63199965775226 M448.4789778318793,297.63199965775226 L456.8615952428412,305.8119266505753 M456.8615952428412,305.8119266505753 L463.0131704281348,315.6859183891791 M463.0131704281348,315.6859183891791 L466.57618999796466,326.68017355283314 M466.57618999796466,326.68017355283314 L467.3435717187899,338.15575741775837 M467.3435717187899,338.15575741775837 L465.27065648801835,349.44578446858816 M465.27065648801835,349.44578446858816 L460.47791172965833,359.89407730286365 M460.47791172965833,359.89407730286365 L453.24383721188093,368.89343290537516 M453.24383721188093,368.89343290537516 L443.9888254697096,375.9207962805969 M443.9888254697096,375.9207962805969 L433.25075693000093,380.5677438780596 M433.25075693000093,380.5677438780596 L421.65370561104595,382.5641569686307 M421.65370561104595,382.5641569686307 L409.8716721043236,381.79400156601156 M409.8716721043236,381.79400156601156 L398.589426883551,378.3020363970173 M398.589426883551,378.3020363970173 L388.46268002408056,372.29123783157877 M388.46268002408056,372.29123783157877 L380.07998102530587,364.1109288880667 M380.07998102530587,364.1109288880667 L373.9285209459598,354.2365608461479 M373.9285209459598,354.2365608461479 L370.36576603815075,343.2420332216684 M370.36576603815075,343.2420332216684 L369.598773933901,331.7663223582628 M369.598773933901,331.7663223582628 L371.67207293980226,320.47636684151195 M371.67207293980226,320.47636684151195 L376.4651382405647,310.0283100687518 M376.4651382405647,310.0283100687518 L383.69939663122324,301.02930097525893 M383.69939663122324,301.02930097525893 L392.9543939489699,294.00232643650986 M392.9543939489699,294.00232643650986 L403.6922530712308,289.35572092541474 M403.6922530712308,289.35572092541474 L415.28896746072553,287.35951354071375 M415.28896746072553,287.35951354071375 L427.0706026980816,288.1296975053971 M427.0706026980816,288.1296975053971 L438.35248505476966,291.6215043703119 M438.35248505476966,291.6215043703119 L448.4789778318793,297.63199965775226 M442.3718340076821,327.4559330623502 L450.75289232165596,335.6344198457103 M450.75289232165596,335.6344198457103 L456.9033150594744,345.50668159456785 M456.9033150594744,345.50668159456785 L460.4656613162486,356.49901433783486 M460.4656613162486,356.49901433783486 L461.2328717964252,367.97261713812475 M461.2328717964252,367.97261713812475 L459.16031356744503,379.260672838927 M459.16031356744503,379.260672838927 L454.36842780291005,389.70717192547414 M454.36842780291005,389.70717192547414 L447.1356588582397,398.70496867646705 M447.1356588582397,398.70496867646705 L437.88233959738955,405.73112676654216 M437.88233959738955,405.73112676654216 L427.14624139213345,410.3772861569885 M427.14624139213345,410.3772861569885 L415.5513130530842,412.3733801142104 M415.5513130530842,412.3733801142104 L403.77144798167444,411.6033838520167 M403.77144798167444,411.6033838520167 L392.4912851097754,408.1120627453089 M392.4912851097754,408.1120627453089 L382.3664134833674,402.10231831026465 M382.3664134833674,402.10231831026465 L373.9852736124399,393.9234497131992 M373.9852736124399,393.9234497131992 L367.8349659400379,384.05081179482795 M367.8349659400379,384.05081179482795 L364.27288975246205,373.05820351049107 M364.27288975246205,373.05820351049107 L363.50606324033174,361.5844769334994 M363.50606324033174,361.5844769334994 L365.5790106094291,350.2964832057954 M365.5790106094291,350.2964832057954 L370.3712112898656,339.85022327389237 M370.3712112898656,339.85022327389237 L377.604153029098,330.85277926423254 M377.604153029098,330.85277926423254 L386.8574633762709,323.82700669236635 M386.8574633762709,323.82700669236635 L397.5933632512575,319.18118926702186 M397.5933632512575,319.18118926702186 L409.18795478441274,317.1853009434279 M409.18795478441274,317.1853009434279 L420.9674217329606,317.95532575830487 M420.9674217329606,317.95532575830487 L432.2472163699567,321.4464917954053 M432.2472163699567,321.4464917954053 L442.3718340076821,327.4559330623502 M442.3718340076821,327.4559330623502 L448.4789778318793,297.63199965775226" stroke="black"  stroke-width="4"  fill="red"/></svg>