<svg viewBox="0 0 800 800" xmlns="http://www.w3.org/2000/svg"><path d="M582.5016380528918,425.9350769986985 L533.5168219884372,403.77914386455404 M533.5168219884372,403.77914386455404 L476.78050669002,389.03629786295573 M476.78050669002,389.03629786295573 L415.58727452704835,382.5615330693506 M415.58727452704835,382.5615330693506 L353.4895659268978,384.73030691433576 M353.4895659268978,384.73030691433576 L294.0921501277764,395.41685180428203 M294.0921501277764,395.41685180428203 L240.84359214898626,414.00147742055947 M240.84359214898626,414.00147742055947 L196.83656568037216,439.4062279655455 M196.83656568037216,439.4062279655455 L164.62860167117296,470.1570639002461 M164.62860167117296,470.1570639002461 L146.09344315454203,504.4689863253817 M146.09344315454203,504.4689863253817 L142.31167533758406,540.3492644783041 M142.31167533758406,540.3492644783041 L153.50722430303964,575.712962618048 M153.50722430303964,575.712962618048 L179.03329759588607,608.5040296324801 M179.03329759588607,608.5040296324801 L217.4091920474337,636.8149609306075 M217.4091920474337,636.8149609306075 L266.40562195256,658.9981104555723 M266.40562195256,658.9981104555723 L323.17411820682725,673.7619378940713 M323.17411820682725,673.7619378940713 L384.41272614992755,680.2466425955168 M384.41272614992755,680.2466425955168 L446.55861032082026,678.0744899917972 M446.55861032082026,678.0744899917972 L505.99596504393935,667.3720217315415 M505.99596504393935,667.3720217315415 L559.2670757581955,648.7625759681969 M559.2670757581955,648.7625759681969 L603.2741022231755,623.3297945048789 M603.2741022231755,623.3297945048789 L635.4595134927797,592.5541384283259 M635.4595134927797,592.5541384283259 L653.9547330879905,558.2262926281958 M653.9547330879905,558.2262926281958 L657.6883253412634,522.342635722628 M657.6883253412634,522.342635722628 L646.4474006011194,486.98887748068387 M646.4474006011194,486.98887748068387 L620.889146351547,454.21879191010146 M620.889146351547,454.21879191010146 L582.5016380528918,425.9350769986985 M222.20195219620504,534.0855378997978 L223.19961778231527,533.3502428037727 M223.19961778231527,533.3502428037727 L223.86370706585546,532.4984564317833 M223.86370706585546,532.4984564317833 L224.15563788020881,531.5796838086438 M224.15563788020881,531.5796838086438 L224.05842302953496,530.6473155697616 M224.05842302953496,530.6473155697616 L223.57774161842116,529.7555457633451 M223.57774161842116,529.7555457633451 L222.741504501608,528.9561943610432 M222.741504501608,528.9561943610432 L221.59833173043765,528.295716018177 M221.59833173043765,528.295716018177 L220.21465486383013,527.8124905466826 M220.21465486383013,527.8124905466826 L218.67088805982866,527.5346111935369 M218.67088805982866,527.5346111935369 L217.05673756427265,527.4782108345903 M217.05673756427265,527.4782108345903 L215.46602367466795,527.6465823961704 M215.46602367466795,527.6465823961704 L213.99118048260925,528.0299275277462 M213.99118048260925,528.0299275277462 L212.71792053280961,528.6059748402743 M212.71792053280961,528.6059748402743 L211.72024711399914,529.3412515602492 M211.72024711399914,529.3412515602492 L211.05613610924593,530.1930237659305 M211.05613610924593,530.1930237659305 L210.7641746612884,531.1117896778205 M210.7641746612884,531.1117896778205 L210.86135698350256,532.0441601979717 M210.86135698350256,532.0441601979717 L211.3420114234229,532.9359407555376 M211.3420114234229,532.9359407555376 L212.17823330505087,533.735308915928 M212.17823330505087,533.735308915928 L213.3214060671215,534.3958061847503 M213.3214060671215,534.3958061847503 L214.70509815279945,534.8790484144864 M214.70509815279945,534.8790484144864 L216.248891917656,535.1569385186453 M216.248891917656,535.1569385186453 L217.86307493947788,535.213341159015 M217.86307493947788,535.213341159015 L219.45381946914046,535.0449628860375 M219.45381946914046,535.0449628860375 L220.9286843960347,534.6616035882648 M220.9286843960347,534.6616035882648 L222.20195219620504,534.0855378997978 M395.264060661024,428.67335715396837 L396.536698053176,429.24910300773564 M396.536698053176,429.24910300773564 L398.01096922732,429.6322494621412 M398.01096922732,429.6322494621412 L399.60119116549043,429.80053425043013 M399.60119116549043,429.80053425043013 L401.2149531338301,429.74416292516986 M401.2149531338301,429.74416292516986 L402.7584518514206,429.46642710731993 M402.7584518514206,429.46642710731993 L404.14199204877747,428.9834531763976 M404.14199204877747,428.9834531763976 L405.2851649035666,428.32332261883516 M405.2851649035666,428.32332261883516 L406.1215388527869,427.5243982706385 M406.1215388527869,427.5243982706385 L406.60248850128033,426.6331128318728 M406.60248850128033,426.6331128318728 L406.7000920100647,425.701259964928 M406.7000920100647,425.701259964928 L406.40865325054256,424.7830041517067 M406.40865325054256,424.7830041517067 L405.7451360542586,423.9317048486982 M405.7451360542586,423.9317048486982 L404.7480930558866,423.19683635242126 M404.7480930558866,423.19683635242126 L403.4754635009166,422.62110885929144 M403.4754635009166,422.62110885929144 L402.0012140427335,422.23797655928684 M402.0012140427335,422.23797655928684 L400.41102272438445,422.0696984768069 M400.41102272438445,422.0696984768069 L398.79729326534846,422.1260675225436 M398.79729326534846,422.1260675225436 L397.25382149881045,422.40379259833264 M397.25382149881045,422.40379259833264 L395.8702965201274,422.8867497849676 M395.8702965201274,422.8867497849676 L394.72712366533824,423.54686143233334 M394.72712366533824,423.54686143233334 L393.89073449744427,424.3457690363957 M393.89073449744427,424.3457690363957 L393.40975789789815,425.23704373296414 M393.40975789789815,425.23704373296414 L393.3121218798102,426.16889432053983 M393.3121218798102,426.16889432053983 L393.60353001951097,427.08715683942233 M393.60353001951097,427.08715683942233 L394.26702549983406,427.93847029694285 M394.26702549983406,427.93847029694285 L395.264060661024,428.67335715396837 M404.7507276176727,634.0736767914436 L403.47739100918074,633.4973093929511 M403.47739100918074,633.4973093929511 L402.0023224840526,633.1137512524118 M402.0023224840526,633.1137512524118 L400.4112476855102,632.945286133818 M400.4112476855102,632.945286133818 L398.79662166933446,633.0017178320734 M398.79662166933446,633.0017178320734 L397.2522923783319,633.2797515911643 M397.2522923783319,633.2797515911643 L395.8679987361869,633.7632455711304 M395.8679987361869,633.7632455711304 L394.72419075008224,634.4240909151338 M394.72419075008224,634.4240909151338 L393.88733689149365,635.2238864855772 M393.88733689149365,635.2238864855772 L393.40609306038886,636.1161518145119 M393.40609306038886,636.1161518145119 L393.3084027880192,637.0490381361606 M393.3084027880192,637.0490381361606 L393.5999728216147,637.9683212887273 M393.5999728216147,637.9683212887273 L394.2638369249814,638.8205809693594 M394.2638369249814,638.8205809693594 L395.2614260231902,639.5562846446516 M395.2614260231902,639.5562846446516 L396.5347704775751,640.1326704344012 M396.5347704775751,640.1326704344012 L398.0098607428009,640.5162427529466 M398.0098607428009,640.5162427529466 L399.60096619519817,640.6847145885325 M399.60096619519817,640.6847145885325 L401.21562475681094,640.6282806069521 M401.21562475681094,640.6282806069521 L402.7599810288217,640.3502360878858 M402.7599810288217,640.3502360878858 L404.14428990655574,639.8667253357083 M404.14428990655574,639.8667253357083 L405.28809789266035,639.2058610499719 M405.28809789266035,639.2058610499719 L406.12493651565995,638.4060487074703 M406.12493651565995,638.4060487074703 L406.60615336575654,637.5137726184236 M406.60615336575654,637.5137726184236 L406.703811092689,636.5808840136045 M406.703811092689,636.5808840136045 L406.41221040523885,635.6616075778818 M406.41221040523885,635.6616075778818 L405.7483245617744,634.8093620753672 M405.7483245617744,634.8093620753672 L404.7507276176727,634.0736767914436 M577.8077037994772,528.6059748402743 L576.8107374296542,529.3412515602492 M576.8107374296542,529.3412515602492 L576.1474454970398,530.1930237659307 M576.1474454970398,530.1930237659307 L575.8563675429975,531.1117896778206 M575.8563675429975,531.1117896778206 L575.9544464414455,532.0441601979717 M575.9544464414455,532.0441601979717 L576.4359584259112,532.9359407555376 M576.4359584259112,532.9359407555376 L577.2729489874566,533.735308915928 M577.2729489874566,533.735308915928 L578.4167568898936,534.3958061847503 M578.4167568898936,534.3958061847503 L579.8009136658304,534.8790484144864 M579.8009136658304,534.8790484144864 L581.3449746524168,535.1569385186453 M581.3449746524168,535.1569385186453 L582.9592119115464,535.2133411590152 M582.9592119115464,535.2133411590152 L584.5497945270829,535.0449628860375 M584.5497945270829,535.0449628860375 L586.0242908120822,534.6616035882648 M586.0242908120822,534.6616035882648 L587.2970046620856,534.0855378997978 M587.2970046620856,534.0855378997978 L588.2939631815375,533.3502428037727 M588.2939631815375,533.3502428037727 L588.9572333793162,532.4984564317833 M588.9572333793162,532.4984564317833 L589.248280693301,531.579683808644 M589.248280693301,531.579683808644 L589.150169268587,530.6473155697616 M589.150169268587,530.6473155697616 L588.6686303232664,529.7555457633451 M588.6686303232664,529.7555457633451 L587.8316245426502,528.9561943610432 M587.8316245426502,528.9561943610432 L586.6878166493129,528.295716018177 M586.6878166493129,528.295716018177 L585.3036751085615,527.8124905466826 M585.3036751085615,527.8124905466826 L583.7596410931685,527.5346111935369 M583.7596410931685,527.5346111935369 L582.1454363624987,527.4782108345904 M582.1454363624987,527.4782108345904 L580.5548843805661,527.6465823961704 M580.5548843805661,527.6465823961704 L579.08040981678,528.0299275277462 M579.08040981678,528.0299275277462 L577.8077037994772,528.6059748402743 M582.5016380528918,425.9350769986985 L582.5067049803702,404.86347882941317 M582.5067049803702,404.86347882941317 L620.8952795524019,433.1464088602011 M620.8952795524019,433.1464088602011 L646.4542440620255,465.91558519853703 M646.4542440620255,465.91558519853703 L657.6954816193111,501.2683626983387 M657.6954816193111,501.2683626983387 L653.9617863443607,537.151024348925 M653.9617863443607,537.151024348925 L635.4660536478116,571.4779182217379 M635.4660536478116,571.4779182217379 L603.2797488263152,602.2527210214237 M603.2797488263152,602.2527210214237 L559.2715001817628,627.6847974474248 M559.2715001817628,627.6847974474248 L505.9989096888345,646.2937273871659 M505.9989096888345,646.2937273871659 L446.5599036940728,656.9958990153357 M446.5599036940728,656.9958990153357 L384.4122929147063,659.1679914172169 M384.4122929147063,659.1679914172169 L323.1719835992819,652.6834664432855 M323.1719835992819,652.6834664432855 L266.4019103017797,637.9200482161434 M266.4019103017797,637.9200482161434 L217.40411948807946,615.737513605018 M217.40411948807946,615.737513605018 L179.0271594082542,587.427367186562 M179.0271594082542,587.427367186562 L153.50037764286486,554.6372094036484 M153.50037764286486,554.6372094036484 L142.30451838068905,519.2744920057021 M142.30451838068905,519.2744920057021 L146.0863918952617,483.3952091078785 M146.0863918952617,483.3952091078785 L164.6220657316595,449.08423861061243 M164.6220657316595,449.08423861061243 L196.83092454545456,418.3342559536403 M196.83092454545456,418.3342559536403 L240.83917319364159,392.930210446944 M240.83917319364159,392.930210446944 L294.0892096984004,374.3461006551313 M294.0892096984004,374.3461006551313 L353.48827455073564,363.65985239782367 M353.48827455073564,363.65985239782367 L415.5877070834221,361.4911387547941 M415.5877070834221,361.4911387547941 L476.7826380982958,367.96572382054006 M476.7826380982958,367.96572382054006 L533.5205286524399,382.7081606100535 M533.5205286524399,382.7081606100535 L582.5067049803702,404.86347882941317 M222.20012475066846,526.2864171092309 L222.20195219620504,534.0855378997978 M222.20012475066846,526.2864171092309 L223.19780059416127,525.5511295603997 M223.19780059416127,525.5511295603997 L223.86189670716377,524.6993519313268 M223.86189670716377,524.6993519313268 L224.1538305263011,523.7805887387092 M224.1538305263011,523.7805887387092 L224.05661468091455,522.8482300699444 M224.05661468091455,522.8482300699444 L223.57592833373042,521.9564694169746 M223.57592833373042,521.9564694169746 L222.7396826261264,521.1571262195399 M222.7396826261264,521.1571262195399 L221.59649810893956,520.4966546561178 M221.59649810893956,520.4966546561178 L220.2128070236692,520.0134341446801 M220.2128070236692,520.0134341446801 L218.6690243546811,519.7355576438259 M218.6690243546811,519.7355576438259 L217.0548572696844,519.6791578638013 M217.0548572696844,519.6791578638013 L215.46412703039485,519.8475276971309 M215.46412703039485,519.8475276971309 L213.98926867843696,520.2308688938651 M213.98926867843696,520.2308688938651 L212.7159956395431,520.8069102935774 M212.7159956395431,520.8069102935774 L211.71831196318914,521.5421794663583 M211.71831196318914,521.5421794663583 L211.05419412852712,522.3939429291228 M211.05419412852712,522.3939429291228 L210.7622296751559,523.3126994104908 M210.7622296751559,523.3126994104908 L210.85941299141413,524.2450603605245 M210.85941299141413,524.2450603605245 L211.34007236685045,525.136831764644 M211.34007236685045,525.136831764644 L212.17630283895596,525.9361917201672 M212.17630283895596,525.9361917201672 L213.31948734704284,526.5966822095456 M213.31948734704284,526.5966822095456 L214.70319365169632,527.0799194792254 M214.70319365169632,527.0799194792254 L216.24700328209366,527.3578067310928 M216.24700328209366,527.3578067310928 L217.86120289402487,527.4142087925406 M217.86120289402487,527.4142087925406 L219.4519637740022,527.2458322478134 M219.4519637740022,527.2458322478134 L220.9268438612424,526.8624768848823 M220.9268438612424,526.8624768848823 L222.20012475066846,526.2864171092309 M395.2640119364448,420.8753186306345 L395.264060661024,428.67335715396837 M395.2640119364448,420.8753186306345 L396.5366624048949,421.4510585715831 M396.5366624048949,421.4510585715831 L398.010948727181,421.83420109114525 M398.010948727181,421.83420109114525 L399.60118700492507,422.002484151183 M399.60118700492507,422.002484151183 L401.2149655547202,421.9461134048448 M401.2149655547202,421.9461134048448 L402.75848013178785,421.66838043928806 M402.75848013178785,421.66838043928806 L404.14203454499915,421.1854114684245 M404.14203454499915,421.1854114684245 L405.28521914580733,420.52528769030926 M405.28521914580733,420.52528769030926 L406.12160168863176,419.726371546984 M406.12160168863176,419.726371546984 L406.60255627871,418.83509526166927 M406.60255627871,418.83509526166927 L406.7001607901963,417.90325196484656 M406.7001607901963,417.90325196484656 L406.4087190360045,416.98500558215176 M406.4087190360045,416.98500558215176 L405.74519502201736,416.13371502206445 M405.74519502201736,416.13371502206445 L404.74814177905984,415.3988540729853 M404.74814177905984,415.3988540729853 L403.4754991479527,414.8231324926741 M403.4754991479527,414.8231324926741 L402.0012345420738,414.4400041275129 M402.0012345420738,414.4400041275129 L400.4110268847803,414.2717277732843 M400.4110268847803,414.2717277732843 L398.7972808449569,414.3280962400989 M398.7972808449569,414.3280962400989 L397.2537932194957,414.60581846359474 M397.2537932194957,414.60581846359474 L395.8702540252709,415.08877069017086 M395.8702540252709,415.08877069017086 L394.7270694244627,415.7488755580892 M394.7270694244627,415.7488755580892 L393.8906716626518,416.5477749572803 M393.8906716626518,416.5477749572803 L393.4096901209672,417.43904050039765 M393.4096901209672,417.43904050039765 L393.3120530995091,418.37088151785116 M393.3120530995091,418.37088151785116 L393.6034642332503,419.28913460620714 M393.6034642332503,419.28913460620714 L394.26696653083025,420.1404393208066 M394.26696653083025,420.1404393208066 L395.2640119364448,420.8753186306345 M404.75077639500074,626.2735299782565 L404.7507276176727,634.0736767914436 M404.75077639500074,626.2735299782565 L403.4774266958377,625.6971684925742 M403.4774266958377,625.6971684925742 L402.00234300617745,625.3136142868728 M402.00234300617745,625.3136142868728 L400.41125185053016,625.1451508965278 M400.41125185053016,625.1451508965278 L398.7966092351379,625.201582015862 M398.7966092351379,625.201582015862 L397.2522640675853,625.4796129226637 M397.2522640675853,625.4796129226637 L395.8679561940982,625.9631019425777 M395.8679561940982,625.9631019425777 L394.724136448919,626.6239405071437 M394.724136448919,626.6239405071437 L393.8872739868614,627.4237278727275 M393.8872739868614,627.4237278727275 L393.40602520812484,628.3159840482244 M393.40602520812484,628.3159840482244 L393.30833393126966,629.2488607997647 M393.30833393126966,629.2488607997647 L393.59990696223326,630.1681345218186 M393.59990696223326,630.1681345218186 L394.2637778904339,631.0203854595425 M394.2637778904339,631.0203854595425 L395.2613772444538,631.756081587648 M395.2613772444538,631.756081587648 L396.53473478967095,632.3324614645877 M396.53473478967095,632.3324614645877 L398.0098402198761,632.7160298482954 M398.0098402198761,632.7160298482954 L399.60096203000836,632.8844999556328 M399.60096203000836,632.8844999556328 L401.2156371915069,632.8280665529736 M401.2156371915069,632.8280665529736 L402.7600093406225,632.5500248861964 M402.7600093406225,632.5500248861964 L404.1443324500118,632.0665190940703 M404.1443324500118,632.0665190940703 L405.28815219519106,631.405661587771 M405.28815219519106,631.405661587771 L406.1249994213464,630.6058574501288 M406.1249994213464,630.6058574501288 L406.6062212185199,629.7135905145198 M406.6062212185199,629.7135905145198 L406.70387994926887,628.780711479809 M406.70387994926887,628.780711479809 L406.41227626382033,627.8614444745991 M406.41227626382033,627.8614444745991 L405.74838359507476,627.009207714993 M405.74838359507476,627.009207714993 L404.75077639500074,626.2735299782565 M577.809531192265,520.8069102935774 L577.8077037994772,528.6059748402743 M577.809531192265,520.8069102935774 L576.8125545794323,521.5421794663583 M576.8125545794323,521.5421794663583 L576.1492558337459,522.3939429291229 M576.1492558337459,522.3939429291229 L575.8581748924505,523.3126994104908 M575.8581748924505,523.3126994104908 L575.9562548033721,524.2450603605245 M575.9562548033721,524.2450603605245 L576.4377717409814,525.136831764644 M576.4377717409814,525.136831764644 L577.2747709088053,525.9361917201672 M577.2747709088053,525.9361917201672 L578.4185905703143,526.5966822095457 M578.4185905703143,526.5966822095457 L579.8027615747787,527.0799194792254 M579.8027615747787,527.0799194792254 L581.3468384323987,527.3578067310928 M581.3468384323987,527.3578067310928 L582.9610922827526,527.4142087925406 M582.9610922827526,527.4142087925406 L584.5516912452756,527.2458322478134 M584.5516912452756,527.2458322478134 L586.026202683043,526.8624768848823 M586.026202683043,526.8624768848823 L587.2989296109151,526.2864171092309 M587.2989296109151,526.2864171092309 L588.2958983732153,525.5511295603997 M588.2958983732153,525.5511295603997 L588.9591753836196,524.6993519313269 M588.9591753836196,524.6993519313269 L589.2502256842274,523.7805887387092 M589.2502256842274,523.7805887387092 L589.1521132463711,522.8482300699444 M589.1521132463711,522.8482300699444 L588.6705693473527,521.9564694169746 M588.6705693473527,521.9564694169746 L587.8335549601456,521.15712621954 M587.8335549601456,521.15712621954 L586.6897353077366,520.4966546561179 M586.6897353077366,520.4966546561179 L585.3055795387706,520.0134341446801 M585.3055795387706,520.0134341446801 L583.7615296528984,519.735557643826 M583.7615296528984,519.735557643826 L582.147308331673,519.6791578638014 M582.147308331673,519.6791578638014 L580.5567400033838,519.847527697131 M580.5567400033838,519.847527697131 L579.0822502872757,520.2308688938651 M579.0822502872757,520.2308688938651 L577.809531192265,520.8069102935774 M229.669668064741,517.328154392487 L226.38993764690824,518.8119640142294 M226.38993764690824,518.8119640142294 L222.59090194634533,519.7994120861475 M222.59090194634533,519.7994120861475 L218.4933394478415,520.2331024915375 M218.4933394478415,520.2331024915375 L214.33542937563365,520.0878316566805 M214.33542937563365,520.0878316566805 L210.35881809754878,519.3720477312246 M210.35881809754878,519.3720477312246 L206.79462521735283,518.1273423996731 M206.79462521735283,518.1273423996731 L203.85000863513835,516.4260709431743 M203.85000863513835,516.4260709431743 L201.69609048424007,514.3671110293644 M201.69609048424007,514.3671110293644 L200.458053909212,512.0701379770077 M200.458053909212,512.0701379770077 L200.20781099037924,509.66864851727655 M200.20781099037924,509.66864851727655 L200.9598938368731,507.30220129208806 M200.9598938368731,507.30220129208806 L202.67058495594986,505.1083370580167 M202.67058495594986,505.1083370580167 L205.2404508264066,503.21453565011086 M205.2404508264066,503.21453565011086 L208.52012915851063,501.73084794462557 M208.52012915851063,501.73084794462557 L212.31902065125473,500.7434938593394 M212.31902065125473,500.7434938593394 L216.41637985522516,500.30984797958445 M216.41637985522516,500.30984797958445 L220.5740741198635,500.45510367924817 M220.5740741198635,500.45510367924817 L224.55050651522794,501.1708162763706 M224.55050651522794,501.1708162763706 L228.11459841773268,502.41541042567746 M228.11459841773268,502.41541042567746 L231.05921506032448,504.11655631731446 M231.05921506032448,504.11655631731446 L233.21323429583686,506.1754050487698 M233.21323429583686,506.1754050487698 L234.4514498221813,508.4723067721659 M234.4514498221813,508.4723067721659 L234.70190856313886,510.87378109672716 M234.70190856313886,510.87378109672716 L233.95002896835808,513.2402728479434 M233.95002896835808,513.2402728479434 L232.23948196671444,515.4342310685153 M232.23948196671444,515.4342310685153 L229.669668064741,517.328154392487 M449.29126151105953,481.8053553732818 L459.65503323509,489.44442859958895 M459.65503323509,489.44442859958895 L466.5527854421384,498.29417079824634 M466.5527854421384,498.29417079824634 L469.58344374471017,507.84040251268084 M469.58344374471017,507.84040251268084 L468.57060125437073,517.5283872422846 M468.57060125437073,517.5283872422846 L463.57281274974207,526.7950778436261 M463.57281274974207,526.7950778436261 L454.88028982442364,535.1018302113723 M454.88028982442364,535.1018302113723 L442.9980618649325,541.9657269412041 M442.9980618649325,541.9657269412041 L428.61668105126944,546.9876884050426 M428.61668105126944,546.9876884050426 L412.57208925492574,549.87570626872 M412.57208925492574,549.87570626872 L395.7969862162137,550.4618359821613 M395.7969862162137,550.4618359821613 L379.266572744606,548.7119971982283 M379.266572744606,548.7119971982283 L363.94182994672764,544.7279422681994 M363.94182994672764,544.7279422681994 L350.71356873625916,538.7413416968601 M350.71356873625916,538.7413416968601 L340.35064370881634,531.10028439581 M340.35064370881634,531.10028439581 L333.4552376226924,522.2490126502983 M333.4552376226924,522.2490126502983 L330.42788739881775,512.702056317056 M330.42788739881775,512.702056317056 L331.44424208252303,503.0143178985145 M331.44424208252303,503.0143178985145 L336.4449422955526,493.74878811098574 M336.4449422955526,493.74878811098574 L345.1391094078596,485.4438451320491 M345.1391094078596,485.4438451320491 L357.02133736737005,478.5819918560222 M357.02133736737005,478.5819918560222 L371.40107399406656,473.5618397798632 M371.40107399406656,473.5618397798632 L387.4427540819956,470.6749827303812 M387.4427540819956,470.6749827303812 L404.21434492730435,470.0890993275453 M404.21434492730435,470.0890993275453 L420.74145032018583,471.83821349346795 M420.74145032018583,471.83821349346795 L436.0638469971444,475.8207388765752 M436.0638469971444,475.8207388765752 L449.29126151105953,481.8053553732818 M387.79127452738487,411.9165012068401 L385.22308454865856,410.0236294367829 M385.22308454865856,410.0236294367829 L383.51406711502716,407.8308893504988 M383.51406711502716,407.8308893504988 L382.7635338480506,405.46571152012683 M382.7635338480506,405.46571152012683 L383.0150774356902,403.0655705310251 M383.0150774356902,403.0655705310251 L384.25405329723566,400.769944074885 M384.25405329723566,400.769944074885 L386.40846417416543,398.71223843426804 M386.40846417416543,398.71223843426804 L389.3530810136901,397.01203702904627 M389.3530810136901,397.01203702904627 L392.91678166235926,395.7681338832056 M392.91678166235926,395.7681338832056 L396.89245409043343,395.052818651449 M396.89245409043343,395.052818651449 L401.04906384111314,394.9076435980096 M401.04906384111314,394.9076435980096 L405.14507699672487,395.3410487167045 M405.14507699672487,395.3410487167045 L408.9424391277217,396.3278546200012 M408.9424391277217,396.3278546200012 L412.2204936499523,397.8107185748828 M412.2204936499523,397.8107185748828 L414.78873562689836,399.7034685303947 M414.78873562689836,399.7034685303947 L416.4978971431142,401.89611470844164 M416.4978971431142,401.89611470844164 L417.2486335703535,404.261248049863 M417.2486335703535,404.261248049863 L416.99730567773713,406.6614041615315 M416.99730567773713,406.6614041615315 L415.7585086338722,408.957101887236 M415.7585086338722,408.957101887236 L413.60419873200107,411.014918617625 M413.60419873200107,411.014918617625 L410.6595818924765,412.7152454831495 M410.6595818924765,412.7152454831495 L407.09578026874885,413.95925971865233 M407.09578026874885,413.95925971865233 L403.11992902299403,414.67464621934687 M403.11992902299403,414.67464621934687 L398.96310357729095,414.81983639537617 M398.96310357729095,414.81983639537617 L394.8668872614164,414.3863867881234 M394.8668872614164,414.3863867881234 L391.0693810478352,413.39948697645804 M391.0693810478352,413.39948697645804 L387.79127452738487,411.9165012068401 M412.22727985740505,608.6769141928728 L414.796948768811,610.5717679295634 M414.796948768811,610.5717679295634 L416.5070599383836,612.7668512349208 M416.5070599383836,612.7668512349208 L417.25821353264337,615.1346134390175 M417.25821353264337,615.1346134390175 L417.00674606173743,617.5374373581834 M417.00674606173743,617.5374373581834 L415.76726078964106,619.835686800209 M415.76726078964106,619.835686800209 L413.611753977259,621.8957908503172 M413.611753977259,621.8957908503172 L410.66550110315524,623.5980076851387 M410.66550110315524,623.5980076851387 L407.099719396565,624.8434046887934 M407.099719396565,624.8434046887934 L403.12165911077443,625.5595863702797 M403.12165911077443,625.5595863702797 L398.9625240651831,625.7049379311968 M398.9625240651831,625.7049379311968 L394.8640318274498,625.2710065269549 M394.8640318274498,625.2710065269549 L391.0644156723193,624.2830097377879 M391.0644156723193,624.2830097377879 L387.7844878153502,622.7983755772109 M387.7844878153502,622.7983755772109 L385.2148709599607,620.903399822821 M385.2148709599607,620.903399822821 L383.5049040331222,618.7082224526129 M383.5049040331222,618.7082224526129 L382.75395382494025,616.3404156853696 M382.75395382494025,616.3404156853696 L383.00563723061714,613.9376069139909 M383.00563723061714,613.9376069139909 L384.2453015191522,611.6394288603883 M384.2453015191522,611.6394288603883 L386.4009094188277,609.57943608532 M386.4009094188277,609.57943608532 L389.34716229293167,607.8773449200354 M389.34716229293167,607.8773449200354 L392.9128429122284,606.6320591913109 M392.9128429122284,606.6320591913109 L396.89072418158025,605.9159488976198 M396.89072418158025,605.9159488976198 L401.04964329240045,605.7706124845131 M401.04964329240045,605.7706124845131 L405.1479321440558,606.204499326002 M405.1479321440558,606.204499326002 L408.9474040564523,607.1924020501863 M408.9474040564523,607.1924020501863 L412.22727985740505,608.6769141928728 M570.3362218250834,503.214535650111 L573.6144733103545,501.73084794462557 M573.6144733103545,501.73084794462557 L577.4124152750783,500.7434938593394 M577.4124152750783,500.7434938593394 L581.5093574463756,500.30984797958445 M581.5093574463756,500.30984797958445 L585.6671914018896,500.4551036792483 M585.6671914018896,500.4551036792483 L589.6443120905174,501.1708162763706 M589.6443120905174,501.1708162763706 L593.2096009061015,502.41541042567746 M593.2096009061015,502.41541042567746 L596.1558535227723,504.1165563173146 M596.1558535227723,504.1165563173146 L598.3118527314159,506.1754050487699 M598.3118527314159,506.1754050487699 L599.5522771639455,508.4723067721659 M599.5522771639455,508.4723067721659 L599.805045377457,510.87378109672716 M599.805045377457,510.87378109672716 L599.0554416128582,513.2402728479435 M599.0554416128582,513.2402728479435 L597.3470045177178,515.4342310685154 M597.3470045177178,515.4342310685154 L594.779011981849,517.328154392487 M594.779011981849,517.328154392487 L591.5007085280947,518.8119640142294 M591.5007085280947,518.8119640142294 L587.7026224459378,519.7994120861475 M587.7026224459378,519.7994120861475 L583.6054770229273,520.2331024915375 M583.6054770229273,520.2331024915375 L579.4474272452883,520.0878316566805 M579.4474272452883,520.0878316566805 L575.4701276053443,519.3720477312246 M575.4701276053443,519.3720477312246 L571.9047377051463,518.1273423996731 M571.9047377051463,518.1273423996731 L568.958485028098,516.4260709431743 M568.958485028098,516.4260709431743 L566.8025867971458,514.3671110293644 M566.8025867971458,514.3671110293644 L565.5623412473362,512.0701379770077 M565.5623412473362,512.0701379770077 L565.3097888413943,509.66864851727655 M565.3097888413943,509.66864851727655 L566.0595959005266,507.30220129208806 M566.0595959005266,507.30220129208806 L567.768177203486,505.1083370580168 M567.768177203486,505.1083370580168 L570.3362218250834,503.214535650111 M222.20012475066846,526.2864171092309 L224.68992170699713,523.3003853248396 M224.68992170699713,523.3003853248396 L227.1797752795298,520.3143011050125 M227.1797752795298,520.3143011050125 L229.669668064741,517.328154392487 M395.2640119364448,420.8753186306345 L392.77315028896714,417.88910193242606 M392.77315028896714,417.88910193242606 L390.28223201810493,414.90283280838764 M390.28223201810493,414.90283280838764 L387.79127452738487,411.9165012068401 M404.75077639500074,626.2735299782565 L407.24293113780504,620.4080170093674 M407.24293113780504,620.4080170093674 L409.73510476314607,614.5424750607309 M409.73510476314607,614.5424750607309 L412.22727985740505,608.6769141928728 M577.809531192265,520.8069102935774 L575.318441140696,514.9428110253077 M575.318441140696,514.9428110253077 L572.8273322137629,509.078682792506 M572.8273322137629,509.078682792506 L570.3362218250834,503.214535650111 M449.29126151105953,481.8053553732818 L449.3000666197394,346.2265904303904 M444.2283395165694,344.810528227387 L449.3000666197394,346.2265904303904 M350.7122358815193,347.46401683475364 L364.1672068549431,343.9147937171681 M364.1672068549431,343.9147937171681 L378.1384810595449,341.67923991606955 M378.1384810595449,341.67923991606955 L391.6413995839922,340.5391197324956 M391.6413995839922,340.5391197324956 L405.47369424684325,340.2724870512941 M405.47369424684325,340.2724870512941 L419.09070415271145,340.88983988475934 M419.09070415271145,340.88983988475934 L431.9562411940391,342.3668816922703 M431.9562411940391,342.3668816922703 L438.3053022413287,343.4816908619439 M438.3053022413287,343.4816908619439 L444.2283395165694,344.810528227387 M350.7047609859282,403.1524122398218 L340.5591685970171,398.4731181820808 M340.5591685970171,398.4731181820808 L333.6991519093984,391.8181258612203 M333.6991519093984,391.8181258612203 L330.50356386401097,383.5553525796798 M330.50356386401097,383.5553525796798 L331.1487037264492,374.14150259751517 M331.1487037264492,374.14150259751517 L335.598648367435,364.0968104781245 M335.598648367435,364.0968104781245 L342.0418756289977,355.6444077605652 M342.0418756289977,355.6444077605652 L350.7122358815193,347.46401683475364 M449.30738076289185,404.389931448489 L436.43647653871807,412.6786082178309 M436.43647653871807,412.6786082178309 L421.55199854993606,418.20633968953877 M421.55199854993606,418.20633968953877 L405.47661064591813,420.6675241799943 M405.47661064591813,420.6675241799943 L389.0988399989002,419.9260906700629 M389.0988399989002,419.9260906700629 L373.3239479580393,416.0230195134072 M373.3239479580393,416.0230195134072 L361.269900380611,410.505976978277 M361.269900380611,410.505976978277 L350.7047609859282,403.1524122398218 M453.89659598615924,350.3918598267469 L463.02780568572774,361.22929810053273 M463.02780568572774,361.22929810053273 L468.0279375999086,371.07839422411405 M468.0279375999086,371.07839422411405 L469.7058498985119,379.6088818652352 M469.7058498985119,379.6088818652352 L468.6383248552469,387.4743321227645 M468.6383248552469,387.4743321227645 L464.86723627248216,394.364883677955 M464.86723627248216,394.364883677955 L458.54097238826995,400.0090367632649 M458.54097238826995,400.0090367632649 L454.2258967971661,402.4203690480764 M454.2258967971661,402.4203690480764 L449.30738076289185,404.389931448489 M449.3000666197394,346.2265904303904 L453.89659598615924,350.3918598267469 M350.7026291288155,199.54174647418154 L357.7319915437175,204.61192369652136 M357.7319915437175,204.61192369652136 L365.39735024131085,212.06036621242316 M365.39735024131085,212.06036621242316 L376.40669135886185,225.49261792578142 M376.40669135886185,225.49261792578142 L388.0466243732905,242.59099732033076 M388.0466243732905,242.59099732033076 L400.0061110685478,262.8986554504558 M350.7122358815193,347.46401683475364 L329.4193826897959,262.3942640119294 M329.4193826897959,262.3942640119294 L326.5948732838512,229.8780546635731 M326.5948732838512,229.8780546635731 L328.18476095000347,212.08299033992492 M328.18476095000347,212.08299033992492 L331.43028395280794,202.99152233579656 M331.43028395280794,202.99152233579656 L334.9700350774453,198.72533208647877 M334.9700350774453,198.72533208647877 L338.21518678469016,197.00406828507073 M338.21518678469016,197.00406828507073 L342.3104178562946,196.5905725706488 M342.3104178562946,196.5905725706488 L346.31762431120796,197.48488276112067 M346.31762431120796,197.48488276112067 L350.7026291288155,199.54174647418154 M444.2283395165694,344.810528227387 L436.0066060341543,51.282204982779774 M436.0066060341543,51.282204982779774 L447.5079889975008,51.06444285786159 M447.5079889975008,51.06444285786159 L455.74527300789805,50.95855128644257 M455.74527300789805,50.95855128644257 L460.23955021970494,50.970652288530346 M460.23955021970494,50.970652288530346 L460.72929937814206,51.1000942461165 M460.72929937814206,51.1000942461165 L457.1857056068851,51.33935926734864 M457.1857056068851,51.33935926734864 L449.8143488667143,51.67452483636646 M449.8143488667143,51.67452483636646 L439.043422325152,52.0861291194621 M439.043422325152,52.0861291194621 L425.4988182846645,52.55026878626353 M425.4988182846645,52.55026878626353 L409.96780260330854,53.039933971782546 M409.96780260330854,53.039933971782546 L393.35325372459187,53.52666468914458 M393.35325372459187,53.52666468914458 L376.6210947940205,53.98218249056856 M376.6210947940205,53.98218249056856 L360.74411087188946,54.37997981656906 M360.74411087188946,54.37997981656906 L346.6453061253324,54.69695465859513 M346.6453061253324,54.69695465859513 L335.144196033931,54.914672277967156 M335.144196033931,54.914672277967156 L326.9091632804869,55.02047425616513 M326.9091632804869,55.02047425616513 L322.4185999805477,55.00825020654793 M322.4185999805477,55.00825020654793 L321.93317657037153,54.87868495548537 M321.93317657037153,54.87868495548537 L325.4807256551065,54.63932464230197 M325.4807256551065,54.63932464230197 L332.85473268749024,54.30411612225646 M332.85473268749024,54.30411612225646 L343.6264291805039,53.89252662161846 M343.6264291805039,53.89252662161846 L357.1697464437101,53.4284560883587 M357.1697464437101,53.4284560883587 L372.69768157329264,52.93890299093573 M372.69768157329264,52.93890299093573 L389.3080946719653,52.45229661714279 M389.3080946719653,52.45229661714279 L406.0359892828952,51.996893891522234 M406.0359892828952,51.996893891522234 L421.9095693129436,51.59916402546531 M421.9095693129436,51.59916402546531 L436.0066060341543,51.282204982779774 M400.0061110685478,262.8986554504558 L418.24875833316617,235.81941046092822 M418.24875833316617,235.81941046092822 L429.5417995637553,223.2367378336545 M429.5417995637553,223.2367378336545 L437.3889755765117,216.8135726554907 M437.3889755765117,216.8135726554907 L443.40149994643093,213.5357975591109 M443.40149994643093,213.5357975591109 L448.46885616898277,212.22363763204643 M448.46885616898277,212.22363763204643 L452.57056037604355,212.4720941705017 M452.57056037604355,212.4720941705017 L456.1991155584858,214.07270827139794 M456.1991155584858,214.07270827139794 L459.32187475446204,217.0110387409858 M459.32187475446204,217.0110387409858 L461.9107495012497,221.26059076285577 M461.9107495012497,221.26059076285577 L464.4925693004575,228.898498562969 M464.4925693004575,228.898498562969 L466.1631135325691,240.04099618813268 M466.1631135325691,240.04099618813268 L466.30669853733457,258.71096436830203 M466.30669853733457,258.71096436830203 L462.07931290727254,293.47082209289226 M462.07931290727254,293.47082209289226 L456.64669062723243,319.1123978901669 M456.64669062723243,319.1123978901669 L449.3000666197394,346.2265904303904 M350.7026291288155,199.54174647418154 L268.1369196835008,99.98332692807759 M268.1369196835008,99.98332692807759 L275.4221751436499,103.59765912704631 M275.4221751436499,103.59765912704631 L279.6868170107665,109.89969521387769 M279.6868170107665,109.89969521387769 L280.68273556782043,118.52336226621719 M280.68273556782043,118.52336226621719 L278.3517848166754,128.96762026451904 M278.3517848166754,128.96762026451904 L272.8292270068312,140.62547393221558 M272.8292270068312,140.62547393221558 L264.4359052576758,152.8192930943116 M264.4359052576758,152.8192930943116 L253.65963984262652,164.84025308218938 M253.65963984262652,164.84025308218938 L241.12684740148757,175.98949263993367 M241.12684740148757,175.98949263993367 L227.56613584845894,185.6187991597771 M227.56613584845894,185.6187991597771 L213.76586686897005,193.16843410815804 M213.76586686897005,193.16843410815804 L200.5283110698349,198.19957134757232 M200.5283110698349,198.19957134757232 L188.62294456560426,200.4198409062554 M188.62294456560426,200.4198409062554 L178.74171246295947,199.70039719982626 M178.74171246295947,199.70039719982626 L171.4587778898132,196.08326768032478 M171.4587778898132,196.08326768032478 L167.19721027973603,189.7788890788905 M167.19721027973603,189.7788890788905 L166.20439529956155,181.15387347050776 M166.20439529956155,181.15387347050776 L168.53778872804594,170.70956285472326 M168.53778872804594,170.70956285472326 L174.06155666042363,159.05297654546052 M174.06155666042363,159.05297654546052 L182.45458747029795,146.861435431048 M182.45458747029795,146.861435431048 L193.2291198131182,134.8432606847482 M193.2291198131182,134.8432606847482 L205.75913407603,123.69667549561461 M205.75913407603,123.69667549561461 L219.31666651272894,114.06926600999981 M219.31666651272894,114.06926600999981 L233.11407937052314,106.52035261695454 M233.11407937052314,106.52035261695454 L246.34975635089177,101.48859112476617 M246.34975635089177,101.48859112476617 L258.25464304297174,99.26649451521968 M258.25464304297174,99.26649451521968 L268.1369196835008,99.98332692807759 M350.7047609859282,403.1524122398218 L337.5475124206459,363.45787321102887 M337.5475124206459,363.45787321102887 L333.49394816435284,323.6495789969161 M333.49394816435284,323.6495789969161 L335.1219646659878,305.540022957556 M335.1219646659878,305.540022957556 L337.91597722954657,293.3040060369178 M337.91597722954657,293.3040060369178 L340.85996611785805,285.0579052873809 M340.85996611785805,285.0579052873809 L344.86742099344053,277.08069607972465 M344.86742099344053,277.08069607972465 L349.26498323451256,270.75693209395195 M349.26498323451256,270.75693209395195 L353.74314882054387,266.0038137832653 M353.74314882054387,266.0038137832653 L358.66941123472895,262.1875742262494 M358.66941123472895,262.1875742262494 L363.99602027783254,259.3452009569013 M363.99602027783254,259.3452009569013 L369.67134729185204,257.5041974033299 M369.67134729185204,257.5041974033299 L377.68539819530224,256.6366001741562 M377.68539819530224,256.6366001741562 L388.680830246741,258.2432738033266 M388.680830246741,258.2432738033266 L400.0061110685478,262.8986554504558 M449.3169903982847,256.45656294895775 L442.2856688936768,253.4118126826619 M442.2856688936768,253.4118126826619 L434.61851671516916,252.01146327764752 M434.61851671516916,252.01146327764752 L423.60722547504383,252.73498324008807 M423.60722547504383,252.73498324008807 L411.9660329740012,256.3967541616382 M411.9660329740012,256.3967541616382 L400.0061110685478,262.8986554504558 M449.3169903982847,256.45656294895775 L453.38833240331036,206.88567995494088 M453.38833240331036,206.88567995494088 L464.8960102485523,218.51383786483677 M464.8960102485523,218.51383786483677 L473.13724560512196,232.3648737633779 M473.13724560512196,232.3648737633779 L477.6330358529996,247.633962218955 M477.6330358529996,247.633962218955 L478.1219856095377,263.43374502099016 M478.1219856095377,263.43374502099016 L474.57556153568174,278.8460111475218 M474.57556153568174,278.8460111475218 L467.19975595639835,292.9750475663858 M467.19975595639835,292.9750475663858 L456.4231286279076,304.99961686796684 M456.4231286279076,304.99961686796684 L442.87193688400663,314.22077022727484 M442.87193688400663,314.22077022727484 L427.33378111380955,320.1025097132675 M427.33378111380955,320.1025097132675 L410.71174072593084,322.30292311948006 M410.71174072593084,322.30292311948006 L393.97196001884146,320.69405572863036 M393.97196001884146,320.69405572863036 L378.08741638179254,315.36946163904645 M378.08741638179254,315.36946163904645 L363.9813723078158,306.63862195159516 M363.9813723078158,306.63862195159516 L352.47367354167636,295.00906569351173 M352.47367354167636,295.00906569351173 L344.23311085945187,281.1567840776856 M344.23311085945187,281.1567840776856 L339.7385327741179,265.88689681965246 M339.7385327741179,265.88689681965246 L339.25105698283545,250.0869400975464 M339.25105698283545,250.0869400975464 L342.79887044421884,234.6751647768445 M342.79887044421884,234.6751647768445 L350.1756910309684,220.54716893732137 M350.1756910309684,220.54716893732137 L360.95269461244806,208.52395605613248 M360.95269461244806,208.52395605613248 L374.50353766182707,199.30416422127263 M374.50353766182707,199.30416422127263 L390.04073151922825,193.42347499933456 M390.04073151922825,193.42347499933456 L406.66138429141074,191.2235650239899 M406.66138429141074,191.2235650239899 L423.3996903459375,192.83226671574994 M423.3996903459375,192.83226671574994 L439.2829980502585,198.15607593075288 M439.2829980502585,198.15607593075288 L453.38833240331036,206.88567995494088 M449.30738076289185,404.389931448489 L470.6080028814389,343.8967552274353 M470.6080028814389,343.8967552274353 L473.4337502294176,314.6353106024926 M473.4337502294176,314.6353106024926 L471.8431597618073,295.0003438948336 M471.8431597618073,295.0003438948336 L468.5962498740675,282.1592580811987 M468.5962498740675,282.1592580811987 L465.0550592598641,273.80492974246687 M465.0550592598641,273.80492974246687 L461.8086549000355,268.33633727861695 M461.8086549000355,268.33633727861695 L457.71193455536667,263.194349393955 M457.71193455536667,263.194349393955 L453.70336968111434,259.46213989582395 M453.70336968111434,259.46213989582395 L449.3169903982847,256.45656294895775 M453.89659598615924,350.3918598267469 L621.2462658816846,158.13675358000427 M621.2462658816846,158.13675358000427 L628.5382078067478,170.7944911675767 M628.5382078067478,170.7944911675767 L632.8107390225364,182.81695732488234 M632.8107390225364,182.81695732488234 L633.8154400973733,193.5055617013292 M633.8154400973733,193.5055617013292 L631.4936739567033,202.2390763703579 M631.4936739567033,202.2390763703579 L625.9801266639367,208.50982333773638 M625.9801266639367,208.50982333773638 L617.5949703342978,211.9531766567948 M617.5949703342978,211.9531766567948 L606.8253688270283,212.36873688809072 M606.8253688270283,212.36873688809072 L594.2971531114758,209.73215339002988 M594.2971531114758,209.73215339002988 L580.738495664541,204.19653508690033 M580.738495664541,204.19653508690033 L566.9375564610323,196.08352074086753 M566.9375564610323,196.08352074086753 L553.6966525332716,185.864680748287 M553.6966525332716,185.864680748287 L541.7855632384824,174.1341208151386 M541.7855632384824,174.1341208151386 L531.896718844421,161.5737742272114 M531.896718844421,161.5737742272114 L524.6049337780162,148.91385163872667 M524.6049337780162,148.91385163872667 L520.3339681289153,136.8902973601962 M520.3339681289153,136.8902973601962 L519.3319024481027,126.2019485016317 M519.3319024481027,126.2019485016317 L521.6567493059868,117.4699814201685 M521.6567493059868,117.4699814201685 L527.173128940015,111.20170758443021 M527.173128940015,111.20170758443021 L535.5602116805524,107.76120532838672 M535.5602116805524,107.76120532838672 L546.3304000560281,107.34820257283184 M546.3304000560281,107.34820257283184 L558.857728651022,109.98646407284951 M558.857728651022,109.98646407284951 L572.4142205144392,115.52251486866817 M572.4142205144392,115.52251486866817 L586.212216127306,123.63460068218558 M586.212216127306,123.63460068218558 L599.4500728003875,133.8513688531704 M599.4500728003875,133.8513688531704 L611.3587179765732,145.5791883134103 M611.3587179765732,145.5791883134103 L621.2462658816846,158.13675358000427 M428.5611858614237,51.56672551498775 L438.14565854715374,51.38526519334181 M438.14565854715374,51.38526519334181 L445.0099034197198,51.29701077320027 M445.0099034197198,51.29701077320027 L448.75487510105796,51.30711437981057 M448.75487510105796,51.30711437981057 L449.1627077106471,51.41498789151473 M449.1627077106471,51.41498789151473 L446.2094322739259,51.61437993057365 M446.2094322739259,51.61437993057365 L440.06646087493925,51.893685636617306 M440.06646087493925,51.893685636617306 L431.0906279982475,52.23669236548744 M431.0906279982475,52.23669236548744 L419.80354750257305,52.62346667798698 M419.80354750257305,52.62346667798698 L406.8612448925117,53.03150734113069 M406.8612448925117,53.03150734113069 L393.0160772452398,53.437107883493354 M393.0160772452398,53.437107883493354 L379.07290519303564,53.81670284120355 M379.07290519303564,53.81670284120355 L365.8423289411231,54.14820060582656 M365.8423289411231,54.14820060582656 L354.0934390642691,54.412335152495814 M354.0934390642691,54.412335152495814 L344.50916893364354,54.59378719478025 M344.50916893364354,54.59378719478025 L337.646478727698,54.681950772333835 M337.646478727698,54.681950772333835 L333.90408615065724,54.67176171563074 M333.90408615065724,54.67176171563074 L333.4992618856173,54.56380007260299 M333.4992618856173,54.56380007260299 L336.45527802260676,54.364341858746684 M336.45527802260676,54.364341858746684 L342.6001033246428,54.08500709289592 M342.6001033246428,54.08500709289592 L351.5764708899132,53.74201063035309 M351.5764708899132,53.74201063035309 L362.8626443684288,53.35528355945837 M362.8626443684288,53.35528355945837 L375.80280939928355,52.9473232451262 M375.80280939928355,52.9473232451262 L389.6451063071967,52.54180828523232 M389.6451063071967,52.54180828523232 L403.58531569569664,52.16229400956013 M403.58531569569664,52.16229400956013 L416.8135368410501,51.83085160263647 M416.8135368410501,51.83085160263647 L428.5611858614237,51.56672551498775 M260.68781755099735,108.29252161644519 L266.75870260911483,111.30467444176435 M266.75870260911483,111.30467444176435 L270.31235504024653,116.5565263179248 M270.31235504024653,116.5565263179248 L271.1420691387406,123.74300726856245 M271.1420691387406,123.74300726856245 L269.1994458938264,132.44655447976317 M269.1994458938264,132.44655447976317 L264.59722305900266,142.16135660179054 M264.59722305900266,142.16135660179054 L257.60281529382047,152.32271424046678 M257.60281529382047,152.32271424046678 L248.62270722277162,162.33999162464306 M248.62270722277162,162.33999162464306 L238.17890981881558,171.630834459384 M238.17890981881558,171.630834459384 L226.87853549928386,179.65513157099522 M226.87853549928386,179.65513157099522 L215.3785155379937,185.94643889583685 M215.3785155379937,185.94643889583685 L204.3473480735672,190.13908741681928 M204.3473480735672,190.13908741681928 L194.4262500150451,191.98945363237357 M194.4262500150451,191.98945363237357 L186.1918144714017,191.3900918787129 M186.1918144714017,191.3900918787129 L180.12254549044115,188.37600400780053 M180.12254549044115,188.37600400780053 L176.57101320598719,183.1225203603522 M176.57101320598719,183.1225203603522 L175.7434530389743,175.9351036796772 M175.7434530389743,175.9351036796772 L177.68777391909683,167.23151916032694 M177.68777391909683,167.23151916032694 L182.29083276164215,157.51759617318413 M182.29083276164215,157.51759617318413 L189.2850398128378,147.35782825862944 M189.2850398128378,147.35782825862944 L198.26394436089527,137.34248507094503 M198.26394436089527,137.34248507094503 L208.70581114807288,128.0534778001528 M208.70581114807288,128.0534778001528 L220.0039777459207,120.03050156397978 M220.0039777459207,120.03050156397978 L231.502018645678,113.73969280512569 M231.502018645678,113.73969280512569 L242.53188137420082,109.54661077498685 M242.53188137420082,109.54661077498685 L252.45266098884343,107.69500091644869 M252.45266098884343,107.69500091644869 L260.68781755099735,108.29252161644519 M445.9382510710636,215.19786359708922 L455.52797680412385,224.88810821699366 M455.52797680412385,224.88810821699366 L462.395632760977,236.43072218732698 M462.395632760977,236.43072218732698 L466.1420390103398,249.15500881495632 M466.1420390103398,249.15500881495632 L466.5493991392827,262.32150572306193 M466.5493991392827,262.32150572306193 L463.5939493779492,275.16503135461363 M463.5939493779492,275.16503135461363 L457.4473707886558,286.9391534157933 M457.4473707886558,286.9391534157933 L448.46681462302035,296.95953782160575 M448.46681462302035,296.95953782160575 L437.17419266140297,304.64373455059155 M437.17419266140297,304.64373455059155 L424.22579111966667,309.54512291515664 M424.22579111966667,309.54512291515664 L410.37418831538474,311.37876009558676 M410.37418831538474,311.37876009558676 L396.42447232475865,310.0380460881215 M396.42447232475865,310.0380460881215 L383.18743701025755,305.6009283106941 M383.18743701025755,305.6009283106941 L371.4324539257558,298.32532696436044 M371.4324539257558,298.32532696436044 L361.84270059680125,288.6341288759551 M361.84270059680125,288.6341288759551 L354.9755204859405,277.0906382236356 M354.9755204859405,277.0906382236356 L351.2299560179144,264.36579687204693 M351.2299560179144,264.36579687204693 L350.823615119796,251.19918170033395 M350.823615119796,251.19918170033395 L353.7800357828439,238.35599690631835 M353.7800357828439,238.35599690631835 L359.9273058082057,226.58259670121657 M359.9273058082057,226.58259670121657 L368.90812326120334,216.56315425507617 M368.90812326120334,216.56315425507617 L380.20051650312234,208.87990379641533 M380.20051650312234,208.87990379641533 L393.1482483554507,203.97924226822644 M393.1482483554507,203.97924226822644 L406.9988862070595,202.14595546000663 M406.9988862070595,202.14595546000663 L420.9475794640861,203.4865536311045 M420.9475794640861,203.4865536311045 L434.1837477809435,207.92311783633463 M434.1837477809435,207.92311783633463 L445.9382510710636,215.19786359708922 M613.8018253177088,158.42312967548054 L619.8784283621178,168.97138347336005 M619.8784283621178,168.97138347336005 L623.4387748147492,178.99018502131756 M623.4387748147492,178.99018502131756 L624.2758415827857,187.8973416169356 M624.2758415827857,187.8973416169356 L622.340826598002,195.17516573779392 M622.340826598002,195.17516573779392 L617.7460042655675,200.40060940831975 M617.7460042655675,200.40060940831975 L610.7582456970715,203.26986464450687 M610.7582456970715,203.26986464450687 L601.7835297493509,203.61599138940798 M601.7835297493509,203.61599138940798 L591.3434162496942,201.4187239005692 M591.3434162496942,201.4187239005692 L580.0446832766193,196.80567516869488 M580.0446832766193,196.80567516869488 L568.5441065134337,190.04489185062948 M568.5441065134337,190.04489185062948 L557.5102301130275,181.52934665694295 M557.5102301130275,181.52934665694295 L547.5844847478456,171.7540733341833 M547.5844847478456,171.7540733341833 L539.3438725835558,161.28729845291906 M539.3438725835558,161.28729845291906 L533.2673741124197,150.73751975678044 M533.2673741124197,150.73751975678044 L529.708129616562,140.71796759412996 M529.708129616562,140.71796759412996 L528.8728943134536,131.81098767336607 M528.8728943134536,131.81098767336607 L530.8100473542438,124.53423903351046 M530.8100473542438,124.53423903351046 L535.4068409470315,119.31051379435394 M535.4068409470315,119.31051379435394 L542.3959359662324,116.44323071440795 M542.3959359662324,116.44323071440795 L551.3710594612835,116.09887999556258 M551.3710594612835,116.09887999556258 L561.8105582392209,118.29732051029191 M561.8105582392209,118.29732051029191 L573.1077873328106,122.91066609468771 M573.1077873328106,122.91066609468771 L584.6063155829886,129.67080710963614 M584.6063155829886,129.67080710963614 L595.6380758343416,138.1849135397457 M595.6380758343416,138.1849135397457 L605.5621091311634,147.95829884792758 M605.5621091311634,147.95829884792758 L613.8018253177088,158.42312967548054 M431.4527941044988,154.80096073012186 L441.0373050298371,154.62146483076322 M441.0373050298371,154.62146483076322 L447.9016036649501,154.53555890506968 M447.9016036649501,154.53555890506968 L451.6466415082539,154.54826869118062 M451.6466415082539,154.54826869118062 L452.0545401310407,154.6588401258347 M452.0545401310407,154.6588401258347 L449.1013523349253,154.86085026106 M449.1013523349253,154.86085026106 L442.9584529678721,155.14257762772664 M442.9584529678721,155.14257762772664 L433.98269806759424,155.48765882949354 M433.98269806759424,155.48765882949354 L422.69567980104426,155.87602012986508 M422.69567980104426,155.87602012986508 L409.753432986835,156.28509532797148 M409.753432986835,156.28509532797148 L395.90829647431923,156.69110941643865 M395.90829647431923,156.69110941643865 L381.96514624630964,157.07044345189533 M381.96514624630964,157.07044345189533 L368.7345640772399,157.40106049082215 M368.7345640772399,157.40106049082215 L356.9856558717623,157.66373707561942 M356.9856558717623,157.66373707561942 L347.4013420418514,157.84320211784387 M347.4013420418514,157.84320211784387 L340.538603496514,157.92902864845314 M340.538603496514,157.92902864845314 L336.7961425626792,157.91624442605573 M336.7961425626792,157.91624442605573 L336.39124574403314,157.80558859429962 M336.39124574403314,157.80558859429962 L339.34718076734487,157.60349869915282 M339.34718076734487,157.60349869915282 L345.49193186709215,157.32174147422765 M345.49193186709215,157.32174147422765 L354.46821711628877,156.97668367669635 M354.46821711628877,156.97668367669635 L365.75433056133534,156.58836136884656 M365.75433056133534,156.58836136884656 L378.6944441682989,156.17936441801106 M378.6944441682989,156.17936441801106 L392.536709955702,155.77344613944717 M392.536709955702,155.77344613944717 L406.47690188118753,155.39419016603506 M406.47690188118753,155.39419016603506 L419.7051202354344,155.0636180729844 M419.7051202354344,155.0636180729844 L431.4527941044988,154.80096073012186 M431.4527941044988,154.80096073012186 L428.5611858614237,51.56672551498775 M319.54808560144903,179.26523564931 L325.619789672377,182.27873637308488 M325.619789672377,182.27873637308488 L329.17449863165643,187.53178595596285 M329.17449863165643,187.53178595596285 L330.0054603916,194.7192361432723 M330.0054603916,194.7192361432723 L328.06418627995384,203.42344807526229 M328.06418627995384,203.42344807526229 L323.4633528195079,213.1385813742889 M323.4633528195079,213.1385813742889 L316.4702745725012,223.2999455694773 M316.4702745725012,223.2999455694773 L307.49138026364074,233.31685739040654 M307.49138026364074,233.31685739040654 L297.0485931296526,242.6070232963287 M297.0485931296526,242.6070232963287 L285.7489841408297,250.63035662008582 M285.7489841408297,250.63035662008582 L274.24941225865945,256.9204683605943 M274.24941225865945,256.9204683605943 L263.2183751942055,261.111744225422 M263.2183751942055,261.111744225422 L253.29707357242816,262.9606650629057 M253.29707357242816,262.9606650629057 L245.0621123488559,262.3598591607908 M245.0621123488559,262.3598591607908 L238.99202179780823,259.34440978131886 M238.99202179780823,259.34440978131886 L235.43943263913584,254.08974381943307 M235.43943263913584,254.08974381943307 L234.61062893205735,246.90135572564054 M234.61062893205735,246.90135572564054 L236.55360061200795,238.19709670951164 M236.55360061200795,238.19709670951164 L241.15527455362994,228.48284019569155 M241.15527455362994,228.48284019569155 L248.14815018281675,218.3230745362153 M248.14815018281675,218.3230745362153 L257.12583697874527,208.30808921846466 M257.12583697874527,208.30808921846466 L267.56669604697083,199.01975986265944 M267.56669604697083,199.01975986265944 L278.8641041468546,190.99775336941488 M278.8641041468546,190.99775336941488 L290.36169058715456,184.70814364751146 M290.36169058715456,184.70814364751146 L301.39142071025,180.51642524269525 M301.39142071025,180.51642524269525 L311.31240042032357,178.66624747209252 M311.31240042032357,178.66624747209252 L319.54808560144903,179.26523564931 M319.54808560144903,179.26523564931 L260.68781755099735,108.29252161644519 M443.03710004287234,250.53591026726446 L452.62507947878345,260.22459754392867 M452.62507947878345,260.22459754392867 L459.49146641184535,271.76539527458533 M459.49146641184535,271.76539527458533 L463.23717287362166,284.48767692500013 M463.23717287362166,284.48767692500013 L463.6444312963199,297.6521084994861 M463.6444312963199,297.6521084994861 L460.68949243499577,310.49362351377937 M460.68949243499577,310.49362351377937 L454.54399693022737,322.26591274142515 M454.54399693022737,322.26591274142515 L445.56505245350064,332.28473747114236 M445.56505245350064,332.28473747114236 L434.2744515037717,339.9677531469816 M434.2744515037717,339.9677531469816 L421.3283800051415,344.86838777159005 M421.3283800051415,344.86838777159005 L407.47927212933826,346.70176691602757 M407.47927212933826,346.70176691602757 L393.5320793836833,345.3613007014127 M393.5320793836833,345.3613007014127 L380.2974489570329,340.9248975769585 M380.2974489570329,340.9248975769585 L368.5445998003765,333.65045838668675 M368.5445998003765,333.65045838668675 L358.9565982229166,323.9607997339825 M358.9565982229166,323.9607997339825 L352.0906815225748,312.4191337883378 M352.0906815225748,312.4191337883378 L348.3458187167234,299.6963064005259 M348.3458187167234,299.6963064005259 L347.9395856889324,286.5317528303284 M347.9395856889324,286.5317528303284 L350.89548856666005,273.69057224898324 M350.89548856666005,273.69057224898324 L357.0416774332138,261.91900588871806 M357.0416774332138,261.91900588871806 L366.020887455772,251.9011303434288 M366.020887455772,251.9011303434288 L377.31125759018545,244.21904930516928 M377.31125759018545,244.21904930516928 L390.25665528676416,239.31914378616727 M390.25665528676416,239.31914378616727 L404.10479855680046,237.48612495724944 M404.10479855680046,237.48612495724944 L418.0509645849637,238.82647788861124 M418.0509645849637,238.82647788861124 L431.2847370358972,243.26231757149077 M431.2847370358972,243.26231757149077 L443.03710004287234,250.53591026726446 M443.03710004287234,250.53591026726446 L445.9382510710636,215.19786359708922 M554.9352815568093,226.05114040391646 L561.0105473952297,236.59926079737977 M561.0105473952297,236.59926079737977 L564.5695486259378,246.6182603574145 M564.5695486259378,246.6182603574145 L565.4053531527452,255.52591269248637 M565.4053531527452,255.52591269248637 L563.4692235607881,262.804531081066 M563.4692235607881,262.804531081066 L558.8735075105549,268.0310165357006 M558.8735075105549,268.0310165357006 L551.8851193859502,270.90148604818 M551.8851193859502,270.90148604818 L542.9100918176168,271.24892916925415 M542.9100918176168,271.24892916925415 L532.4699771545854,269.05301844716587 M532.4699771545854,269.05301844716587 L521.1715728929214,264.4412768512545 M521.1715728929214,264.4412768512545 L509.6716248487544,257.68168126814624 M509.6716248487544,257.68168126814624 L498.6386491978536,249.16713040056055 M498.6386491978536,249.16713040056055 L488.7140211001438,239.39259695605148 M488.7140211001438,239.39259695605148 L480.4746703130728,228.92629363885237 M480.4746703130728,228.92629363885237 L474.39951144068544,218.37664208061855 M474.39951144068544,218.37664208061855 L470.8416121995748,208.35689679781663 M470.8416121995748,208.35689679781663 L470.00763463950983,199.4494233830207 M470.00763463950983,199.4494233830207 L471.9459019936703,192.1718700813268 M471.9459019936703,192.1718700813268 L476.54358457178716,186.94710524172862 M476.54358457178716,186.94710524172862 L483.53331095098144,184.0786189559634 M483.53331095098144,184.0786189559634 L492.50875013763306,183.73293918591054 M492.50875013763306,183.73293918591054 L502.94824777222414,185.93002173875863 M502.94824777222414,185.93002173875863 L514.2451416795766,190.5420742221051 M514.2451416795766,190.5420742221051 L525.743047966919,197.3010240457932 M525.743047966919,197.3010240457932 L536.7739099940768,205.81412517899912 M536.7739099940768,205.81412517899912 L546.6968296811667,215.58676398296404 M546.6968296811667,215.58676398296404 L554.9352815568093,226.05114040391646 M554.9352815568093,226.05114040391646 L613.8018253177088,158.42312967548054" stroke="black"  stroke-width="4"  fill="red"/>
<path d="M404.75077639500074,626.2735299782565 L405.74838359507476,627.009207714993 M405.74838359507476,627.009207714993 L406.41227626382033,627.8614444745991 M406.41227626382033,627.8614444745991 L406.70387994926887,628.780711479809 M406.70387994926887,628.780711479809 L406.6062212185199,629.7135905145198 M406.6062212185199,629.7135905145198 L406.1249994213464,630.6058574501288 M406.1249994213464,630.6058574501288 L405.28815219519106,631.405661587771 M405.28815219519106,631.405661587771 L404.1443324500118,632.0665190940703 M404.1443324500118,632.0665190940703 L402.7600093406225,632.5500248861964 M402.7600093406225,632.5500248861964 L401.2156371915069,632.8280665529736 M401.2156371915069,632.8280665529736 L399.60096203000836,632.8844999556328 M399.60096203000836,632.8844999556328 L398.0098402198761,632.7160298482954 M398.0098402198761,632.7160298482954 L396.53473478967095,632.3324614645877 M396.53473478967095,632.3324614645877 L395.2613772444538,631.756081587648 M395.2613772444538,631.756081587648 L394.2637778904339,631.0203854595425 M394.2637778904339,631.0203854595425 L393.59990696223326,630.1681345218186 M393.59990696223326,630.1681345218186 L393.30833393126966,629.2488607997647 M393.30833393126966,629.2488607997647 L393.40602520812484,628.3159840482244 M393.40602520812484,628.3159840482244 L393.8872739868614,627.4237278727275 M393.8872739868614,627.4237278727275 L394.724136448919,626.6239405071437 M394.724136448919,626.6239405071437 L395.8679561940982,625.9631019425777 M395.8679561940982,625.9631019425777 L397.2522640675853,625.4796129226637 M397.2522640675853,625.4796129226637 L398.7966092351379,625.201582015862 M398.7966092351379,625.201582015862 L400.41125185053016,625.1451508965278 M400.41125185053016,625.1451508965278 L402.00234300617745,625.3136142868728 M402.00234300617745,625.3136142868728 L403.4774266958377,625.6971684925742 M403.4774266958377,625.6971684925742 L404.75077639500074,626.2735299782565 M404.75077639500074,626.2735299782565 L404.75005002708986,742.4294690872482 M404.75005002708986,742.4294690872482 L403.47689526774303,741.8530195760867 M403.47689526774303,741.8530195760867 L402.00203740081685,741.4694067914741 M402.00203740081685,741.4694067914741 L400.41118982710617,741.3009176722588 M400.41118982710617,741.3009176722588 L398.79679439905993,741.3573574101383 M398.79679439905993,741.3573574101383 L397.2526856572601,741.6354307796787 M397.2526856572601,741.6354307796787 L395.8685897098992,742.1189936411196 M395.8685897098992,742.1189936411196 L394.7249450750593,742.7799331328606 M394.7249450750593,742.7799331328606 L393.88821073161824,743.5798426462317 M393.88821073161824,743.5798426462317 L393.4070356305737,744.4722350912365 M393.4070356305737,744.4722350912365 L393.309359312021,745.405254315361 M393.309359312021,745.405254315361 L393.60088770765725,746.3246684318052 M393.60088770765725,746.3246684318052 L394.26465700379504,747.1770495273788 M394.26465700379504,747.1770495273788 L395.2621036333361,747.9128580123272 M395.2621036333361,747.9128580123272 L396.53526623633485,748.489325914739 M396.53526623633485,748.489325914739 L398.0101458371497,748.8729528773524 M398.0101458371497,748.8729528773524 L399.6010240559602,749.0414487135574 M399.6010240559602,749.0414487135574 L401.2154520201484,748.9850066923539 M401.2154520201484,748.9850066923539 L402.75958773525036,748.706922562842 M402.75958773525036,748.706922562842 L404.143698913849,748.223342929196 M404.143698913849,748.223342929196 L405.28734354868885,747.5623844957287 M405.28734354868885,747.5623844957287 L406.1240626608923,746.7624582103059 M406.1240626608923,746.7624582103059 L406.60521078863457,745.8700550051931 M406.60521078863457,745.8700550051931 L406.7028545710454,744.9370334978989 M406.7028545710454,744.9370334978989 L406.41129553030936,744.0176260982963 M406.41129553030936,744.0176260982963 L405.7475045002828,743.1652591808348 M405.7475045002828,743.1652591808348 L404.75005002708986,742.4294690872482" stroke="black"  stroke-width="4"  fill="red"/>
<path d="M404.75077639500074,626.2735299782565 L405.74838359507476,627.009207714993 M405.74838359507476,627.009207714993 L406.41227626382033,627.8614444745991 M406.41227626382033,627.8614444745991 L406.70387994926887,628.780711479809 M406.70387994926887,628.780711479809 L406.6062212185199,629.7135905145198 M406.6062212185199,629.7135905145198 L406.1249994213464,630.6058574501288 M406.1249994213464,630.6058574501288 L405.28815219519106,631.405661587771 M405.28815219519106,631.405661587771 L404.1443324500118,632.0665190940703 M404.1443324500118,632.0665190940703 L402.7600093406225,632.5500248861964 M402.7600093406225,632.5500248861964 L401.2156371915069,632.8280665529736 M401.2156371915069,632.8280665529736 L399.60096203000836,632.8844999556328 M399.60096203000836,632.8844999556328 L398.0098402198761,632.7160298482954 M398.0098402198761,632.7160298482954 L396.53473478967095,632.3324614645877 M396.53473478967095,632.3324614645877 L395.2613772444538,631.756081587648 M395.2613772444538,631.756081587648 L387.7844878153502,622.7983755772109 M412.22727985740505,608.6769141928728 L414.796948768811,610.5717679295634 M414.796948768811,610.5717679295634 L416.5070599383836,612.7668512349208 M416.5070599383836,612.7668512349208 L417.25821353264337,615.1346134390175 M417.25821353264337,615.1346134390175 L417.00674606173743,617.5374373581834 M417.00674606173743,617.5374373581834 L415.76726078964106,619.835686800209 M415.76726078964106,619.835686800209 L413.611753977259,621.8957908503172 M413.611753977259,621.8957908503172 L410.66550110315524,623.5980076851387 M410.66550110315524,623.5980076851387 L407.099719396565,624.8434046887934 M407.099719396565,624.8434046887934 L403.12165911077443,625.5595863702797 M403.12165911077443,625.5595863702797 L398.9625240651831,625.7049379311968 M398.9625240651831,625.7049379311968 L394.8640318274498,625.2710065269549 M394.8640318274498,625.2710065269549 L391.0644156723193,624.2830097377879 M391.0644156723193,624.2830097377879 L387.7844878153502,622.7983755772109 M404.75077639500074,626.2735299782565 L412.22727985740505,608.6769141928728 M395.2613772444538,631.756081587648 L394.2637778904339,631.0203854595425 M394.2637778904339,631.0203854595425 L393.59990696223326,630.1681345218186 M393.59990696223326,630.1681345218186 L393.30833393126966,629.2488607997647 M393.30833393126966,629.2488607997647 L393.40602520812484,628.3159840482244 M393.40602520812484,628.3159840482244 L393.8872739868614,627.4237278727275 M393.8872739868614,627.4237278727275 L394.724136448919,626.6239405071437 M394.724136448919,626.6239405071437 L395.8679561940982,625.9631019425777 M395.8679561940982,625.9631019425777 L397.2522640675853,625.4796129226637 M397.2522640675853,625.4796129226637 L398.7966092351379,625.201582015862 M398.7966092351379,625.201582015862 L400.41125185053016,625.1451508965278 M400.41125185053016,625.1451508965278 L402.00234300617745,625.3136142868728 M402.00234300617745,625.3136142868728 L403.4774266958377,625.6971684925742 M403.4774266958377,625.6971684925742 L404.75077639500074,626.2735299782565 M387.7844878153502,622.7983755772109 L385.2148709599607,620.903399822821 M385.2148709599607,620.903399822821 L383.5049040331222,618.7082224526129 M383.5049040331222,618.7082224526129 L382.75395382494025,616.3404156853696 M382.75395382494025,616.3404156853696 L383.00563723061714,613.9376069139909 M383.00563723061714,613.9376069139909 L384.2453015191522,611.6394288603883 M384.2453015191522,611.6394288603883 L386.4009094188277,609.57943608532 M386.4009094188277,609.57943608532 L389.34716229293167,607.8773449200354 M389.34716229293167,607.8773449200354 L392.9128429122284,606.6320591913109 M392.9128429122284,606.6320591913109 L396.89072418158025,605.9159488976198 M396.89072418158025,605.9159488976198 L401.04964329240045,605.7706124845131 M401.04964329240045,605.7706124845131 L405.1479321440558,606.204499326002 M405.1479321440558,606.204499326002 L408.9474040564523,607.1924020501863 M408.9474040564523,607.1924020501863 L412.22727985740505,608.6769141928728" stroke="black"  stroke-width="4"  fill="red"/>
<path d="M577.809531192265,520.8069102935774 L579.0822502872757,520.2308688938651 M579.0822502872757,520.2308688938651 L580.5567400033838,519.847527697131 M580.5567400033838,519.847527697131 L582.147308331673,519.6791578638014 M582.147308331673,519.6791578638014 L583.7615296528984,519.735557643826 M583.7615296528984,519.735557643826 L585.3055795387706,520.0134341446801 M585.3055795387706,520.0134341446801 L586.6897353077366,520.4966546561179 M586.6897353077366,520.4966546561179 L587.8335549601456,521.15712621954 M587.8335549601456,521.15712621954 L588.6705693473527,521.9564694169746 M588.6705693473527,521.9564694169746 L589.1521132463711,522.8482300699444 M589.1521132463711,522.8482300699444 L589.2502256842274,523.7805887387092 M589.2502256842274,523.7805887387092 L588.9591753836196,524.6993519313269 M588.9591753836196,524.6993519313269 L588.2958983732153,525.5511295603997 M588.2958983732153,525.5511295603997 L587.2989296109151,526.2864171092309 M587.2989296109151,526.2864171092309 L586.026202683043,526.8624768848823 M586.026202683043,526.8624768848823 L584.5516912452756,527.2458322478134 M584.5516912452756,527.2458322478134 L582.9610922827526,527.4142087925406 M582.9610922827526,527.4142087925406 L581.3468384323987,527.3578067310928 M581.3468384323987,527.3578067310928 L579.8027615747787,527.0799194792254 M579.8027615747787,527.0799194792254 L578.4185905703143,526.5966822095457 M578.4185905703143,526.5966822095457 L577.2747709088053,525.9361917201672 M577.2747709088053,525.9361917201672 L576.4377717409814,525.136831764644 M576.4377717409814,525.136831764644 L575.9562548033721,524.2450603605245 M575.9562548033721,524.2450603605245 L575.8581748924505,523.3126994104908 M575.8581748924505,523.3126994104908 L576.1492558337459,522.3939429291229 M576.1492558337459,522.3939429291229 L576.8125545794323,521.5421794663583 M576.8125545794323,521.5421794663583 L577.809531192265,520.8069102935774 M577.809531192265,520.8069102935774 L577.7823185591067,636.9467374300237 M577.7823185591067,636.9467374300237 L576.7854944801356,637.6821189597879 M576.7854944801356,637.6821189597879 L576.1222971913737,638.5340125805621 M576.1222971913737,638.5340125805621 L575.8312607347866,639.4529094564903 M575.8312607347866,639.4529094564903 L575.9293255684565,640.3854128792777 M575.9293255684565,640.3854128792777 L576.4107687463027,641.2773205530643 M576.4107687463027,641.2773205530643 L577.2476397536775,642.0768026565152 M577.2476397536775,642.0768026565152 L578.3912843048859,642.7373940731833 M578.3912843048859,642.7373940731833 L579.7752434251315,643.2207051844725 M579.7752434251315,643.2207051844725 L581.3190839391389,643.4986348991256 M581.3190839391389,643.4986348991256 L582.9330907211563,643.5550455791283 M582.9330907211563,643.5550455791283 L584.5234462524093,643.3866433055025 M584.5234462524093,643.3866433055025 L585.9977320426126,643.0032293635946 M585.9977320426126,643.0032293635946 L587.2702642212996,642.427081562365 M587.2702642212996,642.427081562365 L588.2670804521426,641.6916816565554 M588.2670804521426,641.6916816565554 L588.9302560122758,640.8397738694765 M588.9302560122758,640.8397738694765 L589.2212618375543,639.9208702823006 M589.2212618375543,639.9208702823006 L589.1231644869054,638.9883691407813 M589.1231644869054,638.9883691407813 L588.6416943559013,638.0964722181417 M588.6416943559013,638.0964722181417 L587.8048081338004,637.297006872775 M587.8048081338004,637.297006872775 L586.6611635916881,636.6364343820583 M586.6611635916881,636.6364343820583 L585.2772197022764,636.1531400290064 M585.2772197022764,636.1531400290064 L583.7334061517606,635.8752210653638 M583.7334061517606,635.8752210653638 L582.119431888915,635.8188126667836 M582.119431888915,635.8188126667836 L580.5291069825198,635.9872082290137 M580.5291069825198,635.9872082290137 L579.0548429073285,636.3706080047282 M579.0548429073285,636.3706080047282 L577.7823185591067,636.9467374300237" stroke="black"  stroke-width="4"  fill="red"/>
<path d="M577.809531192265,520.8069102935774 L579.0822502872757,520.2308688938651 M579.0822502872757,520.2308688938651 L580.5567400033838,519.847527697131 M580.5567400033838,519.847527697131 L582.147308331673,519.6791578638014 M582.147308331673,519.6791578638014 L583.7615296528984,519.735557643826 M583.7615296528984,519.735557643826 L585.3055795387706,520.0134341446801 M585.3055795387706,520.0134341446801 L586.6897353077366,520.4966546561179 M586.6897353077366,520.4966546561179 L587.8335549601456,521.15712621954 M587.8335549601456,521.15712621954 L588.6705693473527,521.9564694169746 M588.6705693473527,521.9564694169746 L589.1521132463711,522.8482300699444 M589.1521132463711,522.8482300699444 L589.2502256842274,523.7805887387092 M589.2502256842274,523.7805887387092 L588.9591753836196,524.6993519313269 M588.9591753836196,524.6993519313269 L588.2958983732153,525.5511295603997 M588.2958983732153,525.5511295603997 L587.2989296109151,526.2864171092309 M587.2989296109151,526.2864171092309 L594.779011981849,517.328154392487 M570.3362218250834,503.214535650111 L573.6144733103545,501.73084794462557 M573.6144733103545,501.73084794462557 L577.4124152750783,500.7434938593394 M577.4124152750783,500.7434938593394 L581.5093574463756,500.30984797958445 M581.5093574463756,500.30984797958445 L585.6671914018896,500.4551036792483 M585.6671914018896,500.4551036792483 L589.6443120905174,501.1708162763706 M589.6443120905174,501.1708162763706 L593.2096009061015,502.41541042567746 M593.2096009061015,502.41541042567746 L596.1558535227723,504.1165563173146 M596.1558535227723,504.1165563173146 L598.3118527314159,506.1754050487699 M598.3118527314159,506.1754050487699 L599.5522771639455,508.4723067721659 M599.5522771639455,508.4723067721659 L599.805045377457,510.87378109672716 M599.805045377457,510.87378109672716 L599.0554416128582,513.2402728479435 M599.0554416128582,513.2402728479435 L597.3470045177178,515.4342310685154 M597.3470045177178,515.4342310685154 L594.779011981849,517.328154392487 M577.809531192265,520.8069102935774 L570.3362218250834,503.214535650111 M587.2989296109151,526.2864171092309 L586.026202683043,526.8624768848823 M586.026202683043,526.8624768848823 L584.5516912452756,527.2458322478134 M584.5516912452756,527.2458322478134 L582.9610922827526,527.4142087925406 M582.9610922827526,527.4142087925406 L581.3468384323987,527.3578067310928 M581.3468384323987,527.3578067310928 L579.8027615747787,527.0799194792254 M579.8027615747787,527.0799194792254 L578.4185905703143,526.5966822095457 M578.4185905703143,526.5966822095457 L577.2747709088053,525.9361917201672 M577.2747709088053,525.9361917201672 L576.4377717409814,525.136831764644 M576.4377717409814,525.136831764644 L575.9562548033721,524.2450603605245 M575.9562548033721,524.2450603605245 L575.8581748924505,523.3126994104908 M575.8581748924505,523.3126994104908 L576.1492558337459,522.3939429291229 M576.1492558337459,522.3939429291229 L576.8125545794323,521.5421794663583 M576.8125545794323,521.5421794663583 L577.809531192265,520.8069102935774 M594.779011981849,517.328154392487 L591.5007085280947,518.8119640142294 M591.5007085280947,518.8119640142294 L587.7026224459378,519.7994120861475 M587.7026224459378,519.7994120861475 L583.6054770229273,520.2331024915375 M583.6054770229273,520.2331024915375 L579.4474272452883,520.0878316566805 M579.4474272452883,520.0878316566805 L575.4701276053443,519.3720477312246 M575.4701276053443,519.3720477312246 L571.9047377051463,518.1273423996731 M571.9047377051463,518.1273423996731 L568.958485028098,516.4260709431743 M568.958485028098,516.4260709431743 L566.8025867971458,514.3671110293644 M566.8025867971458,514.3671110293644 L565.5623412473362,512.0701379770077 M565.5623412473362,512.0701379770077 L565.3097888413943,509.66864851727655 M565.3097888413943,509.66864851727655 L566.0595959005266,507.30220129208806 M566.0595959005266,507.30220129208806 L567.768177203486,505.1083370580168 M567.768177203486,505.1083370580168 L570.3362218250834,503.214535650111" stroke="black"  stroke-width="4"  fill="red"/>
<path d="M395.2640119364448,420.8753186306345 L394.26696653083025,420.1404393208066 M394.26696653083025,420.1404393208066 L393.6034642332503,419.28913460620714 M393.6034642332503,419.28913460620714 L393.3120530995091,418.37088151785116 M393.3120530995091,418.37088151785116 L393.4096901209672,417.43904050039765 M393.4096901209672,417.43904050039765 L393.8906716626518,416.5477749572803 M393.8906716626518,416.5477749572803 L394.7270694244627,415.7488755580892 M394.7270694244627,415.7488755580892 L395.8702540252709,415.08877069017086 M395.8702540252709,415.08877069017086 L397.2537932194957,414.60581846359474 M397.2537932194957,414.60581846359474 L398.7972808449569,414.3280962400989 M398.7972808449569,414.3280962400989 L400.4110268847803,414.2717277732843 M400.4110268847803,414.2717277732843 L402.0012345420738,414.4400041275129 M402.0012345420738,414.4400041275129 L403.4754991479527,414.8231324926741 M403.4754991479527,414.8231324926741 L404.74814177905984,415.3988540729853 M404.74814177905984,415.3988540729853 L405.74519502201736,416.13371502206445 M405.74519502201736,416.13371502206445 L406.4087190360045,416.98500558215176 M406.4087190360045,416.98500558215176 L406.7001607901963,417.90325196484656 M406.7001607901963,417.90325196484656 L406.60255627871,418.83509526166927 M406.60255627871,418.83509526166927 L406.12160168863176,419.726371546984 M406.12160168863176,419.726371546984 L405.28521914580733,420.52528769030926 M405.28521914580733,420.52528769030926 L404.14203454499915,421.1854114684245 M404.14203454499915,421.1854114684245 L402.75848013178785,421.66838043928806 M402.75848013178785,421.66838043928806 L401.2149655547202,421.9461134048448 M401.2149655547202,421.9461134048448 L399.60118700492507,422.002484151183 M399.60118700492507,422.002484151183 L398.010948727181,421.83420109114525 M398.010948727181,421.83420109114525 L396.5366624048949,421.4510585715831 M396.5366624048949,421.4510585715831 L395.2640119364448,420.8753186306345 M395.2640119364448,420.8753186306345 L395.2647375189032,536.9998710965251 M395.2647375189032,536.9998710965251 L396.5371932615554,537.5756990631174 M396.5371932615554,537.5756990631174 L398.011254005163,537.9589001616998 M398.011254005163,537.9589001616998 L399.6012489620166,538.1272089506556 M399.6012489620166,538.1272089506556 L401.21478058893615,538.070829585756 M401.21478058893615,538.070829585756 L402.7580589944755,537.7930541573817 M402.7580589944755,537.7930541573817 L404.14140171217736,537.3100113448538 M404.14140171217736,537.3100113448538 L405.28441139704927,536.649786639374 M405.28441139704927,536.649786639374 L406.1206659681491,535.8507483480307 M406.1206659681491,535.8507483480307 L406.6015469705796,534.9593357929488 M406.6015469705796,534.9593357929488 L406.6991365503203,534.0273500232681 M406.6991365503203,534.0273500232681 L406.4077393912752,533.1089632459112 M406.4077393912752,533.1089632459112 L405.74431690316845,532.2575425277198 M405.74431690316845,532.2575425277198 L404.7474162175379,531.5225692215766 M404.7474162175379,531.5225692215766 L403.4749683098305,530.9467596156192 M403.4749683098305,530.9467596156192 L402.0009292759851,530.5635726714357 M402.0009292759851,530.5635726714357 L400.4109649302124,530.3952705882882 M400.4109649302124,530.3952705882882 L398.7974658033168,530.4516476736645 M398.7974658033168,530.4516476736645 L397.25421434113696,530.7294123599794 M397.25421434113696,530.7294123599794 L395.8708868377648,531.2124384282222 M395.8708868377648,531.2124384282222 L394.72787715289286,531.8726442235076 M394.72787715289286,531.8726442235076 L393.89160736746334,532.671665770719 M393.89160736746334,532.671665770719 L393.41069942167337,533.5630675836051 M393.41069942167337,533.5630675836051 L393.31307734190875,534.495051073917 M393.31307734190875,534.495051073917 L393.6044438898729,535.4134445569341 M393.6044438898729,535.4134445569341 L394.2678446682175,536.2648794296357 M394.2678446682175,536.2648794296357 L395.2647375189032,536.9998710965251" stroke="black"  stroke-width="4"  fill="red"/>
<path d="M395.2640119364448,420.8753186306345 L394.26696653083025,420.1404393208066 M394.26696653083025,420.1404393208066 L393.6034642332503,419.28913460620714 M393.6034642332503,419.28913460620714 L393.3120530995091,418.37088151785116 M393.3120530995091,418.37088151785116 L393.4096901209672,417.43904050039765 M393.4096901209672,417.43904050039765 L393.8906716626518,416.5477749572803 M393.8906716626518,416.5477749572803 L394.7270694244627,415.7488755580892 M394.7270694244627,415.7488755580892 L395.8702540252709,415.08877069017086 M395.8702540252709,415.08877069017086 L397.2537932194957,414.60581846359474 M397.2537932194957,414.60581846359474 L398.7972808449569,414.3280962400989 M398.7972808449569,414.3280962400989 L400.4110268847803,414.2717277732843 M400.4110268847803,414.2717277732843 L402.0012345420738,414.4400041275129 M402.0012345420738,414.4400041275129 L403.4754991479527,414.8231324926741 M403.4754991479527,414.8231324926741 L404.74814177905984,415.3988540729853 M404.74814177905984,415.3988540729853 L412.2204936499523,397.8107185748828 M387.79127452738487,411.9165012068401 L385.22308454865856,410.0236294367829 M385.22308454865856,410.0236294367829 L383.51406711502716,407.8308893504988 M383.51406711502716,407.8308893504988 L382.7635338480506,405.46571152012683 M382.7635338480506,405.46571152012683 L383.0150774356902,403.0655705310251 M383.0150774356902,403.0655705310251 L384.25405329723566,400.769944074885 M384.25405329723566,400.769944074885 L386.40846417416543,398.71223843426804 M386.40846417416543,398.71223843426804 L389.3530810136901,397.01203702904627 M389.3530810136901,397.01203702904627 L392.91678166235926,395.7681338832056 M392.91678166235926,395.7681338832056 L396.89245409043343,395.052818651449 M396.89245409043343,395.052818651449 L401.04906384111314,394.9076435980096 M401.04906384111314,394.9076435980096 L405.14507699672487,395.3410487167045 M405.14507699672487,395.3410487167045 L408.9424391277217,396.3278546200012 M408.9424391277217,396.3278546200012 L412.2204936499523,397.8107185748828 M395.2640119364448,420.8753186306345 L387.79127452738487,411.9165012068401 M404.74814177905984,415.3988540729853 L405.74519502201736,416.13371502206445 M405.74519502201736,416.13371502206445 L406.4087190360045,416.98500558215176 M406.4087190360045,416.98500558215176 L406.7001607901963,417.90325196484656 M406.7001607901963,417.90325196484656 L406.60255627871,418.83509526166927 M406.60255627871,418.83509526166927 L406.12160168863176,419.726371546984 M406.12160168863176,419.726371546984 L405.28521914580733,420.52528769030926 M405.28521914580733,420.52528769030926 L404.14203454499915,421.1854114684245 M404.14203454499915,421.1854114684245 L402.75848013178785,421.66838043928806 M402.75848013178785,421.66838043928806 L401.2149655547202,421.9461134048448 M401.2149655547202,421.9461134048448 L399.60118700492507,422.002484151183 M399.60118700492507,422.002484151183 L398.010948727181,421.83420109114525 M398.010948727181,421.83420109114525 L396.5366624048949,421.4510585715831 M396.5366624048949,421.4510585715831 L395.2640119364448,420.8753186306345 M412.2204936499523,397.8107185748828 L414.78873562689836,399.7034685303947 M414.78873562689836,399.7034685303947 L416.4978971431142,401.89611470844164 M416.4978971431142,401.89611470844164 L417.2486335703535,404.261248049863 M417.2486335703535,404.261248049863 L416.99730567773713,406.6614041615315 M416.99730567773713,406.6614041615315 L415.7585086338722,408.957101887236 M415.7585086338722,408.957101887236 L413.60419873200107,411.014918617625 M413.60419873200107,411.014918617625 L410.6595818924765,412.7152454831495 M410.6595818924765,412.7152454831495 L407.09578026874885,413.95925971865233 M407.09578026874885,413.95925971865233 L403.11992902299403,414.67464621934687 M403.11992902299403,414.67464621934687 L398.96310357729095,414.81983639537617 M398.96310357729095,414.81983639537617 L394.8668872614164,414.3863867881234 M394.8668872614164,414.3863867881234 L391.0693810478352,413.39948697645804 M391.0693810478352,413.39948697645804 L387.79127452738487,411.9165012068401" stroke="black"  stroke-width="4"  fill="red"/>
<path d="M222.20012475066846,526.2864171092309 L220.9268438612424,526.8624768848823 M220.9268438612424,526.8624768848823 L219.4519637740022,527.2458322478134 M219.4519637740022,527.2458322478134 L217.86120289402487,527.4142087925406 M217.86120289402487,527.4142087925406 L216.24700328209366,527.3578067310928 M216.24700328209366,527.3578067310928 L214.70319365169632,527.0799194792254 M214.70319365169632,527.0799194792254 L213.31948734704284,526.5966822095456 M213.31948734704284,526.5966822095456 L212.17630283895596,525.9361917201672 M212.17630283895596,525.9361917201672 L211.34007236685045,525.136831764644 M211.34007236685045,525.136831764644 L210.85941299141413,524.2450603605245 M210.85941299141413,524.2450603605245 L210.7622296751559,523.3126994104908 M210.7622296751559,523.3126994104908 L211.05419412852712,522.3939429291228 M211.05419412852712,522.3939429291228 L211.71831196318914,521.5421794663583 M211.71831196318914,521.5421794663583 L212.7159956395431,520.8069102935774 M212.7159956395431,520.8069102935774 L213.98926867843696,520.2308688938651 M213.98926867843696,520.2308688938651 L215.46412703039485,519.8475276971309 M215.46412703039485,519.8475276971309 L217.0548572696844,519.6791578638013 M217.0548572696844,519.6791578638013 L218.6690243546811,519.7355576438259 M218.6690243546811,519.7355576438259 L220.2128070236692,520.0134341446801 M220.2128070236692,520.0134341446801 L221.59649810893956,520.4966546561178 M221.59649810893956,520.4966546561178 L222.7396826261264,521.1571262195399 M222.7396826261264,521.1571262195399 L223.57592833373042,521.9564694169746 M223.57592833373042,521.9564694169746 L224.05661468091455,522.8482300699444 M224.05661468091455,522.8482300699444 L224.1538305263011,523.7805887387092 M224.1538305263011,523.7805887387092 L223.86189670716377,524.6993519313268 M223.86189670716377,524.6993519313268 L223.19780059416127,525.5511295603997 M223.19780059416127,525.5511295603997 L222.20012475066846,526.2864171092309 M222.20012475066846,526.2864171092309 L222.22733816927916,642.427081562365 M222.22733816927916,642.427081562365 L223.22486126489224,641.6916816565554 M223.22486126489224,641.6916816565554 L223.88885567691443,640.8397738694764 M223.88885567691443,640.8397738694764 L224.18074475029744,639.9208702823006 M224.18074475029744,639.9208702823006 L224.0835437176924,638.9883691407813 M224.0835437176924,638.9883691407813 L223.6029308760466,638.0964722181417 M223.6029308760466,638.0964722181417 L222.7668130982751,637.2970068727749 M222.7668130982751,637.2970068727749 L221.62380349698617,636.6364343820582 M221.62380349698617,636.6364343820582 L220.2403241490424,636.1531400290064 M220.2403241490424,636.1531400290064 L218.6967777336226,635.8752210653638 M218.6967777336226,635.8752210653638 L217.0828576904055,635.8188126667835 M217.0828576904055,635.8188126667835 L215.4923709225667,635.9872082290137 M215.4923709225667,635.9872082290137 L214.01773832435532,636.3706080047282 M214.01773832435532,636.3706080047282 L212.74466020179844,636.9467374300237 M212.74466020179844,636.9467374300237 L211.74712927572025,637.6821189597878 M211.74712927572025,637.6821189597878 L211.08311314868598,638.5340125805621 M211.08311314868598,638.5340125805621 L210.7911934504451,639.4529094564903 M210.7911934504451,639.4529094564903 L210.8883619638784,640.3854128792777 M210.8883619638784,640.3854128792777 L211.3689478420325,641.2773205530642 M211.3689478420325,641.2773205530642 L212.20505038897005,642.0768026565152 M212.20505038897005,642.0768026565152 L213.34805998116315,642.7373940731832 M213.34805998116315,642.7373940731832 L214.731554543833,643.2207051844725 M214.731554543833,643.2207051844725 L216.27512791241048,643.4986348991256 M216.27512791241048,643.4986348991256 L217.88908047260657,643.5550455791283 M217.88908047260657,643.5550455791283 L219.4795978717542,643.3866433055024 M219.4795978717542,643.3866433055024 L220.95425219859433,643.0032293635946 M220.95425219859433,643.0032293635946 L222.22733816927916,642.427081562365" stroke="black"  stroke-width="4"  fill="red"/>
<path d="M222.20012475066846,526.2864171092309 L220.9268438612424,526.8624768848823 M220.9268438612424,526.8624768848823 L219.4519637740022,527.2458322478134 M219.4519637740022,527.2458322478134 L217.86120289402487,527.4142087925406 M217.86120289402487,527.4142087925406 L216.24700328209366,527.3578067310928 M216.24700328209366,527.3578067310928 L214.70319365169632,527.0799194792254 M214.70319365169632,527.0799194792254 L213.31948734704284,526.5966822095456 M213.31948734704284,526.5966822095456 L212.17630283895596,525.9361917201672 M212.17630283895596,525.9361917201672 L211.34007236685045,525.136831764644 M211.34007236685045,525.136831764644 L210.85941299141413,524.2450603605245 M210.85941299141413,524.2450603605245 L210.7622296751559,523.3126994104908 M210.7622296751559,523.3126994104908 L211.05419412852712,522.3939429291228 M211.05419412852712,522.3939429291228 L211.71831196318914,521.5421794663583 M211.71831196318914,521.5421794663583 L212.7159956395431,520.8069102935774 M212.7159956395431,520.8069102935774 L205.2404508264066,503.21453565011086 M229.669668064741,517.328154392487 L226.38993764690824,518.8119640142294 M226.38993764690824,518.8119640142294 L222.59090194634533,519.7994120861475 M222.59090194634533,519.7994120861475 L218.4933394478415,520.2331024915375 M218.4933394478415,520.2331024915375 L214.33542937563365,520.0878316566805 M214.33542937563365,520.0878316566805 L210.35881809754878,519.3720477312246 M210.35881809754878,519.3720477312246 L206.79462521735283,518.1273423996731 M206.79462521735283,518.1273423996731 L203.85000863513835,516.4260709431743 M203.85000863513835,516.4260709431743 L201.69609048424007,514.3671110293644 M201.69609048424007,514.3671110293644 L200.458053909212,512.0701379770077 M200.458053909212,512.0701379770077 L200.20781099037924,509.66864851727655 M200.20781099037924,509.66864851727655 L200.9598938368731,507.30220129208806 M200.9598938368731,507.30220129208806 L202.67058495594986,505.1083370580167 M202.67058495594986,505.1083370580167 L205.2404508264066,503.21453565011086 M222.20012475066846,526.2864171092309 L229.669668064741,517.328154392487 M212.7159956395431,520.8069102935774 L213.98926867843696,520.2308688938651 M213.98926867843696,520.2308688938651 L215.46412703039485,519.8475276971309 M215.46412703039485,519.8475276971309 L217.0548572696844,519.6791578638013 M217.0548572696844,519.6791578638013 L218.6690243546811,519.7355576438259 M218.6690243546811,519.7355576438259 L220.2128070236692,520.0134341446801 M220.2128070236692,520.0134341446801 L221.59649810893956,520.4966546561178 M221.59649810893956,520.4966546561178 L222.7396826261264,521.1571262195399 M222.7396826261264,521.1571262195399 L223.57592833373042,521.9564694169746 M223.57592833373042,521.9564694169746 L224.05661468091455,522.8482300699444 M224.05661468091455,522.8482300699444 L224.1538305263011,523.7805887387092 M224.1538305263011,523.7805887387092 L223.86189670716377,524.6993519313268 M223.86189670716377,524.6993519313268 L223.19780059416127,525.5511295603997 M223.19780059416127,525.5511295603997 L222.20012475066846,526.2864171092309 M205.2404508264066,503.21453565011086 L208.52012915851063,501.73084794462557 M208.52012915851063,501.73084794462557 L212.31902065125473,500.7434938593394 M212.31902065125473,500.7434938593394 L216.41637985522516,500.30984797958445 M216.41637985522516,500.30984797958445 L220.5740741198635,500.45510367924817 M220.5740741198635,500.45510367924817 L224.55050651522794,501.1708162763706 M224.55050651522794,501.1708162763706 L228.11459841773268,502.41541042567746 M228.11459841773268,502.41541042567746 L231.05921506032448,504.11655631731446 M231.05921506032448,504.11655631731446 L233.21323429583686,506.1754050487698 M233.21323429583686,506.1754050487698 L234.4514498221813,508.4723067721659 M234.4514498221813,508.4723067721659 L234.70190856313886,510.87378109672716 M234.70190856313886,510.87378109672716 L233.95002896835808,513.2402728479434 M233.95002896835808,513.2402728479434 L232.23948196671444,515.4342310685153 M232.23948196671444,515.4342310685153 L229.669668064741,517.328154392487" stroke="black"  stroke-width="4"  fill="red"/></svg>