<svg viewBox="0 0 800 800" xmlns="http://www.w3.org/2000/svg"><path d="M597.5638925592423,467.9541495732658 L544.5362537871047,443.9696394068678 M544.5362537871047,443.9696394068678 L483.117367801132,428.0100344709762 M483.117367801132,428.0100344709762 L416.87372597204154,421.00089334940753 M416.87372597204154,421.00089334940753 L349.65095931117605,423.3486607857293 M349.65095931117605,423.3486607857293 L285.3513464505323,434.9171893150731 M285.3513464505323,434.9171893150731 L227.70806993151598,455.03564423789345 M227.70806993151598,455.03564423789345 L180.0690484857069,482.5371037355302 M180.0690484857069,482.5371037355302 L145.20289161745325,515.8258726009875 M145.20289161745325,515.8258726009875 L125.13798642089318,552.9696321191128 M125.13798642089318,552.9696321191128 L121.04410113501456,591.8111871518697 M121.04410113501456,591.8111871518697 L133.16364294598708,630.0935277068241 M133.16364294598708,630.0935277068241 L160.79643821999832,665.5909123312003 M160.79643821999832,665.5909123312003 L202.33957815660028,696.2384059587059 M202.33957815660028,696.2384059587059 L255.37978928477347,720.2523787434629 M255.37978928477347,720.2523787434629 L316.83351219041333,736.2346967595756 M316.83351219041333,736.2346967595756 L383.12627476080667,743.2545981510553 M383.12627476080667,743.2545981510553 L450.401193026357,740.9031730997406 M450.401193026357,740.9031730997406 L514.7440410566892,729.3174070099312 M514.7440410566892,729.3174070099312 L572.4117316371573,709.1720834796791 M572.4117316371573,709.1720834796791 L620.0507530790326,681.6402796114561 M620.0507530790326,681.6402796114561 L654.8924958813643,648.3246421442124 M654.8924958813643,648.3246421442124 L674.9141659110264,611.1636450605497 M674.9141659110264,611.1636450605497 L678.9558995998595,572.3184324193913 M678.9558995998595,572.3184324193913 L666.7872370534735,534.0468521234785 M666.7872370534735,534.0468521234785 L639.1196048588467,498.5721805868462 M639.1196048588467,498.5721805868462 L597.5638925592423,467.9541495732658 M207.52789515581355,585.0305016852667 L208.60790023832806,584.2345210962687 M208.60790023832806,584.2345210962687 L209.32679824528756,583.3124349546069 M209.32679824528756,583.3124349546069 L209.64282274050285,582.3178340417554 M209.64282274050285,582.3178340417554 L209.53758453815792,581.3085154376189 M209.53758453815792,581.3085154376189 L209.01723145161208,580.3431459422976 M209.01723145161208,580.3431459422976 L208.11197787875236,579.4778223416639 M208.11197787875236,579.4778223416639 L206.87445658880816,578.7628332941141 M206.87445658880816,578.7628332941141 L205.3765818807908,578.2397261803877 M205.3765818807908,578.2397261803877 L203.70540466695184,577.9389128438332 M203.70540466695184,577.9389128438332 L201.95803484342156,577.8778576414027 M201.95803484342156,577.8778576414027 L200.2360358995695,578.0601252717481 M200.2360358995695,578.0601252717481 L198.63947071228506,578.4751087052983 M198.63947071228506,578.4751087052983 L197.26112586778956,579.0986984471525 M197.26112586778956,579.0986984471525 L196.1811123061252,579.8946591434852 M196.1811123061252,579.8946591434852 L195.46219078525394,580.8167299496629 M195.46219078525394,580.8167299496629 L195.14613312817687,581.811323597371 M195.14613312817687,581.811323597371 L195.2513361174181,582.8206446710543 M195.2513361174181,582.8206446710543 L195.77166000677968,583.7860258048408 M195.77166000677968,583.7860258048408 L196.67689708706143,584.6513675466442 M196.67689708706143,584.6513675466442 L197.9144183671549,585.3663770821502 M197.9144183671549,585.3663770821502 L199.41230955030545,585.8895023372122 M199.41230955030545,585.8895023372122 L201.08351595013704,586.1903273120842 M201.08351595013704,586.1903273120842 L202.83092098439624,586.2513849842286 M202.83092098439624,586.2513849842286 L204.55295309709635,586.0691100885797 M204.55295309709635,586.0691100885797 L206.14954181303915,585.6541113196656 M206.14954181303915,585.6541113196656 L207.52789515581355,585.0305016852667 M394.8731933547831,470.9184259061503 L396.25086426060324,471.54168930920054 M396.25086426060324,471.54168930920054 L397.84681022009846,471.95645766832456 M397.84681022009846,471.95645766832456 L399.56827661070145,472.13863136379155 M399.56827661070145,472.13863136379155 L401.31522584102476,472.0776075912602 M401.31522584102476,472.0776075912602 L402.986112842702,471.77694963627977 M402.986112842702,471.77694963627977 L404.48383960186015,471.2541148233122 M404.48383960186015,471.2541148233122 L405.7213609823244,470.5395022645387 M405.7213609823244,470.5395022645387 L406.62676268066537,469.67464096370844 M406.62676268066537,469.67464096370844 L407.1474061428016,468.7097958119466 M407.1474061428016,468.7097958119466 L407.25306508005053,467.7010351145069 M407.25306508005053,467.7010351145069 L406.93757325001485,466.7069936650128 M406.93757325001485,466.7069936650128 L406.2192945459088,465.7854347911873 M406.2192945459088,465.7854347911873 L405.13996343464385,464.9899160101365 M405.13996343464385,464.9899160101365 L403.7623010128252,464.3666724830666 M403.7623010128252,464.3666724830666 L402.16637856155603,463.95191944653686 M402.16637856155603,463.95191944653686 L400.44494531789445,463.7697530103238 M400.44494531789445,463.7697530103238 L398.6980312799378,463.8307743151977 M398.6980312799378,463.8307743151977 L397.02717345364175,464.1314206415517 M397.02717345364175,464.1314206415517 L395.5294631691874,464.65423732828964 M395.5294631691874,464.65423732828964 L394.29194178872314,465.36882941616705 M394.29194178872314,465.36882941616705 L393.3865236156784,466.2336725909335 M393.3865236156784,466.2336725909335 L392.865850978161,467.19850611392144 M392.865850978161,467.19850611392144 L392.76015684854536,468.2072643438707 M392.76015684854536,468.2072643438707 L393.0756155316397,469.2013130524586 M393.0756155316397,469.2013130524586 L393.7938707275196,470.12288724899855 M393.7938707275196,470.12288724899855 L394.8731933547831,470.9184259061503 M405.14281543250644,693.270877716646 L403.76438760251096,692.6469414714414 M403.76438760251096,692.6469414714414 L402.16757848493216,692.2317274488375 M402.16757848493216,692.2317274488375 L400.4451888455479,692.0493585400159 M400.4451888455479,692.0493585400159 L398.6973042556537,692.1104476682561 M398.6973042556537,692.1104476682561 L397.02551813154616,692.411428154212 M397.02551813154616,692.411428154212 L395.52697574417357,692.9348259369943 M395.52697574417357,692.9348259369943 L394.28876681363414,693.6502122750783 M394.28876681363414,693.6502122750783 L393.38284559796773,694.5160167020098 M393.38284559796773,694.5160167020098 L392.8618836736938,695.4819226163935 M392.8618836736938,695.4819226163935 L392.7561308120733,696.4918020617865 M392.7561308120733,696.4918020617865 L393.0717647505153,697.4869556391621 M393.0717647505153,697.4869556391621 L393.79041899269504,698.4095541526515 M393.79041899269504,698.4095541526515 L394.8703412745964,699.2059770418462 M394.8703412745964,699.2059770418462 L396.24877759802314,699.8299331961782 M396.24877759802314,699.8299331961782 L397.84561024995696,700.2451625669294 M397.84561024995696,700.2451625669294 L399.5680330731249,700.427538747111 M399.5680330731249,700.427538747111 L401.3159528945014,700.366447147098 M401.3159528945014,700.366447147098 L402.98776822641804,700.065455013123 M402.98776822641804,700.065455013123 L404.48632710680573,699.5420390738822 M404.48632710680573,699.5420390738822 L405.7245360373452,698.826632230763 M405.7245360373452,698.826632230763 L406.63044075999653,697.9608096475392 M406.63044075999653,697.9608096475392 L407.1513734764613,696.9948920849884 M407.1513734764613,696.9948920849884 L407.2570911065995,695.9850101679899 M407.2570911065995,695.9850101679899 L406.9414239843739,694.9898638618141 M406.9414239843739,694.9898638618141 L406.22274620783907,694.0672806965928 M406.22274620783907,694.0672806965928 L405.14281543250644,693.270877716646 M592.4825577700553,579.0986984471525 L591.4033096116591,579.8946591434852 M591.4033096116591,579.8946591434852 L590.6852747627202,580.816729949663 M590.6852747627202,580.816729949663 L590.3701735162199,581.811323597371 M590.3701735162199,581.811323597371 L590.4763470780686,582.8206446710544 M590.4763470780686,582.8206446710544 L590.9975992869795,583.7860258048408 M590.9975992869795,583.7860258048408 L591.9036684879936,584.6513675466442 M591.9036684879936,584.6513675466442 L593.14187732796,585.3663770821502 M593.14187732796,585.3663770821502 L594.6402715532604,585.8895023372122 M594.6402715532604,585.8895023372122 L596.3117672292083,586.1903273120842 M596.3117672292083,586.1903273120842 L598.0592309770975,586.2513849842286 M598.0592309770975,586.2513849842286 L599.781087812549,586.0691100885797 M599.781087812549,586.0691100885797 L601.3772774617848,585.6541113196656 M601.3772774617848,585.6541113196656 L602.7550311356879,585.0305016852667 M602.7550311356879,585.0305016852667 L603.8342707958052,584.2345210962688 M603.8342707958052,584.2345210962688 L604.5522821160855,583.312434954607 M604.5522821160855,583.312434954607 L604.867350193738,582.3178340417554 M604.867350193738,582.3178340417554 L604.7611414211603,581.3085154376189 M604.7611414211603,581.3085154376189 L604.2398600262566,580.3431459422976 M604.2398600262566,580.3431459422976 L603.3337743501095,579.477822341664 M603.3337743501095,579.477822341664 L602.0955655199937,578.7628332941141 M602.0955655199937,578.7628332941141 L600.5971877872712,578.2397261803877 M600.5971877872712,578.2397261803877 L598.9257213085075,577.9389128438332 M598.9257213085075,577.9389128438332 L597.1782927737222,577.8778576414028 M597.1782927737222,577.8778576414028 L595.4564691001322,578.0601252717481 M595.4564691001322,578.0601252717481 L593.8603029648084,578.4751087052983 M593.8603029648084,578.4751087052983 L592.4825577700553,579.0986984471525 M597.5638925592423,467.9541495732658 L597.569377671193,445.14346687921943 M597.569377671193,445.14346687921943 L639.1262442460197,475.7606482342918 M639.1262442460197,475.7606482342918 L666.7946453199943,511.2343354977759 M666.7946453199943,511.2343354977759 L678.9636465009964,549.5048541087782 M678.9636465009964,549.5048541087782 L674.9218012878841,588.3489893544112 M674.9218012878841,588.3489893544112 L654.8995758095218,625.5089559461381 M654.8995758095218,625.5089559461381 L620.0568657085296,658.8236697137313 M620.0568657085296,658.8236697137313 L572.4165212179612,686.3547103563843 M572.4165212179612,686.3547103563843 L514.7472287294897,706.4994754909965 M514.7472287294897,706.4994754909965 L450.40259314449855,718.0849204670329 M450.40259314449855,718.0849204670329 L383.12580576974653,720.4362803479214 M383.12580576974653,720.4362803479214 L316.8312014090951,713.4165735172561 M316.8312014090951,713.4165735172561 L255.37577130343482,697.4346984855977 M255.37577130343482,697.4346984855977 L202.33408694796262,673.4213913648476 M202.33408694796262,673.4213913648476 L160.78979343447887,642.7747473948288 M160.78979343447887,642.7747473948288 L133.156231216155,607.2783470428128 M133.156231216155,607.2783470428128 L121.03635349900344,568.9970681723954 M121.03635349900344,568.9970681723954 L125.13035320594929,530.1565905352909 M125.13035320594929,530.1565905352909 L145.19581625273003,493.01386150969915 M145.19581625273003,493.01386150969915 L180.0629417757362,459.72601634482476 M180.0629417757362,459.72601634482476 L227.70328627023898,432.2253200738111 M227.70328627023898,432.2253200738111 L285.34816334116675,412.1074235475632 M285.34816334116675,412.1074235475632 L349.64956135494896,400.53921613259047 M349.64956135494896,400.53921613259047 L416.87419422822734,398.19151386682194 M416.87419422822734,398.19151386682194 L483.11967511913804,405.2004604272029 M483.11967511913804,405.2004604272029 L544.5402663700961,421.159622377852 M544.5402663700961,421.159622377852 L597.569377671193,445.14346687921943 M207.5259168872484,576.5877026048685 L206.14754937493382,577.2113058384543 M206.14754937493382,577.2113058384543 L204.55094424742884,577.6263003477759 M204.55094424742884,577.6263003477759 L202.8288944349872,577.8085733725383 M202.8288944349872,577.8085733725383 L201.08147144140113,577.7475163270954 M201.08147144140113,577.7475163270954 L199.41024786661137,577.4466944399209 M199.41024786661137,577.4466944399209 L197.9123412909625,576.9235745542792 M197.9123412909625,576.9235745542792 L196.6748072954287,576.2085723577392 M196.6748072954287,576.2085723577392 L195.76956091567874,575.3432394979685 M195.76956091567874,575.3432394979685 L195.24923168346237,574.3778682730822 M195.24923168346237,574.3778682730822 L195.14402761813648,573.3685575593588 M195.14402761813648,573.3685575593588 L195.4600885286705,572.3739741204938 M195.4600885286705,572.3739741204938 L196.17901744313767,571.4519127788049 M196.17901744313767,571.4519127788049 L197.25904210892278,570.6559602525525 M197.25904210892278,570.6559602525525 L198.63740112278379,570.0323769115116 M198.63740112278379,570.0323769115116 L200.23398272114656,569.617397737554 M200.23398272114656,569.617397737554 L201.95599936405833,569.4351319780953 M201.95599936405833,569.4351319780953 L203.70338714619174,569.4961865538244 M203.70338714619174,569.4961865538244 L205.37458153438894,569.7969968026812 M205.37458153438894,569.7969968026812 L206.87247163456607,570.3200985469869 M206.87247163456607,570.3200985469869 L208.11000563995083,571.0350802555705 M208.11000563995083,571.0350802555705 L209.01526851261787,571.9003949741714 M209.01526851261787,571.9003949741714 L209.53562694261873,572.8657545605922 M209.53562694261873,572.8657545605922 L209.64086622177217,573.8750628047688 M209.64086622177217,573.8750628047688 L209.32483847378154,574.8696535087772 M209.32483847378154,574.8696535087772 L208.6059330737094,575.7917301859505 M208.6059330737094,575.7917301859505 L207.5259168872484,576.5877026048685 M207.5259168872484,576.5877026048685 L207.52789515581355,585.0305016852667 M394.873140608859,462.4767984148383 L393.7938068916766,461.68126792777076 M393.7938068916766,461.68126792777076 L393.07554431589676,460.7597031957239 M393.07554431589676,460.7597031957239 L392.7600823916574,459.7656646959841 M392.7600823916574,459.7656646959841 L392.8657776074535,458.756916826 M392.8657776074535,458.756916826 L393.38645559499474,457.7920932119174 M393.38645559499474,457.7920932119174 L394.29188307123087,456.9272589191879 M394.29188307123087,456.9272589191879 L395.5294171671386,456.21267417028037 M395.5294171671386,456.21267417028037 L397.027142840374,455.6898628529656 M397.027142840374,455.6898628529656 L398.6980178344645,455.38921961431066 M398.6980178344645,455.38921961431066 L400.4449498216568,455.3281989361386 M400.4449498216568,455.3281989361386 L402.16640075275114,455.5103635014641 M402.16640075275114,455.5103635014641 L403.7623396018882,455.9251122783993 M403.7623396018882,455.9251122783993 L405.14001617904586,456.5483494046527 M405.14001617904586,456.5483494046527 L406.2193583804041,457.34386001561927 M406.2193583804041,457.34386001561927 L406.93764446489314,458.2654094249515 M406.93764446489314,458.2654094249515 L407.253139536755,459.2594406655973 M407.253139536755,459.2594406655973 L407.1474795140488,460.268191003072 M407.1474795140488,460.268191003072 L406.62683070248835,461.2330262459287 M406.62683070248835,461.2330262459287 L405.72141970129456,462.097878664722 M405.72141970129456,462.097878664722 L404.48388560538683,462.8124838845258 M404.48388560538683,462.8124838845258 L402.98614345710905,463.3353133280703 M402.98614345710905,463.3353133280703 L401.3152392870378,463.63596819535167 M401.3152392870378,463.63596819535167 L399.56827210675567,463.69699134118116 M399.56827210675567,463.69699134118116 L397.8467880280387,463.5148195166018 M397.8467880280387,463.5148195166018 L396.25082567019246,463.1000554170722 M396.25082567019246,463.1000554170722 L394.873140608859,462.4767984148383 M394.873140608859,462.4767984148383 L394.8731933547831,470.9184259061503 M405.1428682355327,684.8269679337639 L406.2228101132853,685.623362743638 M406.2228101132853,685.623362743638 L406.9414952784063,686.5459364443797 M406.9414952784063,686.5459364443797 L407.25716564606154,687.5410725417221 M407.25716564606154,687.5410725417221 L407.1514469292599,688.5509440987704 M407.1514469292599,688.5509440987704 L406.63050885742507,689.5168517524307 M406.63050885742507,689.5168517524307 L405.7245948215811,690.3826654536305 M405.7245948215811,690.3826654536305 L404.4863731614651,691.0980649577907 M404.4863731614651,691.0980649577907 L402.9877988748529,691.6214755276163 M402.9877988748529,691.6214755276163 L401.3159663554597,691.922464573897 M401.3159663554597,691.922464573897 L399.568028564173,691.9835555472091 M399.568028564173,691.9835555472091 L397.84558803323085,691.8011812379121 M397.84558803323085,691.8011812379121 L396.2487389647193,691.3859561267491 M396.2487389647193,691.3859561267491 L394.87028847004547,690.7620063732239 M394.87028847004547,690.7620063732239 L393.79035508589885,689.9655916541014 M393.79035508589885,689.9655916541014 L393.0716934556168,689.0430026050915 M393.0716934556168,689.0430026050915 L392.75605627242743,688.0478592365492 M392.75605627242743,688.0478592365492 L392.8618102214358,687.0379901511063 M392.8618102214358,687.0379901511063 L393.38277750168027,686.0720941456135 M393.38277750168027,686.0720941456135 L394.2887080308786,685.2062986007065 M394.2887080308786,685.2062986007065 L395.5269296909945,684.4909196015818 M395.5269296909945,684.4909196015818 L397.0254874842525,683.9675271882151 M397.0254874842525,683.9675271882151 L398.6972907952361,683.6665497899539 M398.6972907952361,683.6665497899539 L400.44519335431596,683.6054612884146 M400.44519335431596,683.6054612884146 L402.16760070079226,683.7878283263512 M402.16760070079226,683.7878283263512 L403.76442623446485,684.2030380893666 M403.76442623446485,684.2030380893666 L405.1428682355327,684.8269679337639 M405.1428682355327,684.8269679337639 L405.14281543250644,693.270877716646 M592.4845359815181,570.6559602525525 L593.8622953333106,570.0323769115116 M593.8622953333106,570.0323769115116 L595.4584778715102,569.617397737554 M595.4584778715102,569.617397737554 L597.1803192405571,569.4351319780955 M597.1803192405571,569.4351319780955 L598.9277657351522,569.4961865538244 M598.9277657351522,569.4961865538244 L600.5992493942204,569.7969968026812 M600.5992493942204,569.7969968026812 L602.0976425294423,570.320098546987 M602.0976425294423,570.320098546987 L603.3358640891315,571.0350802555705 M603.3358640891315,571.0350802555705 L604.2419590821903,571.9003949741714 M604.2419590821903,571.9003949741714 L604.763245839631,572.8657545605922 M604.763245839631,572.8657545605922 L604.869455708968,573.875062804769 M604.869455708968,573.875062804769 L604.5543843982,574.8696535087772 M604.5543843982,574.8696535087772 L603.8363657030336,575.7917301859507 M603.8363657030336,575.7917301859507 L602.7571149547036,576.5877026048685 M602.7571149547036,576.5877026048685 L601.379347123587,577.2113058384543 M601.379347123587,577.2113058384543 L599.7831410709923,577.6263003477759 M599.7831410709923,577.6263003477759 L598.0612665394021,577.8085733725384 M598.0612665394021,577.8085733725384 L596.3137848309793,577.7475163270954 M596.3137848309793,577.7475163270954 L594.6422719741267,577.4466944399209 M594.6422719741267,577.4466944399209 L593.1438623459876,576.9235745542792 M593.1438623459876,576.9235745542792 L591.9056407764474,576.2085723577393 M591.9056407764474,576.2085723577393 L590.9995622588604,575.3432394979685 M590.9995622588604,575.3432394979685 L590.4783046880123,574.3778682730822 M590.4783046880123,574.3778682730822 L590.3721300301281,573.3685575593588 M590.3721300301281,573.3685575593588 L590.6872345104257,572.3739741204939 M590.6872345104257,572.3739741204939 L591.4052767347346,571.451912778805 M591.4052767347346,571.451912778805 L592.4845359815181,570.6559602525525 M592.4845359815181,570.6559602525525 L592.4825577700553,579.0986984471525 M215.6119377499233,566.8900951106534 L212.061524094435,568.4963667464364 M212.061524094435,568.4963667464364 L207.94894576920797,569.5653110412362 M207.94894576920797,569.5653110412362 L203.51320258440117,570.0347948528259 M203.51320258440117,570.0347948528259 L199.01213121024406,569.8775345020922 M199.01213121024406,569.8775345020922 L194.7073216114078,569.1026753827268 M194.7073216114078,569.1026753827268 L190.84896819192028,567.7552418308193 M190.84896819192028,567.7552418308193 L187.66132604095947,565.9135607652037 M187.66132604095947,565.9135607652037 L185.3296403712553,563.6846704410641 M185.3296403712553,563.6846704410641 L183.98942596275575,561.1981232397959 M183.98942596275575,561.1981232397959 L183.7185299551503,558.5984336662318 M183.7185299551503,558.5984336662318 L184.53268382393532,556.0366784385403 M184.53268382393532,556.0366784385403 L186.38456197723372,553.6617498491102 M186.38456197723372,553.6617498491102 L189.16652443049915,551.6116489192126 M189.16652443049915,551.6116489192126 L192.71688170151106,550.005509261699 M192.71688170151106,550.005509261699 L196.82930391713631,548.9366667104509 M196.82930391713631,548.9366667104509 L201.2648270290727,548.467231099293 M201.2648270290727,548.467231099293 L205.76566478459526,548.6244750656933 M205.76566478459526,548.6244750656933 L210.07028073713371,549.3992569698438 M210.07028073713371,549.3992569698438 L213.928524845023,550.7465701633959 M213.928524845023,550.7465701633959 L217.11616706134413,552.5881153010102 M217.11616706134413,552.5881153010102 L219.44796215839403,554.8168852666754 M219.44796215839403,554.8168852666754 L220.78837028744877,557.3033552520496 M220.78837028744877,557.3033552520496 L221.05949992944534,559.9030284413057 M221.05949992944534,559.9030284413057 L220.24556608717648,562.4648318698542 M220.24556608717648,562.4648318698542 L218.3938439456342,564.8398622026938 M218.3938439456342,564.8398622026938 L215.6119377499233,566.8900951106534 M456.32318059974955,526.7237039323325 L468.1656110975791,535.4525997551606 M468.1656110975791,535.4525997551606 L476.0475555068286,545.5649142916898 M476.0475555068286,545.5649142916898 L479.5107203170441,556.4731076356236 M479.5107203170441,556.4731076356236 L478.3534809276246,567.5433144832975 M478.3534809276246,567.5433144832975 L472.64273698052807,578.1321483249087 M472.64273698052807,578.1321483249087 L462.7100746460906,587.6241027277604 M462.7100746460906,587.6241027277604 L449.13257553151266,595.4673559475389 M449.13257553151266,595.4673559475389 L432.69931589568824,601.2058750661998 M432.69931589568824,601.2058750661998 L414.36550188836935,604.5059710326361 M414.36550188836935,604.5059710326361 L395.19693228293715,605.1757352455486 M395.19693228293715,605.1757352455486 L376.30797857385255,603.1762138506758 M376.30797857385255,603.1762138506758 L358.7967314764637,598.6236963221646 M358.7967314764637,598.6236963221646 L343.68113449532996,591.7829056232508 M343.68113449532996,591.7829056232508 L331.8397252432505,583.0516167001856 M331.8397252432505,583.0516167001856 L323.96061062007465,572.9374572930803 M323.96061062007465,572.9374572930803 L320.50143586282314,562.0283899471009 M320.50143586282314,562.0283899471009 L321.6629115015677,550.9584801886891 M321.6629115015677,550.9584801886891 L327.3771674199497,540.3710464683963 M327.3771674199497,540.3710464683963 L337.311812896542,530.8812744675683 M337.311812896542,530.8812744675683 L350.889312011146,523.040485969031 M350.889312011146,523.040485969031 L367.320588504845,517.3041492527998 M367.320588504845,517.3041492527998 L385.65089054086,514.0054534076673 M385.65089054086,514.0054534076673 L404.8152238969168,513.3359862842918 M404.8152238969168,513.3359862842918 L423.7001875529984,515.3346336755176 M423.7001875529984,515.3346336755176 L441.2086048643199,519.8853063348864 M441.2086048643199,519.8853063348864 L456.32318059974955,526.7237039323325 M386.78366203563615,452.7785904324013 L384.0035137890667,450.7294958653727 M384.0035137890667,450.7294958653727 L382.15344745408964,448.35578420207565 M382.15344745408964,448.35578420207565 L381.3409710549675,445.79540313509756 M381.3409710549675,445.79540313509756 L381.6132750783867,443.1971733243573 M381.6132750783867,443.1971733243573 L382.95450629474936,440.7120838568011 M382.95450629474936,440.7120838568011 L385.2867253562291,438.484551323731 M385.2867253562291,438.484551323731 L388.4743677857363,436.6440286230363 M388.4743677857363,436.6440286230363 L392.33218834876567,435.29746346295957 M392.33218834876567,435.29746346295957 L396.63598161227134,434.52311171959707 M396.63598161227134,434.52311171959707 L401.1356453465551,434.36595505532836 M401.1356453465551,434.36595505532836 L405.5697113178534,434.83513003489566 M405.5697113178534,434.83513003489566 L409.680477950202,435.90337916151026 M409.680477950202,435.90337916151026 L413.2290773948033,437.50862708250315 M413.2290773948033,437.50862708250315 L416.0092819311179,439.55758978136885 M416.0092819311179,439.55758978136885 L417.85950424012645,441.9311997859791 M417.85950424012645,441.9311997859791 L418.67220056676666,444.4915326922373 M418.67220056676666,444.4915326922373 L418.400130040147,447.0897788736423 M418.400130040147,447.0897788736423 L417.05909239967446,449.5749454927941 M417.05909239967446,449.5749454927941 L414.7269826469431,451.80259828411516 M414.7269826469431,451.80259828411516 L411.5393402174359,453.6432567996224 M411.5393402174359,453.6432567996224 L407.68141034565843,454.9899422178313 M407.68141034565843,454.9899422178313 L403.37742350626246,455.764371112111 M403.37742350626246,455.764371112111 L398.87752627517904,455.92154414706965 M398.87752627517904,455.92154414706965 L394.4432403763625,455.4523210072077 M394.4432403763625,455.4523210072077 L390.3323177699825,454.3839702217639 M390.3323177699825,454.3839702217639 L386.78366203563615,452.7785904324013 M413.2364236826196,665.7780654279011 L416.01817292137815,667.8293055375516 M416.01817292137815,667.8293055375516 L417.86942326068674,670.205553810855 M417.86942326068674,670.205553810855 L418.68257118404307,672.7687325455051 M418.68257118404307,672.7687325455051 L418.410349559436,675.3698667143245 M418.410349559436,675.3698667143245 L417.068566889769,677.8577956484588 M417.068566889769,677.8577956484588 L414.7351614429163,680.0879245369374 M414.7351614429163,680.0879245369374 L411.5457479533611,681.9306290049913 M411.5457479533611,681.9306290049913 L407.6856745782041,683.278811314195 M407.6856745782041,683.278811314195 L403.3792963819255,684.0541010172554 M403.3792963819255,684.0541010172554 L398.87689893468485,684.2114487565456 M398.87689893468485,684.2114487565456 L394.44014927726124,683.7417040559479 M394.44014927726124,683.7417040559479 L390.32694259129704,682.6721657570791 M390.32694259129704,682.6721657570791 L386.7763152015937,681.06500153149 M386.7763152015937,681.06500153149 L383.99462231514707,679.0136293337557 M383.99462231514707,679.0136293337557 L382.14352812323705,676.6372792322263 M382.14352812323705,676.6372792322263 L381.33060037185106,674.074052256537 M381.33060037185106,674.074052256537 L381.6030557527922,671.4729344856843 M381.6030557527922,671.4729344856843 L382.94503221351135,668.9850828318138 M382.94503221351135,668.9850828318138 L385.2785470906104,666.7550744021446 M385.2785470906104,666.7550744021446 L388.4679605801656,664.9125059754059 M388.4679605801656,664.9125059754059 L392.32792452507636,663.5644441248927 M392.32792452507636,663.5644441248927 L396.6341089303029,662.7892317014165 M396.6341089303029,662.7892317014165 L401.13627262120923,662.6319003601185 M401.13627262120923,662.6319003601185 L405.57280210666244,663.1015968201027 M405.57280210666244,663.1015968201027 L409.6858526452281,664.1710332906027 M409.6858526452281,664.1710332906027 L413.2364236826196,665.7780654279011 M584.3944382452341,551.6116489192127 L587.943250908661,550.005509261699 M587.943250908661,550.005509261699 L592.0546452296671,548.936666710451 M592.0546452296671,548.936666710451 L596.4897168903226,548.467231099293 M596.4897168903226,548.467231099293 L600.9907058657107,548.6244750656934 M600.9907058657107,548.6244750656934 L605.2960669178426,549.3992569698438 M605.2960669178426,549.3992569698438 L609.1556067226336,550.7465701633959 M609.1556067226336,550.7465701633959 L612.3450199335095,552.5881153010102 M612.3450199335095,552.5881153010102 L614.6789584151513,554.8168852666754 M614.6789584151513,554.8168852666754 L616.0217577561912,557.3033552520496 M616.0217577561912,557.3033552520496 L616.2953874765014,559.9030284413057 M616.2953874765014,559.9030284413057 L615.4839172935965,562.4648318698542 M615.4839172935965,562.4648318698542 L613.6344791936999,564.8398622026938 M613.6344791936999,564.8398622026938 L610.8545446853734,566.8900951106535 M610.8545446853734,566.8900951106535 L607.3056757643922,568.4963667464365 M607.3056757643922,568.4963667464365 L603.1941254316303,569.5653110412363 M603.1941254316303,569.5653110412363 L598.7588337444581,570.0347948528259 M598.7588337444581,570.0347948528259 L594.2576111346789,569.8775345020922 M594.2576111346789,569.8775345020922 L589.9520563619919,569.1026753827268 M589.9520563619919,569.1026753827268 L586.0924071298552,567.7552418308193 M586.0924071298552,567.7552418308193 L582.9029938536191,565.9135607652038 M582.9029938536191,565.9135607652038 L580.569164683576,563.6846704410641 M580.569164683576,563.6846704410641 L579.2265589888334,561.1981232397959 M579.2265589888334,561.1981232397959 L578.9531628871575,558.5984336662318 M578.9531628871575,558.5984336662318 L579.7648531429331,556.0366784385403 M579.7648531429331,556.0366784385403 L581.6144473524312,553.6617498491102 M581.6144473524312,553.6617498491102 L584.3944382452341,551.6116489192127 M207.5259168872484,576.5877026048685 L210.22120216590378,573.3552271656124 M210.22120216590378,573.3552271656124 L212.9165487334207,570.1226949633109 M212.9165487334207,570.1226949633109 L215.6119377499233,566.8900951106534 M394.873140608859,462.4767984148383 L392.17670276779376,459.24412280042833 M392.17670276779376,459.24412280042833 L389.4802036300937,456.0113904333712 M389.4802036300937,456.0113904333712 L386.78366203563615,452.7785904324013 M405.1428682355327,684.8269679337639 L407.84070589387585,678.4773615063707 M407.84070589387585,678.4773615063707 L410.5385639931722,672.1277237074688 M410.5385639931722,672.1277237074688 L413.2364236826196,665.7780654279011 M592.4845359815181,570.6559602525525 L589.7878508856784,564.307884201545 M589.7878508856784,564.307884201545 L587.09114535665,557.9597767955005 M587.09114535665,557.9597767955005 L584.3944382452341,551.6116489192127 M456.32318059974955,526.7237039323325 L456.33336914091683,378.09913856948793 M452.7251296800694,376.85428509197254 L456.33336914091683,378.09913856948793 M343.6799105563626,378.8116000319574 L357.7547192293502,374.53420735741054 M357.7547192293502,374.53420735741054 L373.9832993337214,371.530757300664 M373.9832993337214,371.530757300664 L391.5383619462945,369.95430139507016 M391.5383619462945,369.95430139507016 L409.52507025910876,369.8851674532458 M409.52507025910876,369.8851674532458 L427.0266099855152,371.32687631367736 M427.0266099855152,371.32687631367736 L440.59519949760926,373.6316672945153 M440.59519949760926,373.6316672945153 L452.7251296800694,376.85428509197254 M343.6709427276162,443.146578576863 L332.0778046193403,437.1055846887519 M332.0778046193403,437.1055846887519 L324.2390597144189,428.9877769027081 M324.2390597144189,428.9877769027081 L320.5876133351494,419.2419266005065 M320.5876133351494,419.2419266005065 L321.32490445089934,408.40670590897207 M321.32490445089934,408.40670590897207 L326.4098533464016,397.0808873330461 M326.4098533464016,397.0808873330461 L333.77244794047107,387.71940174704594 M333.77244794047107,387.71940174704594 L343.6799105563626,378.8116000319574 M456.34223927259103,443.85909644161563 L441.6349572412794,452.81949083330915 M441.6349572412794,452.81949083330915 L424.6267467884385,458.8343971195838 M424.6267467884385,458.8343971195838 L406.25766617904384,461.57126610092143 M406.25766617904384,461.57126610092143 L387.5430579382314,460.8787756393241 M387.5430579382314,460.8787756393241 L369.5173656717681,456.79521242175343 M369.5173656717681,456.79521242175343 L355.7434574271035,450.95932773352115 M355.7434574271035,450.95932773352115 L343.6709427276162,443.146578576863 M459.72397905470325,380.89455040446717 L470.03120570995674,391.5957280151456 M470.03120570995674,391.5957280151456 L476.7683708366462,402.70129043104794 M476.7683708366462,402.70129043104794 L479.5917604575405,413.6450623819423 M479.5917604575405,413.6450623819423 L478.35713625959215,423.8690325555302 M478.35713625959215,423.8690325555302 L473.1271469832851,432.8518140504608 M473.1271469832851,432.8518140504608 L465.9031529411127,439.05632946613446 M465.9031529411127,439.05632946613446 L456.34223927259103,443.85909644161563 M456.33336914091683,378.09913856948793 L459.72397905470325,380.89455040446717 M343.6660606852453,176.7776639325976 L349.3894382241905,180.87902221498464 M349.3894382241905,180.87902221498464 L355.53782941502305,186.8159281514622 M355.53782941502305,186.8159281514622 L362.0596035189817,194.53859292878744 M362.0596035189817,194.53859292878744 L371.24107646744386,207.49910603279915 M371.24107646744386,207.49910603279915 L385.39139850313967,231.52783001839902 M385.39139850313967,231.52783001839902 L400.00661542823883,260.9007522874389 M343.6799105563626,378.8116000319574 L320.773222310197,265.58679171952014 M320.773222310197,265.58679171952014 L317.7415351865412,221.78103010988022 M317.7415351865412,221.78103010988022 L319.4466933630822,197.36917984095356 M319.4466933630822,197.36917984095356 L322.9300869858736,184.52528559758375 M322.9300869858736,184.52528559758375 L326.7320766056602,178.18049294776384 M326.7320766056602,178.18049294776384 L330.2201744127859,175.33165825089355 M330.2201744127859,175.33165825089355 L333.17730019201866,174.2847392429302 M333.17730019201866,174.2847392429302 L337.14401071634103,174.27678032640944 M337.14401071634103,174.27678032640944 L340.3058501236158,175.1545323008908 M340.3058501236158,175.1545323008908 L343.6660606852453,176.7776639325976 M452.7251296800694,376.85428509197254 L448.04769249361397,58.52292479525158 M448.04769249361397,58.52292479525158 L460.75574570038776,60.156571674303734 M460.75574570038776,60.156571674303734 L469.6498028009314,62.176584482289 M469.6498028009314,62.176584482289 L474.2127227419023,64.46561155555418 M474.2127227419023,64.46561155555418 L474.17891853167396,66.89067967661981 M474.17891853167396,66.89067967661981 L469.54992620148033,69.31081624600898 M469.54992620148033,69.31081624600898 L460.59436361398605,71.58540884354352 M460.59436361398605,71.58540884354352 L447.8324506732185,73.58217532367013 M447.8324506732185,73.58217532367013 L432.00581269361857,75.18503654628142 M432.00581269361857,75.18503654628142 L414.03439684503206,76.30076930521045 M414.03439684503206,76.30076930521045 L394.9629675767809,76.86453535226724 M394.9629675767809,76.86453535226724 L375.900316874225,76.84349192089252 M375.900316874225,76.84349192089252 L357.9547262395994,76.23890761972666 M357.9547262395994,76.23890761972666 L342.1694645168309,75.0859319981937 M342.1694645168309,75.0859319981937 L329.46206788700397,73.45163016863921 M329.46206788700397,73.45163016863921 L320.57098344991726,71.43104168219986 M320.57098344991726,71.43104168219986 L316.0126694406086,69.14164150164947 M316.0126694406086,69.14164150164947 L316.0516553303906,66.71652108346296 M316.0516553303906,66.71652108346296 L320.6852310869918,64.29660676257544 M320.6852310869918,64.29660676257544 L329.6437134221485,62.022511495611354 M329.6437134221485,62.022511495611354 L342.4062224434182,60.02638684117625 M342.4062224434182,60.02638684117625 L358.230991565488,58.42416762539733 M358.230991565488,58.42416762539733 L376.1985059259564,57.30891731689218 M376.1985059259564,57.30891731689218 L395.2648972132209,56.74540184894465 M395.2648972132209,56.74540184894465 L414.3225192387087,56.76634142221974 M414.3225192387087,56.76634142221974 L432.26424486581107,57.37054057592508 M432.26424486581107,57.37054057592508 L448.04769249361397,58.52292479525158 M400.00661542823883,260.9007522874389 L422.48415280469897,220.47056052915937 M422.48415280469897,220.47056052915937 L433.1112874190241,205.88811460742156 M433.1112874190241,205.88811460742156 L440.62178767539325,197.6972814898349 M440.62178767539325,197.6972814898349 L445.9335195840941,193.16922762223163 M445.9335195840941,193.16922762223163 L451.37887585611736,189.84381343535858 M451.37887585611736,189.84381343535858 L456.044925639368,188.30232985713658 M456.044925639368,188.30232985713658 L459.9072340454792,188.1886721565545 M459.9072340454792,188.1886721565545 L463.4272221206694,189.28252408998284 M463.4272221206694,189.28252408998284 L466.58477440715086,191.57757449180536 M466.58477440715086,191.57757449180536 L469.3618617668128,195.06069890770183 M469.3618617668128,195.06069890770183 L472.4457158802088,201.5175163052037 M472.4457158802088,201.5175163052037 L475.68449373309596,214.94580823830483 M475.68449373309596,214.94580823830483 L477.2919019233666,242.86226972725686 M477.2919019233666,242.86226972725686 L472.31022037395485,299.2163496139252 M472.31022037395485,299.2163496139252 L465.58256391639816,337.4657105562018 M465.58256391639816,337.4657105562018 L456.33336914091683,378.09913856948793 M343.6660606852453,176.7776639325976 L295.5629306038265,101.97079167244874 M295.5629306038265,101.97079167244874 L305.1155524517521,106.71981137981845 M305.1155524517521,106.71981137981845 L311.03596886544483,114.26225873278815 M311.03596886544483,114.26225873278815 L312.9797890610476,124.16003548114281 M312.9797890610476,124.16003548114281 L310.83370190230306,135.83801448252473 M310.83370190230306,135.83801448252473 L304.7221533631863,148.61757731326642 M304.7221533631863,148.61757731326642 L295.000138715903,161.75587217954254 M295.000138715903,161.75587217954254 L282.23265796899284,174.4891492052128 M282.23265796899284,174.4891492052128 L267.16185778904736,186.07711374488647 M267.16185778904736,186.07711374488647 L250.66387232280962,195.84610928482252 M250.66387232280962,195.84610928482252 L233.6978435636735,203.22816171757518 M233.6978435636735,203.22816171757518 L217.25010109645507,207.79421309489587 M217.25010109645507,207.79421309489587 L202.27675376534995,209.27894333824463 M202.27675376534995,209.27894333824463 L189.64810526588823,207.59623020472128 M189.64810526588823,207.59623020472128 L180.09802327254337,202.8441195862918 M180.09802327254337,202.8441195862918 L174.1812992095272,195.29905304569957 M174.1812992095272,195.29905304569957 L172.2414631119196,185.39974958922542 M172.2414631119196,185.39974958922542 L174.39093244914756,173.72162440171917 M174.39093244914756,173.72162440171917 L180.5044947851838,160.94339456349707 M180.5044947851838,160.94339456349707 L190.22666503255107,147.80758335277116 M190.22666503255107,147.80758335277116 L202.99242948400035,135.07736926438423 M202.99242948400035,135.07736926438423 L218.06002994219048,123.49234797788483 M218.06002994219048,123.49234797788483 L234.55405639502357,113.72551839946982 M234.55405639502357,113.72551839946982 L251.51628921521896,106.3443069868299 M251.51628921521896,106.3443069868299 L267.9612648031775,101.77763183039536 M267.9612648031775,101.77763183039536 L282.9334891151757,100.29093549250229 M282.9334891151757,100.29093549250229 L295.5629306038265,101.97079167244874 M343.6709427276162,443.146578576863 L323.53336231523207,350.3314142075648 M323.53336231523207,350.3314142075648 L323.61520142994095,308.5355803598586 M323.61520142994095,308.5355803598586 L327.63806303901487,284.8089181607269 M327.63806303901487,284.8089181607269 L332.0771871319803,271.4475272082293 M332.0771871319803,271.4475272082293 L336.26174893675585,263.0160193456398 M336.26174893675585,263.0160193456398 L340.27341299090585,257.10502834011936 M340.27341299090585,257.10502834011936 L343.95785568858497,252.9882952294318 M343.95785568858497,252.9882952294318 L348.31810622602507,249.3554638938009 M348.31810622602507,249.3554638938009 L353.1374577454291,246.5880465878627 M353.1374577454291,246.5880465878627 L358.2637324037952,244.82237147630298 M358.2637324037952,244.82237147630298 L363.66332258010283,244.0699894330874 M363.66332258010283,244.0699894330874 L371.22653114658794,244.65053060871952 M371.22653114658794,244.65053060871952 L385.3514217734785,250.0660866710174 M385.3514217734785,250.0660866710174 L400.00661542823883,260.9007522874389 M303.54943318061567,281.47540830581437 L250.08725196777047,198.94173662314566 M250.08725196777047,198.94173662314566 L234.65706813802993,207.57137560751283 M234.65706813802993,207.57137560751283 L219.54790843704154,213.10423801766333 M219.54790843704154,213.10423801766333 L205.59356355362354,215.23517934846518 M205.59356355362354,215.23517934846518 L193.56401749063244,213.84678556094542 M193.56401749063244,213.84678556094542 L184.12287998864363,209.0159288177205 M184.12287998864363,209.0159288177205 L177.79089574853103,201.0094311645583 M177.79089574853103,201.0094311645583 L174.9171350917188,190.26928043109328 M174.9171350917188,190.26928043109328 L174.9442210425272,182.55475546592834 M174.9442210425272,182.55475546592834 L176.34348309779665,174.18910040627458 M176.34348309779665,174.18910040627458 L229.59548665349968,256.6404274909833 M303.54943318061567,281.47540830581437 L288.0567240900862,290.1840896315184 M288.0567240900862,290.1840896315184 L272.87609039236156,295.7749170322835 M272.87609039236156,295.7749170322835 L258.8523676273094,297.93691022082 M258.8523676273094,297.93691022082 L246.76590833899576,296.54996140922276 M246.76590833899576,296.54996140922276 L237.28913209519078,291.6915060676864 M237.28913209519078,291.6915060676864 L230.94913800282538,283.6321516135179 M230.94913800282538,283.6321516135179 L228.09840978959198,272.82055197019406 M228.09840978959198,272.82055197019406 L228.15525705807036,265.05667585563054 M228.15525705807036,265.05667585563054 L229.59548665349968,256.6404274909833 M456.35609353067144,241.80915840982985 L450.6309949952824,239.30391017941298 M450.6309949952824,239.30391017941298 L444.48096025622255,238.14388923611907 M444.48096025622255,238.14388923611907 L437.95767513577044,238.33883687088593 M437.95767513577044,238.33883687088593 L428.7744803237243,240.7018487558456 M428.7744803237243,240.7018487558456 L414.6224327603316,248.397820952491 M414.6224327603316,248.397820952491 L400.00661542823883,260.9007522874389 M456.35609353067144,241.80915840982985 L457.8607489915148,195.61935998467723 M457.8607489915148,195.61935998467723 L470.57438245360663,208.56436286167173 M470.57438245360663,208.56436286167173 L479.4717380967913,223.8274065597212 M479.4717380967913,223.8274065597212 L484.0356289669562,240.52160939759918 M484.0356289669562,240.52160939759918 L484.0006316800673,257.676849285935 M484.0006316800673,257.676849285935 L479.36857967798716,274.29610440527097 M479.36857967798716,274.29610440527097 L470.4084956398145,289.4134579179537 M470.4084956398145,289.4134579179537 L457.64098423923025,302.15021903113126 M457.64098423923025,302.15021903113126 L441.80802259317124,311.76597158147604 M441.80802259317124,311.76597158147604 L423.8298279516709,317.70173648634074 M423.8298279516709,317.70173648634074 L404.75137020644337,319.6124020494762 M404.75137020644337,319.6124020494762 L385.6816221620611,317.3868670285055 M385.6816221620611,317.3868670285055 L367.72904225286317,311.1545514873454 M367.72904225286317,311.1545514873454 L351.9371271835279,301.2777631916803 M351.9371271835279,301.2777631916803 L339.2237165373577,288.330662762222 M339.2237165373577,288.330662762222 L330.3276482559518,273.06586190997024 M330.3276482559518,273.06586190997024 L325.76581619116683,256.3706534483676 M325.76581619116683,256.3706534483676 L325.80317443865664,239.2154006256589 M325.80317443865664,239.2154006256589 L330.4373356219859,222.59706577226208 M330.4373356219859,222.59706577226208 L339.39880930167413,207.48142415986754 M339.39880930167413,207.48142415986754 L352.166663557055,194.7467474925148 M352.166663557055,194.7467474925148 L367.99884744568396,185.1329716907511 M367.99884744568396,185.1329716907511 L385.97531771742723,179.19863565923538 M385.97531771742723,179.19863565923538 L405.0514971555665,177.2885290982645 M405.0514971555665,177.2885290982645 L424.11894323749857,179.51356965143248 M424.11894323749857,179.51356965143248 L442.0697225225753,185.7445218872213 M442.0697225225753,185.7445218872213 L457.8607489915148,195.61935998467723 M456.34223927259103,443.85909644161563 L479.25765797322333,357.06817965073117 M479.25765797322333,357.06817965073117 L482.2907217295144,316.7534253297217 M482.2907217295144,316.7534253297217 L480.5847829104075,290.36704996462856 M480.5847829104075,290.36704996462856 L477.0998453813506,273.49829345727613 M477.0998453813506,273.49829345727613 L473.29624855200615,262.76247695154746 M473.29624855200615,262.76247695154746 L469.8067477430598,255.88592576552236 M469.8067477430598,255.88592576552236 L466.84848613453494,251.42476787327664 M466.84848613453494,251.42476787327664 L462.8803292396239,246.8372867611339 M462.8803292396239,246.8372867611339 L459.7174003251205,244.06495274884722 M459.7174003251205,244.06495274884722 L456.35609353067144,241.80915840982985 M459.72397905470325,380.89455040446717 L610.3367144136066,152.13644266132366 M610.3367144136066,152.13644266132366 L619.8952638479946,165.60423267452188 M619.8952638479946,165.60423267452188 L625.8228421921544,178.77177766903858 M625.8228421921544,178.77177766903858 L627.7748043074337,190.8739486475929 M627.7748043074337,190.8739486475929 L625.6374014269782,201.20738353672226 M625.6374014269782,201.20738353672226 L619.5345193711105,209.17142166862857 M619.5345193711105,209.17142166862857 L609.8205416473666,214.30301905253287 M609.8205416473666,214.30301905253287 L597.0597795753554,216.30366918943312 M597.0597795753554,216.30366918943312 L581.9937808206391,215.05687003179804 M581.9937808206391,215.05687003179804 L565.4982306138663,210.63488127097997 M565.4982306138663,210.63488127097997 L548.5320091913072,203.29462229649488 M548.5320091913072,203.29462229649488 L532.0814567428829,193.46277010869414 M532.0814567428829,193.46277010869414 L517.1029612250345,181.71089860050887 M517.1029612250345,181.71089860050887 L504.46728290426546,168.72223335226303 M504.46728290426546,168.72223335226303 L494.9088963102622,155.25188256059252 M494.9088963102622,155.25188256059252 L488.98329124619136,142.08290760293937 M488.98329124619136,142.08290760293937 L487.0346756712815,129.98078789349586 M487.0346756712815,129.98078789349586 L489.17601266021,119.64881477226209 M489.17601266021,119.64881477226209 L495.2825067762526,111.68736956575458 M495.2825067762526,111.68736956575458 L504.99897551461413,106.55888183523462 M504.99897551461413,106.55888183523462 L517.7605149470712,104.56114810560024 M517.7605149470712,104.56114810560024 L532.8254040350757,105.80999959073495 M532.8254040350757,105.80999959073495 L549.318220648554,110.23273334194175 M549.318220648554,110.23273334194175 L566.2806953709128,117.57219005854733 M566.2806953709128,117.57219005854733 L582.727349962445,127.40194440947175 M582.727349962445,127.40194440947175 L597.7027084747563,139.15087995572418 M597.7027084747563,139.15087995572418 L610.3367144136066,152.13644266132366 M439.22614972586234,59.90292135839877 L449.8161526002508,61.26433633573146 M449.8161526002508,61.26433633573146 L457.2276598496253,62.94771107186625 M457.2276598496253,62.94771107186625 L461.0297646747093,64.85527957515222 M461.0297646747093,64.85527957515222 L461.00123197722127,66.87616963804476 M461.00123197722127,66.87616963804476 L457.1434195775964,68.8929292711178 M457.1434195775964,68.8929292711178 L449.68024973890215,70.78838959825458 M449.68024973890215,70.78838959825458 L439.04528478182164,72.45231118765042 M439.04528478182164,72.45231118765042 L425.85654745584424,73.78799431568234 M425.85654745584424,73.78799431568234 L410.88063857160745,74.71773136942971 M410.88063857160745,74.71773136942971 L394.9881334767192,75.18752206686924 M394.9881334767192,75.18752206686924 L379.1029420936619,75.16998287821315 M379.1029420936619,75.16998287821315 L364.1485542720624,74.66619386298981 M364.1485542720624,74.66619386298981 L350.9942902142063,73.70542187110414 M350.9942902142063,73.70542187110414 L340.4047510854852,72.34355467310377 M340.4047510854852,72.34355467310377 L332.9953018377243,70.6597746098297 M332.9953018377243,70.6597746098297 L329.19639557572447,68.75197255621015 M329.19639557572447,68.75197255621015 L329.22852522095906,66.73103566010764 M329.22852522095906,66.73103566010764 L333.089517283044,64.714421824287 M333.089517283044,64.714421824287 L340.5547210728344,62.819310528232506 M340.5547210728344,62.819310528232506 L351.1900999750576,61.15583465005437 M351.1900999750576,61.15583465005437 L364.37753640725083,59.820613585998785 M364.37753640725083,59.820613585998785 L379.3507359242365,58.891193567137066 M379.3507359242365,58.891193567137066 L395.23974857432876,58.42157621213357 M395.23974857432876,58.42157621213357 L411.12143839593125,58.439038283191564 M411.12143839593125,58.439038283191564 L426.07315088990924,58.942564026800596 M426.07315088990924,58.942564026800596 L439.22614972586234,59.90292135839877 M251.73934013834193,147.42409715672704 L259.0038783650066,152.0480001286286 M259.0038783650066,152.0480001286286 L263.07232875775287,158.9840873770051 M263.07232875775287,158.9840873770051 L263.7047200655563,167.82373902558555 M263.7047200655563,167.82373902558555 L261.7574768570786,175.77397221538249 M261.7574768570786,175.77397221538249 L257.7299030235237,184.29044261894634 M189.90168411844456,161.5262857815667 L257.7299030235237,184.29044261894634 M189.90168411844456,161.5262857815667 L201.29468759811297,155.2848002148821 M201.29468759811297,155.2848002148821 L212.81977595583203,150.41346910849856 M212.81977595583203,150.41346910849856 L224.03830812380275,147.0977278915296 M224.03830812380275,147.0977278915296 L234.5233089259761,145.4638114078435 M234.5233089259761,145.4638114078435 L243.87566846896442,145.57397685398485 M243.87566846896442,145.57397685398485 L251.73934013834193,147.42409715672704 M229.59548665349968,256.6404274909833 L239.11489218744146,244.2844581446246 M239.11489218744146,244.2844581446246 L250.53717247590276,232.99965873459973 M250.53717247590276,232.99965873459973 L263.1934147194961,223.44687698791577 M263.1934147194961,223.44687698791577 L276.34245257092385,216.1855931775226 M276.34245257092385,216.1855931775226 L289.2142346307206,211.64112865201992 M289.2142346307206,211.64112865201992 L301.0548690075045,210.07973984572754 M301.0548690075045,210.07973984572754 L311.17080599514514,211.59305817730163 M311.17080599514514,211.59305817730163 L318.96939512790414,216.09262244185942 M318.96939512790414,216.09262244185942 L323.99365660173345,223.31506453111143 M323.99365660173345,223.31506453111143 L325.9490809203582,232.83745719709555 M325.9490809203582,232.83745719709555 L324.72089350341713,244.10208120494633 M324.72089350341713,244.10208120494633 L320.38087697783897,256.44905247816916 M320.38087697783897,256.44905247816916 L313.1831744406966,269.1549889854101 M313.1831744406966,269.1549889854101 L303.54943318061567,281.47540830581437 M176.34348309779665,174.18910040627458 L180.6428226228583,169.7436198866898 M180.6428226228583,169.7436198866898 L185.17538872057546,165.51036835035387 M185.17538872057546,165.51036835035387 L189.90168411844456,161.5262857815667 M257.7299030235237,184.29044261894634 L255.59558158147033,189.14537782268613 M255.59558158147033,189.14537782268613 L253.0406058435566,194.0434016456797 M253.0406058435566,194.0434016456797 L250.08725196777047,198.94173662314566 M449.03454814393876,204.42345823479678 L459.6292235301301,215.21110803858755 M459.6292235301301,215.21110803858755 L467.0436029076144,227.930443966447 M467.0436029076144,227.930443966447 L470.84669369092074,241.84235123701882 M470.84669369092074,241.84235123701882 L470.8173640868724,256.13837346493585 M470.8173640868724,256.13837346493585 L466.95717708977753,269.987688933562 M466.95717708977753,269.987688933562 L459.49033932555164,282.58536200931235 M459.49033932555164,282.58536200931235 L448.8507266027854,293.1991861964865 M448.8507266027854,293.1991861964865 L435.6566468584843,301.21219162504593 M435.6566468584843,301.21219162504593 L420.6749377491492,306.1585453644271 M420.6749377491492,306.1585453644271 L404.7763777238908,307.7507346079463 M404.7763777238908,307.7507346079463 L388.8850918985209,305.89616271069445 M388.8850918985209,305.89616271069445 L373.9247275725349,300.70265413962653 M373.9247275725349,300.70265413962653 L360.76486022109447,292.47213658820374 M360.76486022109447,292.47213658820374 L350.1703317748669,281.6830275431471 M350.1703317748669,281.6830275431471 L342.7568527497528,268.96247692485747 M342.7568527497528,268.96247692485747 L338.95519169354964,255.04988930622724 M338.95519169354964,255.04988930622724 L338.9861622943676,240.75383835930978 M338.9861622943676,240.75383835930978 L342.8478172747927,226.90515719854983 M342.8478172747927,226.90515719854983 L350.31561371536804,214.30866927624336 M350.31561371536804,214.30866927624336 L360.95546453109364,203.69629262003122 M360.95546453109364,203.69629262003122 L374.1490072443242,195.68468727098997 M374.1490072443242,195.68468727098997 L389.12951887498366,190.7393002436786 M389.12951887498366,190.7393002436786 L405.02649058716116,189.14751318417206 M405.02649058716116,189.14751318417206 L420.9161872582598,191.0017333828564 M420.9161872582598,191.0017333828564 L435.8752924412542,196.19429101868423 M435.8752924412542,196.19429101868423 L449.03454814393876,204.42345823479678 M601.5159049220233,153.51833743664332 L609.4813447246856,164.7416734871383 M609.4813447246856,164.7416734871383 L614.4208621513051,175.71473410494127 M614.4208621513051,175.71473410494127 L616.0472639744025,185.7998609410217 M616.0472639744025,185.7998609410217 L614.2658126295337,194.4109556697864 M614.2658126295337,194.4109556697864 L609.1798323684422,201.04748856426556 M609.1798323684422,201.04748856426556 L601.0846697735976,205.3235923081852 M601.0846697735976,205.3235923081852 L590.4506513032188,206.990592289152 M590.4506513032188,206.990592289152 L577.8957339512215,205.95145305041635 M577.8957339512215,205.95145305041635 L564.1496291568744,202.26641053974828 M564.1496291568744,202.26641053974828 L550.0113759305514,196.14959386824052 M550.0113759305514,196.14959386824052 L536.3028562430657,187.95653078074503 M536.3028562430657,187.95653078074503 L523.8209883465918,178.16349789040677 M523.8209883465918,178.16349789040677 L513.2913758014392,167.33982418926516 M513.2913758014392,167.33982418926516 L505.32604220750267,156.11470668459674 M505.32604220750267,156.11470668459674 L500.3879023829288,145.14065806080797 M500.3879023829288,145.14065806080797 L498.76382742396083,135.05556804414624 M498.76382742396083,135.05556804414624 L500.5479980896509,126.4454853280281 M500.5479980896509,126.4454853280281 L505.6364932682249,119.81077485473776 M505.6364932682249,119.81077485473776 L513.7333761134475,115.53680703794777 M513.7333761134475,115.53680703794777 L524.367934417789,113.87183233906876 M524.367934417789,113.87183233906876 L536.9220875204419,114.91240046984649 M536.9220875204419,114.91240046984649 L550.6662907105579,118.59796510032231 M550.6662907105579,118.59796510032231 L564.8019500462215,124.7142389420585 M564.8019500462215,124.7142389420585 L578.5077694399417,132.9058234221119 M578.5077694399417,132.9058234221119 L590.9874492341905,142.69681378410337 M590.9874492341905,142.69681378410337 L601.5159049220233,153.51833743664332 M440.85590021867506,170.80402701390344 L451.4456781340626,172.16768448216203 M451.4456781340626,172.16768448216203 L458.8570416805095,173.85371622166662 M458.8570416805095,173.85371622166662 L462.65909935422115,175.7641738412952 M462.65909935422115,175.7641738412952 L462.6306224800637,177.7880296400083 M462.6306224800637,177.7880296400083 L458.7729427010226,179.8077046188894 M458.7729427010226,179.8077046188894 L451.30999787853847,181.70578294433614 M451.30999787853847,181.70578294433614 L440.6753209719211,183.37193883810693 M440.6753209719211,183.37193883810693 L427.4869318581295,184.70928086180473 M427.4869318581295,184.70928086180473 L412.51140174433607,185.6400826531239 M412.51140174433607,185.6400826531239 L396.6192885316767,186.1101935298238 M396.6192885316767,186.1101935298238 L380.7344769279335,186.09229850829848 M380.7344769279335,186.09229850829848 L365.7804404509183,185.58743759205012 M365.7804404509183,185.58743759205012 L352.62647370788454,184.62494583717196 M352.62647370788454,184.62494583717196 L342.0371547939454,183.26084366301265 M342.0371547939454,183.26084366301265 L334.6278509057407,181.57440775594333 M334.6278509057407,181.57440775594333 L330.82899163400333,179.6636972292632 M330.82899163400333,179.6636972292632 L330.86107706336327,177.63978916663405 M330.86107706336327,177.63978916663405 L334.7219316405792,175.62028479477655 M334.7219316405792,175.62028479477655 L342.18690679164075,173.72254584973464 M342.18690679164075,173.72254584973464 L352.821992919228,172.05683904436972 M352.821992919228,172.05683904436972 L366.00909181470985,170.71993315269697 M366.00909181470985,170.71993315269697 L380.9819103434469,169.78948285211024 M380.9819103434469,169.78948285211024 L396.8705253937315,169.3195148421766 M396.8705253937315,169.3195148421766 L412.7518426723327,169.33735844823866 M412.7518426723327,169.33735844823866 L427.70320158963983,169.84196517617056 M427.70320158963983,169.84196517617056 L440.85590021867506,170.80402701390344 M440.85590021867506,170.80402701390344 L439.22614972586234,59.90292135839877 M447.39485514562347,254.80375979236663 L457.987699370268,265.5900256468129 M457.987699370268,265.5900256468129 L465.40078244903924,278.30770696248993 M465.40078244903924,278.30770696248993 L469.2032022425054,292.21781353702465 M469.2032022425054,292.21781353702465 L469.1738561106609,306.5120150235606 M469.1738561106609,306.5120150235606 L465.31431270452845,320.3595608052865 M465.31431270452845,320.3595608052865 L457.8487471836567,332.95564737449763 M457.8487471836567,332.95564737449763 L447.21094771332605,343.5681152199499 M447.21094771332605,343.5681152199499 L434.0191145007613,351.58009584058755 M434.0191145007613,351.58009584058755 L419.0399729363361,356.52584761702917 M419.0399729363361,356.52584761702917 L403.14414750533143,358.1178416619888 M403.14414750533143,358.1178416619888 L387.2555857644864,356.263546335785 M387.2555857644864,356.263546335785 L372.2978043964871,351.0707383089712 M372.2978043964871,351.0707383089712 L359.1402148538128,342.8412753848555 M359.1402148538128,342.8412753848555 L348.54752223269395,332.05356433439573 M348.54752223269395,332.05356433439573 L341.13533743267004,319.3346669918649 M341.13533743267004,319.3346669918649 L337.3343468759695,305.4238557756943 M337.3343468759695,305.4238557756943 L337.3653216538418,291.129631017715 M337.3653216538418,291.129631017715 L341.22633725395127,277.28273840536303 M341.22633725395127,277.28273840536303 L348.69286465411705,264.68784683590417 M348.69286465411705,264.68784683590417 L359.33090684909496,254.07682336656657 M359.33090684909496,254.07682336656657 L372.52219260598264,246.06620362081364 M372.52219260598264,246.06620362081364 L387.50013945889503,241.12144957091354 M387.50013945889503,241.12144957091354 L403.39438301322576,239.52982288840929 M403.39438301322576,239.52982288840929 L419.281349075891,241.38380608886598 M419.281349075891,241.38380608886598 L434.23787409098713,246.57567571624642 M434.23787409098713,246.57567571624642 L447.39485514562347,254.80375979236663 M447.39485514562347,254.80375979236663 L449.03454814393876,204.42345823479678 M549.0384536746278,233.22489726415222 L557.0023695042476,244.44823573095252 M557.0023695042476,244.44823573095252 L561.9404329004844,255.4216287082941 M561.9404329004844,255.4216287082941 L563.5655490085712,265.5074276892801 M563.5655490085712,265.5074276892801 L561.7830733029418,274.11950044823544 M561.7830733029418,274.11950044823544 L556.6963710400128,280.7572282528053 M556.6963710400128,280.7572282528053 L548.6008449398009,285.0347200126933 M548.6008449398009,285.0347200126933 L537.9668243205658,286.7031887585257 M537.9668243205658,286.7031887585257 L525.412263975735,285.6654938976785 M525.412263975735,285.6654938976785 L511.6668774842585,281.98182738819776 M511.6668774842585,281.98182738819776 L497.5296491358907,275.86621317661195 M497.5296491358907,275.86621317661195 L483.8224059478481,267.6741384482083 M483.8224059478481,267.6741384482083 L471.3419914971821,257.88180690349185 M471.3419914971821,257.88180690349185 L460.8139121737709,247.05847690156298 M460.8139121737709,247.05847690156298 L452.85011512781307,235.83337706415998 M452.85011512781307,235.83337706415998 L447.9134269359607,224.85898367801698 M447.9134269359607,224.85898367801698 L446.29062563564366,214.77319264289713 M446.29062563564366,214.77319264289713 L448.07582373812096,206.16216081294854 M448.07582373812096,206.16216081294854 L453.1650427569401,199.52622106831328 M453.1650427569401,199.52622106831328 L461.26229923804505,195.25090378127868 M461.26229923804505,195.25090378127868 L471.89686408840953,193.58445750407452 M471.89686408840953,193.58445750407452 L484.4506424228711,194.62357929167348 M484.4506424228711,194.62357929167348 L498.194132191838,198.30774365097713 M498.194132191838,198.30774365097713 L512.3287576022501,204.4228221591298 M512.3287576022501,204.4228221591298 L526.0333057084965,212.61344041122234 M526.0333057084965,212.61344041122234 L538.5115355180258,222.4037307462405 M538.5115355180258,222.4037307462405 L549.0384536746278,233.22489726415222 M549.0384536746278,233.22489726415222 L601.5159049220233,153.51833743664332" stroke="black"  stroke-width="4"  fill="red"/></svg>