<svg viewBox="0 0 800 800" xmlns="http://www.w3.org/2000/svg"><path d="M601.3536964135683,468.80397816963546 L547.3088457045674,444.3593809504098 M547.3088457045674,444.3593809504098 L484.71178121733703,428.09362810704357 M484.71178121733703,428.09362810704357 L417.19740916585437,420.9500329124459 M417.19740916585437,420.9500329124459 L348.68513004960226,423.342836807424 M348.68513004960226,423.342836807424 L283.152078641589,435.13328065459973 M283.152078641589,435.13328065459973 L224.40304990895783,455.63766135070745 M224.40304990895783,455.63766135070745 L175.85018461874532,483.6666723956113 M175.85018461874532,483.6666723956113 L140.31520161038497,517.5940088804743 M140.31520161038497,517.5940088804743 L119.86539786750876,555.4502850490992 M119.86539786750876,555.4502850490992 L115.69298091253506,595.0369249911697 M115.69298091253506,595.0369249911697 L128.0450079497952,634.0536232261051 M128.0450079497952,634.0536232261051 L156.20787414252885,670.2319426272021 M156.20787414252885,670.2319426272021 L198.54792261243145,701.4673371508197 M198.54792261243145,701.4673371508197 L252.60558684888218,725.941962160224 M252.60558684888218,725.941962160224 L315.23815652107197,742.2308637814372 M315.23815652107197,742.2308637814372 L382.8025915810518,749.3854256567016 M382.8025915810518,749.3854256567016 L451.3680227092489,746.9888939838925 M451.3680227092489,746.9888939838925 L516.9451386531397,735.1808819137386 M516.9451386531397,735.1808819137386 L575.7190497742182,714.6491171984471 M575.7190497742182,714.6491171984471 L624.2719150604214,686.5891796967717 M624.2719150604214,686.5891796967717 L659.7820156757789,652.6344591984783 M659.7820156757789,652.6344591984783 L680.1877548856211,614.7606148017064 M680.1877548856211,614.7606148017064 L684.3070198364358,575.1702470885228 M684.3070198364358,575.1702470885228 L671.904929796681,536.1645155231764 M671.904929796681,536.1645155231764 L643.7065584180212,500.0093449075934 M643.7065584180212,500.0093449075934 L601.3536964135683,468.80397816963546 M203.83576540811677,588.1261678420167 L204.93648787664435,587.3149182164298 M204.93648787664435,587.3149182164298 L205.66917627010793,586.3751439964028 M205.66917627010793,586.3751439964028 L205.99126296036565,585.3614639779304 M205.99126296036565,585.3614639779304 L205.8840060078346,584.3327839434907 M205.8840060078346,584.3327839434907 L205.3536711573771,583.3488960793176 M205.3536711573771,583.3488960793176 L204.4310523998415,582.4669732576701 M204.4310523998415,582.4669732576701 L203.1697921417403,581.7382688079125 M203.1697921417403,581.7382688079125 L201.64318419067834,581.2051271006673 M201.64318419067834,581.2051271006673 L199.9399493282265,580.8985433597766 M199.9399493282265,580.8985433597766 L198.15906027804823,580.8363169552681 M198.15906027804823,580.8363169552681 L196.40402878887608,581.0220809662478 M196.40402878887608,581.0220809662478 L194.77683721120195,581.4450248919486 M194.77683721120195,581.4450248919486 L193.37205202613308,582.0805767528752 M193.37205202613308,582.0805767528752 L192.27132091580276,582.8918061042024 M192.27132091580276,582.8918061042024 L191.5386085573677,583.8315646945694 M191.5386085573677,583.8315646945694 L191.21648806911512,584.8452373085338 M191.21648806911512,584.8452373085338 L191.32370913306087,585.8739198598927 M191.32370913306087,585.8739198598927 L191.8540142262541,586.857819585788 M191.8540142262541,586.857819585788 L192.7766161748399,587.7397608966011 M192.7766161748399,587.7397608966011 L194.0378764229014,588.4684862273288 M194.0378764229014,588.4684862273288 L195.56450116513375,589.0016464239089 M195.56450116513375,589.0016464239089 L197.26776577344364,589.3082420263712 M197.26776577344364,589.3082420263712 L199.04869070978674,589.3704709479694 M199.04869070978674,589.3704709479694 L200.80375600407405,589.1846995323181 M200.80375600407405,589.1846995323181 L202.43097156174937,588.7617399770803 M202.43097156174937,588.7617399770803 L203.83576540811677,588.1261678420167 M394.77484749141337,471.8251172506979 L396.1789458098606,472.4603365127694 M396.1789458098606,472.4603365127694 L397.80550628130044,472.88306123834127 M397.80550628130044,472.88306123834127 L399.5599950014277,473.06872951252046 M399.5599950014277,473.06872951252046 L401.3404553902964,473.0065351408207 M401.3404553902964,473.0065351408207 L403.04339447354124,472.70010976213814 M403.04339447354124,472.70010976213814 L404.56985163768906,472.1672455791086 M404.56985163768906,472.1672455791086 L405.8311119880468,471.43892484018886 M405.8311119880468,471.43892484018886 L406.7538817125065,470.5574731864916 M406.7538817125065,470.5574731864916 L407.2845125087348,469.5741197241898 M407.2845125087348,469.5741197241898 L407.3921982669906,468.5460082985895 M407.3921982669906,468.5460082985895 L407.0706544598553,467.53289847547785 M407.0706544598553,467.53289847547785 L406.3385972491302,466.5936616376947 M406.3385972491302,466.5936616376947 L405.2385616804233,465.78288267876644 M405.2385616804233,465.78288267876644 L403.8344720087234,465.14768367394976 M403.8344720087234,465.14768367394976 L402.20793549646027,464.7249745649005 M402.20793549646027,464.7249745649005 L400.4534805591213,464.53931368922713 M400.4534805591213,464.53931368922713 L398.6730560377031,464.60150554593315 M398.6730560377031,464.60150554593315 L396.97014668950135,464.9079190729211 M396.97014668950135,464.9079190729211 L395.44370631608615,465.44076478201157 M395.44370631608615,465.44076478201157 L394.1824459657284,466.16906465734854 M394.1824459657284,466.16906465734854 L393.25965945053605,467.0504978372757 M393.25965945053605,467.0504978372757 L392.7289989192647,468.03383944773253 M392.7289989192647,468.03383944773253 L392.6212772935585,469.06194835850926 M392.6212772935585,469.06194835850926 L392.9427873179054,470.0750655799636 M392.9427873179054,470.0750655799636 L393.67482056945374,471.014318034392 M393.67482056945374,471.014318034392 L394.77484749141337,471.8251172506979 M405.24146838723266,698.4428837802665 L403.8365986247801,697.8069787691285 M403.8365986247801,697.8069787691285 L402.20915843757604,697.3837998310593 M402.20915843757604,697.3837998310593 L400.45372875828645,697.1979325988112 M400.45372875828645,697.1979325988112 L398.6723150671487,697.2601935799173 M398.6723150671487,697.2601935799173 L396.96845961390073,697.5669476765819 M396.96845961390073,697.5669476765819 L395.4411711756078,698.100385628693 M395.4411711756078,698.100385628693 L394.1792100861256,698.8294949900799 M394.1792100861256,698.8294949900799 L393.25591087860863,699.7119078615593 M393.25591087860863,699.7119078615593 L392.724955511287,700.6963424347472 M392.724955511287,700.6963424347472 L392.617174026939,701.7255940688786 M392.617174026939,701.7255940688786 L392.93886266849995,702.7398373534588 M392.93886266849995,702.7398373534588 L393.67130262112335,703.6801337739754 M393.67130262112335,703.6801337739754 L394.7719407007006,704.4918341842597 M394.7719407007006,704.4918341842597 L396.17681911951126,705.1277594864355 M396.17681911951126,705.1277594864355 L397.8042832925222,705.5509540670706 M397.8042832925222,705.5509540670706 L399.5597467921491,705.7368287101627 M399.5597467921491,705.7368287101627 L401.34119639060333,705.6745652098689 M401.34119639060333,705.6745652098689 L403.0450816119443,705.3677992417449 M403.0450816119443,705.3677992417449 L404.57238685963245,704.8343427848858 M404.57238685963245,704.8343427848858 L405.83434794911466,704.1052125251225 M405.83434794911466,704.1052125251225 L406.7576303472364,703.2227811490643 M406.7576303472364,703.2227811490643 L407.28855594646495,702.2383347042662 M407.28855594646495,702.2383347042662 L407.39630152349656,701.2090805511174 M407.39630152349656,701.2090805511174 L407.07457906159834,700.1948446772178 M407.07457906159834,700.1948446772178 L406.34211512316796,699.2545638993904 M406.34211512316796,699.2545638993904 L405.24146838723266,698.4428837802665 M596.174888032827,582.0805767528752 L595.0749370082468,582.8918061042025 M595.0749370082468,582.8918061042025 L594.3431283304832,583.8315646945696 M594.3431283304832,583.8315646945696 L594.0219825993202,584.8452373085338 M594.0219825993202,584.8452373085338 L594.1301928540519,585.8739198598927 M594.1301928540519,585.8739198598927 L594.6614440744464,586.857819585788 M594.6614440744464,586.857819585788 L595.5848941060655,587.7397608966012 M595.5848941060655,587.7397608966012 L596.8468551032373,588.4684862273289 M596.8468551032373,588.4684862273289 L598.3739925373134,589.0016464239089 M598.3739925373134,589.0016464239089 L600.0775519708293,589.3082420263712 M600.0775519708293,589.3082420263712 L601.8585367470868,589.3704709479694 M601.8585367470868,589.3704709479694 L603.6134234018391,589.1846995323181 M603.6134234018391,589.1846995323181 L605.2402322376405,588.7617399770803 M605.2402322376405,588.7617399770803 L606.6444149118838,588.1261678420167 M606.6444149118838,588.1261678420167 L607.7443572751654,587.3149182164299 M607.7443572751654,587.3149182164299 L608.476141972928,586.3751439964029 M608.476141972928,586.3751439964029 L608.7972538989759,585.3614639779304 M608.7972538989759,585.3614639779304 L608.6890077580792,584.3327839434907 M608.6890077580792,584.3327839434907 L608.1577267918268,583.3488960793176 M608.1577267918268,583.3488960793176 L607.2342599690373,582.4669732576702 M607.2342599690373,582.4669732576702 L605.9722989819049,581.7382688079125 M605.9722989819049,581.7382688079125 L604.4451783567788,581.2051271006673 M604.4451783567788,581.2051271006673 L602.7416486805272,580.8985433597766 M602.7416486805272,580.8985433597766 L600.9606997928549,580.8363169552681 M600.9606997928549,580.8363169552681 L599.2058469360975,581.0220809662478 M599.2058469360975,581.0220809662478 L597.5790620652677,581.4450248919486 M597.5790620652677,581.4450248919486 L596.174888032827,582.0805767528752 M601.3536964135683,468.80397816963546 L601.3592867446366,445.5557255731445 M601.3592867446366,445.5557255731445 L643.7133251663976,476.7602263538719 M643.7133251663976,476.7602263538719 L671.9124801735675,512.9143938153152 M671.9124801735675,512.9143938153152 L684.3149153438561,551.9190433297949 M684.3149153438561,551.9190433297949 L680.1955367294282,591.5083129801255 M680.1955367294282,591.5083129801255 L659.7892314158939,629.3811071173702 M659.7892314158939,629.3811071173702 L624.2781449465008,663.3348861969832 M624.2781449465008,663.3348861969832 L575.723931231992,691.394045832381 M575.723931231992,691.394045832381 L516.9483874740303,711.9252414405106 M516.9483874740303,711.9252414405106 L451.369449685401,723.7329262370705 M451.369449685401,723.7329262370705 L382.8021135934888,726.1293914893105 M382.8021135934888,726.1293914893105 L315.23580141278774,718.975027907057 M315.23580141278774,718.975027907057 L252.60149179191512,702.6865777679247 M252.60149179191512,702.6865777679247 L198.5423260677255,678.2126311917435 M198.5423260677255,678.2126311917435 L156.20110189225127,646.9781026243157 M156.20110189225127,646.9781026243157 L128.03745404316192,610.8007863765552 M128.03745404316192,610.8007863765552 L115.68508465614383,571.7851701921059 M115.68508465614383,571.7851701921059 L119.85761822708685,532.1996283130178 M119.85761822708685,532.1996283130178 L140.3079905212429,494.34440240452955 M140.3079905212429,494.34440240452955 L175.8439607657446,460.4180073392971 M175.8439607657446,460.4180073392971 L224.3981744842634,432.38977416174424 M224.3981744842634,432.38977416174424 L283.1488344716724,411.8859625737486 M283.1488344716724,411.8859625737486 L348.6837052768359,400.0958460007765 M348.6837052768359,400.0958460007765 L417.1978864044462,397.7031085264971 M417.1978864044462,397.7031085264971 L484.7141327958736,404.8465054277031 M484.7141327958736,404.8465054277031 L547.3129352596324,421.1118067881851 M547.3129352596324,421.1118067881851 L601.3592867446366,445.5557255731445 M203.83374919106953,579.5214132945455 L202.42894090335224,580.1569789060112 M202.42894090335224,580.1569789060112 L200.8017086192972,580.5799341199463 M200.8017086192972,580.5799341199463 L199.04662528574,580.7657036288224 M199.04662528574,580.7657036288224 L197.26568204556204,580.7034753459475 M197.26568204556204,580.7034753459475 L195.5623999328323,580.3968828904132 M195.5623999328323,580.3968828904132 L194.03575950283243,579.8637281662532 M194.03575950283243,579.8637281662532 L192.77448629541445,579.1350103152724 M192.77448629541445,579.1350103152724 L191.85187486897172,578.2530780568729 M191.85187486897172,578.2530780568729 L191.32156433043346,577.2691884299571 M191.32156433043346,577.2691884299571 L191.2143421697608,576.2405164372899 M191.2143421697608,576.2405164372899 L191.5364659738804,575.2268542280017 M191.5364659738804,575.2268542280017 L192.2691858677403,574.2871052836775 M192.2691858677403,574.2871052836775 L193.36992829519806,573.4758842591547 M193.36992829519806,573.4758842591547 L194.77472792143874,572.8403389218261 M194.77472792143874,572.8403389218261 L196.40193622499973,572.4173993374282 M196.40193622499973,572.4173993374282 L198.15698575274678,572.2316372332238 M198.15698575274678,572.2316372332238 L199.93789310602222,572.293862999009 M199.93789310602222,572.293862999009 L201.64114547228246,572.6004435929717 M201.64114547228246,572.6004435929717 L203.16776911076698,573.1335798277964 M203.16776911076698,573.1335798277964 L204.42904232822497,573.8622767978069 M204.42904232822497,573.8622767978069 L205.35167056396307,574.7441905670404 M205.35167056396307,574.7441905670404 L205.8820108603773,575.7280683322339 M205.8820108603773,575.7280683322339 L205.9892689103729,576.7567378079818 M205.9892689103729,576.7567378079818 L205.66717890494294,577.7704074217783 M205.66717890494294,577.7704074217783 L204.934482976547,578.7101719957626 M204.934482976547,578.7101719957626 L203.83374919106953,579.5214132945455 M203.83374919106953,579.5214132945455 L203.83576540811677,588.1261678420167 M394.77479373368135,463.221556766525 L393.6747555090684,462.4107658770273 M393.6747555090684,462.4107658770273 L392.94271473605414,461.4715230686465 M392.94271473605414,461.4715230686465 L392.6212014083883,460.45841625187325 M392.6212014083883,460.45841625187325 L392.7289241411107,459.4303178997935 M392.7289241411107,459.4303178997935 L393.25959012503375,458.44698638832114 M393.25959012503375,458.44698638832114 L394.1823861218776,457.5655622608123 M394.1823861218776,457.5655622608123 L395.44365943159494,456.83726986522606 M395.44365943159494,456.83726986522606 L396.9701154889892,456.30442962855886 M396.9701154889892,456.30442962855886 L398.6730423343096,455.9980192485003 M398.6730423343096,455.9980192485003 L400.4534851492778,455.93582803051794 M400.4534851492778,455.93582803051794 L402.2079581133419,456.1214869994151 M402.2079581133419,456.1214869994151 L403.83451133802794,456.54419176715936 M403.83451133802794,456.54419176715936 L405.23861543660405,457.1793842483748 M405.23861543660405,457.1793842483748 L406.3386623081419,457.99015488049486 M406.3386623081419,457.99015488049486 L407.0707270408254,458.92938207223045 M407.0707270408254,458.92938207223045 L407.39227415197377,459.9424814906608 M407.39227415197377,459.9424814906608 L407.2845872874388,460.97058235756424 M407.2845872874388,460.97058235756424 L406.7539510391699,461.95392572088156 M406.7539510391699,461.95392572088156 L405.83117183340374,462.8353683221606 M405.83117183340374,462.8353683221606 L404.56989852368645,463.56368158132966 M404.56989852368645,463.56368158132966 L403.04342567521445,464.09654029193615 M403.04342567521445,464.09654029193615 L401.34046909424,464.4029625236892 M401.34046909424,464.4029625236892 L399.55999041108424,464.4651562566654 M399.55999041108424,464.4651562566654 L397.8054836635376,464.2794898892624 M397.8054836635376,464.2794898892624 L396.17890647918244,463.85676950499555 M396.17890647918244,463.85676950499555 L394.77479373368135,463.221556766525 M394.77479373368135,463.221556766525 L394.77484749141337,471.8251172506979 M405.2415222031623,689.8369972240672 L406.3421802544915,690.6486690163945 M406.3421802544915,690.6486690163945 L407.074651723241,691.5889401481883 M407.074651723241,691.5889401481883 L407.3963774928249,692.6031656174216 M407.3963774928249,692.6031656174216 L407.2886308082847,693.6324092118888 M407.2886308082847,693.6324092118888 L406.7576997509558,694.6168455577173 M406.7576997509558,694.6168455577173 L405.8344078609894,695.4992678813703 M405.8344078609894,695.4992678813703 L404.5724337977434,696.2283906613941 M404.5724337977434,696.2283906613941 L403.045112848298,696.7618416458381 M403.045112848298,696.7618416458381 L401.34121010977873,697.0686044670374 M401.34121010977873,697.0686044670374 L399.55974219670344,697.1308673286088 M399.55974219670344,697.1308673286088 L397.80426064961983,696.9449945922898 M397.80426064961983,696.9449945922898 L396.17677974511724,696.5218043529533 M396.17677974511724,696.5218043529533 L394.7718868832171,695.885885574369 M394.7718868832171,695.885885574369 L393.6712374884239,695.0741934908806 M393.6712374884239,695.0741934908806 L392.93879000597457,694.1339067163975 M392.93879000597457,694.1339067163975 L392.61709805742333,693.1196738364833 M392.61709805742333,693.1196738364833 L392.72488065001824,692.0904327610336 M392.72488065001824,692.0904327610336 L393.25584147605224,691.1060082868156 M393.25584147605224,691.1060082868156 L394.1791501757595,690.2236044677414 M394.1791501757595,690.2236044677414 L395.44112423900555,689.4945025860948 M395.44112423900555,689.4945025860948 L396.96842837871,688.9610701063991 M396.96842837871,688.9610701063991 L398.67230134852423,688.6543191566594 M398.67230134852423,688.6543191566594 L400.45373335354486,688.5920588142762 M400.45373335354486,688.5920588142762 L402.20918107959574,688.7779241397508 M402.20918107959574,688.7779241397508 L403.83663799779816,689.201098736521 M403.83663799779816,689.201098736521 L405.2415222031623,689.8369972240672 M405.2415222031623,689.8369972240672 L405.24146838723266,698.4428837802665 M596.1769041916766,573.4758842591547 L597.5810926527265,572.8403389218261 M597.5810926527265,572.8403389218261 L599.2078942410831,572.4173993374283 M599.2078942410831,572.4173993374283 L600.9627651327437,572.2316372332239 M600.9627651327437,572.2316372332239 L602.7437323247431,572.293862999009 M602.7437323247431,572.293862999009 L604.447279510863,572.6004435929717 M604.447279510863,572.6004435929717 L605.9744158339502,573.1335798277966 M605.9744158339502,573.1335798277966 L607.2363897948429,573.8622767978069 M607.2363897948429,573.8622767978069 L608.1598661132674,574.7441905670404 M608.1598661132674,574.7441905670404 L608.6911525449245,575.7280683322339 M608.6911525449245,575.7280683322339 L608.7993998036194,576.756737807982 M608.7993998036194,576.756737807982 L608.4782845824361,577.7704074217784 M608.4782845824361,577.7704074217784 L607.7464923683174,578.7101719957626 M607.7464923683174,578.7101719957626 L606.6465387041216,579.5214132945455 M606.6465387041216,579.5214132945455 L605.2423416010914,580.1569789060112 M605.2423416010914,580.1569789060112 L603.6155160472707,580.5799341199463 M603.6155160472707,580.5799341199463 L601.8606113569207,580.7657036288224 M601.8606113569207,580.7657036288224 L600.0796082755982,580.7034753459475 M600.0796082755982,580.7034753459475 L598.3760313316022,580.3968828904132 M598.3760313316022,580.3968828904132 L596.8488781992197,579.8637281662532 M596.8488781992197,579.8637281662532 L595.5869042282869,579.1350103152724 M595.5869042282869,579.1350103152724 L594.6634447013779,578.2530780568729 M594.6634447013779,578.2530780568729 L594.1321880161901,577.2691884299571 M594.1321880161901,577.2691884299571 L594.023976644398,576.2405164372899 M594.023976644398,576.2405164372899 L594.3451256713913,575.2268542280018 M594.3451256713913,575.2268542280018 L595.0769418660042,574.2871052836775 M595.0769418660042,574.2871052836775 L596.1769041916766,573.4758842591547 M596.1769041916766,573.4758842591547 L596.174888032827,582.0805767528752 M212.07488156037934,569.6377797518292 L208.45636147521037,571.2748639736446 M208.45636147521037,571.2748639736446 L204.26489289839813,572.3643134789666 M204.26489289839813,572.3643134789666 L199.74406029567785,572.8428032457216 M199.74406029567785,572.8428032457216 L195.15664633421187,572.6825262208598 M195.15664633421187,572.6825262208598 L190.76925897382984,571.8928032311835 M190.76925897382984,571.8928032311835 L186.83689201638705,570.5195222999681 M186.83689201638705,570.5195222999681 L183.5881023634539,568.642512865841 M183.5881023634539,568.642512865841 L181.21168872638867,566.370866464 M181.21168872638867,566.370866464 L179.84576542106007,563.8366206370099 M179.84576542106007,563.8366206370099 L179.56967290350303,561.1870620644181 M179.56967290350303,561.1870620644181 L180.3994444209888,558.5761655199102 M180.3994444209888,558.5761655199102 L182.28684655021314,556.1556794482631 M182.28684655021314,556.1556794482631 L185.12217448383737,554.0662520994273 M185.12217448383737,554.0662520994273 L188.74063710292492,552.4293023875772 M188.74063710292492,552.4293023875772 L192.93194657553573,551.3399565775206 M192.93194657553573,551.3399565775206 L197.45255488379934,550.8615159358104 M197.45255488379934,550.8615159358104 L202.03973074520053,551.0217762620435 M202.03973074520053,551.0217762620435 L206.4269207446308,551.8114205553105 M206.4269207446308,551.8114205553105 L210.35917629358656,553.1845788193751 M210.35917629358656,553.1845788193751 L213.6079660131338,555.0614497180385 M213.6079660131338,555.0614497180385 L215.98449117665396,557.3329734526077 M215.98449117665396,557.3329734526077 L217.35061191861612,559.8671405824965 M217.35061191861612,559.8671405824965 L217.6269425522967,562.5166824564852 M217.6269425522967,562.5166824564852 L216.79739528202415,565.1276281264717 M216.79739528202415,565.1276281264717 L214.9101521572787,567.548217893239 M214.9101521572787,567.548217893239 L212.07488156037934,569.6377797518292 M454.38295136432293,530.4455458311655 L465.81728021574486,538.8737202174419 M465.81728021574486,538.8737202174419 L473.42755658724525,548.6376232871248 M473.42755658724525,548.6376232871248 L476.77127590012316,559.1699618624352 M476.77127590012316,559.1699618624352 L475.6538087831679,569.8586962591017 M475.6538087831679,569.8586962591017 L470.1397586078562,580.0826176770577 M470.1397586078562,580.0826176770577 L460.54931525158725,589.2474411399194 M460.54931525158725,589.2474411399194 L447.43967663793933,596.8203648303473 M447.43967663793933,596.8203648303473 L431.5727276217174,602.3610849837594 M431.5727276217174,602.3610849837594 L413.8707612168771,605.5474293824401 M413.8707612168771,605.5474293824401 L395.36282320273045,606.1941051363586 M395.36282320273045,606.1941051363586 L377.1248507041591,604.2635114659029 M377.1248507041591,604.2635114659029 L360.2170922760088,599.8679115390487 M360.2170922760088,599.8679115390487 L345.6223778379932,593.2629069656575 M345.6223778379932,593.2629069656575 L334.1889831452422,584.8325435536403 M334.1889831452422,584.8325435536403 L326.5812952443189,575.0669529379371 M326.5812952443189,575.0669529379371 L323.24122572812666,564.5338148921287 M323.24122572812666,564.5338148921287 L324.362567841078,553.8453522499703 M324.362567841078,553.8453522499703 L329.8798304985113,543.6227115555989 M329.8798304985113,543.6227115555989 L339.47208788303374,534.459884387833 M339.47208788303374,534.459884387833 L352.5817264967029,526.8892152359477 M352.5817264967029,526.8892152359477 L368.44686148469566,521.3504913763848 M368.44686148469566,521.3504913763848 L386.1456154073992,518.1654277017108 M386.1456154073992,518.1654277017108 L404.64967842550845,517.5190237017961 M404.64967842550845,517.5190237017961 L422.8840011273621,519.4488179026339 M422.8840011273621,519.4488179026339 L439.7891710849405,523.8427302833934 M439.7891710849405,523.8427302833934 L454.38295136432293,530.4455458311655 M386.5301373256874,453.3373112166166 L383.69665840009577,451.248909535381 M383.69665840009577,451.248909535381 L381.81110284471396,448.829663733765 M381.81110284471396,448.829663733765 L380.9830409752458,446.22016771004826 M380.9830409752458,446.22016771004826 L381.2605685181256,443.57209690243553 M381.2605685181256,443.57209690243553 L382.6275281364117,441.0393367723889 M382.6275281364117,441.0393367723889 L385.0044853971333,438.76907420768134 M385.0044853971333,438.76907420768134 L388.25327533395614,436.8932453590123 M388.25327533395614,436.8932453590123 L392.18509921332867,435.52084947770595 M392.18509921332867,435.52084947770595 L396.5714507423503,434.7316435968612 M396.5714507423503,434.7316435968612 L401.1574300616454,434.571472247448 M401.1574300616454,434.571472247448 L405.67655327741613,435.0496472579566 M405.67655327741613,435.0496472579566 L409.8661754082351,436.13838825990825 M409.8661754082351,436.13838825990825 L413.4828464811,437.77442912934595 M413.4828464811,437.77442912934595 L416.3163827762248,439.8626964128346 M416.3163827762248,439.8626964128346 L418.2020972976371,442.2818386056782 M418.2020972976371,442.2818386056782 L419.0303833134215,444.89128554482375 M419.0303833134215,444.89128554482375 L418.75309374643433,447.5393730371344 M418.75309374643433,447.5393730371344 L417.38633141734164,450.07221179875063 M417.38633141734164,450.07221179875063 L415.0094855622024,452.34259692858393 M415.0094855622024,452.34259692858393 L411.7606956253797,454.21856419735684 M411.7606956253797,454.21856419735684 L407.8287603404248,455.5910826436681 M407.8287603404248,455.5910826436681 L403.44221152220973,456.3803671553909 M403.44221152220973,456.3803671553909 L398.8559942270218,456.5405551895277 M398.8559942270218,456.5405551895277 L394.3366468649348,456.06233109488113 M394.3366468649348,456.06233109488113 L390.14686576808526,454.9734864840121 M390.14686576808526,454.9734864840121 L386.5301373256874,453.3373112166166 M413.4903336903647,670.4226858208484 L416.3254443194576,672.5132742019517 M416.3254443194576,672.5132742019517 L418.2122065915406,674.9351052725383 M418.2122065915406,674.9351052725383 L419.0409528668739,677.5474526306757 M419.0409528668739,677.5474526306757 L418.76350930343585,680.1984835097234 M418.76350930343585,680.1984835097234 L417.3959876534962,682.7341375749114 M417.3959876534962,682.7341375749114 L415.0178212493571,685.0070463000683 M415.0178212493571,685.0070463000683 L411.7672262788178,686.8850987682295 M411.7672262788178,686.8850987682295 L407.8331063723557,688.2591428199084 M407.8331063723557,688.2591428199084 L403.44412032463697,689.0493046530268 M403.44412032463697,689.0493046530268 L398.8553548524591,689.2096707427911 M398.8553548524591,689.2096707427911 L394.33349647028535,688.7309150824792 M394.33349647028535,688.7309150824792 L390.14138747909635,687.6408601785015 M390.14138747909635,687.6408601785015 L386.52264955971856,686.0028662446201 M386.52264955971856,686.0028662446201 L383.6875963639257,683.9121432416305 M383.6875963639257,683.9121432416305 L381.80099323456585,681.4902083894801 M381.80099323456585,681.4902083894801 L380.9724713546902,678.8778118649115 M380.9724713546902,678.8778118649115 L381.2501531585341,676.2267976983873 M381.2501531585341,676.2267976983873 L382.61787231695655,673.6912223959052 M382.61787231695655,673.6912223959052 L384.9961502505068,671.41843644028 M384.9961502505068,671.41843644028 L388.2467452210461,669.5405226230702 M388.2467452210461,669.5405226230702 L392.1807535980973,668.1666013408015 M392.1807535980973,668.1666013408015 L396.56954213733303,667.3765182696967 M396.56954213733303,667.3765182696967 L401.158069369105,667.2161688924816 M401.158069369105,667.2161688924816 L405.679703355821,667.6948753867962 M405.679703355821,667.6948753867962 L409.87165320428676,668.7848265090646 M409.87165320428676,668.7848265090646 L413.4903336903647,670.4226858208484 M587.931616743418,554.0662520994274 L591.5485051252159,552.4293023875773 M591.5485051252159,552.4293023875773 L595.7387669854396,551.3399565775206 M595.7387669854396,551.3399565775206 L600.2589151823794,550.8615159358104 M600.2589151823794,550.8615159358104 L604.8462451644476,551.0217762620437 M604.8462451644476,551.0217762620437 L609.2341945564743,551.8114205553106 M609.2341945564743,551.8114205553106 L613.1677706572638,553.1845788193751 M613.1677706572638,553.1845788193751 L616.418365343778,555.0614497180385 M616.418365343778,555.0614497180385 L618.7970750077388,557.3329734526078 M618.7970750077388,557.3329734526078 L620.1656328315277,559.8671405824965 M620.1656328315277,559.8671405824965 L620.4445115017106,562.5166824564853 M620.4445115017106,562.5166824564853 L619.6174751503777,565.1276281264717 M619.6174751503777,565.1276281264717 L617.7325598813055,567.548217893239 M617.7325598813055,567.548217893239 L614.8992987940281,569.6377797518293 M614.8992987940281,569.6377797518293 L611.2823530755054,571.2748639736446 M611.2823530755054,571.2748639736446 L607.0919322108031,572.3643134789666 M607.0919322108031,572.3643134789666 L602.5715597666499,572.8428032457217 M602.5715597666499,572.8428032457217 L597.9839916684577,572.6825262208598 M597.9839916684577,572.6825262208598 L593.5958448397979,571.8928032311835 M593.5958448397979,571.8928032311835 L589.6621572125536,570.5195222999682 M589.6621572125536,570.5195222999682 L586.4115624594255,568.6425128658412 M586.4115624594255,568.6425128658412 L584.0329642039516,566.3708664640001 M584.0329642039516,566.3708664640001 L582.6646037411141,563.83662063701 M582.6646037411141,563.83662063701 L582.3859631709959,561.1870620644181 M582.3859631709959,561.1870620644181 L583.2132238167856,558.5761655199102 M583.2132238167856,558.5761655199102 L585.098298190059,556.1556794482632 M585.098298190059,556.1556794482632 L587.931616743418,554.0662520994274 M203.83374919106953,579.5214132945455 L206.58073725005198,576.2269303309386 M206.58073725005198,576.2269303309386 L209.3277877735803,572.9323895154192 M209.3277877735803,572.9323895154192 L212.07488156037934,569.6377797518292 M394.77479373368135,463.221556766525 L392.02663100305944,459.92686978786935 M392.02663100305944,459.92686978786935 L389.2784057999692,456.63212496789913 M389.2784057999692,456.63212496789913 L386.5301373256874,453.3373112166166 M405.2415222031623,689.8369972240672 L407.99111160330136,683.3655883630396 M407.99111160330136,683.3655883630396 L410.7407218365059,676.8941475287139 M410.7407218365059,676.8941475287139 L413.4903336903647,670.4226858208484 M596.1769041916766,573.4758842591547 L593.4284894632724,567.0060351312251 M593.4284894632724,567.0060351312251 L590.6800539097162,560.5361540467848 M590.6800539097162,560.5361540467848 L587.931616743418,554.0662520994274 M454.38295136432293,530.4455458311655 L454.3925145246723,383.19449916491095 M446.06471088078257,381.43497755663816 L454.3925145246723,383.19449916491095 M345.62112625521905,385.59839725058805 L359.9708450250485,382.23984508255967 M359.9708450250485,382.23984508255967 L376.57518361865004,379.82856075092275 M376.57518361865004,379.82856075092275 L392.67570603119117,378.5817474241094 M392.67570603119117,378.5817474241094 L407.4737692204993,378.25824435515364 M407.4737692204993,378.25824435515364 L421.99551679376,378.70456188536497 M421.99551679376,378.70456188536497 L434.56407672635254,379.7717202934633 M434.56407672635254,379.7717202934633 L446.06471088078257,381.43497755663816 M345.61281180857094,446.00082076083936 L334.419287568343,441.5607480835592 M334.419287568343,441.5607480835592 L326.85072071110835,434.77202368342125 M326.85072071110835,434.77202368342125 L323.3250823730805,426.0099857445541 M323.3250823730805,426.0099857445541 L323.77429655985645,416.8354179536625 M323.77429655985645,416.8354179536625 L327.1021683850369,407.88510064298987 M327.1021683850369,407.88510064298987 L333.07716750806605,398.614483676585 M333.07716750806605,398.614483676585 L338.79154722098406,392.04249422623184 M338.79154722098406,392.04249422623184 L345.62112625521905,385.59839725058805 M454.40051668407824,448.40489913121706 L440.200109009187,458.00122772007074 M440.200109009187,458.00122772007074 L423.77816203308964,464.34014906074555 M423.77816203308964,464.34014906074555 L407.8474052011308,466.96638696999526 M407.8474052011308,466.96638696999526 L393.18849730868766,466.72908160387 M393.18849730868766,466.72908160387 L378.77723115262535,464.034089595063 M378.77723115262535,464.034089595063 L365.1370483152718,458.9793181418155 M365.1370483152718,458.9793181418155 L354.8156735831735,453.15950396542917 M354.8156735831735,453.15950396542917 L345.61281180857094,446.00082076083936 M461.60462362795465,390.40600304592016 L470.72559792861716,402.69302366078523 M470.72559792861716,402.69302366078523 L475.86325607402665,414.7756207265126 M475.86325607402665,414.7756207265126 L476.83708042730404,424.91181302880614 M476.83708042730404,424.91181302880614 L474.71136920762683,433.03727579811743 M474.71136920762683,433.03727579811743 L469.8199025176896,439.90501908703646 M469.8199025176896,439.90501908703646 L463.0853974016975,444.86296342872663 M463.0853974016975,444.86296342872663 L454.40051668407824,448.40489913121706 M454.3925145246723,383.19449916491095 L461.60462362795465,390.40600304592016 M345.6118023072884,242.0306809623013 L356.03688306241446,249.57527859917485 M356.03688306241446,249.57527859917485 L367.53144481738104,260.7550360860651 M367.53144481738104,260.7550360860651 L383.43608136095025,280.0323610114035 M383.43608136095025,280.0323610114035 L400.0067423298457,304.0921069907514 M345.62112625521905,385.59839725058805 L323.3016841677217,315.32221842851175 M323.3016841677217,315.32221842851175 L317.05948191286564,274.4650191354225 M317.05948191286564,274.4650191354225 L317.4886820380726,258.6861413128148 M317.4886820380726,258.6861413128148 L319.44123264498023,249.5981429831446 M319.44123264498023,249.5981429831446 L322.6940890125789,243.122321432185 M322.6940890125789,243.122321432185 L326.3756801165633,239.6745995791547 M326.3756801165633,239.6745995791547 L330.5332325315103,238.099723932953 M330.5332325315103,238.099723932953 L334.8563252616941,238.02577600855332 M334.8563252616941,238.02577600855332 L339.6948065879432,239.22547420113904 M339.6948065879432,239.22547420113904 L342.5835483552357,240.4354213594419 M342.5835483552357,240.4354213594419 L345.6118023072884,242.0306809623013 M446.06471088078257,381.43497755663816 L430.9122369873488,63.74899203220474 M430.9122369873488,63.74899203220474 L444.0691289890885,61.740928358188796 M444.0691289890885,61.740928358188796 L453.72506910495576,59.60298616875207 M453.72506910495576,59.60298616875207 L459.3187015058373,57.459413878066016 M459.3187015058373,57.459413878066016 L460.52460021404045,55.43472127185743 M460.52460021404045,55.43472127185743 L457.2722863918789,53.64664722833356 M457.2722863918789,53.64664722833356 L449.7503987358652,52.19909654803263 M449.7503987358652,52.19909654803263 L438.3958110401114,51.176266400352404 M438.3958110401114,51.176266400352404 L423.8682945498744,50.63763929786171 M423.8682945498744,50.63763929786171 L407.01223313055266,50.61457434329833 M407.01223313055266,50.61457434329833 L388.80751163892904,51.10840441902434 M388.80751163892904,51.10840441902434 L370.312484731608,52.090420558003416 M370.312484731608,52.090420558003416 L352.6024306394733,53.503554383520395 M352.6024306394733,53.503554383520395 L336.70693592172665,55.26563130233785 M336.70693592172665,55.26563130233785 L323.54997124701686,57.27421772561303 M323.54997124701686,57.27421772561303 L313.8961830052955,59.41250703043943 M313.8961830052955,59.41250703043943 L308.3064207453051,61.556190054896206 M308.3064207453051,61.556190054896206 L307.10522865410894,63.58072887808959 M307.10522865410894,63.58072887808959 L310.3620025289057,65.36841707974855 M310.3620025289057,65.36841707974855 L317.887085636985,66.81544038532729 M317.887085636985,66.81544038532729 L329.24287584290636,67.83772457816815 M329.24287584290636,67.83772457816815 L343.7693264220741,68.37590112176338 M343.7693264220741,68.37590112176338 L360.6222939943589,68.39874274153874 M360.6222939943589,68.39874274153874 L378.8226035683124,67.90494315940066 M378.8226035683124,67.90494315940066 L397.3129074980782,66.9231923838729 M397.3129074980782,66.9231923838729 L415.0190047311797,65.5105315177027 M415.0190047311797,65.5105315177027 L430.9122369873488,63.74899203220474 M400.0067423298457,304.0921069907514 L420.0981347223055,279.04871479876624 M420.0981347223055,279.04871479876624 L432.5071707926944,267.7101344222637 M432.5071707926944,267.7101344222637 L442.01150633981206,261.69813982139976 M442.01150633981206,261.69813982139976 L449.1740116024459,259.1911192284924 M449.1740116024459,259.1911192284924 L455.0804885616696,258.93966597120277 M455.0804885616696,258.93966597120277 L460.2028915141291,260.6826577011163 M460.2028915141291,260.6826577011163 L464.46832601981447,264.3952077975275 M464.46832601981447,264.3952077975275 L467.81610781978986,270.02437899591445 M467.81610781978986,270.02437899591445 L470.1986299623382,277.4899799181648 M470.1986299623382,277.4899799181648 L471.8172915220563,290.1134060741077 M471.8172915220563,290.1134060741077 L471.4680429393872,307.5874786773207 M471.4680429393872,307.5874786773207 L467.46035367415516,335.32443336824304 M467.46035367415516,335.32443336824304 L461.9176960799976,358.61222439172127 M461.9176960799976,358.61222439172127 L454.3925145246723,383.19449916491095 M345.6118023072884,242.0306809623013 L221.53103780634854,121.70206855776308 M221.53103780634854,121.70206855776308 L228.17724621772587,125.27648994697626 M228.17724621772587,125.27648994697626 L231.69907679247913,132.0493177789831 M231.69907679247913,132.0493177789831 L231.89157606568472,141.62717800011023 M231.89157606568472,141.62717800011023 L228.7432836801795,153.45354121916202 M228.7432836801795,153.45354121916202 L222.4369753339021,166.84111423892733 M222.4369753339021,166.84111423892733 L213.33909065864856,181.011739134534 M213.33909065864856,181.011739134534 L201.978439091001,195.14160375450382 M201.978439091001,195.14160375450382 L189.01543362138688,208.40926683313128 M189.01543362138688,208.40926683313128 L175.20370235660974,220.04336369612705 M175.20370235660974,220.04336369612705 L161.34621951495458,229.36761240109004 M161.34621951495458,229.36761240109004 L148.2485588377213,235.84000044401046 M148.2485588377213,235.84000044401046 L136.6720465016167,239.08451346519212 M136.6720465016167,239.08451346519212 L127.2894665097042,238.91276303754356 M127.2894665097042,238.91276303754356 L120.64597418571094,235.33500510042742 M120.64597418571094,235.33500510042742 L117.12741203507608,228.55944392627475 M117.12741203507608,228.55944392627475 L116.93800659981105,218.98008934777377 M116.93800659981105,218.98008934777377 L120.08850466014849,207.15378511782123 M120.08850466014849,207.15378511782123 L126.39561191920814,193.76783270846818 M126.39561191920814,193.76783270846818 L135.49271423515228,179.6000378022075 M135.49271423515228,179.6000378022075 L146.8511850959261,165.47353561888042 M146.8511850959261,165.47353561888042 L159.81111108586472,152.20900823094615 M159.81111108586472,152.20900823094615 L173.6195658688467,140.57709982274753 M173.6195658688467,140.57709982274753 L187.47432212782604,131.2535888552922 M187.47432212782604,131.2535888552922 L200.57043554907347,124.7803215911909 M200.57043554907347,124.7803215911909 L212.14693922104962,121.53351104401622 M212.14693922104962,121.53351104401622 L221.53103780634854,121.70206855776308 M345.61281180857094,446.00082076083936 L331.9977580362496,411.066283086748 M331.9977580362496,411.066283086748 L328.0452719358073,377.9991935534264 M328.0452719358073,377.9991935534264 L330.0107138690689,357.400310902882 M330.0107138690689,357.400310902882 L333.8096940375471,343.27377186515423 M333.8096940375471,343.27377186515423 L338.41646056211687,332.6947514103114 M338.41646056211687,332.6947514103114 L343.1876925671934,324.8702955896153 M343.1876925671934,324.8702955896153 L348.14940033923017,318.69445571452246 M348.14940033923017,318.69445571452246 L353.68662244880346,313.4105951519064 M353.68662244880346,313.4105951519064 L359.73787444116516,309.0773537186268 M359.73787444116516,309.0773537186268 L366.23595784491715,305.74281614060874 M366.23595784491715,305.74281614060874 L373.10871235254587,303.44399035594245 M373.10871235254587,303.44399035594245 L382.72280997438486,302.0323324999974 M382.72280997438486,302.0323324999974 L391.3009912117422,302.3518914103444 M391.3009912117422,302.3518914103444 L400.0067423298457,304.0921069907514 M454.40984342979294,304.82641209077144 L443.98193406401396,300.33532789964363 M443.98193406401396,300.33532789964363 L432.48494861987723,298.2452509642162 M432.48494861987723,298.2452509642162 L416.5781605933214,299.16194714104614 M416.5781605933214,299.16194714104614 L400.0067423298457,304.0921069907514 M454.40984342979294,304.82641209077144 L463.33771549694904,261.25108456895197 M463.33771549694904,261.25108456895197 L476.5031387959603,274.0979914791084 M476.5031387959603,274.0979914791084 L486.16468186788416,289.60555247367085 M486.16468186788416,289.60555247367085 L491.76083435832317,306.8725908725169 M491.76083435832317,306.8725908725169 L492.9662831514701,324.895730384495 M492.9662831514701,324.895730384495 L489.7108912118192,342.6275124004335 M489.7108912118192,342.6275124004335 L482.18375791644314,359.03744920683846 M482.18375791644314,359.03744920683846 L470.82225359788947,373.17176743827747 M470.82225359788947,373.17176743827747 L456.28661257241936,384.20895813368554 M456.28661257241936,384.20895813368554 L439.4216073982739,391.5074948631678 M439.4216073982739,391.5074948631678 L421.2074254639209,394.6431337512294 M421.2074254639209,394.6431337512294 L402.70267952879,393.433574823183 M402.70267952879,393.433574823183 L384.9829098786176,387.94911952795945 M384.9829098786176,387.94911952795945 L369.07799576878983,378.50853856722597 M369.07799576878983,378.50853856722597 L355.91234662250844,365.66056019659237 M355.91234662250844,365.66056019659237 L346.2511085819655,350.1519471423452 M346.2511085819655,350.1519471423452 L340.65573544133963,332.88412051232484 M340.65573544133963,332.88412051232484 L339.4513569620184,314.8606399467355 M339.4513569620184,314.8606399467355 L342.7078697998159,297.129044960056 M342.7078697998159,297.129044960056 L350.23591408007644,280.71977827998546 M350.23591408007644,280.71977827998546 L361.597907074044,266.5864576157421 M361.597907074044,266.5864576157421 L376.1335025160404,255.55035230002375 M376.1335025160404,255.55035230002375 L392.99794199403766,248.2527730086702 M392.99794199403766,248.2527730086702 L411.2111666126585,245.11772953452896 M411.2111666126585,245.11772953452896 L429.71478662725445,246.3273581073829 M429.71478662725445,246.3273581073829 L447.43352449313403,251.81136930606695 M447.43352449313403,251.81136930606695 L463.33771549694904,261.25108456895197 M454.40051668407824,448.40489913121706 L476.7280299951245,403.89461407577966 M476.7280299951245,403.89461407577966 L482.97298154856094,370.23767325770933 M482.97298154856094,370.23767325770933 L482.54358550243137,353.95952751765196 M482.54358550243137,353.95952751765196 L480.5901564307174,342.61464011943895 M480.5901564307174,342.61464011943895 L477.33588331010213,332.38106794487817 M477.33588331010213,332.38106794487817 L473.65275917292337,324.68132429885736 M473.65275917292337,324.68132429885736 L469.4935654685229,318.3053517903176 M469.4935654685229,318.3053517903176 L465.16886726488934,313.23957890621307 M465.16886726488934,313.23957890621307 L460.328711379068,308.8526955344182 M460.328711379068,308.8526955344182 L457.43903143232666,306.72739306049556 M457.43903143232666,306.72739306049556 L454.40984342979294,304.82641209077144 M461.60462362795465,390.40600304592016 L672.7007662496801,203.22792793771578 M672.7007662496801,203.22792793771578 L679.3559404257982,218.0007999976082 M679.3559404257982,218.0007999976082 L682.8881749914723,231.66997421887322 M682.8881749914723,231.66997421887322 L683.0920224299156,243.4411643045604 M683.0920224299156,243.4411643045604 L679.9553967280422,252.63020236235857 M679.9553967280422,252.63020236235857 L673.6603270694967,258.70289571740636 M673.6603270694967,258.70289571740636 L664.5724151992637,261.3060511614775 M664.5724151992637,261.3060511614775 L653.2196584512469,260.28807418334617 M653.2196584512469,260.28807418334617 L640.2617826492498,255.7078774683435 M640.2617826492498,255.7078774683435 L626.4519459320292,247.83151889939992 M626.4519459320292,247.83151889939992 L612.5929329720433,237.11667981671016 M612.5929329720433,237.11667981671016 L599.4904293211905,224.1862328655351 M599.4904293211905,224.1862328655351 L587.9061708197087,209.79183310925595 M587.9061708197087,209.79183310925595 L578.5136136106768,194.77032884192366 M578.5136136106768,194.77032884192366 L571.8587089137159,179.99502178264544 M571.8587089137159,179.99502178264544 L568.3281945656638,166.32478413080267 M568.3281945656638,166.32478413080267 L568.1271021856251,154.55418058856807 M568.1271021856251,154.55418058856807 L571.266891444595,145.3672111543379 M571.266891444595,145.3672111543379 L577.5648217327007,139.29761212313304 M577.5648217327007,139.29761212313304 L586.654627456761,136.69788811970443 M586.654627456761,136.69788811970443 L598.0078737268385,137.7188146632858 M598.0078737268385,137.7188146632858 L610.9647225729206,142.3008144585279 M610.9647225729206,142.3008144585279 L624.772254822793,150.17741869666145 M624.772254822793,150.17741869666145 L638.6282174361893,160.89089189088648 M638.6282174361893,160.89089189088648 L651.7276188534905,173.81867153659474 M651.7276188534905,173.81867153659474 L663.3094291140819,188.20971638659668 M663.3094291140819,188.20971638659668 L672.7007662496801,203.22792793771578 M423.063270353003,63.04218038195728 L434.0273485592671,61.36874940990316 M434.0273485592671,61.36874940990316 L442.073817867717,59.587124192876445 M442.073817867717,59.587124192876445 L446.7348998785925,57.80079885998964 M446.7348998785925,57.80079885998964 L447.7394918319216,56.11357125076904 M447.7394918319216,56.11357125076904 L445.02893063505064,54.62353846106919 M445.02893063505064,54.62353846106919 L438.76046783512544,53.417269259400314 M438.76046783512544,53.417269259400314 L429.2982246708789,52.564965368290245 M429.2982246708789,52.564965368290245 L417.1920408780809,52.11614340757001 M417.1920408780809,52.11614340757001 L403.14552944113996,52.0969173641119 M403.14552944113996,52.0969173641119 L387.9752341822355,52.50843025381067 M387.9752341822355,52.50843025381067 L372.56304142201554,53.32677355239167 M372.56304142201554,53.32677355239167 L357.8049371822063,54.504348905889685 M357.8049371822063,54.504348905889685 L344.5588514497962,55.972719602047846 M344.5588514497962,55.972719602047846 L333.59472130949575,57.64650673623112 M333.59472130949575,57.64650673623112 L325.54974782272825,59.428372157067656 M325.54974782272825,59.428372157067656 L320.8913486094513,61.214777159769596 M320.8913486094513,61.214777159769596 L319.89002513808606,62.90189797542058 M319.89002513808606,62.90189797542058 L322.6036869294629,64.39166474376839 M322.6036869294629,64.39166474376839 L328.87437693169,65.5975668652793 M328.87437693169,65.5975668652793 L338.3374551714962,66.44950271823217 M338.3374551714962,66.44950271823217 L350.4428954149394,66.89801757224132 M350.4428954149394,66.89801757224132 L364.4872550105425,66.91706779513629 M364.4872550105425,66.91706779513629 L379.654483102354,66.50555920423596 M379.654483102354,66.50555920423596 L395.0633912157175,65.68742175823616 M395.0633912157175,65.68742175823616 L409.8187591082202,64.51015713567926 M409.8187591082202,64.51015713567926 L423.063270353003,63.04218038195728 M213.6779696682284,131.46914260526978 L219.21628760105023,134.44804688422676 M219.21628760105023,134.44804688422676 L222.15091875992513,140.09226398807317 M222.15091875992513,140.09226398807317 L222.3111183333211,148.07390301668545 M222.3111183333211,148.07390301668545 L219.68738766652066,157.9292122120825 M219.68738766652066,157.9292122120825 L214.43208047342063,169.08543312573866 M214.43208047342063,169.08543312573866 L206.85056470472298,180.8940842868339 M206.85056470472298,180.8940842868339 L197.38350332129892,192.66872496735894 M197.38350332129892,192.66872496735894 L186.58121700243376,203.72490481547734 M186.58121700243376,203.72490481547734 L175.0716648645575,213.41982771878355 M175.0716648645575,213.41982771878355 L163.5239550787997,221.18997450032853 M163.5239550787997,221.18997450032853 L152.60933889963505,226.58370893466306 M152.60933889963505,226.58370893466306 L142.9622478056968,229.2876097663586 M142.9622478056968,229.2876097663586 L135.14332533631824,229.14471669096173 M135.14332533631824,229.14471669096173 L129.6068902326379,226.16347848686178 M129.6068902326379,226.16347848686178 L126.6745402962427,220.51736770269395 M126.6745402962427,220.51736770269395 L126.51648441075383,212.53467489383036 M126.51648441075383,212.53467489383036 L129.14174346387028,202.67942739173276 M129.14174346387028,202.67942739173276 L134.3976087981149,191.52435263249384 M134.3976087981149,191.52435263249384 L141.97858459379228,179.71766095990034 M141.97858459379228,179.71766095990034 L151.4441315947846,167.9453442062354 M151.4441315947846,167.9453442062354 L162.24428085703863,156.89133722641805 M162.24428085703863,156.89133722641805 L173.7515543249838,147.19793215643884 M173.7515543249838,147.19793215643884 L185.29737065137363,139.42829769112325 M185.29737065137363,139.42829769112325 L196.2109075415525,134.0339554603761 M196.2109075415525,134.0339554603761 L205.85799408626758,131.32845827724492 M205.85799408626758,131.32845827724492 L213.6779696682284,131.46914260526978 M455.4831351951384,271.0220548838795 L466.45433489299955,281.72788516014253 M466.45433489299955,281.72788516014253 L474.50560007483267,294.65090694295134 M474.50560007483267,294.65090694295134 L479.169001558858,309.0401723686912 M479.169001558858,309.0401723686912 L480.17347109865574,324.05946973049646 M480.17347109865574,324.05946973049646 L477.4605733834409,338.8359419482189 M477.4605733834409,338.8359419482189 L471.18788976070675,352.5108521911755 M471.18788976070675,352.5108521911755 L461.71993235414016,364.28937958885166 M461.71993235414016,364.28937958885166 L449.60691060810177,373.48696955903074 M449.60691060810177,373.48696955903074 L435.5527737757684,379.56901481026796 M435.5527737757684,379.56901481026796 L420.37435818421926,382.18199573024077 M420.37435818421926,382.18199573024077 L404.9538211724855,381.17402804833284 M404.9538211724855,381.17402804833284 L390.1874059716858,376.60367909205206 M390.1874059716858,376.60367909205206 L376.93336717191664,368.7365952346492 M376.93336717191664,368.7365952346492 L365.9620121035692,358.03001233353547 M365.9620121035692,358.03001233353547 L357.91095728290344,345.10626080066095 M357.91095728290344,345.10626080066095 L353.2481018187485,330.7164452182447 M353.2481018187485,330.7164452182447 L352.24437555289194,315.69691101383444 M352.24437555289194,315.69691101383444 L354.9580483325999,300.92056675137115 M354.9580483325999,300.92056675137115 L361.2313564388,287.24612272066554 M361.2313564388,287.24612272066554 L370.6996532045446,275.4682991780278 M370.6996532045446,275.4682991780278 L382.8126466326453,266.2714725779923 M382.8126466326453,266.2714725779923 L396.86639395701553,260.19007533252915 M396.86639395701553,260.19007533252915 L412.04414808372445,257.57748716095983 M412.04414808372445,257.57748716095983 L427.46390801173277,258.5855192403936 M427.46390801173277,258.5855192403936 L442.2295952154164,263.15555532536706 M442.2295952154164,263.15555532536706 L455.4831351951384,271.0220548838795 M664.8533121908314,202.52326273141986 L670.3992748482842,214.8341465394998 M670.3992748482842,214.8341465394998 L673.3426720914308,226.2252133115881 M673.3426720914308,226.2252133115881 L673.5123568736475,236.0344891933093 M673.5123568736475,236.0344891933093 L670.8982853188011,243.6918840914064 M670.8982853188011,243.6918840914064 L665.6521972202232,248.7522510491538 M665.6521972202232,248.7522510491538 L658.0788029266031,250.92129880568405 M658.0788029266031,250.92129880568405 L648.6181350923499,250.07278533506445 M648.6181350923499,250.07278533506445 L637.8199794509851,246.25582374092428 M637.8199794509851,246.25582374092428 L626.3119419074998,239.6921706271537 M626.3119419074998,239.6921706271537 L614.762979513385,230.76323846802492 M614.762979513385,230.76323846802492 L603.8444403531433,219.9880429476189 M603.8444403531433,219.9880429476189 L594.1910621139763,207.99296107437814 M594.1910621139763,207.99296107437814 L586.3640169749909,195.47526998139426 M586.3640169749909,195.47526998139426 L580.8182447953355,183.16267447220775 M580.8182447953355,183.16267447220775 L577.8760306730326,171.77088692648928 M577.8760306730326,171.77088692648928 L577.7082639322864,161.96199678927587 M577.7082639322864,161.96199678927587 L580.3245357317313,154.30605531407568 M580.3245357317313,154.30605531407568 L585.5726070378767,149.24785407290108 M585.5726070378767,149.24785407290108 L593.147313171782,147.08117962801742 M593.147313171782,147.08117962801742 L602.6083209542553,147.93173031066073 M602.6083209542553,147.93173031066073 L613.40576196741,151.74994874242952 M613.40576196741,151.74994874242952 L624.9122025229764,158.31377438298063 M624.9122025229764,158.31377438298063 L636.4590466216556,167.24175800842048 M636.4590466216556,167.24175800842048 L647.3754362542296,178.01509846084844 M647.3754362542296,178.01509846084844 L657.0271128601167,190.00785138783988 M657.0271128601167,190.00785138783988 L664.8533121908314,202.52326273141986 M428.46082999747256,176.2105205949564 L439.4252340052779,174.53912569070818 M439.4252340052779,174.53912569070818 L447.4719860836014,172.7599514340645 M447.4719860836014,172.7599514340645 L452.1333009993144,170.976365565195 M452.1333009993144,170.976365565195 L453.1380435188861,169.292049974078 M453.1380435188861,169.292049974078 L450.42756044035974,167.80486694936937 M450.42756044035974,167.80486694936937 L444.1591032817921,166.60128814970008 M444.1591032817921,166.60128814970008 L434.69677881816324,165.7512743704676 M434.69677881816324,165.7512743704676 L422.5904315014549,165.30427437397293 M422.5904315014549,165.30427437397293 L408.54370275398645,165.2862904953701 M408.54370275398645,165.2862904953701 L393.3731255761285,165.69838029755644 M393.3731255761285,165.69838029755644 L377.9606122872993,166.51658570314535 M377.9606122872993,166.51658570314535 L363.2021699519704,167.6933479680122 M363.2021699519704,167.6933479680122 L349.955736347038,169.160240770203 M349.955736347038,169.160240770203 L338.99128757629796,170.83199260806967 M338.99128757629796,170.83199260806967 L330.946031355051,172.61140651789606 M330.946031355051,172.61140651789606 L326.2874017303884,174.39506476641645 M326.2874017303884,174.39506476641645 L325.2859230185195,176.07927624270195 M325.2859230185195,176.07927624270195 L327.9995020260255,177.56619067426945 M327.9995020260255,177.56619067426945 L334.2701864964327,178.76940838470085 M334.2701864964327,178.76940838470085 L343.7333461003441,179.6190436188536 M343.7333461003441,179.6190436188536 L355.8389498657576,180.0657315655173 M355.8389498657576,180.0657315655173 L369.8835315107963,180.08355396246935 M369.8835315107963,180.08355396246935 L385.0510414082623,179.67147979047775 M385.0510414082623,179.67147979047775 L400.4602795177558,178.853469086616 M400.4602795177558,178.853469086616 L415.2159781756118,177.67703247172537 M415.2159781756118,177.67703247172537 L428.46082999747256,176.2105205949564 M428.46082999747256,176.2105205949564 L423.063270353003,63.04218038195728 M288.8830843434438,204.3987605425082 L294.422777027346,207.3791924462772 M294.422777027346,207.3791924462772 L297.35897644480553,213.02470314430568 M297.35897644480553,213.02470314430568 L297.52083479978677,221.0073771183482 M297.52083479978677,221.0073771183482 L294.89877809359854,230.86335729887287 M294.89877809359854,230.86335729887287 L289.6450531459063,242.01986222024175 M289.6450531459063,242.01986222024175 L282.0649407303222,253.82841788372772 M282.0649407303222,253.82841788372772 L272.59901289616147,265.60258928226625 M272.59901289616147,265.60258928226625 L261.7975243974617,276.65788805759905 M261.7975243974617,276.65788805759905 L250.28840210449002,286.3516538814414 M250.28840210449002,286.3516538814414 L238.74070543898605,294.1203774031722 M238.74070543898605,294.1203774031722 L227.8257227832487,299.51253811587014 M227.8257227832487,299.51253811587014 L218.17786932543382,302.2147956274631 M218.17786932543382,302.2147956274631 L210.35784254440543,302.0702580488419 M210.35784254440543,302.0702580488419 L204.82003472838443,299.08750775229294 M204.82003472838443,299.08750775229294 L201.8861090691946,293.4400968129493 M201.8861090691946,293.4400968129493 L201.72639432264344,285.45637500477807 M201.72639432264344,285.45637500477807 L204.34997951624817,275.60044573721797 M204.34997951624817,275.60044573721797 L209.60425806764215,264.4450732691035 M209.60425806764215,264.4450732691035 L217.18384048915837,252.63847707756344 M217.18384048915837,252.63847707756344 L226.64825433222185,240.86664050620524 M226.64825433222185,240.86664050620524 L237.4475964852575,229.81351425769904 M237.4475964852575,229.81351425769904 L248.9544450854429,220.12126864468965 M248.9544450854429,220.12126864468965 L260.5002434756159,212.35305984646533 M260.5002434756159,212.35305984646533 L271.4141586629606,206.96028970031858 M271.4141586629606,206.96028970031858 L281.0620072420607,204.2564357579386 M281.0620072420607,204.2564357579386 L288.8830843434438,204.3987605425082 M288.8830843434438,204.3987605425082 L213.6779696682284,131.46914260526978 M450.0730902855386,297.43284383036115 L461.04221681263397,308.13675156479815 M461.04221681263397,308.13675156479815 L469.0919513079915,321.0574867319507 M469.0919513079915,321.0574867319507 L473.75445355622657,335.44421277926153 M473.75445355622657,335.44421277926153 L474.7586981222025,350.46084948178003 M474.7586981222025,350.46084948178003 L472.04627451976404,365.2347313519972 M472.04627451976404,365.2347313519972 L465.7747365756505,378.90721726008843 M465.7747365756505,378.90721726008843 L456.30852051226196,390.6836979285383 M456.30852051226196,390.6836979285383 L444.1977345886889,399.87969399875305 M444.1977345886889,399.87969399875305 L430.14621225618237,405.9606937722248 M430.14621225618237,405.9606937722248 L414.9706237448541,408.5732465768413 M414.9706237448541,408.5732465768413 L399.5529572705824,407.56549580711754 M399.5529572705824,407.56549580711754 L384.78931748614906,402.9959798664065 M384.78931748614906,402.9959798664065 L371.5377693870268,395.1303130261811 M371.5377693870268,395.1303130261811 L360.56848034478713,384.4256515522923 M360.56848034478713,384.4256515522923 L352.5189561314117,371.5041869012532 M352.5189561314117,371.5041869012532 L347.85699729584144,357.11691783007495 M347.85699729584144,357.11691783007495 L346.85350053423326,342.1000415955369 M346.85350053423326,342.1000415955369 L349.5667037139393,327.3262904055568 M349.5667037139393,327.3262904055568 L355.8388659091943,313.6542649933986 M355.8388659091943,313.6542649933986 L365.3054212016045,301.8784768272697 M365.3054212016045,301.8784768272697 L377.4161788162855,292.6832493969836 M377.4161788162855,292.6832493969836 L391.4673069805755,286.6029057160279 M391.4673069805755,286.6029057160279 L406.64223427330325,283.9907566140499 M406.64223427330325,283.9907566140499 L422.05911434538393,284.9985606652569 M422.05911434538393,284.9985606652569 L436.8220336112538,289.56777078446555 M436.8220336112538,289.56777078446555 L450.0730902855386,297.43284383036115 M450.0730902855386,297.43284383036115 L455.4831351951384,271.0220548838795 M589.6407568410889,269.2146178979903 L595.185260933966,281.525230910266 M595.185260933966,281.525230910266 L598.1271277191621,292.9163865727225 M598.1271277191621,292.9163865727225 L598.2952708298649,302.72612219357603 M598.2952708298649,302.72612219357603 L595.679764249575,310.3843046723753 M595.679764249575,310.3843046723753 L590.4324263852911,315.44574409063335 M590.4324263852911,315.44574409063335 L582.8580261218148,317.6160950510913 M582.8580261218148,317.6160950510913 L573.3966687383229,316.7690205628071 M573.3966687383229,316.7690205628071 L562.5981800592277,312.9535938548701 M562.5981800592277,312.9535938548701 L551.0901760542587,306.39142241621977 M551.0901760542587,306.39142241621977 L539.5416118102422,297.4638874316771 M539.5416118102422,297.4638874316771 L528.6238239995338,286.68987284025934 M528.6238239995338,286.68987284025934 L518.9714971464743,274.69571399581525 M518.9714971464743,274.69571399581525 L511.14574228884567,262.17865591108045 M511.14574228884567,262.17865591108045 L505.6014265356785,249.86633817817489 M505.6014265356785,249.86633817817489 L502.66075018775837,238.4744463284538 M502.66075018775837,238.4744463284538 L502.4945250496077,228.665112777227 M502.4945250496077,228.665112777227 L505.112231641015,221.00837221594264 M505.112231641015,221.00837221594264 L510.36155717198653,215.94908978516327 M510.36155717198653,215.94908978516327 L517.9372592897181,213.78111183132773 M517.9372592897181,213.78111183132773 L527.3989562952462,214.6302344904655 M527.3989562952462,214.6302344904655 L538.1967397574424,218.4469180948679 M538.1967397574424,218.4469180948679 L549.7031419494465,225.00925953252622 M549.7031419494465,225.00925953252622 L561.2495928571963,233.93584358705402 M561.2495928571963,233.93584358705402 L572.1652194329383,244.70800491168168 M572.1652194329383,244.70800491168168 L581.8158450258154,256.6998351731157 M581.8158450258154,256.6998351731157 L589.6407568410889,269.2146178979903 M589.6407568410889,269.2146178979903 L664.8533121908314,202.52326273141986" stroke="black"  stroke-width="4"  fill="red"/></svg>