<svg viewBox="0 0 800 800" xmlns="http://www.w3.org/2000/svg"><path d="M584.4676491853904,428.26594534825125 L534.9551409054927,405.8713359388835 M534.9551409054927,405.8713359388835 L477.6076298464033,390.9696716402381 M477.6076298464033,390.9696716402381 L415.7551894870039,384.4251570087666 M415.7551894870039,384.4251570087666 L352.9885291573617,386.61729411541126 M352.9885291573617,386.61729411541126 L292.95125071399997,397.4189605267079 M292.95125071399997,397.4189605267079 L239.1290690741145,416.20379026851936 M239.1290690741145,416.20379026851936 L194.64797396223494,441.88221519211737 M194.64797396223494,441.88221519211737 L162.09304750123104,472.96431656874086 M162.09304750123104,472.96431656874086 L143.3582177467137,507.6458664787855 M143.3582177467137,507.6458664787855 L139.53571058238333,543.9126673338512 M139.53571058238333,543.9126673338512 L150.85186434972098,579.6573232829103 M150.85186434972098,579.6573232829103 L176.6529189786153,612.8016342653675 M176.6529189786153,612.8016342653675 L215.44222032621204,641.417546969127 M215.44222032621204,641.417546969127 L264.9664675576588,663.8396659597099 M264.9664675576588,663.8396659597099 L322.34650624410267,678.7625377191918 M322.34650624410267,678.7625377191918 L384.24481119726465,685.3170993368274 M384.24481119726465,685.3170993368274 L447.06016607221494,683.1215470735433 M447.06016607221494,683.1215470735433 L507.137813684311,672.3037857563629 M507.137813684311,672.3037857563629 L560.9827910105175,653.4938684907858 M560.9827910105175,653.4938684907858 L605.4638861187236,627.7871106839086 M605.4638861187236,627.7871106839086 L637.9960168892333,596.6799217887904 M637.9960168892333,596.6799217887904 L656.6904774776215,561.9822769681265 M656.6904774776215,561.9822769681265 L660.4642901037769,525.712060962576 M660.4642901037769,525.712060962576 L649.1022717481756,489.97745198953214 M649.1022717481756,489.97745198953214 L623.2686894910412,456.8543484749354 M623.2686894910412,456.8543484749354 L584.4676491853904,428.26594534825125 M220.28661080503642,537.5814643408006 L221.29502381056565,536.8382482290527 M221.29502381056565,536.8382482290527 L221.9662670404393,535.9772859312594 M221.9662670404393,535.9772859312594 L222.26134269906393,535.0486157684344 M222.26134269906393,535.0486157684344 L222.16308059489307,534.1062035301843 M222.16308059489307,534.1062035301843 L221.67722101104886,533.2048270737358 M221.67722101104886,533.2048270737358 L220.83197547382576,532.3968646048568 M220.83197547382576,532.3968646048568 L219.67648779732934,531.7292712147577 M219.67648779732934,531.7292712147577 L218.27790517890196,531.2408401644717 M218.27790517890196,531.2408401644717 L216.71750804349614,530.9599673373625 M216.71750804349614,530.9599673373625 L215.08596900349943,530.9029594017677 M215.08596900349943,530.9029594017677 L213.47811904186298,531.073144757284 M213.47811904186298,531.073144757284 L211.9873880026309,531.4606194999926 M211.9873880026309,531.4606194999926 L210.70041177465112,532.0428723208186 M210.70041177465112,532.0428723208186 L209.69199085204332,532.7860698585591 M209.69199085204332,532.7860698585591 L209.02072566696336,533.6470178374367 M209.02072566696336,533.6470178374367 L208.72561904473196,534.575681216715 M208.72561904473196,534.575681216715 L208.8238482700282,535.5180957608089 M208.8238482700282,535.5180957608089 L209.30968059213,536.4194830842243 M209.30968059213,536.4194830842243 L210.15491073004574,537.2274624917195 M210.15491073004574,537.2274624917195 L211.3103983973445,537.8950750116559 M211.3103983973445,537.8950750116559 L212.70899639879082,538.3835230007128 M212.70899639879082,538.3835230007128 L214.26942078548922,538.6644066946511 M214.26942078548922,538.6644066946511 L215.90099270214324,538.721416936246 M215.90099270214324,538.721416936246 L217.50887363390962,538.5512247970331 M217.50887363390962,538.5512247970331 L218.99962664211722,538.1637357355214 M218.99962664211722,538.1637357355214 L220.28661080503642,537.5814643408006 M395.2130424369543,431.033723810093 L396.4993894007425,431.61567192467317 M396.4993894007425,431.61567192467317 L397.98954225995845,432.0029458499485 M397.98954225995845,432.0029458499485 L399.59689497058076,432.1730434974026 M399.59689497058076,432.1730434974026 L401.2280412979257,432.11606490826136 M401.2280412979257,432.11606490826136 L402.7881674589418,431.83533716269164 M402.7881674589418,431.83533716269164 L404.1866119358398,431.3471603627155 M404.1866119358398,431.3471603627155 L405.3420996968559,430.6799185044606 M405.3420996968559,430.6799185044606 L406.1874835405222,429.8723876901559 M406.1874835405222,429.8723876901559 L406.67361425135135,428.9715008192412 M406.67361425135135,428.9715008192412 L406.7722692004783,428.0296095048071 M406.7722692004783,428.0296095048071 L406.4776908973785,427.10146171926965 M406.4776908973785,427.10146171926965 L405.8070259176093,426.2409917374407 M405.8070259176093,426.2409917374407 L404.7992422066866,425.49820682101546 M404.7992422066866,425.49820682101546 L403.51290316450695,424.9162772648638 M403.51290316450695,424.9162772648638 L402.02277225518844,424.52901764646856 M402.02277225518844,424.52901764646856 L400.4154504942416,424.3589267770623 M400.4154504942416,424.3589267770623 L398.78433702640893,424.41590306212373 M398.78433702640893,424.41590306212373 L397.22423810677753,424.69661994991293 M397.22423810677753,424.69661994991293 L395.8258090124975,425.1847798252228 M395.8258090124975,425.1847798252228 L394.6703212514813,425.85200256956955 M394.6703212514813,425.85200256956955 L393.82492202519705,426.65951645936286 M393.82492202519705,426.65951645936286 L393.3387640729833,427.5603924723593 M393.3387640729833,427.5603924723593 L393.2400762643441,428.50228148286936 M393.2400762643441,428.50228148286936 L393.53462361776843,429.4304360463052 M393.53462361776843,429.4304360463052 L394.20526664764003,430.29092033512666 M394.20526664764003,430.29092033512666 L395.2130424369543,431.033723810093 M404.8019051494661,638.6467321627731 L403.514851436983,638.0641558078355 M403.514851436983,638.0641558078355 L402.023892637266,637.6764657615098 M402.023892637266,637.6764657615098 L400.41567787877597,637.5061858411306 M400.41567787877597,637.5061858411306 L398.78365819558184,637.5632254536392 M398.78365819558184,637.5632254536392 L397.22269251374604,637.8442543500419 M397.22269251374604,637.8442543500419 L395.8234864755253,638.3329568013249 M395.8234864755253,638.3329568013249 L394.6673567411991,639.0009211461057 M394.6673567411991,639.0009211461057 L393.8214878183085,639.8093325679572 M393.8214878183085,639.8093325679572 L393.3350597557662,640.7112098849736 M393.3350597557662,640.7112098849736 L393.23631710838737,641.6541457870713 M393.23631710838737,641.6541457870713 L393.5310280997193,642.5833319790363 M393.5310280997193,642.5833319790363 L394.20204372365095,643.4447726842212 M394.20204372365095,643.4447726842212 L395.21037941730776,644.1884017766837 M395.21037941730776,644.1884017766837 L396.4974410602041,644.7709967209997 M396.4974410602041,644.7709967209997 L397.9884218342156,645.1587010980646 M397.9884218342156,645.1587010980646 L399.596667576781,645.3289878077954 M399.596667576781,645.3289878077954 L401.2287201560102,645.2719458873645 M401.2287201560102,645.2719458873645 L402.7897131095089,644.990906115074 M402.7897131095089,644.990906115074 L404.18893454744506,644.5021867108998 M404.18893454744506,644.5021867108998 L405.3450642817713,643.8342032203349 M405.3450642817713,643.8342032203349 L406.1909178049464,643.025774845747 M406.1909178049464,643.025774845747 L406.67731859582585,642.1238866527046 M406.67731859582585,642.1238866527046 L406.7760283471697,641.1809484428409 M406.7760283471697,641.1809484428409 L406.4812863717623,640.2517690400775 M406.4812863717623,640.2517690400775 L405.81024877353616,639.3903426657448 M405.81024877353616,639.3903426657448 L404.8019051494661,638.6467321627731 M579.7231492105066,532.0428723208186 L578.715442953619,532.7860698585591 M578.715442953619,532.7860698585591 L578.0450056641876,533.6470178374367 M578.0450056641876,533.6470178374367 L577.7507920533685,534.575681216715 M577.7507920533685,534.575681216715 L577.8499275133263,535.5180957608089 M577.8499275133263,535.5180957608089 L578.3366266179294,536.4194830842243 M578.3366266179294,536.4194830842243 L579.1826337164189,537.2274624917195 M579.1826337164189,537.2274624917195 L580.3387633661762,537.8950750116559 M580.3387633661762,537.8950750116559 L581.7378310637882,538.3835230007128 M581.7378310637882,538.3835230007128 L583.2985255508802,538.6644066946511 M583.2985255508802,538.6644066946511 L584.9301522891171,538.7214169362461 M584.9301522891171,538.7214169362461 L586.5378695625268,538.5512247970331 M586.5378695625268,538.5512247970331 L588.0282499576197,538.1637357355214 M588.0282499576197,538.1637357355214 L589.3146742029066,537.5814643408006 M589.3146742029066,537.5814643408006 L590.3223725248545,536.8382482290527 M590.3223725248545,536.8382482290527 L590.9927878453107,535.9772859312595 M590.9927878453107,535.9772859312595 L591.2869704859995,535.0486157684344 M591.2869704859995,535.0486157684344 L591.1878021493847,534.1062035301843 M591.1878021493847,534.1062035301843 L590.7010757934888,533.2048270737358 M590.7010757934888,533.2048270737358 L589.8550533119806,532.3968646048569 M589.8550533119806,532.3968646048569 L588.698923671421,531.7292712147577 M588.698923671421,531.7292712147577 L587.299871373116,531.2408401644717 M587.299871373116,531.2408401644717 L585.7392041477665,530.9599673373625 M585.7392041477665,530.9599673373625 L584.1076102884044,530.9029594017677 M584.1076102884044,530.9029594017677 L582.4999239786014,531.073144757284 M582.4999239786014,531.073144757284 L581.0095655387147,531.4606194999926 M581.0095655387147,531.4606194999926 L579.7231492105066,532.0428723208186 M584.4676491853904,428.26594534825125 L584.4727706966846,406.9673519748552 M584.4727706966846,406.9673519748552 L623.2748887622135,435.55496176574536 M623.2748887622135,435.55496176574536 L649.1091889307231,468.6771462533303 M649.1091889307231,468.6771462533303 L660.4715234733096,504.4107639191211 M660.4715234733096,504.4107639191211 L656.6976067156688,540.6799739482392 M656.6976067156688,540.6799739482392 L638.0026274985237,575.3766565868849 M638.0026274985237,575.3766565868849 L605.4695935502746,606.4829830131537 M605.4695935502746,606.4829830131537 L560.9872630964844,632.1890281876521 M560.9872630964844,632.1890281876521 L507.1407900505908,650.9984240728814 M507.1407900505908,650.9984240728814 L447.06147337841753,661.8158855624869 M447.06147337841753,661.8158855624869 L384.2443732949879,664.0113769754042 M384.2443732949879,664.0113769754042 L322.3443486413544,657.4569970214095 M322.3443486413544,657.4569970214095 L264.9627159228716,642.5345388815413 M264.9627159228716,642.5345388815413 L215.43709312237206,620.1130414289981 M215.43709312237206,620.1130414289981 L176.6467146669456,591.4979220600791 M176.6467146669456,591.4979220600791 L150.84494393344042,558.3545301038979 M150.84494393344042,558.3545301038979 L139.52847652669027,522.6108654617431 M139.52847652669027,522.6108654617431 L143.35109052727,486.34507058322845 M143.35109052727,486.34507058322845 L162.08644115287092,451.6644828557604 M162.08644115287092,451.6644828557604 L194.64227205781322,420.58324394885676 M194.64227205781322,420.58324394885676 L239.12460251527705,394.9055316586207 M239.12460251527705,394.9055316586207 L292.9482786086513,376.1212232980276 M292.9482786086513,376.1212232980276 L352.9872238697633,365.31985671486467 M352.9872238697633,365.31985671486467 L415.75562670312024,363.12778045870516 M415.75562670312024,363.12778045870516 L477.6097842154178,369.67211342618714 M477.6097842154178,369.67211342618714 L534.9588874997819,384.57336410448295 M534.9588874997819,384.57336410448295 L584.4727706966846,406.9673519748552 M220.28476367322025,529.6983269985931 L220.28661080503642,537.5814643408006 M220.28476367322025,529.6983269985931 L221.29318704663035,528.9551185153417 M221.29318704663035,528.9551185153417 L221.9644371795372,528.0941650546487 M221.9644371795372,528.0941650546487 L222.25951587531515,527.1655044239363 M222.25951587531515,527.1655044239363 L222.16125276571594,526.2231018588985 M222.16125276571594,526.2231018588985 L221.67538819262714,525.3217346545028 M221.67538819262714,525.3217346545028 L220.83013397206844,524.5137804788786 M220.83013397206844,524.5137804788786 L219.67463442302073,523.8461939412555 M219.67463442302073,523.8461939412555 L218.27603743275904,523.3577679044587 M218.27603743275904,523.3577679044587 L216.71562426145996,523.0768979603678 M216.71562426145996,523.0768979603678 L215.08406845331166,523.0198906099313 M215.08406845331166,523.0198906099313 L213.4762019658623,523.1900742185795 M213.4762019658623,523.1900742185795 L211.98545560341995,523.5775449840581 M211.98545560341995,523.5775449840581 L210.6984661453428,524.159791828372 M210.6984661453428,524.159791828372 L209.69003485469148,524.9029817376157 M209.69003485469148,524.9029817376157 L209.018762766127,525.7639208793929 M209.018762766127,525.7639208793929 L208.72365310610596,526.6925747265583 M208.72365310610596,526.6925747265583 L208.82188333615466,527.6349795974401 M208.82188333615466,527.6349795974401 L209.30772064694062,528.536357668803 M209.30772064694062,528.536357668803 L210.1529594678754,529.3443287830434 M210.1529594678754,529.3443287830434 L211.3084590077252,530.0119344505041 M211.3084590077252,530.0119344505041 L212.70707138132184,530.5003774260721 M212.70707138132184,530.5003774260721 L214.26751180447368,530.7812582369922 M214.26751180447368,530.7812582369922 L215.89910048995512,530.8382678934288 M215.89910048995512,530.8382678934288 L217.50699794817103,530.668077501084 M217.50699794817103,530.668077501084 L218.99776628004048,530.280592416802 M218.99776628004048,530.280592416802 L220.28476367322025,529.6983269985931 M395.21299318748623,423.15168039391494 L395.2130424369543,431.033723810093 M395.21299318748623,423.15168039391494 L396.4993533684379,423.73362253198025 M396.4993533684379,423.73362253198025 L397.9895215389804,424.1208924800238 M397.9895215389804,424.1208924800238 L399.5968907651955,424.29098838060895 M399.5968907651955,424.29098838060895 L401.22805385262075,424.2340103766263 M401.22805385262075,424.2340103766263 L402.78819604396114,423.9532855140763 M402.78819604396114,423.9532855140763 L404.1866548898549,423.46511372759153 M404.1866548898549,423.46511372759153 L405.3421545234248,422.79787872181583 M405.3421545234248,422.79787872181583 L406.1875470532705,421.99035620076984 M406.1875470532705,421.99035620076984 L406.67368275891783,421.0894785819124 M406.67368275891783,421.0894785819124 L406.77233872154846,420.1475969406954 M406.77233872154846,420.1475969406954 L406.47775739151876,419.21945868727545 M406.47775739151876,419.21945868727545 L405.80708552060224,418.3589975425512 M405.80708552060224,418.3589975425512 L404.79929145473346,417.6162202546263 M404.79929145473346,417.6162202546263 L403.5129391955531,417.03429667498966 M403.5129391955531,417.03429667498966 L402.02279297535927,416.64704103382627 M402.02279297535927,416.64704103382627 L400.41545469945555,416.476951911289 M400.41545469945555,416.476951911289 L398.7843244722179,416.53392761119176 M398.7843244722179,416.53392761119176 L397.2242095228219,416.81464161596125 M397.2242095228219,416.81464161596125 L395.82576605986225,417.30279647777974 M395.82576605986225,417.30279647777974 L394.6702664262923,417.9700123696472 M394.6702664262923,417.9700123696472 L393.82485851351254,418.7775179661815 M393.82485851351254,418.7775179661815 L393.3386955659208,419.67838472712066 M393.3386955659208,419.67838472712066 L393.2400067431026,420.62026406441385 M393.2400067431026,420.62026406441385 L393.53455712282084,421.5484090957322 M393.53455712282084,421.5484090957322 L394.2052070433887,422.4088845474489 M394.2052070433887,422.4088845474489 L395.21299318748623,423.15168039391494 M404.80195445225115,630.7625577450478 L404.8019051494661,638.6467321627731 M404.80195445225115,630.7625577450478 L403.5148875080769,630.1799873666166 M403.5148875080769,630.1799873666166 L402.0239133804667,629.7923012975174 M402.0239133804667,629.7923012975174 L400.41568208866397,629.6220231240046 M400.41568208866397,629.6220231240046 L398.78364562743707,629.6790621513554 M398.78364562743707,629.6790621513554 L397.2226638980201,629.9600881647424 M397.2226638980201,629.9600881647424 L395.82344347514925,630.4487856025411 M395.82344347514925,630.4487856025411 L394.66730185507294,631.1167430948523 M394.66730185507294,631.1167430948523 L393.8214242360319,631.9251462234569 M393.8214242360319,631.9251462234569 L393.3349911725591,632.8270142884293 M393.3349911725591,632.8270142884293 L393.2362475098739,633.7699405173242 M393.2362475098739,633.7699405173242 L393.53096153086324,634.6991171771855 M393.53096153086324,634.6991171771855 L394.20198405314994,635.5605490452787 M394.20198405314994,635.5605490452787 L395.21033011309913,636.3041705092519 M395.21033011309913,636.3041705092519 L396.4974049878497,636.8867594770617 M396.4974049878497,636.8867594770617 L397.9884010902062,637.2744598769009 M397.9884010902062,637.2744598769009 L399.59666336672143,637.4447448397653 M399.59666336672143,637.4447448397653 L401.2287327246598,637.3877035044923 M401.2287327246598,637.3877035044923 L402.7897417263004,637.1066666152171 M402.7897417263004,637.1066666152171 L404.18897754920334,636.6179522245267 M404.18897754920334,636.6179522245267 L405.3451191692796,635.9499755864309 M405.3451191692796,635.9499755864309 L406.19098138828855,635.1415555050897 M406.19098138828855,635.1415555050897 L406.6773871795377,634.2396765640912 M406.6773871795377,634.2396765640912 L406.77609794551154,633.2967480274302 M406.77609794551154,633.2967480274302 L406.4813529398097,632.3675781567707 M406.4813529398097,632.3675781567707 L405.8103084427767,631.5061606195301 M405.8103084427767,631.5061606195301 L404.80195445225115,630.7625577450478 M579.7249962890057,524.159791828372 L579.7231492105066,532.0428723208186 M579.7249962890057,524.159791828372 L578.717279678765,524.9029817376158 M578.717279678765,524.9029817376158 L578.046835502867,525.7639208793929 M578.046835502867,525.7639208793929 L577.7526188726147,526.6925747265583 M577.7526188726147,526.6925747265583 L577.8517553559532,527.6349795974401 M577.8517553559532,527.6349795974401 L578.3384594670579,528.536357668803 M578.3384594670579,528.536357668803 L579.1844752645372,529.3443287830435 M579.1844752645372,529.3443287830435 L580.340616800042,530.0119344505041 M580.340616800042,530.0119344505041 L581.7396988794596,530.5003774260721 M581.7396988794596,530.5003774260721 L583.300409408557,530.7812582369922 M583.300409408557,530.7812582369922 L584.9320529167483,530.8382678934289 M584.9320529167483,530.8382678934289 L586.5397867132433,530.668077501084 M586.5397867132433,530.668077501084 L588.0301824243388,530.280592416802 M588.0301824243388,530.280592416802 L589.3166198883766,529.6983269985931 M589.3166198883766,529.6983269985931 L590.3243285635147,528.9551185153417 M590.3243285635147,528.9551185153417 L590.9947507699856,528.0941650546488 M590.9947507699856,528.0941650546488 L591.2889364294713,527.1655044239363 M591.2889364294713,527.1655044239363 L591.1897670687997,526.2231018588985 M591.1897670687997,526.2231018588985 L590.7030357058422,525.3217346545028 M590.7030357058422,525.3217346545028 L589.8570045250276,524.5137804788786 M589.8570045250276,524.5137804788786 L588.700862998721,523.8461939412556 M588.700862998721,523.8461939412556 L587.3017963189275,523.3577679044587 M587.3017963189275,523.3577679044587 L585.7411130521327,523.0768979603678 M585.7411130521327,523.0768979603678 L584.1095024234921,523.0198906099313 M584.1095024234921,523.0198906099313 L582.5017995912401,523.1900742185795 M582.5017995912401,523.1900742185795 L581.0114258358024,523.5775449840581 M581.0114258358024,523.5775449840581 L579.7249962890057,524.159791828372 M227.83477314346987,520.6435607960894 L224.51971160980807,522.1433548564703 M224.51971160980807,522.1433548564703 L220.67975054243877,523.1414402789508 M220.67975054243877,523.1414402789508 L216.53804677718188,523.5798026433113 M216.53804677718188,523.5798026433113 L212.33534533993696,523.4329668686455 M212.33534533993696,523.4329668686455 L208.3158957502307,522.7094721128599 M208.3158957502307,522.7094721128599 L204.71330736325683,521.4513581096678 M204.71330736325683,521.4513581096678 L201.73696970147648,519.7317595923352 M201.73696970147648,519.7317595923352 L199.55984832287933,517.6506193948023 M199.55984832287933,517.6506193948023 L198.30847491583754,515.3289020462291 M198.30847491583754,515.3289020462291 L198.0555362383831,512.9015423802753 M198.0555362383831,512.9015423802753 L198.8157209477673,510.50960244368525 M198.8157209477673,510.50960244368525 L200.5448406016246,508.29210466005554 M200.5448406016246,508.29210466005554 L203.1423905244781,506.3779021495054 M203.1423905244781,506.3779021495054 L206.4573994113143,504.8782313187328 M206.4573994113143,504.8782313187328 L210.29721471737625,503.8802408953618 M210.29721471737625,503.8802408953618 L214.43871299809587,503.4419235362915 M214.43871299809587,503.4419235362915 L218.64119630296966,503.5887440127193 M218.64119630296966,503.5887440127193 L222.66046508292942,504.31216667178194 M222.66046508292942,504.31216667178194 L226.26295140442318,505.5701682950112 M226.26295140442318,505.5701682950112 L229.23928912723122,507.2896398948262 M229.23928912723122,507.2896398948262 L231.41651267938326,509.3706677122851 M231.41651267938326,509.3706677122851 L232.66806696550645,511.69231296350165 M232.66806696550645,511.69231296350165 L232.92122379004408,514.119657331241 M232.92122379004408,514.119657331241 L232.16124452191565,516.5116422735184 M232.16124452191565,516.5116422735184 L230.43227053800612,518.7292350561245 M230.43227053800612,518.7292350561245 L227.83477314346987,520.6435607960894 M449.82225493062305,484.73809004267764 L460.2976710804322,492.45945569750825 M460.2976710804322,492.45945569750825 L467.2697297856193,501.4045323373682 M467.2697297856193,501.4045323373682 L470.3330360579585,511.0536014730128 M470.3330360579585,511.0536014730128 L469.30928265398165,520.845950667687 M469.30928265398165,520.845950667687 L464.2576551375896,530.212467314855 M464.2576551375896,530.212467314855 L455.4714914262321,538.608704729443 M455.4714914262321,538.608704729443 L443.46126136935453,545.5465432470152 M443.46126136935453,545.5465432470152 L428.92495616661733,550.6226041274409 M428.92495616661733,550.6226041274409 L412.7075229293719,553.541733357194 M412.7075229293719,553.541733357194 L395.7517089684194,554.1341771922728 M395.7517089684194,554.1341771922728 L379.04322050933916,552.3654881527148 M379.04322050933916,552.3654881527148 L363.5533908921602,548.3385147238247 M363.5533908921602,548.3385147238247 L350.18262735085875,542.2874230964343 M350.18262735085875,542.2874230964343 L339.7080670187328,534.5640519932825 M339.7080670187328,534.5640519932825 L332.7383797082152,525.6174293294223 M332.7383797082152,525.6174293294223 L329.6784171510727,515.9676277689651 M329.6784171510727,515.9676277689651 L330.7057205837539,506.17552753875566 M330.7057205837539,506.17552753875566 L335.76029117512087,496.81018421034514 M335.76029117512087,496.81018421034514 L344.54811678558144,488.41577567632874 M344.54811678558144,488.41577567632874 L356.55834684247856,481.4800026258047 M356.55834684247856,481.4800026258047 L371.09299014613487,476.4057706248084 M371.09299014613487,476.4057706248084 L387.3074803083915,473.4878147141997 M387.3074803083915,473.4878147141997 L404.2597442406018,472.8956198431238 M404.2597442406018,472.8956198431238 L420.96488898445597,474.6635764586754 M420.96488898445597,474.6635764586754 L436.4523472069703,478.68900386349696 M436.4523472069703,478.68900386349696 L449.82225493062305,484.73809004267764 M387.6597552136468,414.09635350874197 L385.0638992361798,412.18309065062635 M385.0638992361798,412.18309065062635 L383.3364712976565,409.96672912474156 M383.3364712976565,409.96672912474156 L382.57785286073886,407.5760722576088 M382.57785286073886,407.5760722576088 L382.83210621854204,405.1500755887746 M382.83210621854204,405.1500755887746 L384.08442903062826,402.82971934271603 M384.08442903062826,402.82971934271603 L386.2620484431811,400.74984693011817 M386.2620484431811,400.74984693011817 L389.2383863650435,399.03132999126166 M389.2383863650435,399.03132999126166 L392.8404772178934,397.77402681537984 M392.8404772178934,397.77402681537984 L396.85897784376436,397.05100580232784 M396.85897784376436,397.05100580232784 L401.0603649516803,396.90426684089135 M401.0603649516803,396.90426684089135 L405.2005026836448,397.3423408452869 M405.2005026836448,397.3423408452869 L409.0387721528076,398.3397771813413 M409.0387721528076,398.3397771813413 L412.3521397371697,399.8386153876016 M412.3521397371697,399.8386153876016 L414.9480482730108,401.7517551189165 M414.9480482730108,401.7517551189165 L416.67562184625785,403.9680217249314 M416.67562184625785,403.9680217249314 L417.43444563199574,406.35863362385334 M417.43444563199574,406.35863362385334 L417.1804102928048,408.78464557816307 M417.1804102928048,408.78464557816307 L415.9282682247247,411.1050738615422 M415.9282682247247,411.1050738615422 L413.750750874991,413.18505856063416 M413.750750874991,413.18505856063416 L410.77441295312866,414.903702311323 M410.77441295312866,414.903702311323 L407.17222003745974,416.1611177735879 M407.17222003745974,416.1611177735879 L403.15353866758267,416.8842108233272 M403.15353866758267,416.8842108233272 L398.95193354105425,417.03096507026254 M398.95193354105425,417.03096507026254 L394.8115904602693,416.5928460980532 M394.8115904602693,416.5928460980532 L390.9731753563828,415.59531484199596 M390.9731753563828,415.59531484199596 L387.6597552136468,414.09635350874197 M412.35899904949724,612.9763812362786 L414.9563498915453,614.891647411896 M414.9563498915453,614.891647411896 L416.68488334835354,617.1103773993387 M416.68488334835354,617.1103773993387 L417.44412879507166,619.5036464805356 M417.44412879507166,619.5036464805356 L417.18995237397473,621.9323549814778 M417.18995237397473,621.9323549814778 L415.9371146636783,624.2553624697134 M415.9371146636783,624.2553624697134 L413.75838750963504,626.3376591288295 M413.75838750963504,626.3376591288295 L410.7803959289013,628.0582132086362 M410.7803959289013,628.0582132086362 L407.1762015997943,629.3170263350155 M407.1762015997943,629.3170263350155 L403.15528739284963,630.040923131685 M403.15528739284963,630.040923131685 L398.9513477861134,630.1878405020377 M398.9513477861134,630.1878405020377 L394.80870426594885,629.749234542649 M394.80870426594885,629.749234542649 L390.96815649102626,628.7505944918264 M390.96815649102626,628.7505944918264 L387.65289539130174,627.2499670102111 M387.65289539130174,627.2499670102111 L385.055597166047,625.3345775024507 M385.055597166047,625.3345775024507 L383.32720950583735,623.1157524368372 M383.32720950583735,623.1157524368372 L382.56816963618724,620.7224383124345 M382.56816963618724,620.7224383124345 L382.82256431822685,618.2937451224599 M382.82256431822685,618.2937451224599 L384.07558297342854,615.970809791684 M384.07558297342854,615.970809791684 L386.254412303735,613.8886256063257 M386.254412303735,613.8886256063257 L389.23240388446885,612.1681985498392 M389.23240388446885,612.1681985498392 L392.8364960373127,610.9094978971067 M392.8364960373127,610.9094978971067 L396.8572292993521,610.1856732572624 M396.8572292993521,610.1856732572624 L401.0609506451455,610.0387711979007 M401.0609506451455,610.0387711979007 L405.2033885882418,610.4773321144812 M405.2033885882418,610.4773321144812 L409.04379056656586,611.475877087 M409.04379056656586,611.475877087 L412.35899904949724,612.9763812362786 M572.1711801955873,506.37790214950553 L575.4847468647874,504.8782313187328 M575.4847468647874,504.8782313187328 L579.3236024139749,503.8802408953619 M579.3236024139749,503.8802408953619 L583.4646791695088,503.4419235362915 M583.4646791695088,503.4419235362915 L587.6673036700879,503.5887440127193 M587.6673036700879,503.5887440127193 L591.6872681579962,504.31216667178205 M591.6872681579962,504.31216667178205 L595.2909642863956,505.5701682950112 M595.2909642863956,505.5701682950112 L598.2689556069233,507.2896398948262 M598.2689556069233,507.2896398948262 L600.4481804615998,509.3706677122851 M600.4481804615998,509.3706677122851 L601.7019674494984,511.69231296350165 M601.7019674494984,511.69231296350165 L601.9574586255376,514.119657331241 M601.9574586255376,514.119657331241 L601.1997797041242,516.5116422735184 M601.1997797041242,516.5116422735184 L599.4729383558272,518.7292350561245 M599.4729383558272,518.7292350561245 L596.8772819481842,520.6435607960896 M596.8772819481842,520.6435607960896 L593.5636627506669,522.1433548564703 M593.5636627506669,522.1433548564703 L589.7246615315319,523.1414402789508 M589.7246615315319,523.1414402789508 L585.583379334742,523.5798026433113 M585.583379334742,523.5798026433113 L581.3805366870797,523.4329668686455 M581.3805366870797,523.4329668686455 L577.3603913200902,522.7094721128599 M577.3603913200902,522.7094721128599 L573.7565930181358,521.4513581096678 M573.7565930181358,521.4513581096678 L570.7786016365806,519.7317595923352 M570.7786016365806,519.7317595923352 L568.5994788473843,517.6506193948024 M568.5994788473843,517.6506193948024 L567.345872669232,515.3289020462291 M567.345872669232,515.3289020462291 L567.0905996255635,512.9015423802753 M567.0905996255635,512.9015423802753 L567.8484840315143,510.50960244368525 M567.8484840315143,510.50960244368525 L569.5754711411184,508.29210466005566 M569.5754711411184,508.29210466005566 L572.1711801955873,506.37790214950553 M220.28476367322025,529.6983269985931 L222.80138213419966,526.6801279865937 M222.80138213419966,526.6801279865937 L225.3180578212849,523.6618759742942 M225.3180578212849,523.6618759742942 L227.83477314346987,520.6435607960894 M395.21299318748623,423.15168039391494 L392.6952985659011,420.1332944761019 M392.6952985659011,420.1332944761019 L390.17754671095213,417.11485556769804 M390.17754671095213,417.11485556769804 L387.6597552136468,414.09635350874197 M404.80195445225115,630.7625577450478 L407.3209560991191,624.8338581444241 M407.3209560991191,624.8338581444241 L409.8399768319372,618.9051292518665 M409.8399768319372,618.9051292518665 L412.35899904949724,612.9763812362786 M579.7249962890057,524.159791828372 L577.2070708028309,518.2325211575521 M577.2070708028309,518.2325211575521 L574.6891262379559,512.3052212101779 M574.6891262379559,512.3052212101779 L572.1711801955873,506.37790214950553 M449.82225493062305,484.73809004267764 L449.83101609935164,349.8359009970843 M442.2016038341277,348.2239374694702 L449.83101609935164,349.8359009970843 M350.1814807290872,352.0382019066009 L363.32779457924363,348.9613067011104 M363.32779457924363,348.9613067011104 L378.5396499422006,346.7522389755245 M378.5396499422006,346.7522389755245 L393.28994046578697,345.6099866729004 M393.28994046578697,345.6099866729004 L406.8469994006364,345.3136134167971 M406.8469994006364,345.3136134167971 L420.1509152691634,345.72250159245397 M420.1509152691634,345.72250159245397 L431.66544291731253,346.70016530738275 M431.66544291731253,346.70016530738275 L442.2016038341277,348.2239374694702 M350.17386355366517,407.37512031683366 L339.91905751100137,403.3074037385998 M339.91905751100137,403.3074037385998 L332.9852104512041,397.0879995092937 M332.9852104512041,397.0879995092937 L329.7552413586176,389.06076897196004 M329.7552413586176,389.06076897196004 L330.16678326964904,380.65560441415784 M330.16678326964904,380.65560441415784 L333.2155710660273,372.45588410521475 M333.2155710660273,372.45588410521475 L338.6894911466704,363.96272530678675 M338.6894911466704,363.96272530678675 L343.9246480420749,357.9418800679301 M343.9246480420749,357.9418800679301 L350.1814807290872,352.0382019066009 M449.8383471767559,409.5775863919047 L436.82882280288464,418.3691417848609 M436.82882280288464,418.3691417848609 L421.7840632196994,424.17646461485094 M421.7840632196994,424.17646461485094 L407.1893012914178,426.5824593492401 M407.1893012914178,426.5824593492401 L393.7597277265495,426.36505503132634 M393.7597277265495,426.36505503132634 L380.55702801482647,423.8960720958606 M380.55702801482647,423.8960720958606 L368.0607465594443,419.2652069875549 M368.0607465594443,419.2652069875549 L358.60494928775654,413.9334576383462 M358.60494928775654,413.9334576383462 L350.17386355366517,407.37512031683366 M456.4382988840615,356.4426293150426 L464.79436444179413,367.6992282684645 M464.79436444179413,367.6992282684645 L469.5011651476291,378.7685471658494 M469.5011651476291,378.7685471658494 L470.393322045507,388.0546918902784 M470.393322045507,388.0546918902784 L468.44587852435365,395.49873211549306 M468.44587852435365,395.49873211549306 L463.96462301510263,401.7905285030476 M463.96462301510263,401.7905285030476 L457.7948910990694,406.3326866744332 M457.7948910990694,406.3326866744332 L449.8383471767559,409.5775863919047 M449.83101609935164,349.8359009970843 L456.4382988840615,356.4426293150426 M350.17293871179845,220.5104495269294 L359.72374494838255,227.42233748782974 M359.72374494838255,227.42233748782974 L370.25434271302385,237.66453129307075 M370.25434271302385,237.66453129307075 L384.8251748685668,255.325209368015 M384.8251748685668,255.325209368015 L400.00617690044345,277.36724216830726 M350.1814807290872,352.0382019066009 L329.7338053879124,287.65556711049595 M329.7338053879124,287.65556711049595 L324.01509052842476,250.224759332252 M324.01509052842476,250.224759332252 L324.40829680939805,235.7691394426546 M324.40829680939805,235.7691394426546 L326.1971014193316,227.44328440480274 M326.1971014193316,227.44328440480274 L329.17716475045717,221.51054217395733 M329.17716475045717,221.51054217395733 L332.5500080024575,218.35195528629814 M332.5500080024575,218.35195528629814 L336.358897205937,216.90915282779525 M336.358897205937,216.90915282779525 L340.31944408117045,216.84140636960183 M340.31944408117045,216.84140636960183 L344.7521577178119,217.9404947362923 M344.7521577178119,217.9404947362923 L347.3986420506427,219.0489725636486 M347.3986420506427,219.0489725636486 L350.17293871179845,220.5104495269294 M442.2016038341277,348.2239374694702 L428.31985600306894,57.179928977718305 M428.31985600306894,57.179928977718305 L440.3733766554141,55.34026677156993 M440.3733766554141,55.34026677156993 L449.2195443969312,53.38161800174748 M449.2195443969312,53.38161800174748 L454.3440801654651,51.41781128568084 M454.3440801654651,51.41781128568084 L455.44884905632784,49.56291469305404 M455.44884905632784,49.56291469305404 L452.4692827713612,47.924793212032 M452.4692827713612,47.924793212032 L445.57820027297225,46.59863791501982 M445.57820027297225,46.59863791501982 L435.17583797710967,45.66158497673666 M435.17583797710967,45.66158497673666 L421.8666369880613,45.168128550786946 M421.8666369880613,45.168128550786946 L406.42416893343807,45.146997883594565 M406.42416893343807,45.146997883594565 L389.74614296495986,45.59941407852318 M389.74614296495986,45.59941407852318 L372.8021573516709,46.499075777544135 M372.8021573516709,46.499075777544135 L356.577314681725,47.79370050716443 M356.577314681725,47.79370050716443 L342.01485769459856,49.40800505030268 M342.01485769459856,49.40800505030268 L329.96127046382844,51.24814616659097 M329.96127046382844,51.24814616659097 L321.11707413466735,53.20711294179955 M321.11707413466735,53.20711294179955 L315.99608394689466,55.17102110521341 M315.99608394689466,55.17102110521341 L314.8956269638357,57.025776811470564 M314.8956269638357,57.025776811470564 L317.87927926976715,58.663544808334905 M317.87927926976715,58.663544808334905 L324.77328924125993,59.989216957647386 M324.77328924125993,59.989216957647386 L335.1767532016446,60.925769726290866 M335.1767532016446,60.925769726290866 L348.4849776697118,61.41881337839163 M348.4849776697118,61.41881337839163 L363.92461133539655,61.43973944023509 M363.92461133539655,61.43973944023509 L380.59859538115114,60.987351181622444 M380.59859538115114,60.987351181622444 L397.53825409812634,60.08793259198029 M397.53825409812634,60.08793259198029 L413.75947174157903,58.79374115809975 M413.75947174157903,58.79374115809975 L428.31985600306894,57.179928977718305 M400.00617690044345,277.36724216830726 L418.41265261711453,254.4240542975731 M418.41265261711453,254.4240542975731 L429.78103449106703,244.03635690533355 M429.78103449106703,244.03635690533355 L438.48831161919526,238.5285438843162 M438.48831161919526,238.5285438843162 L445.05015047097515,236.23176859054104 M445.05015047097515,236.23176859054104 L450.4612948355553,236.00140286059212 M450.4612948355553,236.00140286059212 L455.1541196887912,237.59822274864786 M455.1541196887912,237.59822274864786 L459.06184370892504,240.99942869105752 M459.06184370892504,240.99942869105752 L462.12887177757625,246.15652288065576 M462.12887177757625,246.15652288065576 L464.3115893864218,252.99603899788258 M464.3115893864218,252.99603899788258 L465.79450575729715,264.56083164449643 M465.79450575729715,264.56083164449643 L465.4745460735476,280.5694828499299 M465.4745460735476,280.5694828499299 L461.8029521043739,305.9803440286936 M461.8029521043739,305.9803440286936 L456.72511626204715,327.31516003325436 M456.72511626204715,327.31516003325436 L449.83101609935164,349.8359009970843 M350.17293871179845,220.5104495269294 L236.49791141256264,110.27290904287293 M236.49791141256264,110.27290904287293 L242.58675141639745,113.54757011247568 M242.58675141639745,113.54757011247568 L245.8132320746895,119.75241090140042 M245.8132320746895,119.75241090140042 L245.98958785573848,128.5270467322157 M245.98958785573848,128.5270467322157 L243.10531949788546,139.36162022298595 M243.10531949788546,139.36162022298595 L237.32787465134717,151.62647638029003 M237.32787465134717,151.62647638029003 L228.99296236269092,164.6087156365859 M228.99296236269092,164.6087156365859 L218.58504472707978,177.5536128804887 M218.58504472707978,177.5536128804887 L206.709150775545,189.70861505770873 M206.709150775545,189.70861505770873 L194.05570739221253,200.3670461515386 M194.05570739221253,200.3670461515386 L181.36034927881283,208.9093389907603 M181.36034927881283,208.9093389907603 L169.36109265729723,214.83893565652437 M169.36109265729723,214.83893565652437 L158.75541690143368,217.811355336069 M158.75541690143368,217.811355336069 L150.1596845894375,217.65400834816054 M150.1596845894375,217.65400834816054 L144.07333289480013,214.37629054228213 M144.07333289480013,214.37629054228213 L140.8498465620379,208.16894563642757 M140.8498465620379,208.16894563642757 L140.6763251615938,199.39294076895348 M140.6763251615938,199.39294076895348 L143.562614220623,188.55842132030244 M143.562614220623,188.55842132030244 L149.34079098102964,176.29504986478605 M149.34079098102964,176.29504986478605 L157.67498652107287,163.31540326753316 M157.67498652107287,163.31540326753316 L168.08090632958803,150.37358647754826 M168.08090632958803,150.37358647754826 L179.95397905466135,138.22145702380476 M179.95397905466135,138.22145702380476 L192.60442073052525,127.56503085523315 M192.60442073052525,127.56503085523315 L205.29728091959828,119.02341388492368 M205.29728091959828,119.02341388492368 L217.29512004205887,113.09301173176488 M217.29512004205887,113.09301173176488 L227.9007878603904,110.11848720276151 M227.9007878603904,110.11848720276151 L236.49791141256264,110.27290904287293 M350.17386355366517,407.37512031683366 L337.7006037742456,375.3702842750761 M337.7006037742456,375.3702842750761 L334.07958348818653,345.07628729234364 M334.07958348818653,345.07628729234364 L335.880198324154,326.20488077697956 M335.880198324154,326.20488077697956 L339.36058608689814,313.26303022330035 M339.36058608689814,313.26303022330035 L343.58101713072614,303.5711940725462 M343.58101713072614,303.5711940725462 L347.9521211500276,296.4029175665406 M347.9521211500276,296.4029175665406 L352.49772714065506,290.7449997642082 M352.49772714065506,290.7449997642082 L357.57058333234073,285.9042575579802 M357.57058333234073,285.9042575579802 L363.1143615174039,281.93441307641666 M363.1143615174039,281.93441307641666 L369.0674986638841,278.87951853465495 M369.0674986638841,278.87951853465495 L375.3638860162503,276.7734782883754 M375.3638860162503,276.7734782883754 L384.1717202846456,275.48020574966114 M384.1717202846456,275.48020574966114 L392.0305128239759,275.77296561460486 M392.0305128239759,275.77296561460486 L400.00617690044345,277.36724216830726 M449.846891757199,278.0399665235003 L440.2934941246441,273.9255163902908 M440.2934941246441,273.9255163902908 L429.76067592774103,272.0107187691783 M429.76067592774103,272.0107187691783 L415.18787271819764,272.8505384087928 M415.18787271819764,272.8505384087928 L400.00617690044345,277.36724216830726 M449.846891757199,278.0399665235003 L458.0260491394085,238.11897985373764 M458.0260491394085,238.11897985373764 L470.08738563213916,249.88851157443975 M470.08738563213916,249.88851157443975 L478.9386864511745,264.0955679742904 M478.9386864511745,264.0955679742904 L484.0655309679691,279.91454740482834 M484.0655309679691,279.91454740482834 L485.1698876748282,296.42621933304673 M485.1698876748282,296.42621933304673 L482.1875014113495,312.6709677663193 M482.1875014113495,312.6709677663193 L475.2916131866249,327.7047243840317 M475.2916131866249,327.7047243840317 L464.88291431402735,340.65370174790627 M464.88291431402735,340.65370174790627 L451.56627013450435,350.7652847854034 M451.56627013450435,350.7652847854034 L436.1156083717118,357.45174714969744 M436.1156083717118,357.45174714969744 L419.4289153379568,360.3244231654731 M419.4289153379568,360.3244231654731 L402.47602575993125,359.2163010103693 M402.47602575993125,359.2163010103693 L386.24228230403673,354.1917864700735 M386.24228230403673,354.1917864700735 L371.671195859667,345.54291730208985 M371.671195859667,345.54291730208985 L359.60965245980856,333.77240397638656 M359.60965245980856,333.77240397638656 L350.7586310914255,319.56438374532587 M350.7586310914255,319.56438374532587 L345.63250056613174,303.74468218674014 M345.63250056613174,303.74468218674014 L344.5291244137836,287.23269780655767 M344.5291244137836,287.23269780655767 L347.5125375739608,270.9881207177815 M347.5125375739608,270.9881207177815 L354.40926038599656,255.9549780278577 M354.40926038599656,255.9549780278577 L364.8184069524106,243.0069145725867 M364.8184069524106,243.0069145725867 L378.13500937120915,232.89632589200176 M378.13500937120915,232.89632589200176 L393.585152878611,226.21074067257268 M393.585152878611,226.21074067257268 L410.27096887963313,223.33861013775004 M410.27096887963313,223.33861013775004 L427.22282695976236,224.44679609706566 M427.22282695976236,224.44679609706566 L443.45562515949143,229.4709037839183 M443.45562515949143,229.4709037839183 L458.0260491394085,238.11897985373764 M449.8383471767559,409.5775863919047 L470.2934168675781,368.8000501708468 M470.2934168675781,368.8000501708468 L476.0146504622818,337.96566837370756 M476.0146504622818,337.96566837370756 L475.62126469082654,323.052650479077 M475.62126469082654,323.052650479077 L473.8316552864412,312.6591749884513 M473.8316552864412,312.6591749884513 L470.8502940149098,303.28381692234996 M470.8502940149098,303.28381692234996 L467.47604629388536,296.22979390211054 M467.47604629388536,296.22979390211054 L463.66565344377557,290.38852711202776 M463.66565344377557,290.38852711202776 L459.7036357342918,285.7475831816093 M459.7036357342918,285.7475831816093 L455.2693879710205,281.7285953146901 M455.2693879710205,281.7285953146901 L452.62204413692126,279.7815262608042 M452.62204413692126,279.7815262608042 L449.846891757199,278.0399665235003 M456.4382988840615,356.4426293150426 L649.831367276272,184.96179678372485 M649.831367276272,184.96179678372485 L655.9284211523839,198.4957771831095 M655.9284211523839,198.4957771831095 L659.1644332957267,211.01861872917806 M659.1644332957267,211.01861872917806 L659.3511855552176,221.80264604974508 M659.3511855552176,221.80264604974508 L656.4776054824158,230.2210673600523 M656.4776054824158,230.2210673600523 L650.7104568178834,235.78448877908875 M650.7104568178834,235.78448877908875 L642.3846809887543,238.16933680415633 M642.3846809887543,238.16933680415633 L631.9839960925663,237.2367300359398 M631.9839960925663,237.2367300359398 L620.1128016213154,233.04064058800714 M620.1128016213154,233.04064058800714 L607.4610939038298,225.82481403387237 M607.4610939038298,225.82481403387237 L594.7643339918216,216.00854936037055 M594.7643339918216,216.00854936037055 L582.7606405411116,204.1624834848253 M582.7606405411116,204.1624834848253 L572.1478682335444,190.97523571251844 M572.1478682335444,190.97523571251844 L563.5429954199324,177.21347405242116 M563.5429954199324,177.21347405242116 L557.4461884237512,163.67726285906323 M557.4461884237512,163.67726285906323 L554.2117522360847,151.15344706448457 M554.2117522360847,151.15344706448457 L554.0275239886,140.3699570983032 M554.0275239886,140.3699570983032 L556.9040023143323,131.95343093138507 M556.9040023143323,131.95343093138507 L562.6737717085534,126.3928443381069 M562.6737717085534,126.3928443381069 L571.0012825679783,124.01113998410148 M571.0012825679783,124.01113998410148 L581.4024159336277,124.94644895950069 M581.4024159336277,124.94644895950069 L593.2726695721706,129.14419027665133 M593.2726695721706,129.14419027665133 L605.9222660809626,136.36024189751572 M605.9222660809626,136.36024189751572 L618.6162314564181,146.17525522952934 M618.6162314564181,146.17525522952934 L630.6170828349902,158.0188774868154 M630.6170828349902,158.0188774868154 L641.2276122175467,171.20305170405356 M641.2276122175467,171.20305170405356 L649.831367276272,184.96179678372485 M421.1291242243064,56.532392399744595 L431.173726177082,54.999299722593946 M431.173726177082,54.999299722593946 L438.54539753951605,53.367086252624745 M438.54539753951605,53.367086252624745 L442.8155890310122,51.73056683079528 M442.8155890310122,51.73056683079528 L443.73593327758886,50.18483453852912 M443.73593327758886,50.18483453852912 L441.25268682686107,48.819759792841296 M441.25268682686107,48.819759792841296 L435.5099137002469,47.71465147906315 M435.5099137002469,47.71465147906315 L426.84119897775184,46.93382401979602 M426.84119897775184,46.93382401979602 L415.7502713978734,46.522641441718235 M415.7502713978734,46.522641441718235 L402.88173712122335,46.50502774451252 M402.88173712122335,46.50502774451252 L388.98366247097914,46.88203008777384 M388.98366247097914,46.88203008777384 L374.86397647608976,47.6317449785588 M374.86397647608976,47.6317449785588 L361.3435254287997,48.71056578526634 M361.3435254287997,48.71056578526634 L349.2082910651499,50.05579507719182 M349.2082910651499,50.05579507719182 L339.1636415336621,51.589214047784594 M339.1636415336621,51.589214047784594 L331.7933405493947,53.22164757744446 M331.7933405493947,53.22164757744446 L327.52560686907896,54.858239987770105 M327.52560686907896,54.858239987770105 L326.60825700102623,56.40387444245437 M326.60825700102623,56.40387444245437 L329.09434402230113,57.76870547603613 M329.09434402230113,57.76870547603613 L334.8391575722113,58.873477493957864 M334.8391575722113,58.873477493957864 L343.508637338647,59.653967779709376 M343.508637338647,59.653967779709376 L354.5988837251629,60.06486900584753 M354.5988837251629,60.06486900584753 L367.46544661951367,60.08232162726193 M367.46544661951367,60.08232162726193 L381.36071132331347,59.7053232222907 M381.36071132331347,59.7053232222907 L395.47738813041633,58.955796920751595 M395.47738813041633,58.955796920751595 L408.9953323076366,57.87726078627611 M408.9953323076366,57.87726078627611 L421.1291242243064,56.532392399744595 M229.30342209285183,119.22089073406869 L234.37728220918441,121.94997631469204 M234.37728220918441,121.94997631469204 L237.0658075292856,127.12085462079483 M237.0658075292856,127.12085462079483 L237.2125723477678,134.43313254009536 M237.2125723477678,134.43313254009536 L234.80887459192328,143.4619497490728 M234.80887459192328,143.4619497490728 L229.9942911950182,153.68258081962495 M229.9942911950182,153.68258081962495 L223.04858115331575,164.50092763191023 M223.04858115331575,164.50092763191023 L214.37545228009614,175.28811617141372 M214.37545228009614,175.28811617141372 L204.47907392419177,185.41709588164588 M204.47907392419177,185.41709588164588 L193.93474290932969,194.2989772121641 M193.93474290932969,194.2989772121641 L183.3554542466641,201.41749917698078 M183.3554542466641,201.41749917698078 L173.35616630612415,206.3589009448847 M173.35616630612415,206.3589009448847 L164.51810548442978,208.83604558606794 M164.51810548442978,208.83604558606794 L157.35489828843868,208.7051358974313 M157.35489828843868,208.7051358974313 L152.28276310227494,205.9739121207272 M152.28276310227494,205.9739121207272 L149.5963276953742,200.80129894328394 M149.5963276953742,200.80129894328394 L149.45152678952854,193.4880556164982 M149.45152678952854,193.4880556164982 L151.85662475721819,184.45929492705875 M151.85662475721819,184.45929492705875 L156.67171948809278,174.23971389141894 M156.67171948809278,174.23971389141894 L163.6169348403236,163.42316223980853 M163.6169348403236,163.42316223980853 L172.2886763311802,152.63810273658487 M172.2886763311802,152.63810273658487 L182.183096849626,142.51111367223916 M182.183096849626,142.51111367223916 L192.7253402897729,133.6306228855782 M192.7253402897729,133.6306228855782 L203.3028942835217,126.51257027281281 M203.3028942835217,126.51257027281281 L213.30119344707097,121.57061167989207 M213.30119344707097,121.57061167989207 L222.13925010105203,119.09200456147676 M222.13925010105203,119.09200456147676 L229.30342209285183,119.22089073406869 M450.8301744700063,247.0705310611853 L460.8813006874813,256.87854243031234 M460.8813006874813,256.87854243031234 L468.25736572882255,268.71780583151644 M468.25736572882255,268.71780583151644 L472.52968217638806,281.90034985166176 M472.52968217638806,281.90034985166176 L473.44991427535206,295.6600896830973 M473.44991427535206,295.6600896830973 L470.96452725281523,309.19736832166717 M470.96452725281523,309.19736832166717 L465.2178872726242,321.72546485165697 M465.2178872726242,321.72546485165697 L456.54393751910453,332.5162141580532 M456.54393751910453,332.5162141580532 L445.44674543461565,340.9424701950182 M445.44674543461565,340.9424701950182 L432.57122524816015,346.514459235788 M432.57122524816015,346.514459235788 L418.66571125758975,348.90830874666875 M418.66571125758975,348.90830874666875 L404.5383807819265,347.9848718689345 M404.5383807819265,347.9848718689345 L391.0103157525557,343.79780432093986 M391.0103157525557,343.79780432093986 L378.8677952865614,336.59047467679613 M378.8677952865614,336.59047467679613 L368.81652672837515,326.78177379990547 M368.81652672837515,326.78177379990547 L361.44065440676417,314.9418418473833 M361.44065440676417,314.9418418473833 L357.1688381884156,301.75879380813836 M357.1688381884156,301.75879380813836 L356.24928703049744,287.9988369963376 M356.24928703049744,287.9988369963376 L358.7353841185933,274.4616755823644 M358.7353841185933,274.4616755823644 L364.4825962114347,261.9340061668479 M364.4825962114347,261.9340061668479 L373.15685686458477,251.143901688367 M373.15685686458477,251.143901688367 L384.2540230059522,242.71834500333023 M384.2540230059522,242.71834500333023 L397.12918634960045,237.14694962487664 M397.12918634960045,237.14694962487664 L411.0340943475009,234.75345992549177 M411.0340943475009,234.75345992549177 L425.16071290771083,235.676955800207 M425.16071290771083,235.676955800207 L438.6881109917063,239.8637367150999 M438.6881109917063,239.8637367150999 L450.8301744700063,247.0705310611853 M642.642021224472,184.31622664330303 L647.7228849588485,195.5946875601893 M647.7228849588485,195.5946875601893 L650.4194412164836,206.03046970170521 M650.4194412164836,206.03046970170521 L650.5748957893848,215.01711407100186 M650.5748957893848,215.01711407100186 L648.1800471071213,222.0323398199988 M648.1800471071213,222.0323398199988 L643.3739096673773,226.66833117917304 M643.3739096673773,226.66833117917304 L636.4356400126264,228.65547692193678 M636.4356400126264,228.65547692193678 L627.7683685088346,227.8781220085915 M627.7683685088346,227.8781220085915 L617.8757744210195,224.3812607895366 M617.8757744210195,224.3812607895366 L607.3328309827043,218.36805278028925 M607.3328309827043,218.36805278028925 L596.7523947586924,210.18792420819057 M596.7523947586924,210.18792420819057 L586.7495128285213,200.3163647455835 M586.7495128285213,200.3163647455835 L577.9056921180288,189.32722178791852 M577.9056921180288,189.32722178791852 L570.7350434407331,177.8592969855405 M570.7350434407331,177.8592969855405 L565.6543542101886,166.57926791527618 M565.6543542101886,166.57926791527618 L562.9588818537907,156.1428254460904 M562.9588818537907,156.1428254460904 L562.8051844703893,147.15653447175902 M562.8051844703893,147.15653447175902 L565.202048878989,140.1426402578162 M565.202048878989,140.1426402578162 L570.0100032093305,135.50863299256287 M570.0100032093305,135.50863299256287 L576.9494746900118,133.52366152932825 M576.9494746900118,133.52366152932825 L585.6170576330778,134.30288280877267 M585.6170576330778,134.30288280877267 L595.5089970232718,137.80089546376774 M595.5089970232718,137.80089546376774 L606.0504774012488,143.81426153124892 M606.0504774012488,143.81426153124892 L616.6289729756168,151.9935211161729 M616.6289729756168,151.9935211161729 L626.6298856431281,161.8633810816507 M626.6298856431281,161.8633810816507 L635.4721474237549,172.85039040458582 M635.4721474237549,172.85039040458582 L642.642021224472,184.31622664330303 M426.07403041022604,160.21013983193774 L436.1189308419741,158.6789124726255 M436.1189308419741,158.6789124726255 L443.49086126046114,157.04894441909585 M443.49086126046114,157.04894441909585 L447.76126612478635,155.4149347226716 M447.76126612478635,155.4149347226716 L448.68174831072713,153.87187023906026 M448.68174831072713,153.87187023906026 L446.19857342713533,152.5094062696232 M446.19857342713533,152.5094062696232 L440.45580546877966,151.40676273370156 M440.45580546877966,151.40676273370156 L431.787016264881,150.6280333315447 M431.787016264881,150.6280333315447 L420.6959388746347,150.21851992301058 M420.6959388746347,150.21851992301058 L407.827205511686,150.20204421946912 M407.827205511686,150.20204421946912 L393.92887258494846,150.5795750938289 M393.92887258494846,150.5795750938289 L379.80889294181674,151.3291636556885 M379.80889294181674,151.3291636556885 L366.288132152581,152.4072395615026 M366.288132152581,152.4072395615026 L354.1525790899078,153.7511148995114 M354.1525790899078,153.7511148995114 L344.10763764916175,155.28266925905592 M344.10763764916175,155.28266925905592 L336.7370776412673,156.91285686782606 M336.7370776412673,156.91285686782606 L332.46913287246684,158.54693287395443 M332.46913287246684,158.54693287395443 L331.5516407827849,160.08990197407635 M331.5516407827849,160.08990197407635 L334.0376519626607,161.45211987529487 M334.0376519626607,161.45211987529487 L339.78246044466385,162.55443260386593 M339.78246044466385,162.55443260386593 L348.4520147517983,163.33281520672276 M348.4520147517983,163.33281520672276 L359.5424109469046,163.7420427347403 M359.5424109469046,163.7420427347403 L372.40917726904496,163.7583704989042 M372.40917726904496,163.7583704989042 L386.3047001455406,163.38085394395017 M386.3047001455406,163.38085394395017 L400.42167927443563,162.6314437556221 M400.42167927443563,162.6314437556221 L413.9399264781621,161.5536661899262 M413.9399264781621,161.5536661899262 L426.07403041022604,160.21013983193774 M426.07403041022604,160.21013983193774 L421.1291242243064,56.532392399744595 M298.20163929945613,186.03444030625576 L303.27675887665055,188.76492540108188 M303.27675887665055,188.76492540108188 L305.96672093707275,193.93698881717776 M305.96672093707275,193.93698881717776 L306.1150054273811,201.2502148886798 M306.1150054273811,201.2502148886798 L303.7128412494369,210.2796468122185 M303.7128412494369,210.2796468122185 L298.89970740670447,220.50053807285434 M298.89970740670447,220.50053807285434 L291.9552830292557,231.3187973962094 M291.9552830292557,231.3187973962094 L283.2831926428956,242.1055560089403 M283.2831926428956,242.1055560089403 L273.38754519987253,252.23372853545345 M273.38754519987253,252.23372853545345 L262.8436079819978,261.1145498222156 M262.8436079819978,261.1145498222156 L252.2643313392873,268.23176788550603 M252.2643313392873,268.23176788550603 L242.26470765585788,273.1717279081826 M242.26470765585788,273.1717279081826 L233.42594840411402,275.647367042382 M233.42594840411402,275.647367042382 L226.26172950693416,275.5149507628594 M226.26172950693416,275.5149507628594 L221.1883367276743,272.7823417017309 M221.1883367276743,272.7823417017309 L218.50045774221078,267.60853740352303 M218.50045774221078,267.60853740352303 L218.35413709172704,260.29435137200085 M218.35413709172704,260.29435137200085 L220.75770157413822,251.26496609173245 M220.75770157413822,251.26496609173245 L225.57134259391918,241.04511231386147 M225.57134259391918,241.04511231386147 L232.51528142398766,230.22864813601376 M232.51528142398766,230.22864813601376 L241.18598478650088,219.44402854575367 M241.18598478650088,219.44402854575367 L251.07966588201685,209.31784635228945 M251.07966588201685,209.31784635228945 L261.6215200849246,200.43841778750655 M261.6215200849246,200.43841778750655 L272.1990576466347,193.32167128166427 M272.1990576466347,193.32167128166427 L282.1977033823607,188.38115293422058 M282.1977033823607,188.38115293422058 L291.0364581645316,185.90405125009235 M291.0364581645316,185.90405125009235 L298.20163929945613,186.03444030625576 M298.20163929945613,186.03444030625576 L229.30342209285183,119.22089073406869 M445.8738300659212,271.266442220831 L455.923056974149,281.07269227751414 M455.923056974149,281.07269227751414 L463.29771969638296,292.90986082462706 M463.29771969638296,292.90986082462706 L467.5692123204219,306.0900784252552 M467.5692123204219,306.0900784252552 L468.48923831245673,319.8473807272455 M468.48923831245673,319.8473807272455 L466.0042856423598,333.382286251622 M466.0042856423598,333.382286251622 L460.25869526118595,345.9081617578042 M460.25869526118595,345.9081617578042 L451.5863408172543,356.6970359790364 M451.5863408172543,356.6970359790364 L440.4911970533155,365.1218317846538 M440.4911970533155,365.1218317846538 L427.6180721078982,370.6928630241559 M427.6180721078982,370.6928630241559 L413.71514811121256,373.08632032255304 M413.71514811121256,373.08632032255304 L399.59044744223763,372.16308216618035 M399.59044744223763,372.16308216618035 L386.064925075563,367.97677777489264 M386.064925075563,367.97677777489264 L373.9246864335497,360.77074631316236 M373.9246864335497,360.77074631316236 L363.87531063912223,350.96380572758784 M363.87531063912223,350.96380572758784 L356.5008405640738,339.12596887301356 M356.5008405640738,339.12596887301356 L352.22984578069344,325.9452537879186 M352.22984578069344,325.9452537879186 L351.31050488019764,312.1877320416899 M351.31050488019764,312.1877320416899 L353.79617175017506,298.6529462383644 M353.79617175017506,298.6529462383644 L359.54233403115813,286.1274926097227 M359.54233403115813,286.1274926097227 L368.2149992554791,275.33925281575716 M368.2149992554791,275.33925281575716 L379.3101170845835,266.915161189915 M379.3101170845835,266.915161189915 L392.18288091776117,261.34473102129573 M392.18288091776117,261.34473102129573 L406.0851991473662,258.95164356997867 M406.0851991473662,258.95164356997867 L420.2091793638931,259.87493053951033 M420.2091793638931,259.87493053951033 L433.73404163657403,264.0609547562861 M433.73404163657403,264.0609547562861 L445.8738300659212,271.266442220831 M445.8738300659212,271.266442220831 L450.8301744700063,247.0705310611853 M573.7369873377531,245.4146704647505 L578.816514826591,256.69288329547635 M578.816514826591,256.69288329547635 L581.5116689744793,267.1287468727819 M581.5116689744793,267.1287468727819 L581.665711164469,276.11581242628574 M581.665711164469,276.11581242628574 L579.2695478017463,283.1317597074087 M579.2695478017463,283.1317597074087 L574.4622654049147,287.76873358775225 M574.4622654049147,287.76873358775225 L567.5230741435689,289.75707324435643 M567.5230741435689,289.75707324435643 L558.8551709179396,288.98103663652694 M558.8551709179396,288.98103663652694 L548.9622717218087,285.4855815841068 M548.9622717218087,285.4855815841068 L538.4193590093821,279.47373099283163 M538.4193590093821,279.47373099283163 L527.8392875455606,271.29488242460667 M527.8392875455606,271.29488242460667 L517.8370939547874,261.4244048551966 M517.8370939547874,261.4244048551966 L508.99423645841557,250.43610751872086 M508.99423645841557,250.43610751872086 L501.82476985610975,238.96876263886594 M501.82476985610975,238.96876263886594 L496.7454149123216,227.68898804983758 M496.7454149123216,227.68898804983758 L494.0513513685279,217.25245002385552 M494.0513513685279,217.25245002385552 L493.8990663048994,208.2657528213687 M493.8990663048994,208.2657528213687 L496.2972451800575,201.25112653478925 M496.2972451800575,201.25112653478925 L501.10634855265346,196.6161287513171 M501.10634855265346,196.6161287513171 L508.04673249135413,194.62996309479803 M508.04673249135413,194.62996309479803 L516.7149468574282,195.40787610852033 M516.7149468574282,195.40787610852033 L526.6071999779922,198.90448265078334 M526.6071999779922,198.90448265078334 L537.1486452096756,204.91648898450526 M537.1486452096756,204.91648898450526 L547.7267805671329,213.09446637019175 M547.7267805671329,213.09446637019175 L557.7269941697525,222.96324609260841 M557.7269941697525,222.96324609260841 L566.5682930780672,233.94941012713105 M566.5682930780672,233.94941012713105 L573.7369873377531,245.4146704647505 M573.7369873377531,245.4146704647505 L642.642021224472,184.31622664330303" stroke="black"  stroke-width="4"  fill="red"/>
<path d="M404.80195445225115,630.7625577450478 L405.8103084427767,631.5061606195301 M405.8103084427767,631.5061606195301 L406.4813529398097,632.3675781567707 M406.4813529398097,632.3675781567707 L406.77609794551154,633.2967480274302 M406.77609794551154,633.2967480274302 L406.6773871795377,634.2396765640912 M406.6773871795377,634.2396765640912 L406.19098138828855,635.1415555050897 M406.19098138828855,635.1415555050897 L405.3451191692796,635.9499755864309 M405.3451191692796,635.9499755864309 L404.18897754920334,636.6179522245267 M404.18897754920334,636.6179522245267 L402.7897417263004,637.1066666152171 M402.7897417263004,637.1066666152171 L401.2287327246598,637.3877035044923 M401.2287327246598,637.3877035044923 L399.59666336672143,637.4447448397653 M399.59666336672143,637.4447448397653 L397.9884010902062,637.2744598769009 M397.9884010902062,637.2744598769009 L396.4974049878497,636.8867594770617 M396.4974049878497,636.8867594770617 L395.21033011309913,636.3041705092519 M395.21033011309913,636.3041705092519 L394.20198405314994,635.5605490452787 M394.20198405314994,635.5605490452787 L393.53096153086324,634.6991171771855 M393.53096153086324,634.6991171771855 L393.2362475098739,633.7699405173242 M393.2362475098739,633.7699405173242 L393.3349911725591,632.8270142884293 M393.3349911725591,632.8270142884293 L393.8214242360319,631.9251462234569 M393.8214242360319,631.9251462234569 L394.66730185507294,631.1167430948523 M394.66730185507294,631.1167430948523 L395.82344347514925,630.4487856025411 M395.82344347514925,630.4487856025411 L397.2226638980201,629.9600881647424 M397.2226638980201,629.9600881647424 L398.78364562743707,629.6790621513554 M398.78364562743707,629.6790621513554 L400.41568208866397,629.6220231240046 M400.41568208866397,629.6220231240046 L402.0239133804667,629.7923012975174 M402.0239133804667,629.7923012975174 L403.5148875080769,630.1799873666166 M403.5148875080769,630.1799873666166 L404.80195445225115,630.7625577450478 M404.80195445225115,630.7625577450478 L404.8012202594932,748.1697944962445 M404.8012202594932,748.1697944962445 L403.5143503551375,747.5871351440736 M403.5143503551375,747.5871351440736 L402.02360448295195,747.1993898650178 M402.02360448295195,747.1993898650178 L400.41561939708856,747.0290856854688 M400.41561939708856,747.0290856854688 L398.7838327860499,747.0861334242089 M398.7838327860499,747.0861334242089 L397.22309002929785,747.3672023577673 M397.22309002929785,747.3672023577673 L395.82408381554166,747.8559744325554 M395.82408381554166,747.8559744325554 L394.66811919219253,748.5240339392866 M394.66811919219253,748.5240339392866 L393.82237107193447,749.3325605315238 M393.82237107193447,749.3325605315238 L393.33601247985155,750.2345663339764 M393.33601247985155,750.2345663339764 L393.23728393660815,751.177636570251 M393.23728393660815,751.177636570251 L393.5319528414331,752.1069551369104 M393.5319528414331,752.1069551369104 L394.20287263681865,752.9685185649876 M394.20287263681865,752.9685185649876 L395.2110643270544,753.7122535961754 M395.2110643270544,753.7122535961754 L396.49794215955836,754.2949315377176 M396.49794215955836,754.2949315377176 L397.98870999976236,754.6826911475076 M397.98870999976236,754.6826911475076 L399.59672606085195,754.8530021164055 M399.59672606085195,754.8530021164055 L401.22854555853036,754.7959520697441 M401.22854555853036,754.7959520697441 L402.78931557915627,754.5148722603019 M402.78931557915627,754.5148722603019 L404.1883371882297,754.0260832326287 M404.1883371882297,754.0260832326287 L405.3443018115789,753.3580045801205 M405.3443018115789,753.3580045801205 L406.19003453651965,752.5494610351534 M406.19003453651965,752.5494610351534 L406.6763658647286,751.6474443566788 M406.6763658647286,751.6474443566788 L406.77506152133236,750.7043718126389 M406.77506152133236,750.7043718126389 L406.48036164128126,749.7750600351786 M406.48036164128126,749.7750600351786 L405.8094198778772,748.9135109379483 M405.8094198778772,748.9135109379483 L404.8012202594932,748.1697944962445" stroke="black"  stroke-width="4"  fill="red"/>
<path d="M404.80195445225115,630.7625577450478 L405.8103084427767,631.5061606195301 M405.8103084427767,631.5061606195301 L406.4813529398097,632.3675781567707 M406.4813529398097,632.3675781567707 L406.77609794551154,633.2967480274302 M406.77609794551154,633.2967480274302 L406.6773871795377,634.2396765640912 M406.6773871795377,634.2396765640912 L406.19098138828855,635.1415555050897 M406.19098138828855,635.1415555050897 L405.3451191692796,635.9499755864309 M405.3451191692796,635.9499755864309 L404.18897754920334,636.6179522245267 M404.18897754920334,636.6179522245267 L402.7897417263004,637.1066666152171 M402.7897417263004,637.1066666152171 L401.2287327246598,637.3877035044923 M401.2287327246598,637.3877035044923 L399.59666336672143,637.4447448397653 M399.59666336672143,637.4447448397653 L397.9884010902062,637.2744598769009 M397.9884010902062,637.2744598769009 L396.4974049878497,636.8867594770617 M396.4974049878497,636.8867594770617 L395.21033011309913,636.3041705092519 M395.21033011309913,636.3041705092519 L387.65289539130174,627.2499670102111 M412.35899904949724,612.9763812362786 L414.9563498915453,614.891647411896 M414.9563498915453,614.891647411896 L416.68488334835354,617.1103773993387 M416.68488334835354,617.1103773993387 L417.44412879507166,619.5036464805356 M417.44412879507166,619.5036464805356 L417.18995237397473,621.9323549814778 M417.18995237397473,621.9323549814778 L415.9371146636783,624.2553624697134 M415.9371146636783,624.2553624697134 L413.75838750963504,626.3376591288295 M413.75838750963504,626.3376591288295 L410.7803959289013,628.0582132086362 M410.7803959289013,628.0582132086362 L407.1762015997943,629.3170263350155 M407.1762015997943,629.3170263350155 L403.15528739284963,630.040923131685 M403.15528739284963,630.040923131685 L398.9513477861134,630.1878405020377 M398.9513477861134,630.1878405020377 L394.80870426594885,629.749234542649 M394.80870426594885,629.749234542649 L390.96815649102626,628.7505944918264 M390.96815649102626,628.7505944918264 L387.65289539130174,627.2499670102111 M404.80195445225115,630.7625577450478 L412.35899904949724,612.9763812362786 M395.21033011309913,636.3041705092519 L394.20198405314994,635.5605490452787 M394.20198405314994,635.5605490452787 L393.53096153086324,634.6991171771855 M393.53096153086324,634.6991171771855 L393.2362475098739,633.7699405173242 M393.2362475098739,633.7699405173242 L393.3349911725591,632.8270142884293 M393.3349911725591,632.8270142884293 L393.8214242360319,631.9251462234569 M393.8214242360319,631.9251462234569 L394.66730185507294,631.1167430948523 M394.66730185507294,631.1167430948523 L395.82344347514925,630.4487856025411 M395.82344347514925,630.4487856025411 L397.2226638980201,629.9600881647424 M397.2226638980201,629.9600881647424 L398.78364562743707,629.6790621513554 M398.78364562743707,629.6790621513554 L400.41568208866397,629.6220231240046 M400.41568208866397,629.6220231240046 L402.0239133804667,629.7923012975174 M402.0239133804667,629.7923012975174 L403.5148875080769,630.1799873666166 M403.5148875080769,630.1799873666166 L404.80195445225115,630.7625577450478 M387.65289539130174,627.2499670102111 L385.055597166047,625.3345775024507 M385.055597166047,625.3345775024507 L383.32720950583735,623.1157524368372 M383.32720950583735,623.1157524368372 L382.56816963618724,620.7224383124345 M382.56816963618724,620.7224383124345 L382.82256431822685,618.2937451224599 M382.82256431822685,618.2937451224599 L384.07558297342854,615.970809791684 M384.07558297342854,615.970809791684 L386.254412303735,613.8886256063257 M386.254412303735,613.8886256063257 L389.23240388446885,612.1681985498392 M389.23240388446885,612.1681985498392 L392.8364960373127,610.9094978971067 M392.8364960373127,610.9094978971067 L396.8572292993521,610.1856732572624 M396.8572292993521,610.1856732572624 L401.0609506451455,610.0387711979007 M401.0609506451455,610.0387711979007 L405.2033885882418,610.4773321144812 M405.2033885882418,610.4773321144812 L409.04379056656586,611.475877087 M409.04379056656586,611.475877087 L412.35899904949724,612.9763812362786" stroke="black"  stroke-width="4"  fill="red"/>
<path d="M579.7249962890057,524.159791828372 L581.0114258358024,523.5775449840581 M581.0114258358024,523.5775449840581 L582.5017995912401,523.1900742185795 M582.5017995912401,523.1900742185795 L584.1095024234921,523.0198906099313 M584.1095024234921,523.0198906099313 L585.7411130521327,523.0768979603678 M585.7411130521327,523.0768979603678 L587.3017963189275,523.3577679044587 M587.3017963189275,523.3577679044587 L588.700862998721,523.8461939412556 M588.700862998721,523.8461939412556 L589.8570045250276,524.5137804788786 M589.8570045250276,524.5137804788786 L590.7030357058422,525.3217346545028 M590.7030357058422,525.3217346545028 L591.1897670687997,526.2231018588985 M591.1897670687997,526.2231018588985 L591.2889364294713,527.1655044239363 M591.2889364294713,527.1655044239363 L590.9947507699856,528.0941650546488 M590.9947507699856,528.0941650546488 L590.3243285635147,528.9551185153417 M590.3243285635147,528.9551185153417 L589.3166198883766,529.6983269985931 M589.3166198883766,529.6983269985931 L588.0301824243388,530.280592416802 M588.0301824243388,530.280592416802 L586.5397867132433,530.668077501084 M586.5397867132433,530.668077501084 L584.9320529167483,530.8382678934289 M584.9320529167483,530.8382678934289 L583.300409408557,530.7812582369922 M583.300409408557,530.7812582369922 L581.7396988794596,530.5003774260721 M581.7396988794596,530.5003774260721 L580.340616800042,530.0119344505041 M580.340616800042,530.0119344505041 L579.1844752645372,529.3443287830435 M579.1844752645372,529.3443287830435 L578.3384594670579,528.536357668803 M578.3384594670579,528.536357668803 L577.8517553559532,527.6349795974401 M577.8517553559532,527.6349795974401 L577.7526188726147,526.6925747265583 M577.7526188726147,526.6925747265583 L578.046835502867,525.7639208793929 M578.046835502867,525.7639208793929 L578.717279678765,524.9029817376158 M578.717279678765,524.9029817376158 L579.7249962890057,524.159791828372 M579.7249962890057,524.159791828372 L579.6974905059321,641.5507430397186 M579.6974905059321,641.5507430397186 L578.6899280727341,642.2940465163188 M578.6899280727341,642.2940465163188 L578.0195864467123,643.1551172182416 M578.0195864467123,643.1551172182416 L577.7254147803828,644.0839129723769 M577.7254147803828,644.0839129723769 L577.8245360240487,645.0264618508097 M577.8245360240487,645.0264618508097 L578.3111655808086,645.9279776598139 M578.3111655808086,645.9279776598139 L579.1570518372218,646.7360722378287 M579.1570518372218,646.7360722378287 L580.3130163760384,647.403779919825 M580.3130163760384,647.403779919825 L581.7118842887003,647.892297532466 M581.7118842887003,647.892297532466 L583.2723559281576,648.1732212636052 M583.2723559281576,648.1732212636052 L584.9037497064521,648.2302396314407 M584.9037497064521,648.2302396314407 L586.5112374492976,648.060023233031 M586.5112374492976,648.060023233031 L588.0014050820255,647.6724789387263 M588.0014050820255,647.6724789387263 L589.2876456989295,647.0901245466775 M589.2876456989295,647.0901245466775 L590.2952001994549,646.3468024960748 M590.2952001994549,646.3468024960748 L590.965519862775,645.48571747524 M590.965519862775,645.48571747524 L591.259660567818,644.5569149375596 M591.259660567818,644.5569149375596 L591.1605064568819,643.6143683649699 M591.1605064568819,643.6143683649699 L590.6738496566095,642.7128634229302 M590.6738496566095,642.7128634229302 L589.8279480215683,641.9047857835271 M589.8279480215683,641.9047857835271 L588.6719834919459,641.2370972313632 M588.6719834919459,641.2370972313632 L587.273130974193,640.7485965574889 M587.273130974193,640.7485965574889 L585.7126865886933,640.4676836931761 M585.7126865886933,640.4676836931761 L584.0813256798856,640.4106676313401 M584.0813256798856,640.4106676313401 L582.4738688918062,640.5808772460551 M582.4738688918062,640.5808772460551 L580.983723208017,640.96840722156 M580.983723208017,640.96840722156 L579.6974905059321,641.5507430397186" stroke="black"  stroke-width="4"  fill="red"/>
<path d="M579.7249962890057,524.159791828372 L581.0114258358024,523.5775449840581 M581.0114258358024,523.5775449840581 L582.5017995912401,523.1900742185795 M582.5017995912401,523.1900742185795 L584.1095024234921,523.0198906099313 M584.1095024234921,523.0198906099313 L585.7411130521327,523.0768979603678 M585.7411130521327,523.0768979603678 L587.3017963189275,523.3577679044587 M587.3017963189275,523.3577679044587 L588.700862998721,523.8461939412556 M588.700862998721,523.8461939412556 L589.8570045250276,524.5137804788786 M589.8570045250276,524.5137804788786 L590.7030357058422,525.3217346545028 M590.7030357058422,525.3217346545028 L591.1897670687997,526.2231018588985 M591.1897670687997,526.2231018588985 L591.2889364294713,527.1655044239363 M591.2889364294713,527.1655044239363 L590.9947507699856,528.0941650546488 M590.9947507699856,528.0941650546488 L590.3243285635147,528.9551185153417 M590.3243285635147,528.9551185153417 L589.3166198883766,529.6983269985931 M589.3166198883766,529.6983269985931 L596.8772819481842,520.6435607960896 M572.1711801955873,506.37790214950553 L575.4847468647874,504.8782313187328 M575.4847468647874,504.8782313187328 L579.3236024139749,503.8802408953619 M579.3236024139749,503.8802408953619 L583.4646791695088,503.4419235362915 M583.4646791695088,503.4419235362915 L587.6673036700879,503.5887440127193 M587.6673036700879,503.5887440127193 L591.6872681579962,504.31216667178205 M591.6872681579962,504.31216667178205 L595.2909642863956,505.5701682950112 M595.2909642863956,505.5701682950112 L598.2689556069233,507.2896398948262 M598.2689556069233,507.2896398948262 L600.4481804615998,509.3706677122851 M600.4481804615998,509.3706677122851 L601.7019674494984,511.69231296350165 M601.7019674494984,511.69231296350165 L601.9574586255376,514.119657331241 M601.9574586255376,514.119657331241 L601.1997797041242,516.5116422735184 M601.1997797041242,516.5116422735184 L599.4729383558272,518.7292350561245 M599.4729383558272,518.7292350561245 L596.8772819481842,520.6435607960896 M579.7249962890057,524.159791828372 L572.1711801955873,506.37790214950553 M589.3166198883766,529.6983269985931 L588.0301824243388,530.280592416802 M588.0301824243388,530.280592416802 L586.5397867132433,530.668077501084 M586.5397867132433,530.668077501084 L584.9320529167483,530.8382678934289 M584.9320529167483,530.8382678934289 L583.300409408557,530.7812582369922 M583.300409408557,530.7812582369922 L581.7396988794596,530.5003774260721 M581.7396988794596,530.5003774260721 L580.340616800042,530.0119344505041 M580.340616800042,530.0119344505041 L579.1844752645372,529.3443287830435 M579.1844752645372,529.3443287830435 L578.3384594670579,528.536357668803 M578.3384594670579,528.536357668803 L577.8517553559532,527.6349795974401 M577.8517553559532,527.6349795974401 L577.7526188726147,526.6925747265583 M577.7526188726147,526.6925747265583 L578.046835502867,525.7639208793929 M578.046835502867,525.7639208793929 L578.717279678765,524.9029817376158 M578.717279678765,524.9029817376158 L579.7249962890057,524.159791828372 M596.8772819481842,520.6435607960896 L593.5636627506669,522.1433548564703 M593.5636627506669,522.1433548564703 L589.7246615315319,523.1414402789508 M589.7246615315319,523.1414402789508 L585.583379334742,523.5798026433113 M585.583379334742,523.5798026433113 L581.3805366870797,523.4329668686455 M581.3805366870797,523.4329668686455 L577.3603913200902,522.7094721128599 M577.3603913200902,522.7094721128599 L573.7565930181358,521.4513581096678 M573.7565930181358,521.4513581096678 L570.7786016365806,519.7317595923352 M570.7786016365806,519.7317595923352 L568.5994788473843,517.6506193948024 M568.5994788473843,517.6506193948024 L567.345872669232,515.3289020462291 M567.345872669232,515.3289020462291 L567.0905996255635,512.9015423802753 M567.0905996255635,512.9015423802753 L567.8484840315143,510.50960244368525 M567.8484840315143,510.50960244368525 L569.5754711411184,508.29210466005566 M569.5754711411184,508.29210466005566 L572.1711801955873,506.37790214950553" stroke="black"  stroke-width="4"  fill="red"/>
<path d="M395.21299318748623,423.15168039391494 L394.2052070433887,422.4088845474489 M394.2052070433887,422.4088845474489 L393.53455712282084,421.5484090957322 M393.53455712282084,421.5484090957322 L393.2400067431026,420.62026406441385 M393.2400067431026,420.62026406441385 L393.3386955659208,419.67838472712066 M393.3386955659208,419.67838472712066 L393.82485851351254,418.7775179661815 M393.82485851351254,418.7775179661815 L394.6702664262923,417.9700123696472 M394.6702664262923,417.9700123696472 L395.82576605986225,417.30279647777974 M395.82576605986225,417.30279647777974 L397.2242095228219,416.81464161596125 M397.2242095228219,416.81464161596125 L398.7843244722179,416.53392761119176 M398.7843244722179,416.53392761119176 L400.41545469945555,416.476951911289 M400.41545469945555,416.476951911289 L402.02279297535927,416.64704103382627 M402.02279297535927,416.64704103382627 L403.5129391955531,417.03429667498966 M403.5129391955531,417.03429667498966 L404.79929145473346,417.6162202546263 M404.79929145473346,417.6162202546263 L405.80708552060224,418.3589975425512 M405.80708552060224,418.3589975425512 L406.47775739151876,419.21945868727545 M406.47775739151876,419.21945868727545 L406.77233872154846,420.1475969406954 M406.77233872154846,420.1475969406954 L406.67368275891783,421.0894785819124 M406.67368275891783,421.0894785819124 L406.1875470532705,421.99035620076984 M406.1875470532705,421.99035620076984 L405.3421545234248,422.79787872181583 M405.3421545234248,422.79787872181583 L404.1866548898549,423.46511372759153 M404.1866548898549,423.46511372759153 L402.78819604396114,423.9532855140763 M402.78819604396114,423.9532855140763 L401.22805385262075,424.2340103766263 M401.22805385262075,424.2340103766263 L399.5968907651955,424.29098838060895 M399.5968907651955,424.29098838060895 L397.9895215389804,424.1208924800238 M397.9895215389804,424.1208924800238 L396.4993533684379,423.73362253198025 M396.4993533684379,423.73362253198025 L395.21299318748623,423.15168039391494 M395.21299318748623,423.15168039391494 L395.2137265863304,540.527192387293 M395.2137265863304,540.527192387293 L396.4998899437873,541.1092234992643 M396.4998899437873,541.1092234992643 L397.9898301055899,541.4965526573745 M397.9898301055899,541.4965526573745 L399.596953389724,541.6666745640442 M399.596953389724,541.6666745640442 L401.2278668942804,541.6096878486561 M401.2278668942804,541.6096878486561 L402.7877703699188,541.3289200658551 M402.7877703699188,541.3289200658551 L404.186015239799,540.8406736422415 M404.186015239799,540.8406736422415 L405.34133807313896,540.1733366218546 M405.34133807313896,540.1733366218546 L406.1866012526762,539.365690636943 M406.1866012526762,539.365690636943 L406.672662577948,538.464675280343 M406.672662577948,538.464675280343 L406.77130344797973,537.5226496314696 M406.77130344797973,537.5226496314696 L406.4767671935009,536.5943694709765 M406.4767671935009,536.5943694709765 L405.80619794215914,535.7337767660114 M405.80619794215914,535.7337767660114 L404.7985580770513,534.9908859106484 M404.7985580770513,534.9908859106484 L403.5124026389417,534.4088733571033 M403.5124026389417,534.4088733571033 L402.0224844207711,534.0215585058713 M402.0224844207711,534.0215585058713 L400.415392077478,533.8514433772486 M400.415392077478,533.8514433772486 L398.78451142305414,533.9084277885572 M398.78451142305414,533.9084277885572 L397.2246351810243,534.1891847135792 M397.2246351810243,534.1891847135792 L395.82640568937114,534.6774142125287 M395.82640568937114,534.6774142125287 L394.67108285603115,535.34473211901 M394.67108285603115,535.34473211901 L393.8258042982669,536.1523611794123 M393.8258042982669,536.1523611794123 L393.3397157393865,537.0533656780956 M393.3397157393865,537.0533656780956 L393.24104201922216,537.9953890230454 M393.24104201922216,537.9953890230454 L393.5355473328601,538.9236759614358 M393.5355473328601,538.9236759614358 L394.2060946405698,539.7842829733916 M394.2060946405698,539.7842829733916 L395.2137265863304,540.527192387293" stroke="black"  stroke-width="4"  fill="red"/>
<path d="M395.21299318748623,423.15168039391494 L394.2052070433887,422.4088845474489 M394.2052070433887,422.4088845474489 L393.53455712282084,421.5484090957322 M393.53455712282084,421.5484090957322 L393.2400067431026,420.62026406441385 M393.2400067431026,420.62026406441385 L393.3386955659208,419.67838472712066 M393.3386955659208,419.67838472712066 L393.82485851351254,418.7775179661815 M393.82485851351254,418.7775179661815 L394.6702664262923,417.9700123696472 M394.6702664262923,417.9700123696472 L395.82576605986225,417.30279647777974 M395.82576605986225,417.30279647777974 L397.2242095228219,416.81464161596125 M397.2242095228219,416.81464161596125 L398.7843244722179,416.53392761119176 M398.7843244722179,416.53392761119176 L400.41545469945555,416.476951911289 M400.41545469945555,416.476951911289 L402.02279297535927,416.64704103382627 M402.02279297535927,416.64704103382627 L403.5129391955531,417.03429667498966 M403.5129391955531,417.03429667498966 L404.79929145473346,417.6162202546263 M404.79929145473346,417.6162202546263 L412.3521397371697,399.8386153876016 M387.6597552136468,414.09635350874197 L385.0638992361798,412.18309065062635 M385.0638992361798,412.18309065062635 L383.3364712976565,409.96672912474156 M383.3364712976565,409.96672912474156 L382.57785286073886,407.5760722576088 M382.57785286073886,407.5760722576088 L382.83210621854204,405.1500755887746 M382.83210621854204,405.1500755887746 L384.08442903062826,402.82971934271603 M384.08442903062826,402.82971934271603 L386.2620484431811,400.74984693011817 M386.2620484431811,400.74984693011817 L389.2383863650435,399.03132999126166 M389.2383863650435,399.03132999126166 L392.8404772178934,397.77402681537984 M392.8404772178934,397.77402681537984 L396.85897784376436,397.05100580232784 M396.85897784376436,397.05100580232784 L401.0603649516803,396.90426684089135 M401.0603649516803,396.90426684089135 L405.2005026836448,397.3423408452869 M405.2005026836448,397.3423408452869 L409.0387721528076,398.3397771813413 M409.0387721528076,398.3397771813413 L412.3521397371697,399.8386153876016 M395.21299318748623,423.15168039391494 L387.6597552136468,414.09635350874197 M404.79929145473346,417.6162202546263 L405.80708552060224,418.3589975425512 M405.80708552060224,418.3589975425512 L406.47775739151876,419.21945868727545 M406.47775739151876,419.21945868727545 L406.77233872154846,420.1475969406954 M406.77233872154846,420.1475969406954 L406.67368275891783,421.0894785819124 M406.67368275891783,421.0894785819124 L406.1875470532705,421.99035620076984 M406.1875470532705,421.99035620076984 L405.3421545234248,422.79787872181583 M405.3421545234248,422.79787872181583 L404.1866548898549,423.46511372759153 M404.1866548898549,423.46511372759153 L402.78819604396114,423.9532855140763 M402.78819604396114,423.9532855140763 L401.22805385262075,424.2340103766263 M401.22805385262075,424.2340103766263 L399.5968907651955,424.29098838060895 M399.5968907651955,424.29098838060895 L397.9895215389804,424.1208924800238 M397.9895215389804,424.1208924800238 L396.4993533684379,423.73362253198025 M396.4993533684379,423.73362253198025 L395.21299318748623,423.15168039391494 M412.3521397371697,399.8386153876016 L414.9480482730108,401.7517551189165 M414.9480482730108,401.7517551189165 L416.67562184625785,403.9680217249314 M416.67562184625785,403.9680217249314 L417.43444563199574,406.35863362385334 M417.43444563199574,406.35863362385334 L417.1804102928048,408.78464557816307 M417.1804102928048,408.78464557816307 L415.9282682247247,411.1050738615422 M415.9282682247247,411.1050738615422 L413.750750874991,413.18505856063416 M413.750750874991,413.18505856063416 L410.77441295312866,414.903702311323 M410.77441295312866,414.903702311323 L407.17222003745974,416.1611177735879 M407.17222003745974,416.1611177735879 L403.15353866758267,416.8842108233272 M403.15353866758267,416.8842108233272 L398.95193354105425,417.03096507026254 M398.95193354105425,417.03096507026254 L394.8115904602693,416.5928460980532 M394.8115904602693,416.5928460980532 L390.9731753563828,415.59531484199596 M390.9731753563828,415.59531484199596 L387.6597552136468,414.09635350874197" stroke="black"  stroke-width="4"  fill="red"/>
<path d="M220.28476367322025,529.6983269985931 L218.99776628004048,530.280592416802 M218.99776628004048,530.280592416802 L217.50699794817103,530.668077501084 M217.50699794817103,530.668077501084 L215.89910048995512,530.8382678934288 M215.89910048995512,530.8382678934288 L214.26751180447368,530.7812582369922 M214.26751180447368,530.7812582369922 L212.70707138132184,530.5003774260721 M212.70707138132184,530.5003774260721 L211.3084590077252,530.0119344505041 M211.3084590077252,530.0119344505041 L210.1529594678754,529.3443287830434 M210.1529594678754,529.3443287830434 L209.30772064694062,528.536357668803 M209.30772064694062,528.536357668803 L208.82188333615466,527.6349795974401 M208.82188333615466,527.6349795974401 L208.72365310610596,526.6925747265583 M208.72365310610596,526.6925747265583 L209.018762766127,525.7639208793929 M209.018762766127,525.7639208793929 L209.69003485469148,524.9029817376157 M209.69003485469148,524.9029817376157 L210.6984661453428,524.159791828372 M210.6984661453428,524.159791828372 L211.98545560341995,523.5775449840581 M211.98545560341995,523.5775449840581 L213.4762019658623,523.1900742185795 M213.4762019658623,523.1900742185795 L215.08406845331166,523.0198906099313 M215.08406845331166,523.0198906099313 L216.71562426145996,523.0768979603678 M216.71562426145996,523.0768979603678 L218.27603743275904,523.3577679044587 M218.27603743275904,523.3577679044587 L219.67463442302073,523.8461939412555 M219.67463442302073,523.8461939412555 L220.83013397206844,524.5137804788786 M220.83013397206844,524.5137804788786 L221.67538819262714,525.3217346545028 M221.67538819262714,525.3217346545028 L222.16125276571594,526.2231018588985 M222.16125276571594,526.2231018588985 L222.25951587531515,527.1655044239363 M222.25951587531515,527.1655044239363 L221.9644371795372,528.0941650546487 M221.9644371795372,528.0941650546487 L221.29318704663035,528.9551185153417 M221.29318704663035,528.9551185153417 L220.28476367322025,529.6983269985931 M220.28476367322025,529.6983269985931 L220.31227025020755,647.0901245466775 M220.31227025020755,647.0901245466775 L221.3205392302512,646.3468024960748 M221.3205392302512,646.3468024960748 L221.9916865665971,645.4857174752399 M221.9916865665971,645.4857174752399 L222.286720034594,644.5569149375596 M222.286720034594,644.5569149375596 L222.18847189734802,643.6143683649699 M222.18847189734802,643.6143683649699 L221.7026816216409,642.7128634229301 M221.7026816216409,642.7128634229301 L220.8575567090474,641.904785783527 M220.8575567090474,641.904785783527 L219.70223396019082,641.2370972313632 M219.70223396019082,641.2370972313632 L218.3038509882103,640.7485965574889 M218.3038509882103,640.7485965574889 L216.74367661553694,640.4676836931761 M216.74367661553694,640.4676836931761 L215.11237051044242,640.4106676313401 M215.11237051044242,640.4106676313401 L213.5047501172563,640.580877246055 M213.5047501172563,640.580877246055 L212.0142319405078,640.96840722156 M212.0142319405078,640.96840722156 L210.72743949851696,641.5507430397186 M210.72743949851696,641.5507430397186 L209.719162603654,642.2940465163188 M209.719162603654,642.2940465163188 L209.04799331836955,643.1551172182416 M209.04799331836955,643.1551172182416 L208.75292889560646,644.0839129723769 M208.75292889560646,644.0839129723769 L208.85114416336575,645.0264618508097 M208.85114416336575,645.0264618508097 L209.3369071851152,645.9279776598138 M209.3369071851152,645.9279776598138 L210.18201670279953,646.7360722378287 M210.18201670279953,646.7360722378287 L211.3373394424623,647.4037799198248 M211.3373394424623,647.4037799198248 L212.73573779307065,647.892297532466 M212.73573779307065,647.892297532466 L214.29593940925633,648.1732212636052 M214.29593940925633,648.1732212636052 L215.92727838162122,648.2302396314407 M215.92727838162122,648.2302396314407 L217.53492973609397,648.0600232330307 M217.53492973609397,648.0600232330307 L219.02546987554422,647.6724789387263 M219.02546987554422,647.6724789387263 L220.31227025020755,647.0901245466775" stroke="black"  stroke-width="4"  fill="red"/>
<path d="M220.28476367322025,529.6983269985931 L218.99776628004048,530.280592416802 M218.99776628004048,530.280592416802 L217.50699794817103,530.668077501084 M217.50699794817103,530.668077501084 L215.89910048995512,530.8382678934288 M215.89910048995512,530.8382678934288 L214.26751180447368,530.7812582369922 M214.26751180447368,530.7812582369922 L212.70707138132184,530.5003774260721 M212.70707138132184,530.5003774260721 L211.3084590077252,530.0119344505041 M211.3084590077252,530.0119344505041 L210.1529594678754,529.3443287830434 M210.1529594678754,529.3443287830434 L209.30772064694062,528.536357668803 M209.30772064694062,528.536357668803 L208.82188333615466,527.6349795974401 M208.82188333615466,527.6349795974401 L208.72365310610596,526.6925747265583 M208.72365310610596,526.6925747265583 L209.018762766127,525.7639208793929 M209.018762766127,525.7639208793929 L209.69003485469148,524.9029817376157 M209.69003485469148,524.9029817376157 L210.6984661453428,524.159791828372 M210.6984661453428,524.159791828372 L203.1423905244781,506.3779021495054 M227.83477314346987,520.6435607960894 L224.51971160980807,522.1433548564703 M224.51971160980807,522.1433548564703 L220.67975054243877,523.1414402789508 M220.67975054243877,523.1414402789508 L216.53804677718188,523.5798026433113 M216.53804677718188,523.5798026433113 L212.33534533993696,523.4329668686455 M212.33534533993696,523.4329668686455 L208.3158957502307,522.7094721128599 M208.3158957502307,522.7094721128599 L204.71330736325683,521.4513581096678 M204.71330736325683,521.4513581096678 L201.73696970147648,519.7317595923352 M201.73696970147648,519.7317595923352 L199.55984832287933,517.6506193948023 M199.55984832287933,517.6506193948023 L198.30847491583754,515.3289020462291 M198.30847491583754,515.3289020462291 L198.0555362383831,512.9015423802753 M198.0555362383831,512.9015423802753 L198.8157209477673,510.50960244368525 M198.8157209477673,510.50960244368525 L200.5448406016246,508.29210466005554 M200.5448406016246,508.29210466005554 L203.1423905244781,506.3779021495054 M220.28476367322025,529.6983269985931 L227.83477314346987,520.6435607960894 M210.6984661453428,524.159791828372 L211.98545560341995,523.5775449840581 M211.98545560341995,523.5775449840581 L213.4762019658623,523.1900742185795 M213.4762019658623,523.1900742185795 L215.08406845331166,523.0198906099313 M215.08406845331166,523.0198906099313 L216.71562426145996,523.0768979603678 M216.71562426145996,523.0768979603678 L218.27603743275904,523.3577679044587 M218.27603743275904,523.3577679044587 L219.67463442302073,523.8461939412555 M219.67463442302073,523.8461939412555 L220.83013397206844,524.5137804788786 M220.83013397206844,524.5137804788786 L221.67538819262714,525.3217346545028 M221.67538819262714,525.3217346545028 L222.16125276571594,526.2231018588985 M222.16125276571594,526.2231018588985 L222.25951587531515,527.1655044239363 M222.25951587531515,527.1655044239363 L221.9644371795372,528.0941650546487 M221.9644371795372,528.0941650546487 L221.29318704663035,528.9551185153417 M221.29318704663035,528.9551185153417 L220.28476367322025,529.6983269985931 M203.1423905244781,506.3779021495054 L206.4573994113143,504.8782313187328 M206.4573994113143,504.8782313187328 L210.29721471737625,503.8802408953618 M210.29721471737625,503.8802408953618 L214.43871299809587,503.4419235362915 M214.43871299809587,503.4419235362915 L218.64119630296966,503.5887440127193 M218.64119630296966,503.5887440127193 L222.66046508292942,504.31216667178194 M222.66046508292942,504.31216667178194 L226.26295140442318,505.5701682950112 M226.26295140442318,505.5701682950112 L229.23928912723122,507.2896398948262 M229.23928912723122,507.2896398948262 L231.41651267938326,509.3706677122851 M231.41651267938326,509.3706677122851 L232.66806696550645,511.69231296350165 M232.66806696550645,511.69231296350165 L232.92122379004408,514.119657331241 M232.92122379004408,514.119657331241 L232.16124452191565,516.5116422735184 M232.16124452191565,516.5116422735184 L230.43227053800612,518.7292350561245 M230.43227053800612,518.7292350561245 L227.83477314346987,520.6435607960894" stroke="black"  stroke-width="4"  fill="red"/></svg>